<?xml version="1.0" standalone="yes"?>
<svg xmlns="http://www.w3.org/2000/svg" width="640" height="480">
<path style="fill:#ffffff; stroke:none;" d="M0 0L0 480L640 480L640 0L0 0z"/>
<path style="fill:#f1a996; stroke:none;" d="M313 134L318 135L313 134z"/>
<path style="fill:#e57a61; stroke:none;" d="M310 136L314 136L310 136z"/>
<path style="fill:#df5121; stroke:none;" d="M308 148C287.865 148 266.99 146.445 247 148.845C237.754 149.955 227.658 152.054 221.8 160.039C213.041 171.98 215 188.115 215 202C209.053 202 189.501 206.755 201.318 216.142C205.21 219.234 212.374 218 217 218L254 218L385 218L420 218C423.952 218 430.224 219.129 433.682 216.821C444.799 209.402 429.428 202.053 423 202C423 187.961 423.825 170.716 414.468 159.04C406.566 149.181 393.562 148.468 382 147.961L324 147C323.988 130.93 308.012 133.117 308 148z"/>
<path style="fill:#f1a996; stroke:none;" d="M320 135L321 136L320 135M309 137L310 138L309 137z"/>
<path style="fill:#eb8a70; stroke:none;" d="M324.333 139.667L324.667 140.333L324.333 139.667z"/>
<path style="fill:#f1a996; stroke:none;" d="M307 140L307 147C308.059 144.466 308.059 142.534 307 140z"/>
<path style="fill:#e4623e; stroke:none;" d="M324 141L324 147C324.951 144.715 324.951 143.285 324 141z"/>
<path style="fill:#fbeede; stroke:none;" d="M325 141L325 146L325 141z"/>
<path style="fill:#f7dcca; stroke:none;" d="M267 146C277.512 150.411 295.566 147 307 147C296.488 142.589 278.434 146 267 146z"/>
<path style="fill:#f0bba4; stroke:none;" d="M325 146L334 147L325 146z"/>
<path style="fill:#f39c82; stroke:none;" d="M334 146C338.724 147.982 344.91 147 350 147C345.276 145.018 339.09 146 334 146z"/>
<path style="fill:#e9886a; stroke:none;" d="M350 146C356.687 148.806 366.767 147 374 147C367.313 144.194 357.233 146 350 146z"/>
<path style="fill:#efab8d; stroke:none;" d="M374 146L382 147L374 146z"/>
<path style="fill:#f7dcca; stroke:none;" d="M248 147L254 148L248 147z"/>
<path style="fill:#e9987d; stroke:none;" d="M254 147L262 148L254 147z"/>
<path style="fill:#e4623e; stroke:none;" d="M262 147C273.939 152.01 294.997 148 308 148C296.061 142.99 275.003 147 262 147M377 147L388 148L377 147z"/>
<path style="fill:#f39c82; stroke:none;" d="M388.667 147.333L389.333 147.667L388.667 147.333z"/>
<path style="fill:#f7cdbd; stroke:none;" d="M390.667 147.333L391.333 147.667L390.667 147.333z"/>
<path style="fill:#f7c6af; stroke:none;" d="M243 148L246 149L243 148z"/>
<path style="fill:#e67654; stroke:none;" d="M246 148L250 149L246 148z"/>
<path style="fill:#e57a61; stroke:none;" d="M392 148L395 149L392 148z"/>
<path style="fill:#f7cdbd; stroke:none;" d="M395 148L398 149L395 148z"/>
<path style="fill:#e9886a; stroke:none;" d="M240.667 149.333L241.333 149.667L240.667 149.333z"/>
<path style="fill:#f1a996; stroke:none;" d="M398.667 149.333L399.333 149.667L398.667 149.333M235 150L238 151L235 150z"/>
<path style="fill:#efab8d; stroke:none;" d="M401.667 150.333L402.333 150.667L401.667 150.333z"/>
<path style="fill:#f1a996; stroke:none;" d="M232.667 151.333L233.333 151.667L232.667 151.333z"/>
<path style="fill:#f7c6af; stroke:none;" d="M404.667 151.333L405.333 151.667L404.667 151.333z"/>
<path style="fill:#f39c82; stroke:none;" d="M230.667 152.333L231.333 152.667L230.667 152.333z"/>
<path style="fill:#eb8a70; stroke:none;" d="M406 152L407 153L406 152z"/>
<path style="fill:#f1a996; stroke:none;" d="M408 153L409 154L408 153z"/>
<path style="fill:#f0bba4; stroke:none;" d="M227 154L228 155L227 154z"/>
<path style="fill:#eb8a70; stroke:none;" d="M409 154L410 155L409 154z"/>
<path style="fill:#e9987d; stroke:none;" d="M226 155L227 156L226 155z"/>
<path style="fill:#f0bba4; stroke:none;" d="M412 156L413 157L412 156z"/>
<path style="fill:#f7cdbd; stroke:none;" d="M223 157L224 158L223 157z"/>
<path style="fill:#f0bba4; stroke:none;" d="M413 157L414 158L413 157z"/>
<path style="fill:#efab8d; stroke:none;" d="M221 160L222 161L221 160z"/>
<path style="fill:#e9987d; stroke:none;" d="M415 160L416 161L415 160z"/>
<path style="fill:#f7c6af; stroke:none;" d="M220 161L221 162L220 161z"/>
<path style="fill:#f0bba4; stroke:none;" d="M416 161L417 162L416 161z"/>
<path style="fill:#f1a996; stroke:none;" d="M219 163L220 164L219 163M417 163L418 164L417 163z"/>
<path style="fill:#e67654; stroke:none;" d="M218.333 165.667L218.667 166.333L218.333 165.667z"/>
<path style="fill:#e57a61; stroke:none;" d="M418.333 165.667L418.667 166.333L418.333 165.667z"/>
<path style="fill:#e9987d; stroke:none;" d="M217.333 167.667L217.667 168.333L217.333 167.667z"/>
<path style="fill:#f39c82; stroke:none;" d="M419.333 167.667L419.667 168.333L419.333 167.667z"/>
<path style="fill:#f1a996; stroke:none;" d="M216.333 170.667L216.667 171.333L216.333 170.667z"/>
<path style="fill:#f39c82; stroke:none;" d="M420.333 170.667L420.667 171.333L420.333 170.667z"/>
<path style="fill:#f7c6af; stroke:none;" d="M215.333 173.667L215.667 174.333L215.333 173.667M421.333 173.667L421.667 174.333L421.333 173.667z"/>
<path style="fill:#f39c82; stroke:none;" d="M215.333 175.667L215.667 176.333L215.333 175.667z"/>
<path style="fill:#eb8a70; stroke:none;" d="M421.333 175.667L421.667 176.333L421.333 175.667z"/>
<path style="fill:#f1a996; stroke:none;" d="M214 179L214 183L214 179z"/>
<path style="fill:#f39c82; stroke:none;" d="M422 179L422 183L422 179z"/>
<path style="fill:#e4623e; stroke:none;" d="M214 183L214 202C216.02 197.187 216.02 187.813 214 183z"/>
<path style="fill:#f7c6af; stroke:none;" d="M423 187L423 191L423 187z"/>
<path style="fill:#f7dcca; stroke:none;" d="M213 191L213 199C214.161 196.23 214.161 193.77 213 191z"/>
<path style="fill:#f1a996; stroke:none;" d="M423 191L423 202L430 202L424 201L423 191z"/>
<path style="fill:#e9987d; stroke:none;" d="M204 201L214 202L204 201z"/>
<path style="fill:#f7dcca; stroke:none;" d="M430.667 201.333L431.333 201.667L430.667 201.333z"/>
<path style="fill:#e57a61; stroke:none;" d="M202.667 202.333L203.333 202.667L202.667 202.333z"/>
<path style="fill:#e67654; stroke:none;" d="M430 202L433 203L430 202z"/>
<path style="fill:#f0bba4; stroke:none;" d="M200 203L201 204L200 203z"/>
<path style="fill:#eb8a70; stroke:none;" d="M434 203L435 204L434 203z"/>
<path style="fill:#e67654; stroke:none;" d="M199 204L199 207L199 204z"/>
<path style="fill:#f7cdbd; stroke:none;" d="M436 204L437 205L436 204z"/>
<path style="fill:#f0bba4; stroke:none;" d="M198 205L198 215C199.346 211.793 199.346 208.207 198 205z"/>
<path style="fill:#e4623e; stroke:none;" d="M436 205L436 215C437.346 211.793 437.346 208.207 436 205z"/>
<path style="fill:#f7dcca; stroke:none;" d="M437 205L437 215C438.346 211.793 438.346 208.207 437 205z"/>
<path style="fill:#f1a996; stroke:none;" d="M199 215L200 216L199 215z"/>
<path style="fill:#f0bba4; stroke:none;" d="M436 215L437 216L436 215M200 216L201 217L200 216z"/>
<path style="fill:#e57a61; stroke:none;" d="M202.667 217.333L203.333 217.667L202.667 217.333z"/>
<path style="fill:#f39c82; stroke:none;" d="M433 217L434 218L433 217z"/>
<path style="fill:#e9987d; stroke:none;" d="M204 218C213.083 221.811 228.137 219 238 219C228.917 215.189 213.863 218 204 218z"/>
<path style="fill:#eb8a70; stroke:none;" d="M238 218C243.217 220.189 250.381 219 256 219L295 219L431 219C425.784 216.811 418.619 218 413 218L374 218L238 218z"/>
<path style="fill:#fbeede; stroke:none;" d="M236 219C241.463 221.292 249.113 220 255 220L294 220L430 220C424.538 217.708 416.887 219 411 219L372 219L236 219z"/>
<path style="fill:#f7dcca; stroke:none;" d="M208 220C213.951 222.497 222.58 221 229 221L275 221L433 221C427.049 218.503 418.42 220 412 220L366 220L208 220z"/>
<path style="fill:#e4623e; stroke:none;" d="M204 222L225 222L274 222L434 222C428.293 219.605 420.154 221 414 221L370 221L259 221C241.608 221 220.934 217.968 204 222z"/>
<path style="fill:#df5121; stroke:none;" d="M424 238C428.174 237.997 434.209 238.638 437.397 235.297C440.607 231.932 439.628 223.838 434.941 222.434L414 222L370 222L247 222L216 222C212.38 222.001 206.66 221.254 203.742 223.938C192.677 234.117 214.392 237.818 214.941 244.005C216.891 265.973 212.848 289.431 218.269 311C220.434 319.613 222.103 328.124 229.2 334.246C239.244 342.911 252.631 342.766 265 344.285C299.388 348.508 335.459 344 370 344C384.054 344 403.873 343.528 413.775 331.985C421.653 322.802 421.734 307.433 422.015 296L424 238z"/>
<path style="fill:#e9987d; stroke:none;" d="M436 222L437 223L436 222z"/>
<path style="fill:#e57a61; stroke:none;" d="M202 223L201 226L202 223z"/>
<path style="fill:#f7c6af; stroke:none;" d="M438 223L439 224L438 223z"/>
<path style="fill:#fbeede; stroke:none;" d="M200 225L200 234C201.256 231.006 201.256 227.994 200 225z"/>
<path style="fill:#efab8d; stroke:none;" d="M439 225L439 235C440.346 231.793 440.346 228.207 439 225z"/>
<path style="fill:#e4623e; stroke:none;" d="M201 226L201 235C202.256 232.006 202.256 228.994 201 226z"/>
<path style="fill:#f0bba4; stroke:none;" d="M436.667 236.333L437.333 236.667L436.667 236.333z"/>
<path style="fill:#e9987d; stroke:none;" d="M204.667 237.333L205.333 237.667L204.667 237.333z"/>
<path style="fill:#e57a61; stroke:none;" d="M433 237L436 238L433 237z"/>
<path style="fill:#f7dcca; stroke:none;" d="M206.667 238.333L207.333 238.667L206.667 238.333z"/>
<path style="fill:#efab8d; stroke:none;" d="M208 238L214 239L208 238z"/>
<path style="fill:#f0bba4; stroke:none;" d="M424 238L424 247L425 239L432 239L424 238z"/>
<path style="fill:#f7dcca; stroke:none;" d="M432.667 238.333L433.333 238.667L432.667 238.333z"/>
<path style="fill:#f0bba4; stroke:none;" d="M214 239L214 262C216.284 256.557 216.284 244.443 214 239z"/>
<path style="fill:#f7dcca; stroke:none;" d="M424 247L424 255C425.161 252.23 425.161 249.77 424 247z"/>
<path style="fill:#e4623e; stroke:none;" d="M423 249L423 258C424.256 255.006 424.256 251.994 423 249z"/>
<path style="fill:#e67654; stroke:none;" d="M423 258L423 263L423 258z"/>
<path style="fill:#f7cdbd; stroke:none;" d="M214 262L214 278C215.812 273.681 215.812 266.319 214 262z"/>
<path style="fill:#eb8a70; stroke:none;" d="M423 263L423 271C424.161 268.23 424.161 265.77 423 263z"/>
<path style="fill:#e4623e; stroke:none;" d="M215 271L215 284C216.591 280.209 216.591 274.791 215 271z"/>
<path style="fill:#f0bba4; stroke:none;" d="M423 271L423 284C424.591 280.209 424.591 274.791 423 271z"/>
<path style="fill:#e9987d; stroke:none;" d="M215 284L215 291C216.059 288.466 216.059 286.534 215 284z"/>
<path style="fill:#fbeede; stroke:none;" d="M423 284L423 297C424.591 293.209 424.591 287.791 423 284z"/>
<path style="fill:#e67654; stroke:none;" d="M422 290L422 298C423.161 295.23 423.161 292.77 422 290z"/>
<path style="fill:#f7c6af; stroke:none;" d="M215 291L215 295L215 291z"/>
<path style="fill:#f39c82; stroke:none;" d="M216 298L216 303L216 298z"/>
<path style="fill:#f0bba4; stroke:none;" d="M422 298L422 303L422 298z"/>
<path style="fill:#f7c6af; stroke:none;" d="M216.333 303.667L216.667 304.333L216.333 303.667z"/>
<path style="fill:#e9987d; stroke:none;" d="M421 306L421 311L421 306z"/>
<path style="fill:#f1a996; stroke:none;" d="M217 308L217 311L217 308z"/>
<path style="fill:#e67654; stroke:none;" d="M218 311L218 314L218 311z"/>
<path style="fill:#f7c6af; stroke:none;" d="M421.333 311.667L421.667 312.333L421.333 311.667z"/>
<path style="fill:#f7cdbd; stroke:none;" d="M218.333 314.667L218.667 315.333L218.333 314.667z"/>
<path style="fill:#e9886a; stroke:none;" d="M420 314L420 317L420 314z"/>
<path style="fill:#e9987d; stroke:none;" d="M219 316L219 319L219 316z"/>
<path style="fill:#f7dcca; stroke:none;" d="M420.333 317.667L420.667 318.333L420.333 317.667z"/>
<path style="fill:#e9987d; stroke:none;" d="M419.333 319.667L419.667 320.333L419.333 319.667z"/>
<path style="fill:#f0bba4; stroke:none;" d="M220.333 320.667L220.667 321.333L220.333 320.667z"/>
<path style="fill:#f7dcca; stroke:none;" d="M221.333 323.667L221.667 324.333L221.333 323.667z"/>
<path style="fill:#f7c6af; stroke:none;" d="M418.333 323.667L418.667 324.333L418.333 323.667z"/>
<path style="fill:#f7cdbd; stroke:none;" d="M222.333 325.667L222.667 326.333L222.333 325.667z"/>
<path style="fill:#efab8d; stroke:none;" d="M417.333 325.667L417.667 326.333L417.333 325.667z"/>
<path style="fill:#f39c82; stroke:none;" d="M223 327L224 328L223 327z"/>
<path style="fill:#f0bba4; stroke:none;" d="M416 328L417 329L416 328z"/>
<path style="fill:#efab8d; stroke:none;" d="M225 330L226 331L225 330z"/>
<path style="fill:#f39c82; stroke:none;" d="M226 331L227 332L226 331z"/>
<path style="fill:#efab8d; stroke:none;" d="M414 331L415 332L414 331z"/>
<path style="fill:#eb8a70; stroke:none;" d="M227 332L228 333L227 332z"/>
<path style="fill:#f39c82; stroke:none;" d="M413 332L414 333L413 332z"/>
<path style="fill:#efab8d; stroke:none;" d="M412 333L413 334L412 333z"/>
<path style="fill:#f39c82; stroke:none;" d="M411 334L412 335L411 334z"/>
<path style="fill:#e67654; stroke:none;" d="M230.667 335.333L231.333 335.667L230.667 335.333z"/>
<path style="fill:#efab8d; stroke:none;" d="M410 335L411 336L410 335z"/>
<path style="fill:#f0bba4; stroke:none;" d="M233 337L234 338L233 337z"/>
<path style="fill:#f1a996; stroke:none;" d="M407 337L408 338L407 337z"/>
<path style="fill:#e67654; stroke:none;" d="M235.667 338.333L236.333 338.667L235.667 338.333z"/>
<path style="fill:#eb8a70; stroke:none;" d="M404.667 338.333L405.333 338.667L404.667 338.333z"/>
<path style="fill:#f1a996; stroke:none;" d="M236.667 339.333L237.333 339.667L236.667 339.333z"/>
<path style="fill:#f7dcca; stroke:none;" d="M403.667 339.333L404.333 339.667L403.667 339.333z"/>
<path style="fill:#e9987d; stroke:none;" d="M239.667 340.333L240.333 340.667L239.667 340.333z"/>
<path style="fill:#f7c6af; stroke:none;" d="M400.667 340.333L401.333 340.667L400.667 340.333z"/>
<path style="fill:#f1a996; stroke:none;" d="M242.667 341.333L243.333 341.667L242.667 341.333z"/>
<path style="fill:#e67654; stroke:none;" d="M394.667 341.333L395.333 341.667L394.667 341.333z"/>
<path style="fill:#f39c82; stroke:none;" d="M396.667 341.333L397.333 341.667L396.667 341.333z"/>
<path style="fill:#fbeede; stroke:none;" d="M398.667 341.333L399.333 341.667L398.667 341.333z"/>
<path style="fill:#efab8d; stroke:none;" d="M246.667 342.333L247.333 342.667L246.667 342.333z"/>
<path style="fill:#e9886a; stroke:none;" d="M390 342L393 343L390 342z"/>
<path style="fill:#f7cdbd; stroke:none;" d="M393.667 342.333L394.333 342.667L393.667 342.333z"/>
<path style="fill:#efab8d; stroke:none;" d="M250 343L254 344L250 343z"/>
<path style="fill:#e4623e; stroke:none;" d="M254 343L258 344L254 343z"/>
<path style="fill:#e57a61; stroke:none;" d="M382.667 343.333L383.333 343.667L382.667 343.333z"/>
<path style="fill:#e9987d; stroke:none;" d="M384 343L387 344L384 343z"/>
<path style="fill:#f7c6af; stroke:none;" d="M387 343L390 344L387 343z"/>
<path style="fill:#f1a996; stroke:none;" d="M260 344L267 345L260 344z"/>
<path style="fill:#e4623e; stroke:none;" d="M342 344C348.687 346.806 358.767 345 366 345C359.313 342.194 349.233 344 342 344z"/>
<path style="fill:#e9886a; stroke:none;" d="M366 344L374 345L366 344z"/>
<path style="fill:#f0bba4; stroke:none;" d="M374 344L379 345L374 344z"/>
<path style="fill:#fbeede; stroke:none;" d="M379 344L384 345L379 344z"/>
<path style="fill:#f7cdbd; stroke:none;" d="M273 345L286 346L273 345z"/>
<path style="fill:#f0bba4; stroke:none;" d="M286 345C291.216 347.189 298.381 346 304 346L342 346C336.784 343.811 329.619 345 324 345L286 345z"/>
<path style="fill:#f7cdbd; stroke:none;" d="M342 345C346.724 346.982 352.91 346 358 346C353.276 344.018 347.09 345 342 345z"/>
</svg>
