<?xml version="1.0" standalone="yes"?>
<svg xmlns="http://www.w3.org/2000/svg" width="640" height="480">
<path style="fill:#ffffff; stroke:none;" d="M0 0L0 480L640 480L640 0L0 0z"/>
<path style="fill:#f7dcd0; stroke:none;" d="M290 50L294 51L290 50z"/>
<path style="fill:#e05223; stroke:none;" d="M279 203C285.751 187.349 284.366 167.491 289 151L290 158L291 156C293.163 163.866 291 174.682 291 183L293 183L294 152C297.976 163.745 300.435 179.628 301 192L302 190L303 193C305.8 186.118 300.324 175.436 300 168L301 172C303.221 166.308 299.441 156.849 298 151C303.241 147.602 301 136.653 301 131L300.999 71.0008C300.965 65.9782 298.921 52.0919 292.985 51.3372C281.76 49.9102 284 78.332 284 85L285.582 155.039L279 203z"/>
<path style="fill:#e98261; stroke:none;" d="M291 52L294 53L291 52z"/>
<path style="fill:#ea9072; stroke:none;" d="M296 52L297 53L296 52z"/>
<path style="fill:#ffffff; stroke:none;" d="M288 63L296 63C295.991 51.5306 288.04 51.648 288 63z"/>
<path style="fill:#f1b4a2; stroke:none;" d="M294 53L295 54L294 53M286 54L287 55L286 54z"/>
<path style="fill:#f0ab96; stroke:none;" d="M298.333 54.6667L298.667 55.3333L298.333 54.6667z"/>
<path style="fill:#f7dcd0; stroke:none;" d="M285 55L285 63C286.161 60.2301 286.161 57.7699 285 55z"/>
<path style="fill:#f5cabb; stroke:none;" d="M296 55L296 63C297.161 60.2301 297.161 57.7698 296 55z"/>
<path style="fill:#e57254; stroke:none;" d="M287 56L287 63C288.059 60.4657 288.059 58.5343 287 56z"/>
<path style="fill:#e98261; stroke:none;" d="M298 56L298 63C299.059 60.4657 299.059 58.5343 298 56M284.667 63.3333L285.333 63.6667L284.667 63.3333z"/>
<path style="fill:#e57254; stroke:none;" d="M288 63L297 64L288 63z"/>
<path style="fill:#e98261; stroke:none;" d="M299 63L300 64L299 63z"/>
<path style="fill:#f1c2ac; stroke:none;" d="M300 63L301 64L300 63z"/>
<path style="fill:#f0ab96; stroke:none;" d="M283 64L283 150C285.395 144.293 284 136.154 284 130L284 86C284 79.3141 285.599 70.194 283 64z"/>
<path style="fill:#f5cabb; stroke:none;" d="M301 65L301 150C303.395 144.293 302 136.154 302 130L302 87C302 80.3141 303.599 71.194 301 65z"/>
<path style="fill:#ffffff; stroke:none;" d="M291 69L291 73L294 73L294 69L291 69z"/>
<path style="fill:#f7dcd0; stroke:none;" d="M290.333 70.6667L290.667 71.3333L290.333 70.6667z"/>
<path style="fill:#f1b4a2; stroke:none;" d="M294.333 70.6667L294.667 71.3333L294.333 70.6667z"/>
<path style="fill:#ea9072; stroke:none;" d="M290 72L291 73L290 72M291 73L294 74L291 73z"/>
<path style="fill:#f1b4a2; stroke:none;" d="M291 139L294 143C294.615 140.346 293.467 139.791 291 139z"/>
<path style="fill:#f7dcd0; stroke:none;" d="M290 140C290.839 142.626 291.374 143.161 294 144L290 140z"/>
<path style="fill:#ffffff; stroke:none;" d="M291 140L291 143L294 143L294 140L291 140z"/>
<path style="fill:#ec9d83; stroke:none;" d="M300 150L301 151L300 150z"/>
<path style="fill:#f1b4a2; stroke:none;" d="M289 151L289 155L289 151z"/>
<path style="fill:#ec9d83; stroke:none;" d="M298.333 151.667L298.667 152.333L298.333 151.667M294 152C294.032 154.875 293.792 157.074 296 159L294 152z"/>
<path style="fill:#ea9072; stroke:none;" d="M285 154L285 157L285 154z"/>
<path style="fill:#ffffff; stroke:none;" d="M288 154L288 159L288 154z"/>
<path style="fill:#e46a42; stroke:none;" d="M289 155L291 163L292 156L291 158L289 155z"/>
<path style="fill:#f0ab96; stroke:none;" d="M299.333 155.667L299.667 156.333L299.333 155.667z"/>
<path style="fill:#ea9072; stroke:none;" d="M287 156L287 159L287 156z"/>
<path style="fill:#f7dcd0; stroke:none;" d="M284 157L284 160L284 157z"/>
<path style="fill:#e46a42; stroke:none;" d="M299.333 157.667L299.667 158.333L299.333 157.667z"/>
<path style="fill:#f5cabb; stroke:none;" d="M300 158L300 161L300 158M287 159L287 161L289 161L289 159L287 159z"/>
<path style="fill:#e05223; stroke:none;" d="M289 159L289 164L289 159z"/>
<path style="fill:#f1b4a2; stroke:none;" d="M295 159L295 164L295 159z"/>
<path style="fill:#e98261; stroke:none;" d="M284.333 160.667L284.667 161.333L284.333 160.667z"/>
<path style="fill:#f0ab96; stroke:none;" d="M290.333 160.667L290.667 161.333L290.333 160.667z"/>
<path style="fill:#ffffff; stroke:none;" d="M287 161L287 166L287 161z"/>
<path style="fill:#ec9d83; stroke:none;" d="M288.333 161.667L288.667 162.333L288.333 161.667z"/>
<path style="fill:#e98261; stroke:none;" d="M300.333 161.667L300.667 162.333L300.333 161.667M286 162L286 165L286 162z"/>
<path style="fill:#f7dcd0; stroke:none;" d="M290 162L290 168C290.951 165.715 290.951 164.285 290 162z"/>
<path style="fill:#f0ab96; stroke:none;" d="M283.333 163.667L283.667 164.333L283.333 163.667z"/>
<path style="fill:#e57254; stroke:none;" d="M288 163L290 166L288 163z"/>
<path style="fill:#e46a42; stroke:none;" d="M295 164L293 183L291 183L291 179C289.159 183.515 291.362 188.324 291.829 193L293 220C295.292 214.538 294 206.887 294 201C294 188.179 293.744 176.452 297 164L295 164z"/>
<path style="fill:#e57254; stroke:none;" d="M299 164L299 168L299 164z"/>
<path style="fill:#f7dcd0; stroke:none;" d="M286 165L288 168L286 165z"/>
<path style="fill:#e05223; stroke:none;" d="M288 165L287 179C288.994 174.851 289.806 169.305 288 165z"/>
<path style="fill:#f5cabb; stroke:none;" d="M296 165L297 173L296 165z"/>
<path style="fill:#e98261; stroke:none;" d="M301.333 165.667L301.667 166.333L301.333 165.667z"/>
<path style="fill:#f7dcd0; stroke:none;" d="M282 166L282 169L282 166z"/>
<path style="fill:#ec9d83; stroke:none;" d="M289.333 166.667L289.667 167.333L289.333 166.667z"/>
<path style="fill:#ffffff; stroke:none;" d="M286 167C283.556 197.709 272.003 228.153 272 259C277.786 257.308 277.247 243.382 277.87 238L285.056 185C285.524 179.35 288.565 172.313 286 167z"/>
<path style="fill:#ea9072; stroke:none;" d="M285.333 168.667L285.667 169.333L285.333 168.667z"/>
<path style="fill:#ec9d83; stroke:none;" d="M287.333 168.667L287.667 169.333L287.333 168.667z"/>
<path style="fill:#f5cabb; stroke:none;" d="M289 168L289 171L291 171L291 168L289 168z"/>
<path style="fill:#e46a42; stroke:none;" d="M300 168L301 178L304 177L303 170L302 172L300 168z"/>
<path style="fill:#f1c2ac; stroke:none;" d="M302.333 168.667L302.667 169.333L302.333 168.667z"/>
<path style="fill:#ec9d83; stroke:none;" d="M282.333 169.667L282.667 170.333L282.333 169.667z"/>
<path style="fill:#ea9072; stroke:none;" d="M297.333 169.667L297.667 170.333L297.333 169.667z"/>
<path style="fill:#f1c2ac; stroke:none;" d="M285.333 170.667L285.667 171.333L285.333 170.667z"/>
<path style="fill:#e05223; stroke:none;" d="M295 170L295 174L295 170z"/>
<path style="fill:#ffffff; stroke:none;" d="M289 171C288.392 200.459 279.267 229.506 278 259L288 259L289 196C289.003 188.224 292.079 178.337 289 171z"/>
<path style="fill:#ec9d83; stroke:none;" d="M290 171L290 179C291.161 176.23 291.161 173.77 290 171z"/>
<path style="fill:#f0ab96; stroke:none;" d="M294.333 172.667L294.667 173.333L294.333 172.667M296.333 172.667L296.667 173.333L296.333 172.667z"/>
<path style="fill:#f7dcd0; stroke:none;" d="M297 173L298 188C300.749 183.796 299.084 177.336 297 173z"/>
<path style="fill:#ea9072; stroke:none;" d="M281.333 174.667L281.667 175.333L281.333 174.667M284 174L284 177L284 174z"/>
<path style="fill:#ec9d83; stroke:none;" d="M288.333 174.667L288.667 175.333L288.333 174.667z"/>
<path style="fill:#f7dcd0; stroke:none;" d="M294 174L294 259C296.395 253.293 295 245.154 295 239L295 196C295.003 188.722 296.98 180.908 294 174z"/>
<path style="fill:#e46a42; stroke:none;" d="M295 174L295 177L297 177L297 174L295 174z"/>
<path style="fill:#ea9072; stroke:none;" d="M303.333 174.667L303.667 175.333L303.333 174.667z"/>
<path style="fill:#f0ab96; stroke:none;" d="M286.333 175.667L286.667 176.333L286.333 175.667z"/>
<path style="fill:#f5cabb; stroke:none;" d="M288.333 176.667L288.667 177.333L288.333 176.667z"/>
<path style="fill:#ec9d83; stroke:none;" d="M298.333 176.667L298.667 177.333L298.333 176.667z"/>
<path style="fill:#f5cabb; stroke:none;" d="M280.333 177.667L280.667 178.333L280.333 177.667z"/>
<path style="fill:#e46a42; stroke:none;" d="M286 177L287 181L286 177z"/>
<path style="fill:#ea9072; stroke:none;" d="M295.333 177.667L295.667 178.333L295.333 177.667z"/>
<path style="fill:#e05223; stroke:none;" d="M296 177L296 183C296.951 180.715 296.951 179.285 296 177M303 177L303 181L303 177z"/>
<path style="fill:#f1c2ac; stroke:none;" d="M304.333 177.667L304.667 178.333L304.333 177.667z"/>
<path style="fill:#ea9072; stroke:none;" d="M302 178L302 182L302 178z"/>
<path style="fill:#ec9d83; stroke:none;" d="M280.333 179.667L280.667 180.333L280.333 179.667z"/>
<path style="fill:#f1b4a2; stroke:none;" d="M295.333 179.667L295.667 180.333L295.333 179.667z"/>
<path style="fill:#f0ab96; stroke:none;" d="M297.333 179.667L297.667 180.333L297.333 179.667z"/>
<path style="fill:#e46a42; stroke:none;" d="M304 179L302 185L303 183C306.402 191.01 308.31 201.325 309 210C312.707 204.223 306.781 185.193 304 179z"/>
<path style="fill:#ec9d83; stroke:none;" d="M283 180L283 183L283 180z"/>
<path style="fill:#e05223; stroke:none;" d="M286 180L286 186C286.951 183.715 286.951 182.285 286 180z"/>
<path style="fill:#f1c2ac; stroke:none;" d="M285.333 181.667L285.667 182.333L285.333 181.667z"/>
<path style="fill:#ec9d83; stroke:none;" d="M287.333 181.667L287.667 182.333L287.333 181.667z"/>
<path style="fill:#e46a42; stroke:none;" d="M297 181L296 186C297.475 184.065 297.791 183.307 297 181z"/>
<path style="fill:#f1b4a2; stroke:none;" d="M305 182L305 185L305 182M279.333 183.667L279.667 184.333L279.333 183.667z"/>
<path style="fill:#ec9d83; stroke:none;" d="M285.333 183.667L285.667 184.333L285.333 183.667z"/>
<path style="fill:#f1c2ac; stroke:none;" d="M287.333 183.667L287.667 184.333L287.333 183.667z"/>
<path style="fill:#ec9d83; stroke:none;" d="M303 183L304 190C304.965 187.294 304.466 185.45 303 183z"/>
<path style="fill:#e46a42; stroke:none;" d="M279.333 185.667L279.667 186.333L279.333 185.667z"/>
<path style="fill:#e57254; stroke:none;" d="M285 185L287 188L285 185z"/>
<path style="fill:#e05223; stroke:none;" d="M290 185L290 212C292.541 205.945 292.541 191.055 290 185M297 185L298 199C299.703 194.902 298.731 189.014 297 185z"/>
<path style="fill:#ec9d83; stroke:none;" d="M282.333 186.667L282.667 187.333L282.333 186.667z"/>
<path style="fill:#f7dcd0; stroke:none;" d="M289 186L289 193C290.059 190.466 290.059 188.534 289 186z"/>
<path style="fill:#ffffff; stroke:none;" d="M295 186L295 259L304 259L299.155 211C298.22 203.185 298.734 193.023 295 186z"/>
<path style="fill:#ea9072; stroke:none;" d="M296.333 186.667L296.667 187.333L296.333 186.667z"/>
<path style="fill:#ffffff; stroke:none;" d="M299 186L307 259L310 259C309.955 242.751 306.164 226.03 303.59 210C302.365 202.378 302.162 193.043 299 186z"/>
<path style="fill:#e57254; stroke:none;" d="M300 186L300 189L300 186z"/>
<path style="fill:#f1c2ac; stroke:none;" d="M278 187L278 190L278 187z"/>
<path style="fill:#ec9d83; stroke:none;" d="M306.333 187.667L306.667 188.333L306.333 187.667z"/>
<path style="fill:#f5cabb; stroke:none;" d="M282.333 188.667L282.667 189.333L282.333 188.667z"/>
<path style="fill:#e05223; stroke:none;" d="M285 188L283 207C285.58 202.146 287.156 193.149 285 188z"/>
<path style="fill:#ea9072; stroke:none;" d="M286.333 188.667L286.667 189.333L286.333 188.667z"/>
<path style="fill:#f1b4a2; stroke:none;" d="M296.333 188.667L296.667 189.333L296.333 188.667z"/>
<path style="fill:#f0ab96; stroke:none;" d="M298.333 188.667L298.667 189.333L298.333 188.667z"/>
<path style="fill:#f1b4a2; stroke:none;" d="M300 189L300 192L300 189z"/>
<path style="fill:#e98261; stroke:none;" d="M278.333 190.667L278.667 191.333L278.333 190.667z"/>
<path style="fill:#f0ab96; stroke:none;" d="M284 190L284 193L284 190z"/>
<path style="fill:#f1b4a2; stroke:none;" d="M286.333 190.667L286.667 191.333L286.333 190.667z"/>
<path style="fill:#ec9d83; stroke:none;" d="M291 190L291 200C292.346 196.793 292.346 193.207 291 190z"/>
<path style="fill:#e98261; stroke:none;" d="M298.333 190.667L298.667 191.333L298.333 190.667z"/>
<path style="fill:#e46a42; stroke:none;" d="M302 190L303 208L306 206L307 215C310.816 209.087 305.293 198.731 305 192L302 190z"/>
<path style="fill:#ea9072; stroke:none;" d="M304 190L306 193L304 190z"/>
<path style="fill:#f7dcd0; stroke:none;" d="M307 190L307 193L307 190z"/>
<path style="fill:#e98261; stroke:none;" d="M281.333 191.667L281.667 192.333L281.333 191.667z"/>
<path style="fill:#f0ab96; stroke:none;" d="M277.333 193.667L277.667 194.333L277.333 193.667z"/>
<path style="fill:#f1c2ac; stroke:none;" d="M281.333 193.667L281.667 194.333L281.333 193.667z"/>
<path style="fill:#f1b4a2; stroke:none;" d="M289 193L289 199C289.951 196.715 289.951 195.285 289 193M305 193L305 196L305 193z"/>
<path style="fill:#ec9d83; stroke:none;" d="M297 194L297 197L297 194z"/>
<path style="fill:#ea9072; stroke:none;" d="M301.333 194.667L301.667 195.333L301.333 194.667z"/>
<path style="fill:#e46a42; stroke:none;" d="M277 195L276 216C280.703 211.953 280.587 199.71 277 195z"/>
<path style="fill:#f1c2ac; stroke:none;" d="M299 195L299 198L299 195z"/>
<path style="fill:#e98261; stroke:none;" d="M303 195L303 199L303 195z"/>
<path style="fill:#e57254; stroke:none;" d="M280 196L280 199L280 196z"/>
<path style="fill:#f0ab96; stroke:none;" d="M285.333 196.667L285.667 197.333L285.333 196.667z"/>
<path style="fill:#f5cabb; stroke:none;" d="M301.333 196.667L301.667 197.333L301.333 196.667z"/>
<path style="fill:#ea9072; stroke:none;" d="M305 196L305 198L307 196L305 196z"/>
<path style="fill:#ec9d83; stroke:none;" d="M308.333 196.667L308.667 197.333L308.333 196.667z"/>
<path style="fill:#f1c2ac; stroke:none;" d="M276.333 197.667L276.667 198.333L276.333 197.667z"/>
<path style="fill:#ec9d83; stroke:none;" d="M283.333 197.667L283.667 198.333L283.333 197.667z"/>
<path style="fill:#f1c2ac; stroke:none;" d="M306 197L306 200L306 197z"/>
<path style="fill:#f7dcd0; stroke:none;" d="M285 198L285 203L285 198z"/>
<path style="fill:#e46a42; stroke:none;" d="M299 198L298 203C299.318 201.074 299.651 200.234 299 198z"/>
<path style="fill:#ea9072; stroke:none;" d="M276.333 199.667L276.667 200.333L276.333 199.667z"/>
<path style="fill:#f1b4a2; stroke:none;" d="M280.333 199.667L280.667 200.333L280.333 199.667z"/>
<path style="fill:#ea9072; stroke:none;" d="M289 199L289 212C290.591 208.209 290.591 202.791 289 199M304 199L304 203L304 199z"/>
<path style="fill:#f7dcd0; stroke:none;" d="M309.333 199.667L309.667 200.333L309.333 199.667z"/>
<path style="fill:#f1b4a2; stroke:none;" d="M291 200L291 205L291 200z"/>
<path style="fill:#ec9d83; stroke:none;" d="M302 200L302 203L302 200z"/>
<path style="fill:#ea9072; stroke:none;" d="M306 200L306 202L308 202L308 200L306 200z"/>
<path style="fill:#f7dcd0; stroke:none;" d="M280.333 201.667L280.667 202.333L280.333 201.667z"/>
<path style="fill:#e05223; stroke:none;" d="M299 201L299 209C300.161 206.23 300.161 203.77 299 201z"/>
<path style="fill:#ec9d83; stroke:none;" d="M309.333 201.667L309.667 202.333L309.333 201.667z"/>
<path style="fill:#f1c2ac; stroke:none;" d="M307 202L308 210C309.157 207.034 308.62 204.705 307 202z"/>
<path style="fill:#f0ab96; stroke:none;" d="M275.333 203.667L275.667 204.333L275.333 203.667z"/>
<path style="fill:#ec9d83; stroke:none;" d="M277 203L277 207L277 203M284.333 203.667L284.667 204.333L284.333 203.667M298 203L298 206L298 203z"/>
<path style="fill:#f1b4a2; stroke:none;" d="M282 204L282 207L282 204z"/>
<path style="fill:#ea9072; stroke:none;" d="M300 204L300 209L300 204z"/>
<path style="fill:#f1c2ac; stroke:none;" d="M279.333 205.667L279.667 206.333L279.333 205.667M284 205L284 208L284 205z"/>
<path style="fill:#ffffff; stroke:none;" d="M291 205L291 259C295.308 248.734 292 231.158 292 220L291 205z"/>
<path style="fill:#f0ab96; stroke:none;" d="M310.333 205.667L310.667 206.333L310.333 205.667z"/>
<path style="fill:#f1c2ac; stroke:none;" d="M305 206L306 217C308.004 213.528 307.019 209.365 305 206M274.333 207.667L274.667 208.333L274.333 207.667z"/>
<path style="fill:#e05223; stroke:none;" d="M275 207L274 216C275.57 213.046 276.231 210.155 275 207z"/>
<path style="fill:#e46a42; stroke:none;" d="M282 207L282 218L284 207L282 207z"/>
<path style="fill:#e98261; stroke:none;" d="M292 207L292 232C294.413 226.25 294.413 212.75 292 207z"/>
<path style="fill:#e05223; stroke:none;" d="M304 207L305 218C306.46 214.421 305.649 210.43 304 207z"/>
<path style="fill:#ec9d83; stroke:none;" d="M276 208L276 212L276 208z"/>
<path style="fill:#f1b4a2; stroke:none;" d="M303.333 208.667L303.667 209.333L303.333 208.667z"/>
<path style="fill:#f7dcd0; stroke:none;" d="M311.333 208.667L311.667 209.333L311.333 208.667z"/>
<path style="fill:#e98261; stroke:none;" d="M274.333 209.667L274.667 210.333L274.333 209.667z"/>
<path style="fill:#e57254; stroke:none;" d="M299 209L299 212L301 209L299 209z"/>
<path style="fill:#e05223; stroke:none;" d="M310 209L310 213L310 209z"/>
<path style="fill:#ec9d83; stroke:none;" d="M278.333 210.667L278.667 211.333L278.333 210.667z"/>
<path style="fill:#f7dcd0; stroke:none;" d="M281.333 210.667L281.667 211.333L281.333 210.667z"/>
<path style="fill:#e05223; stroke:none;" d="M300 210L300 216C300.951 213.715 300.951 212.285 300 210z"/>
<path style="fill:#e98261; stroke:none;" d="M305.333 210.667L305.667 211.333L305.333 210.667z"/>
<path style="fill:#ec9d83; stroke:none;" d="M308 210L308 212L310 210L308 210M311.333 210.667L311.667 211.333L311.333 210.667z"/>
<path style="fill:#f0ab96; stroke:none;" d="M283 211L283 214L283 211z"/>
<path style="fill:#f5cabb; stroke:none;" d="M309 211L309 217C310.336 214.686 310.202 213.404 309 211M273 212L273 215L273 212z"/>
<path style="fill:#ea9072; stroke:none;" d="M275 212L275 214L277 214L277 212L275 212z"/>
<path style="fill:#f5cabb; stroke:none;" d="M278.333 212.667L278.667 213.333L278.333 212.667z"/>
<path style="fill:#ec9d83; stroke:none;" d="M281.333 212.667L281.667 213.333L281.333 212.667z"/>
<path style="fill:#e46a42; stroke:none;" d="M289 212L289 223L291 223L291 212L289 212z"/>
<path style="fill:#f1b4a2; stroke:none;" d="M299.333 212.667L299.667 213.333L299.333 212.667M301.333 212.667L301.667 213.333L301.333 212.667z"/>
<path style="fill:#e98261; stroke:none;" d="M304.333 212.667L304.667 213.333L304.333 212.667z"/>
<path style="fill:#e46a42; stroke:none;" d="M311 212L311 219C312.802 216.412 312.591 214.714 311 212z"/>
<path style="fill:#f5cabb; stroke:none;" d="M275 214L274 223C275.767 220.049 276.312 217.218 275 214z"/>
<path style="fill:#e57254; stroke:none;" d="M301 214L300 220C301.305 217.819 301.736 216.433 301 214z"/>
<path style="fill:#f1b4a2; stroke:none;" d="M304.333 214.667L304.667 215.333L304.333 214.667z"/>
<path style="fill:#e05223; stroke:none;" d="M308 214L311 232C312.849 227.261 310.578 218.296 308 214z"/>
<path style="fill:#e46a42; stroke:none;" d="M273 215L267 251C270.624 244.96 276.792 220.883 273 215z"/>
<path style="fill:#e05223; stroke:none;" d="M276 216L275 226C276.527 222.823 277.299 219.329 276 216z"/>
<path style="fill:#ec9d83; stroke:none;" d="M277.333 216.667L277.667 217.333L277.333 216.667z"/>
<path style="fill:#f7dcd0; stroke:none;" d="M288 216L288 232C289.812 227.681 289.812 220.319 288 216M307 216C307.077 218.645 306.997 220.266 309 222L307 216M310 216L310 220L310 216z"/>
<path style="fill:#f5cabb; stroke:none;" d="M280 217L280 220L280 217z"/>
<path style="fill:#e05223; stroke:none;" d="M281 217L281 223C281.951 220.715 281.951 219.285 281 217M301 217L301 223C301.951 220.715 301.951 219.285 301 217z"/>
<path style="fill:#e57254; stroke:none;" d="M306 217L305 220L306 217z"/>
<path style="fill:#f7dcd0; stroke:none;" d="M313.333 217.667L313.667 218.333L313.333 217.667z"/>
<path style="fill:#ec9d83; stroke:none;" d="M272.333 218.667L272.667 219.333L272.333 218.667z"/>
<path style="fill:#f7dcd0; stroke:none;" d="M277.333 218.667L277.667 219.333L277.333 218.667z"/>
<path style="fill:#ec9d83; stroke:none;" d="M282 218L282 221L282 218z"/>
<path style="fill:#f5cabb; stroke:none;" d="M302 218L302 221L302 218z"/>
<path style="fill:#e05223; stroke:none;" d="M312 218L312 222L312 218M306 219L307 231C308.52 227.274 307.623 222.615 306 219z"/>
<path style="fill:#f1b4a2; stroke:none;" d="M308.333 219.667L308.667 220.333L308.333 219.667M311 219L310 221L312 221L311 219z"/>
<path style="fill:#ec9d83; stroke:none;" d="M313.333 219.667L313.667 220.333L313.333 219.667M280 220L280 223L280 220z"/>
<path style="fill:#e05223; stroke:none;" d="M293 220L293 259C296.296 251.144 296.296 227.856 293 220z"/>
<path style="fill:#f1b4a2; stroke:none;" d="M300.333 220.667L300.667 221.333L300.333 220.667z"/>
<path style="fill:#ec9d83; stroke:none;" d="M305 220L305 223L305 220z"/>
<path style="fill:#f7dcd0; stroke:none;" d="M271 221L271 224L271 221z"/>
<path style="fill:#ea9072; stroke:none;" d="M276.333 221.667L276.667 222.333L276.333 221.667z"/>
<path style="fill:#ec9d83; stroke:none;" d="M302.333 221.667L302.667 222.333L302.333 221.667z"/>
<path style="fill:#e57254; stroke:none;" d="M310.333 221.667L310.667 222.333L310.333 221.667z"/>
<path style="fill:#f7dcd0; stroke:none;" d="M311 221L312 226L311 221z"/>
<path style="fill:#e46a42; stroke:none;" d="M313 221C311.613 229.621 316.165 240.531 318.113 249C318.964 252.7 318.845 256.599 322 259C318.913 247.07 318.826 231.877 313 221z"/>
<path style="fill:#f5cabb; stroke:none;" d="M300 222L300 225L300 222z"/>
<path style="fill:#ea9072; stroke:none;" d="M307 222L307 225L307 222z"/>
<path style="fill:#ffffff; stroke:none;" d="M308 222C308.339 229.898 308.774 254.261 315 259C314.971 248.465 312.969 231.33 308 222z"/>
<path style="fill:#f7dcd0; stroke:none;" d="M314 222L314 225L314 222z"/>
<path style="fill:#f1b4a2; stroke:none;" d="M273 223L273 225L275 225L275 223L273 223z"/>
<path style="fill:#f1c2ac; stroke:none;" d="M276.333 223.667L276.667 224.333L276.333 223.667z"/>
<path style="fill:#e46a42; stroke:none;" d="M280 223L282 226L282 223L280 223z"/>
<path style="fill:#e05223; stroke:none;" d="M289 223L289 259C292.109 251.592 292.109 230.408 289 223z"/>
<path style="fill:#ec9d83; stroke:none;" d="M290 223L290 237C291.667 233.028 291.667 226.972 290 223z"/>
<path style="fill:#e46a42; stroke:none;" d="M301 223L302 237C304.372 232.837 303.013 227.664 303 223L301 223z"/>
<path style="fill:#ea9072; stroke:none;" d="M309 223L309 226L309 223M271.333 224.667L271.667 225.333L271.333 224.667z"/>
<path style="fill:#f7dcd0; stroke:none;" d="M273 225L272 234C273.767 231.049 274.312 228.218 273 225z"/>
<path style="fill:#e57254; stroke:none;" d="M274 225L275 229C275.553 226.992 275.303 226.668 274 225z"/>
<path style="fill:#f7dcd0; stroke:none;" d="M279.333 225.667L279.667 226.333L279.333 225.667z"/>
<path style="fill:#e05223; stroke:none;" d="M280 225L280 231C280.951 228.715 280.951 227.285 280 225z"/>
<path style="fill:#ea9072; stroke:none;" d="M311.333 225.667L311.667 226.333L311.333 225.667z"/>
<path style="fill:#f1b4a2; stroke:none;" d="M281.333 226.667L281.667 227.333L281.333 226.667z"/>
<path style="fill:#ec9d83; stroke:none;" d="M306 226L306 229L306 226z"/>
<path style="fill:#ffffff; stroke:none;" d="M312 226L312 230L312 226z"/>
<path style="fill:#ec9d83; stroke:none;" d="M272.333 227.667L272.667 228.333L272.333 227.667z"/>
<path style="fill:#e05223; stroke:none;" d="M274 227L270 259C273.007 252.03 276.89 234.087 274 227z"/>
<path style="fill:#f0ab96; stroke:none;" d="M279.333 227.667L279.667 228.333L279.333 227.667z"/>
<path style="fill:#ea9072; stroke:none;" d="M301.333 227.667L301.667 228.333L301.333 227.667z"/>
<path style="fill:#f1b4a2; stroke:none;" d="M308.333 227.667L308.667 228.333L308.333 227.667z"/>
<path style="fill:#f1c2ac; stroke:none;" d="M315.333 227.667L315.667 228.333L315.333 227.667z"/>
<path style="fill:#ec9d83; stroke:none;" d="M270.333 228.667L270.667 229.333L270.333 228.667z"/>
<path style="fill:#f7dcd0; stroke:none;" d="M313 228C312.692 231.019 312.593 233.028 315 235L313 228z"/>
<path style="fill:#f1b4a2; stroke:none;" d="M275.333 229.667L275.667 230.333L275.333 229.667z"/>
<path style="fill:#e57254; stroke:none;" d="M279 229L280 234C280.651 231.766 280.318 230.926 279 229z"/>
<path style="fill:#f1c2ac; stroke:none;" d="M301.333 229.667L301.667 230.333L301.333 229.667z"/>
<path style="fill:#f0ab96; stroke:none;" d="M303 229L303 232L303 229z"/>
<path style="fill:#e46a42; stroke:none;" d="M308 229L307 233C308.303 231.332 308.553 231.008 308 229z"/>
<path style="fill:#f0ab96; stroke:none;" d="M310.333 229.667L310.667 230.333L310.333 229.667z"/>
<path style="fill:#e46a42; stroke:none;" d="M312 231C311.304 235.13 311.466 240.31 315 243L312 231z"/>
<path style="fill:#f5cabb; stroke:none;" d="M316 231L316 234L316 231z"/>
<path style="fill:#f1c2ac; stroke:none;" d="M269.333 232.667L269.667 233.333L269.333 232.667z"/>
<path style="fill:#ec9d83; stroke:none;" d="M271.333 232.667L271.667 233.333L271.333 232.667z"/>
<path style="fill:#f0ab96; stroke:none;" d="M278 232L278 237L278 232z"/>
<path style="fill:#e05223; stroke:none;" d="M279 232L278 245C279.884 241.081 280.705 236.072 279 232z"/>
<path style="fill:#f1b4a2; stroke:none;" d="M288 232L288 245C289.591 241.209 289.591 235.791 288 232z"/>
<path style="fill:#ea9072; stroke:none;" d="M292 232L292 259C294.541 252.945 294.541 238.055 292 232z"/>
<path style="fill:#e05223; stroke:none;" d="M308 232L308 238C308.951 235.715 308.951 234.285 308 232z"/>
<path style="fill:#ea9072; stroke:none;" d="M274 233L274 236L274 233z"/>
<path style="fill:#ec9d83; stroke:none;" d="M307 233L307 236L307 233z"/>
<path style="fill:#ea9072; stroke:none;" d="M269.333 234.667L269.667 235.333L269.333 234.667z"/>
<path style="fill:#f5cabb; stroke:none;" d="M271 234L271 236L273 236L273 234L271 234z"/>
<path style="fill:#f1b4a2; stroke:none;" d="M280 234L280 237L280 234z"/>
<path style="fill:#e05223; stroke:none;" d="M303 234L303 242C304.161 239.23 304.161 236.77 303 234z"/>
<path style="fill:#f0ab96; stroke:none;" d="M309.333 234.667L309.667 235.333L309.333 234.667M311.333 234.667L311.667 235.333L311.333 234.667z"/>
<path style="fill:#ea9072; stroke:none;" d="M313.333 235.667L313.667 236.333L313.333 235.667z"/>
<path style="fill:#ffffff; stroke:none;" d="M314 235L314 239L314 235M271 236L271 240L271 236z"/>
<path style="fill:#ea9072; stroke:none;" d="M272.333 236.667L272.667 237.333L272.333 236.667z"/>
<path style="fill:#f1b4a2; stroke:none;" d="M304.333 236.667L304.667 237.333L304.333 236.667z"/>
<path style="fill:#f7dcd0; stroke:none;" d="M307.333 236.667L307.667 237.333L307.333 236.667z"/>
<path style="fill:#e57254; stroke:none;" d="M309 236L308 240C309.303 238.332 309.553 238.008 309 236z"/>
<path style="fill:#f7dcd0; stroke:none;" d="M311.333 236.667L311.667 237.333L311.333 236.667z"/>
<path style="fill:#e98261; stroke:none;" d="M278 237L278 240L278 237z"/>
<path style="fill:#f5cabb; stroke:none;" d="M290 237L290 259C292.219 253.713 292.219 242.287 290 237z"/>
<path style="fill:#f1c2ac; stroke:none;" d="M302 237L302 240L302 237z"/>
<path style="fill:#f7dcd0; stroke:none;" d="M315 237L317 255C319.711 250.775 317.125 241.423 315 237z"/>
<path style="fill:#ec9d83; stroke:none;" d="M317.333 237.667L317.667 238.333L317.333 237.667M268.333 238.667L268.667 239.333L268.333 238.667z"/>
<path style="fill:#f7dcd0; stroke:none;" d="M270 238L270 248C271.506 244.637 271.979 241.181 270 238z"/>
<path style="fill:#e57254; stroke:none;" d="M304 238L303 244C304.654 241.823 304.994 240.575 304 238z"/>
<path style="fill:#e05223; stroke:none;" d="M309 239L309 244L309 239z"/>
<path style="fill:#f7dcd0; stroke:none;" d="M310 239L310 242L310 239z"/>
<path style="fill:#ec9d83; stroke:none;" d="M273.333 240.667L273.667 241.333L273.333 240.667z"/>
<path style="fill:#f7dcd0; stroke:none;" d="M277 240L277 243L277 240z"/>
<path style="fill:#ea9072; stroke:none;" d="M279.333 240.667L279.667 241.333L279.333 240.667z"/>
<path style="fill:#f0ab96; stroke:none;" d="M308.333 240.667L308.667 241.333L308.333 240.667z"/>
<path style="fill:#f5cabb; stroke:none;" d="M312.333 240.667L312.667 241.333L312.333 240.667M318 240L318 243L318 240M267.333 241.667L267.667 242.333L267.333 241.667z"/>
<path style="fill:#f0ab96; stroke:none;" d="M269 242L269 245L269 242z"/>
<path style="fill:#ec9d83; stroke:none;" d="M271.333 242.667L271.667 243.333L271.333 242.667z"/>
<path style="fill:#f5cabb; stroke:none;" d="M273 242L273 245L273 242z"/>
<path style="fill:#f1c2ac; stroke:none;" d="M279 242L279 245L279 242z"/>
<path style="fill:#e46a42; stroke:none;" d="M310 242L309 247C310.318 245.074 310.651 244.234 310 242z"/>
<path style="fill:#ec9d83; stroke:none;" d="M267.333 243.667L267.667 244.333L267.333 243.667z"/>
<path style="fill:#ea9072; stroke:none;" d="M277.333 243.667L277.667 244.333L277.333 243.667z"/>
<path style="fill:#e05223; stroke:none;" d="M304 243L304 249C304.951 246.715 304.951 245.285 304 243z"/>
<path style="fill:#ea9072; stroke:none;" d="M313.333 243.667L313.667 244.333L313.333 243.667z"/>
<path style="fill:#e05223; stroke:none;" d="M314 243L316 259C317.956 254.294 316.341 247.396 314 243z"/>
<path style="fill:#ec9d83; stroke:none;" d="M303 244L303 247L303 244z"/>
<path style="fill:#e46a42; stroke:none;" d="M277 245L279 248L279 245L277 245z"/>
<path style="fill:#ec9d83; stroke:none;" d="M288 245L288 259C289.667 255.028 289.667 248.972 288 245z"/>
<path style="fill:#f1b4a2; stroke:none;" d="M305.333 245.667L305.667 246.333L305.333 245.667z"/>
<path style="fill:#e05223; stroke:none;" d="M310 245L311 259C312.614 255.043 311.648 248.891 310 245z"/>
<path style="fill:#f5cabb; stroke:none;" d="M313.333 245.667L313.667 246.333L313.333 245.667z"/>
<path style="fill:#ea9072; stroke:none;" d="M315.333 245.667L315.667 246.333L315.333 245.667z"/>
<path style="fill:#f1c2ac; stroke:none;" d="M317.333 246.667L317.667 247.333L317.333 246.667z"/>
<path style="fill:#ec9d83; stroke:none;" d="M319.333 246.667L319.667 247.333L319.333 246.667z"/>
<path style="fill:#f1c2ac; stroke:none;" d="M266.333 247.667L266.667 248.333L266.333 247.667z"/>
<path style="fill:#ffffff; stroke:none;" d="M269 247L267 259C269.927 256.456 270.375 250.522 269 247z"/>
<path style="fill:#f1b4a2; stroke:none;" d="M272.333 247.667L272.667 248.333L272.333 247.667z"/>
<path style="fill:#f7dcd0; stroke:none;" d="M276.333 247.667L276.667 248.333L276.333 247.667z"/>
<path style="fill:#e05223; stroke:none;" d="M277 247L277 253C277.951 250.715 277.951 249.285 277 247z"/>
<path style="fill:#e57254; stroke:none;" d="M305 247L304 251C305.656 249.596 305.751 249.046 305 247z"/>
<path style="fill:#ec9d83; stroke:none;" d="M309.333 247.667L309.667 248.333L309.333 247.667z"/>
<path style="fill:#f5cabb; stroke:none;" d="M268.333 248.667L268.667 249.333L268.333 248.667z"/>
<path style="fill:#ea9072; stroke:none;" d="M270.333 248.667L270.667 249.333L270.333 248.667z"/>
<path style="fill:#ec9d83; stroke:none;" d="M278 248L278 251L278 248z"/>
<path style="fill:#f0ab96; stroke:none;" d="M311.333 248.667L311.667 249.333L311.333 248.667z"/>
<path style="fill:#e98261; stroke:none;" d="M266.333 249.667L266.667 250.333L266.333 249.667z"/>
<path style="fill:#f1b4a2; stroke:none;" d="M276 249L276 252L276 249z"/>
<path style="fill:#f1c2ac; stroke:none;" d="M309.333 249.667L309.667 250.333L309.333 249.667z"/>
<path style="fill:#f0ab96; stroke:none;" d="M314.333 249.667L314.667 250.333L314.333 249.667z"/>
<path style="fill:#f5cabb; stroke:none;" d="M320.333 249.667L320.667 250.333L320.333 249.667z"/>
<path style="fill:#ea9072; stroke:none;" d="M311 250L311 253L311 250M316.333 250.667L316.667 251.333L316.333 250.667z"/>
<path style="fill:#ec9d83; stroke:none;" d="M318.333 250.667L318.667 251.333L318.333 250.667z"/>
<path style="fill:#e05223; stroke:none;" d="M266 251L266 256L266 251z"/>
<path style="fill:#ea9072; stroke:none;" d="M267.333 251.667L267.667 252.333L267.333 251.667z"/>
<path style="fill:#f5cabb; stroke:none;" d="M278 251L278 254L278 251z"/>
<path style="fill:#f0ab96; stroke:none;" d="M304 251L304 259C305.161 256.23 305.161 253.77 304 251z"/>
<path style="fill:#e05223; stroke:none;" d="M305 251L305 259C306.161 256.23 306.161 253.77 305 251z"/>
<path style="fill:#f1c2ac; stroke:none;" d="M306 251L306 259C307.161 256.23 307.161 253.77 306 251z"/>
<path style="fill:#ec9d83; stroke:none;" d="M320.333 251.667L320.667 252.333L320.333 251.667z"/>
<path style="fill:#f0ab96; stroke:none;" d="M265.333 252.667L265.667 253.333L265.333 252.667z"/>
<path style="fill:#f5cabb; stroke:none;" d="M269 252L269 259C270.059 256.466 270.059 254.534 269 252z"/>
<path style="fill:#ec9d83; stroke:none;" d="M271 252L271 259C272.059 256.466 272.059 254.534 271 252z"/>
<path style="fill:#e46a42; stroke:none;" d="M276 252L276 259C277.591 256.286 277.802 254.588 276 252z"/>
<path style="fill:#f1c2ac; stroke:none;" d="M267 253L267 256L267 253z"/>
<path style="fill:#e46a42; stroke:none;" d="M265 254L265 259C266.381 256.859 266.346 256.176 265 254z"/>
<path style="fill:#f5cabb; stroke:none;" d="M315 254L315 259L315 254z"/>
<path style="fill:#ffffff; stroke:none;" d="M318 254C318.168 256.403 318.197 257.46 320 259L318 254z"/>
<path style="fill:#f7dcd0; stroke:none;" d="M264 255L264 259L264 255z"/>
<path style="fill:#f1b4a2; stroke:none;" d="M310 255L310 259L310 255z"/>
<path style="fill:#e98261; stroke:none;" d="M317 255L317 259L317 255z"/>
<path style="fill:#ec9d83; stroke:none;" d="M321 255L321 258L321 255z"/>
<path style="fill:#f5cabb; stroke:none;" d="M275 256L275 259L275 256z"/>
<path style="fill:#ea9072; stroke:none;" d="M277 256L277 259L277 256z"/>
<path style="fill:#f0ab96; stroke:none;" d="M312 256L312 259L312 256z"/>
<path style="fill:#f7dcd0; stroke:none;" d="M319.333 256.667L319.667 257.333L319.333 256.667z"/>
<path style="fill:#f0ab96; stroke:none;" d="M266 258L267 259L266 258z"/>
<path style="fill:#cfe8e8; stroke:none;" d="M243 259L242 274L245 260L243 259z"/>
<path style="fill:#83bfbf; stroke:none;" d="M291 339L353 338C353.001 324.296 362.152 325.029 372 318.087C385.546 308.538 410.121 280.594 400.397 261.434C397.585 255.893 375.602 259 370 259L277 259L252 259.001C248.918 259.017 244.444 258.556 243.318 262.228C237.357 281.67 255.038 305.306 269.09 316.395C279.815 324.86 291 323.684 291 339z"/>
<path style="fill:#cfe8e8; stroke:none;" d="M401 260L401 273C402.591 269.209 402.591 263.791 401 260M245.333 283.667L245.667 284.333L245.333 283.667z"/>
<path style="fill:#aed5d4; stroke:none;" d="M392.333 295.667L392.667 296.333L392.333 295.667z"/>
<path style="fill:#cfe8e8; stroke:none;" d="M252.333 297.667L252.667 298.333L252.333 297.667M391.333 297.667L391.667 298.333L391.333 297.667M389 301L388 304L389 301M256.333 303.667L256.667 304.333L256.333 303.667z"/>
<path style="fill:#aed5d4; stroke:none;" d="M263 311L266 313L263 311M357.667 325.333L358.333 325.667L357.667 325.333M287.667 326.333L288.333 326.667L287.667 326.333z"/>
<path style="fill:#cfe8e8; stroke:none;" d="M355.667 326.333L356.333 326.667L355.667 326.333M290 327L290 338C291.431 334.59 291.431 330.41 290 327M353 327L353 338C354.431 334.59 354.431 330.41 353 327z"/>
<path style="fill:#aed5d4; stroke:none;" d="M347 338L351 339L347 338z"/>
<path style="fill:#cfe8e8; stroke:none;" d="M351.667 338.333L352.333 338.667L351.667 338.333M293 339L298 340L293 339z"/>
<path style="fill:#aed5d4; stroke:none;" d="M298 339C309.701 343.91 330.258 340 343 340C331.299 335.09 310.742 339 298 339z"/>
<path style="fill:#cfe8e8; stroke:none;" d="M343 339L349 340L343 339z"/>
<path style="fill:#c7b997; stroke:none;" d="M407 355L408 356L407 355z"/>
</svg>
