<?xml version="1.0" standalone="yes"?>
<svg xmlns="http://www.w3.org/2000/svg" width="640" height="480">
<path style="fill:#ffffff; stroke:none;" d="M0 0L0 480L640 480L640 0L0 0z"/>
<path style="fill:#f7ded0; stroke:none;" d="M359 47L363 48L359 47z"/>
<path style="fill:#e15325; stroke:none;" d="M348 200C354.064 185.948 356.342 163.33 357 148L359 148L359 155L360 153L361 181C364.846 171.835 363.201 158.742 363 149C367.029 160.901 369.428 176.473 370 189L371 187L372 190C374.924 182.831 369.332 172.612 369 165L371 173C372.368 169.184 370.758 164.909 370 161L369 165L367 148C372.241 144.602 370 133.653 370 128L369.999 68.0008C369.965 63.0479 367.743 49.3761 361.985 48.3765C350.898 46.4521 353 75.6674 353 82L354.582 152.039L348 200z"/>
<path style="fill:#e88363; stroke:none;" d="M360 49L363 50L360 49z"/>
<path style="fill:#ea9274; stroke:none;" d="M365 49L366 50L365 49z"/>
<path style="fill:#ffffff; stroke:none;" d="M357 60L365 60C364.991 48.5306 357.04 48.648 357 60z"/>
<path style="fill:#f3b5a3; stroke:none;" d="M363 50L364 51L363 50z"/>
<path style="fill:#ec9d83; stroke:none;" d="M366 50L367 51L366 50z"/>
<path style="fill:#f3b5a3; stroke:none;" d="M355 51L356 52L355 51z"/>
<path style="fill:#f0ab97; stroke:none;" d="M367.333 51.6667L367.667 52.3333L367.333 51.6667z"/>
<path style="fill:#f7ded0; stroke:none;" d="M354 52L354 60C355.161 57.2301 355.161 54.7699 354 52z"/>
<path style="fill:#f4cabb; stroke:none;" d="M365 52L365 60C366.161 57.2302 366.161 54.7698 365 52z"/>
<path style="fill:#e37255; stroke:none;" d="M356 53L356 60C357.059 57.4657 357.059 55.5343 356 53z"/>
<path style="fill:#e88363; stroke:none;" d="M367 53L367 60C368.059 57.4657 368.059 55.5343 367 53M353.667 60.3333L354.333 60.6667L353.667 60.3333z"/>
<path style="fill:#e37255; stroke:none;" d="M357 60L366 61L357 60z"/>
<path style="fill:#e88363; stroke:none;" d="M368 60L369 61L368 60z"/>
<path style="fill:#f2c3ad; stroke:none;" d="M369 60L370 61L369 60z"/>
<path style="fill:#f0ab97; stroke:none;" d="M352 61L352 147C354.599 140.806 353 131.686 353 125L353 81C353 74.846 354.395 66.7073 352 61z"/>
<path style="fill:#f2c3ad; stroke:none;" d="M370 62L370 147C372.599 140.806 371 131.686 371 125L371 82C371 75.846 372.395 67.7073 370 62z"/>
<path style="fill:#ffffff; stroke:none;" d="M360 66L360 70L363 70L363 66L360 66z"/>
<path style="fill:#f7ded0; stroke:none;" d="M359.333 67.6667L359.667 68.3333L359.333 67.6667z"/>
<path style="fill:#f3b5a3; stroke:none;" d="M363.333 67.6667L363.667 68.3333L363.333 67.6667z"/>
<path style="fill:#ea9274; stroke:none;" d="M359 69L360 70L359 69M360 70L363 71L360 70z"/>
<path style="fill:#f3b5a3; stroke:none;" d="M360 136L363 140C363.615 137.346 362.467 136.791 360 136z"/>
<path style="fill:#f7ded0; stroke:none;" d="M359 137C359.839 139.626 360.374 140.161 363 141L359 137z"/>
<path style="fill:#ffffff; stroke:none;" d="M360 137L360 140L363 140L363 137L360 137z"/>
<path style="fill:#ec9d83; stroke:none;" d="M369 147L370 148L369 147M357 148L357 150L359 148L357 148M367.333 148.667L367.667 149.333L367.333 148.667z"/>
<path style="fill:#f2c3ad; stroke:none;" d="M358 149L359 152L358 149z"/>
<path style="fill:#ec9d83; stroke:none;" d="M363 149C363.032 151.875 362.792 154.074 365 156L363 149z"/>
<path style="fill:#ea9274; stroke:none;" d="M354 151L354 154L354 151z"/>
<path style="fill:#ffffff; stroke:none;" d="M357 151L357 156L357 151z"/>
<path style="fill:#e56942; stroke:none;" d="M358 152L360 160L361 153L360 155L358 152z"/>
<path style="fill:#f0ab97; stroke:none;" d="M368.333 152.667L368.667 153.333L368.333 152.667z"/>
<path style="fill:#ea9274; stroke:none;" d="M356 153L356 156L356 153z"/>
<path style="fill:#f4cabb; stroke:none;" d="M353 154L353 157L353 154M369 155L369 158L369 155M356 156L356 158L358 158L358 156L356 156z"/>
<path style="fill:#e15325; stroke:none;" d="M358 156L358 161L358 156z"/>
<path style="fill:#f3b5a3; stroke:none;" d="M364 156L364 161L364 156z"/>
<path style="fill:#e37255; stroke:none;" d="M353.333 157.667L353.667 158.333L353.333 157.667z"/>
<path style="fill:#f0ab97; stroke:none;" d="M359.333 157.667L359.667 158.333L359.333 157.667z"/>
<path style="fill:#f7ded0; stroke:none;" d="M356 158C354.769 167.733 351.789 177.2 353 187C355.656 180.685 358.652 164.379 356 158z"/>
<path style="fill:#ec9d83; stroke:none;" d="M357.333 158.667L357.667 159.333L357.333 158.667z"/>
<path style="fill:#e56942; stroke:none;" d="M369 158L368 165C369.289 162.57 369.806 160.639 369 158z"/>
<path style="fill:#e88363; stroke:none;" d="M355 159L355 162L355 159z"/>
<path style="fill:#f7ded0; stroke:none;" d="M359 159L359 164L359 159z"/>
<path style="fill:#f0ab97; stroke:none;" d="M352.333 160.667L352.667 161.333L352.333 160.667z"/>
<path style="fill:#e37255; stroke:none;" d="M357 160L359 163L357 160M364 161L364 165L366 161L364 161z"/>
<path style="fill:#e15325; stroke:none;" d="M357 162L356 176C357.994 171.851 358.806 166.305 357 162z"/>
<path style="fill:#f4cabb; stroke:none;" d="M365 162L365 169C366.059 166.466 366.059 164.534 365 162z"/>
<path style="fill:#e88363; stroke:none;" d="M370.333 162.667L370.667 163.333L370.333 162.667z"/>
<path style="fill:#f7ded0; stroke:none;" d="M351 163L351 166L351 163z"/>
<path style="fill:#ea9274; stroke:none;" d="M358.333 163.667L358.667 164.333L358.333 163.667z"/>
<path style="fill:#f4cabb; stroke:none;" d="M359 164L359 169L359 164z"/>
<path style="fill:#ea9274; stroke:none;" d="M354.333 165.667L354.667 166.333L354.333 165.667z"/>
<path style="fill:#ec9d83; stroke:none;" d="M356.333 165.667L356.667 166.333L356.333 165.667z"/>
<path style="fill:#e56942; stroke:none;" d="M362 165L362 181L360 176C357.761 181.336 360.248 185.736 360.871 191.039L362 217C367.409 204.11 363 181.049 363 167L365 185C368.362 179.276 365.271 171.318 365 165L362 165z"/>
<path style="fill:#e37255; stroke:none;" d="M366.333 165.667L366.667 166.333L366.333 165.667M369 165L371 180L374 176L373 178L373 173L369 165z"/>
<path style="fill:#f2c3ad; stroke:none;" d="M371.333 165.667L371.667 166.333L371.333 165.667z"/>
<path style="fill:#ec9d83; stroke:none;" d="M351.333 166.667L351.667 167.333L351.333 166.667z"/>
<path style="fill:#f2c3ad; stroke:none;" d="M354.333 167.667L354.667 168.333L354.333 167.667z"/>
<path style="fill:#e88363; stroke:none;" d="M363.333 167.667L363.667 168.333L363.333 167.667z"/>
<path style="fill:#f0ab97; stroke:none;" d="M366 167L365 171L366 167z"/>
<path style="fill:#e88363; stroke:none;" d="M371.333 167.667L371.667 168.333L371.333 167.667z"/>
<path style="fill:#ffffff; stroke:none;" d="M358 168C357.372 198.437 347.253 228.462 347 259L357 259L358.001 194C358.04 185.892 361.233 175.705 358 168z"/>
<path style="fill:#ea9274; stroke:none;" d="M359 169L359 176C360.059 173.466 360.059 171.534 359 169z"/>
<path style="fill:#f0ab97; stroke:none;" d="M363.333 169.667L363.667 170.333L363.333 169.667z"/>
<path style="fill:#f7ded0; stroke:none;" d="M366 169L366 176C367.059 173.466 367.059 171.534 366 169z"/>
<path style="fill:#ea9274; stroke:none;" d="M350.333 171.667L350.667 172.333L350.333 171.667M353 171L353 174L353 171z"/>
<path style="fill:#ec9d83; stroke:none;" d="M357.333 171.667L357.667 172.333L357.333 171.667z"/>
<path style="fill:#f7ded0; stroke:none;" d="M363 171L363 217L364 203C364 193.233 366.91 180.064 363 171z"/>
<path style="fill:#e88363; stroke:none;" d="M367.333 171.667L367.667 172.333L367.333 171.667z"/>
<path style="fill:#ea9274; stroke:none;" d="M372.333 171.667L372.667 172.333L372.333 171.667z"/>
<path style="fill:#f0ab97; stroke:none;" d="M355.333 172.667L355.667 173.333L355.333 172.667z"/>
<path style="fill:#f4cabb; stroke:none;" d="M357.333 173.667L357.667 174.333L357.333 173.667z"/>
<path style="fill:#ec9d83; stroke:none;" d="M367.333 173.667L367.667 174.333L367.333 173.667z"/>
<path style="fill:#f4cabb; stroke:none;" d="M349.333 174.667L349.667 175.333L349.333 174.667z"/>
<path style="fill:#e56942; stroke:none;" d="M355 174L356 178L355 174z"/>
<path style="fill:#ea9274; stroke:none;" d="M364.333 174.667L364.667 175.333L364.333 174.667z"/>
<path style="fill:#e15325; stroke:none;" d="M372 174L372 178L372 174z"/>
<path style="fill:#f3b5a3; stroke:none;" d="M373.333 174.667L373.667 175.333L373.333 174.667z"/>
<path style="fill:#f4cabb; stroke:none;" d="M367 175L367 178L367 175z"/>
<path style="fill:#ec9d83; stroke:none;" d="M349.333 176.667L349.667 177.333L349.333 176.667z"/>
<path style="fill:#f3b5a3; stroke:none;" d="M364.333 176.667L364.667 177.333L364.333 176.667z"/>
<path style="fill:#f0ab97; stroke:none;" d="M366 176L366 179L366 176z"/>
<path style="fill:#ec9d83; stroke:none;" d="M352.333 177.667L352.667 178.333L352.333 177.667z"/>
<path style="fill:#e15325; stroke:none;" d="M355 177L355 184C356.059 181.466 356.059 179.534 355 177z"/>
<path style="fill:#f2c3ad; stroke:none;" d="M354.333 178.667L354.667 179.333L354.333 178.667z"/>
<path style="fill:#ec9d83; stroke:none;" d="M356.333 178.667L356.667 179.333L356.333 178.667z"/>
<path style="fill:#ffffff; stroke:none;" d="M367 178L367 182L367 178z"/>
<path style="fill:#e56942; stroke:none;" d="M373 179C373.29 185.655 374.716 201.727 380 206C378.255 197.54 377.528 186.413 373 179z"/>
<path style="fill:#f3b5a3; stroke:none;" d="M374 179L374 182L374 179M348.333 180.667L348.667 181.333L348.333 180.667z"/>
<path style="fill:#ec9d83; stroke:none;" d="M354.333 180.667L354.667 181.333L354.333 180.667z"/>
<path style="fill:#f2c3ad; stroke:none;" d="M356.333 180.667L356.667 181.333L356.333 180.667z"/>
<path style="fill:#f4cabb; stroke:none;" d="M368 180L367 185C368.318 183.074 368.651 182.234 368 180z"/>
<path style="fill:#ec9d83; stroke:none;" d="M372 180L372 184L372 180z"/>
<path style="fill:#e56942; stroke:none;" d="M348.333 182.667L348.667 183.333L348.333 182.667z"/>
<path style="fill:#e88363; stroke:none;" d="M351 182L351 185L351 182z"/>
<path style="fill:#e37255; stroke:none;" d="M354 182L356 185L354 182z"/>
<path style="fill:#e15325; stroke:none;" d="M366 182L367 196C368.703 191.902 367.731 186.014 366 182z"/>
<path style="fill:#ffffff; stroke:none;" d="M352 183C348.743 208.218 341 233.51 341 259L344 259L350.427 208C351.54 200.484 355.05 190.269 352 183M364 183L364 259L373 259C373 241.044 370.263 222.773 367.729 205C366.734 198.017 367.348 189.296 364 183M368 183C368.003 208.479 375.997 233.509 376 259L380 259L372.754 208C371.458 200.067 371.292 190.334 368 183z"/>
<path style="fill:#e37255; stroke:none;" d="M369 183L369 186L369 183z"/>
<path style="fill:#f2c3ad; stroke:none;" d="M347 184L347 187L347 184z"/>
<path style="fill:#ea9274; stroke:none;" d="M373 184L374 190L373 184z"/>
<path style="fill:#ec9d83; stroke:none;" d="M375.333 184.667L375.667 185.333L375.333 184.667z"/>
<path style="fill:#f2c3ad; stroke:none;" d="M351.333 185.667L351.667 186.333L351.333 185.667z"/>
<path style="fill:#e15325; stroke:none;" d="M354 185L354 191C354.951 188.715 354.951 187.285 354 185z"/>
<path style="fill:#ea9274; stroke:none;" d="M355.333 185.667L355.667 186.333L355.333 185.667z"/>
<path style="fill:#f3b5a3; stroke:none;" d="M365.333 185.667L365.667 186.333L365.333 185.667z"/>
<path style="fill:#f0ab97; stroke:none;" d="M367.333 185.667L367.667 186.333L367.333 185.667z"/>
<path style="fill:#f4cabb; stroke:none;" d="M358 186L358 193C359.059 190.466 359.059 188.534 358 186z"/>
<path style="fill:#f3b5a3; stroke:none;" d="M369 186L369 189L369 186z"/>
<path style="fill:#e88363; stroke:none;" d="M347.333 187.667L347.667 188.333L347.333 187.667z"/>
<path style="fill:#f0ab97; stroke:none;" d="M353 187L353 190L353 187z"/>
<path style="fill:#f3b5a3; stroke:none;" d="M355.333 187.667L355.667 188.333L355.333 187.667z"/>
<path style="fill:#e15325; stroke:none;" d="M359 187L359 208C361.153 202.869 361.153 192.131 359 187z"/>
<path style="fill:#ea9274; stroke:none;" d="M360 187L360 193C360.951 190.715 360.951 189.285 360 187z"/>
<path style="fill:#e88363; stroke:none;" d="M367.333 187.667L367.667 188.333L367.333 187.667z"/>
<path style="fill:#e56942; stroke:none;" d="M371 187C369.871 194.1 372.103 201.902 373 209L373 196L376 209C378.45 202.994 374.276 195.336 374 189L371 187z"/>
<path style="fill:#f7ded0; stroke:none;" d="M376 187L376 190L376 187z"/>
<path style="fill:#f4cabb; stroke:none;" d="M346.333 189.667L346.667 190.333L346.333 189.667z"/>
<path style="fill:#f3b5a3; stroke:none;" d="M350.333 190.667L350.667 191.333L350.333 190.667z"/>
<path style="fill:#e56942; stroke:none;" d="M353 190L352 200L354 200C354.071 196.432 354.966 193.046 353 190z"/>
<path style="fill:#f3b5a3; stroke:none;" d="M374 190L374 193L374 190z"/>
<path style="fill:#ea9274; stroke:none;" d="M346.333 191.667L346.667 192.333L346.333 191.667z"/>
<path style="fill:#ec9d83; stroke:none;" d="M366.333 191.667L366.667 192.333L366.333 191.667z"/>
<path style="fill:#ea9274; stroke:none;" d="M370.333 191.667L370.667 192.333L370.333 191.667z"/>
<path style="fill:#e88363; stroke:none;" d="M372 192L372 196L372 192z"/>
<path style="fill:#e56942; stroke:none;" d="M346 193C345.081 204.548 337.584 218.704 340 230C345.074 219.445 345.624 204.517 348 193L346 193z"/>
<path style="fill:#e37255; stroke:none;" d="M349 193L349 196L349 193z"/>
<path style="fill:#f0ab97; stroke:none;" d="M354.333 193.667L354.667 194.333L354.333 193.667z"/>
<path style="fill:#f3b5a3; stroke:none;" d="M358 193L358 197L358 193z"/>
<path style="fill:#ec9d83; stroke:none;" d="M360 193L360 198L360 193z"/>
<path style="fill:#f2c3ad; stroke:none;" d="M366.333 193.667L366.667 194.333L366.333 193.667z"/>
<path style="fill:#f0ab97; stroke:none;" d="M368.333 193.667L368.667 194.333L368.333 193.667z"/>
<path style="fill:#f4cabb; stroke:none;" d="M370.333 193.667L370.667 194.333L370.333 193.667z"/>
<path style="fill:#ea9274; stroke:none;" d="M374 193L374 195L376 193L374 193z"/>
<path style="fill:#ec9d83; stroke:none;" d="M377.333 193.667L377.667 194.333L377.333 193.667z"/>
<path style="fill:#f2c3ad; stroke:none;" d="M345.333 194.667L345.667 195.333L345.333 194.667z"/>
<path style="fill:#ec9d83; stroke:none;" d="M352.333 194.667L352.667 195.333L352.333 194.667z"/>
<path style="fill:#f2c3ad; stroke:none;" d="M375 194L375 197L375 194z"/>
<path style="fill:#e88363; stroke:none;" d="M347 195L344 211C347.383 208.089 348.595 199.088 347 195z"/>
<path style="fill:#e56942; stroke:none;" d="M368 195L367 200C368.318 198.074 368.651 197.234 368 195z"/>
<path style="fill:#ea9274; stroke:none;" d="M345.333 196.667L345.667 197.333L345.333 196.667z"/>
<path style="fill:#f3b5a3; stroke:none;" d="M349.333 196.667L349.667 197.333L349.333 196.667z"/>
<path style="fill:#ea9274; stroke:none;" d="M373 196L373 200L373 196z"/>
<path style="fill:#f7ded0; stroke:none;" d="M378.333 196.667L378.667 197.333L378.333 196.667z"/>
<path style="fill:#ec9d83; stroke:none;" d="M358 197L358 203C358.951 200.715 358.951 199.285 358 197z"/>
<path style="fill:#ea9274; stroke:none;" d="M371 197L371 200L371 197M375 197L375 199L377 199L377 197L375 197z"/>
<path style="fill:#f7ded0; stroke:none;" d="M344 198L344 201L344 198M349.333 198.667L349.667 199.333L349.333 198.667z"/>
<path style="fill:#f2c3ad; stroke:none;" d="M360 198L360 205C361.059 202.466 361.059 200.534 360 198z"/>
<path style="fill:#e15325; stroke:none;" d="M368 198L369 213C370.746 208.799 369.751 202.135 368 198z"/>
<path style="fill:#ec9d83; stroke:none;" d="M378.333 198.667L378.667 199.333L378.333 198.667z"/>
<path style="fill:#f2c3ad; stroke:none;" d="M376 199L377 207C378.157 204.034 377.62 201.705 376 199z"/>
<path style="fill:#e56942; stroke:none;" d="M347 200L345 213C348.203 210.244 348.211 204.07 349 200L347 200z"/>
<path style="fill:#e15325; stroke:none;" d="M352 200L352 204L352 200z"/>
<path style="fill:#ec9d83; stroke:none;" d="M353.333 200.667L353.667 201.333L353.333 200.667z"/>
<path style="fill:#f2c3ad; stroke:none;" d="M367 200L367 204L367 200z"/>
<path style="fill:#e88363; stroke:none;" d="M373 200L375 203L373 200M344.333 201.667L344.667 202.333L344.333 201.667z"/>
<path style="fill:#f3b5a3; stroke:none;" d="M351 201L351 204L351 201z"/>
<path style="fill:#ea9274; stroke:none;" d="M369 201L369 206L369 201z"/>
<path style="fill:#f2c3ad; stroke:none;" d="M348.333 202.667L348.667 203.333L348.333 202.667M353.333 202.667L353.667 203.333L353.333 202.667z"/>
<path style="fill:#f0ab97; stroke:none;" d="M379.333 202.667L379.667 203.333L379.333 202.667z"/>
<path style="fill:#e56942; stroke:none;" d="M358 203L358 220L360 220C360 214.317 360.515 208.233 358 203z"/>
<path style="fill:#f2c3ad; stroke:none;" d="M374 203L375 214C377.004 210.528 376.019 206.365 374 203M343.333 204.667L343.667 205.333L343.333 204.667z"/>
<path style="fill:#e37255; stroke:none;" d="M351 204L352 208L353 204L351 204z"/>
<path style="fill:#e88363; stroke:none;" d="M361 204L361 229C363.413 223.25 363.413 209.75 361 204z"/>
<path style="fill:#f7ded0; stroke:none;" d="M360 205L360 214C361.256 211.006 361.256 207.994 360 205z"/>
<path style="fill:#f3b5a3; stroke:none;" d="M372.333 205.667L372.667 206.333L372.333 205.667z"/>
<path style="fill:#f4cabb; stroke:none;" d="M380 205L380 208L380 205z"/>
<path style="fill:#e88363; stroke:none;" d="M343.333 206.667L343.667 207.333L343.333 206.667z"/>
<path style="fill:#ec9d83; stroke:none;" d="M378 206L377 209L378 206z"/>
<path style="fill:#e15325; stroke:none;" d="M379 206L379 210L379 206z"/>
<path style="fill:#ec9d83; stroke:none;" d="M347.333 207.667L347.667 208.333L347.333 207.667z"/>
<path style="fill:#f4cabb; stroke:none;" d="M350.333 207.667L350.667 208.333L350.333 207.667z"/>
<path style="fill:#e15325; stroke:none;" d="M351 207L351 212L351 207z"/>
<path style="fill:#e88363; stroke:none;" d="M374 207L373 211L374 207z"/>
<path style="fill:#f0ab97; stroke:none;" d="M352 208L352 211L352 208z"/>
<path style="fill:#ec9d83; stroke:none;" d="M368 208L368 211L368 208z"/>
<path style="fill:#f7ded0; stroke:none;" d="M378 208L381 223C382.067 218.483 380.171 212.054 378 208z"/>
<path style="fill:#e56942; stroke:none;" d="M380 208L380 216C381.938 213.218 381.565 210.967 380 208z"/>
<path style="fill:#f4cabb; stroke:none;" d="M342 209L342 212L342 209M347.333 209.667L347.667 210.333L347.333 209.667z"/>
<path style="fill:#f0ab97; stroke:none;" d="M350.333 209.667L350.667 210.333L350.333 209.667z"/>
<path style="fill:#f3b5a3; stroke:none;" d="M370.333 209.667L370.667 210.333L370.333 209.667z"/>
<path style="fill:#e15325; stroke:none;" d="M374 209L374 215C374.951 212.715 374.951 211.285 374 209z"/>
<path style="fill:#e37255; stroke:none;" d="M376 209L376 212L378 209L376 209z"/>
<path style="fill:#e15325; stroke:none;" d="M377 210L380 229C381.909 224.108 379.433 214.575 377 210z"/>
<path style="fill:#f4cabb; stroke:none;" d="M344 211L343 220C344.767 217.049 345.312 214.218 344 211z"/>
<path style="fill:#e56942; stroke:none;" d="M350 211L351 215C351.553 212.992 351.303 212.668 350 211z"/>
<path style="fill:#e37255; stroke:none;" d="M370 211L369 216C370.318 214.074 370.651 213.234 370 211z"/>
<path style="fill:#f3b5a3; stroke:none;" d="M373.333 211.667L373.667 212.333L373.333 211.667z"/>
<path style="fill:#e15325; stroke:none;" d="M345 213L344 223C345.527 219.823 346.299 216.329 345 213z"/>
<path style="fill:#ea9274; stroke:none;" d="M346.333 213.667L346.667 214.333L346.333 213.667z"/>
<path style="fill:#f7ded0; stroke:none;" d="M376 213C376.077 215.645 375.997 217.266 378 219L376 213z"/>
<path style="fill:#e15325; stroke:none;" d="M350 214L350 220C350.951 217.715 350.951 216.285 350 214z"/>
<path style="fill:#ffffff; stroke:none;" d="M360 214L360 259C363.672 250.25 363.672 222.75 360 214z"/>
<path style="fill:#e15325; stroke:none;" d="M370 214L370 220C370.951 217.715 370.951 216.285 370 214z"/>
<path style="fill:#f7ded0; stroke:none;" d="M371 214L371 217L371 214z"/>
<path style="fill:#e37255; stroke:none;" d="M375 214L374 217L375 214z"/>
<path style="fill:#f7ded0; stroke:none;" d="M382.333 214.667L382.667 215.333L382.333 214.667z"/>
<path style="fill:#ec9d83; stroke:none;" d="M341.333 215.667L341.667 216.333L341.333 215.667z"/>
<path style="fill:#f7ded0; stroke:none;" d="M346.333 215.667L346.667 216.333L346.333 215.667z"/>
<path style="fill:#f2c3ad; stroke:none;" d="M349 215L349 218L349 215z"/>
<path style="fill:#ec9d83; stroke:none;" d="M351 215L351 218L351 215z"/>
<path style="fill:#e15325; stroke:none;" d="M381 215L381 219L381 215z"/>
<path style="fill:#ec9d83; stroke:none;" d="M369.333 216.667L369.667 217.333L369.333 216.667z"/>
<path style="fill:#e15325; stroke:none;" d="M375 216L377 235C379.112 229.921 377.212 220.927 375 216z"/>
<path style="fill:#f0ab97; stroke:none;" d="M377.333 216.667L377.667 217.333L377.333 216.667z"/>
<path style="fill:#ec9d83; stroke:none;" d="M382.333 216.667L382.667 217.333L382.333 216.667z"/>
<path style="fill:#f7ded0; stroke:none;" d="M357 217L357 226C358.256 223.006 358.256 219.994 357 217z"/>
<path style="fill:#e15325; stroke:none;" d="M362 217L362 259C365.484 250.697 365.484 225.303 362 217z"/>
<path style="fill:#f4cabb; stroke:none;" d="M363 217L363 259C366.484 250.697 366.484 225.303 363 217z"/>
<path style="fill:#f0ab97; stroke:none;" d="M371 217L371 220L371 217z"/>
<path style="fill:#ec9d83; stroke:none;" d="M374 217L374 220L374 217z"/>
<path style="fill:#ea9274; stroke:none;" d="M345.333 218.667L345.667 219.333L345.333 218.667M349.333 218.667L349.667 219.333L349.333 218.667z"/>
<path style="fill:#f7ded0; stroke:none;" d="M369 218L369 222L369 218z"/>
<path style="fill:#e37255; stroke:none;" d="M379.333 218.667L379.667 219.333L379.333 218.667M382 218L382 225C383.648 222.445 383.397 220.694 382 218z"/>
<path style="fill:#ea9274; stroke:none;" d="M376 219L376 222L376 219z"/>
<path style="fill:#ffffff; stroke:none;" d="M377 219L382 259L384 259C384 247.22 382.605 229.524 377 219z"/>
<path style="fill:#f7ded0; stroke:none;" d="M383 219L383 222L383 219z"/>
<path style="fill:#f0ab97; stroke:none;" d="M340.333 220.667L340.667 221.333L340.333 220.667z"/>
<path style="fill:#f3b5a3; stroke:none;" d="M342 220L342 222L344 222L344 220L342 220z"/>
<path style="fill:#f2c3ad; stroke:none;" d="M345.333 220.667L345.667 221.333L345.333 220.667z"/>
<path style="fill:#e56942; stroke:none;" d="M349 220L351 223L351 220L349 220z"/>
<path style="fill:#e15325; stroke:none;" d="M358 220L358 259C361.296 251.144 361.296 227.856 358 220z"/>
<path style="fill:#ea9274; stroke:none;" d="M359 220L359 234C360.667 230.028 360.667 223.972 359 220z"/>
<path style="fill:#e56942; stroke:none;" d="M370 220L371 234C373.372 229.837 372.013 224.664 372 220L370 220z"/>
<path style="fill:#ea9274; stroke:none;" d="M378 220L378 223L378 220z"/>
<path style="fill:#f7ded0; stroke:none;" d="M342 222L342 226L342 222z"/>
<path style="fill:#e37255; stroke:none;" d="M343 222L344 226C344.553 223.992 344.303 223.668 343 222z"/>
<path style="fill:#f7ded0; stroke:none;" d="M348.333 222.667L348.667 223.333L348.333 222.667z"/>
<path style="fill:#e15325; stroke:none;" d="M349 222L349 227L349 222z"/>
<path style="fill:#ea9274; stroke:none;" d="M380.333 222.667L380.667 223.333L380.333 222.667z"/>
<path style="fill:#f0ab97; stroke:none;" d="M350.333 223.667L350.667 224.333L350.333 223.667z"/>
<path style="fill:#ec9d83; stroke:none;" d="M375 223L375 226L375 223z"/>
<path style="fill:#ffffff; stroke:none;" d="M381 223L381 227L381 223z"/>
<path style="fill:#f2c3ad; stroke:none;" d="M339.333 224.667L339.667 225.333L339.333 224.667z"/>
<path style="fill:#e15325; stroke:none;" d="M343 224L342 235C343.833 231.553 344.519 227.654 343 224z"/>
<path style="fill:#f0ab97; stroke:none;" d="M348.333 224.667L348.667 225.333L348.333 224.667z"/>
<path style="fill:#ea9274; stroke:none;" d="M370.333 224.667L370.667 225.333L370.333 224.667z"/>
<path style="fill:#e15325; stroke:none;" d="M383 224C383.242 235.665 387.408 247.668 390 259C392.555 251.873 387.291 230.175 383 224z"/>
<path style="fill:#f2c3ad; stroke:none;" d="M384.333 224.667L384.667 225.333L384.333 224.667M341 225L343 228L341 225z"/>
<path style="fill:#ec9d83; stroke:none;" d="M377 225L377 228L377 225z"/>
<path style="fill:#f7ded0; stroke:none;" d="M382 225C381.692 228.019 381.593 230.028 384 232L382 225z"/>
<path style="fill:#f3b5a3; stroke:none;" d="M344.333 226.667L344.667 227.333L344.333 226.667z"/>
<path style="fill:#e37255; stroke:none;" d="M348 226L349 231C349.791 228.693 349.475 227.935 348 226z"/>
<path style="fill:#f2c3ad; stroke:none;" d="M357 226L357 242C358.812 237.681 358.812 230.319 357 226M370.333 226.667L370.667 227.333L370.333 226.667z"/>
<path style="fill:#f0ab97; stroke:none;" d="M372 226L372 229L372 226M379.333 226.667L379.667 227.333L379.333 226.667z"/>
<path style="fill:#f7ded0; stroke:none;" d="M341 227L341 231L341 227z"/>
<path style="fill:#f4cabb; stroke:none;" d="M338 228L338 231L338 228z"/>
<path style="fill:#e56942; stroke:none;" d="M381 228C380.304 232.13 380.466 237.31 384 240L381 228z"/>
<path style="fill:#f4cabb; stroke:none;" d="M385 228L385 231L385 228z"/>
<path style="fill:#e15325; stroke:none;" d="M339 229L336 248C338.718 243.47 341.032 233.982 339 229z"/>
<path style="fill:#f3b5a3; stroke:none;" d="M347 229L347 234L347 229z"/>
<path style="fill:#e15325; stroke:none;" d="M348 229L347 242C349.074 238.099 349.727 233.116 348 229z"/>
<path style="fill:#ea9274; stroke:none;" d="M361 229L361 259C363.731 252.492 363.731 235.508 361 229z"/>
<path style="fill:#f2c3ad; stroke:none;" d="M340 230L341 234C341.553 231.992 341.303 231.668 340 230z"/>
<path style="fill:#ec9d83; stroke:none;" d="M376 230L376 233L376 230z"/>
<path style="fill:#e88363; stroke:none;" d="M338.333 231.667L338.667 232.333L338.333 231.667z"/>
<path style="fill:#f0ab97; stroke:none;" d="M343 231L343 234L343 231M349 231L349 234L349 231z"/>
<path style="fill:#e15325; stroke:none;" d="M372 231L372 238C373.059 235.466 373.059 233.534 372 231z"/>
<path style="fill:#f0ab97; stroke:none;" d="M378.333 231.667L378.667 232.333L378.333 231.667M380.333 231.667L380.667 232.333L380.333 231.667z"/>
<path style="fill:#f4cabb; stroke:none;" d="M373 232L373 235L373 232z"/>
<path style="fill:#ea9274; stroke:none;" d="M382.333 232.667L382.667 233.333L382.333 232.667z"/>
<path style="fill:#ffffff; stroke:none;" d="M383 232L383 236L383 232M340 233L340 237L340 233z"/>
<path style="fill:#f7ded0; stroke:none;" d="M376.333 233.667L376.667 234.333L376.333 233.667z"/>
<path style="fill:#e37255; stroke:none;" d="M378 233L377 237C378.303 235.332 378.553 235.008 378 233M341 234L342 238C342.553 235.992 342.303 235.668 341 234z"/>
<path style="fill:#f4cabb; stroke:none;" d="M359 234L359 259C361.413 253.25 361.413 239.75 359 234z"/>
<path style="fill:#f7ded0; stroke:none;" d="M371 234L371 238L371 234M384 234L386 252C388.878 247.845 386.132 238.437 384 234z"/>
<path style="fill:#ec9d83; stroke:none;" d="M386.333 234.667L386.667 235.333L386.333 234.667M337.333 235.667L337.667 236.333L337.333 235.667z"/>
<path style="fill:#f7ded0; stroke:none;" d="M339 235L339 245C340.506 241.637 340.979 238.181 339 235z"/>
<path style="fill:#e56942; stroke:none;" d="M373 235L372 241C374.093 239.176 374.039 237.529 373 235z"/>
<path style="fill:#e15325; stroke:none;" d="M378 236L378 240L378 236M341 237L339 259C341.184 253.806 343.187 242.26 341 237z"/>
<path style="fill:#f0ab97; stroke:none;" d="M377.333 237.667L377.667 238.333L377.333 237.667z"/>
<path style="fill:#f4cabb; stroke:none;" d="M379 237L379 240L379 237M381.333 237.667L381.667 238.333L381.333 237.667M387 237L387 240L387 237M336.333 238.667L336.667 239.333L336.333 238.667z"/>
<path style="fill:#f3b5a3; stroke:none;" d="M342.333 238.667L342.667 239.333L342.333 238.667z"/>
<path style="fill:#f2c3ad; stroke:none;" d="M346.333 238.667L346.667 239.333L346.333 238.667z"/>
<path style="fill:#f0ab97; stroke:none;" d="M348.333 238.667L348.667 239.333L348.333 238.667M338 239L338 242L338 239z"/>
<path style="fill:#ea9274; stroke:none;" d="M340 239L340 242L340 239z"/>
<path style="fill:#ec9d83; stroke:none;" d="M336.333 240.667L336.667 241.333L336.333 240.667z"/>
<path style="fill:#f7ded0; stroke:none;" d="M342.333 240.667L342.667 241.333L342.333 240.667z"/>
<path style="fill:#ea9274; stroke:none;" d="M346.333 240.667L346.667 241.333L346.333 240.667z"/>
<path style="fill:#f7ded0; stroke:none;" d="M374 240L374 243L374 240z"/>
<path style="fill:#e56942; stroke:none;" d="M378 240L378 245L380 240L378 240z"/>
<path style="fill:#ea9274; stroke:none;" d="M382.333 240.667L382.667 241.333L382.333 240.667z"/>
<path style="fill:#e15325; stroke:none;" d="M383 240L385 259C387.288 253.548 385.723 245.114 383 240z"/>
<path style="fill:#ec9d83; stroke:none;" d="M372 241L372 244L372 241z"/>
<path style="fill:#e15325; stroke:none;" d="M373 241L373 246L373 241z"/>
<path style="fill:#e56942; stroke:none;" d="M346 242L348 245L348 242L346 242z"/>
<path style="fill:#ec9d83; stroke:none;" d="M357 242L357 259C358.883 254.514 358.883 246.486 357 242z"/>
<path style="fill:#e15325; stroke:none;" d="M379 242L379 250C380.161 247.23 380.161 244.77 379 242z"/>
<path style="fill:#f4cabb; stroke:none;" d="M382.333 242.667L382.667 243.333L382.333 242.667z"/>
<path style="fill:#ea9274; stroke:none;" d="M384.333 242.667L384.667 243.333L384.333 242.667z"/>
<path style="fill:#ec9d83; stroke:none;" d="M374.333 243.667L374.667 244.333L374.333 243.667z"/>
<path style="fill:#f2c3ad; stroke:none;" d="M386.333 243.667L386.667 244.333L386.333 243.667z"/>
<path style="fill:#ec9d83; stroke:none;" d="M388.333 243.667L388.667 244.333L388.333 243.667z"/>
<path style="fill:#f2c3ad; stroke:none;" d="M335.333 244.667L335.667 245.333L335.333 244.667z"/>
<path style="fill:#ffffff; stroke:none;" d="M338 244L335 259C339.106 258.12 339.871 247.285 338 244z"/>
<path style="fill:#f3b5a3; stroke:none;" d="M341.333 244.667L341.667 245.333L341.333 244.667z"/>
<path style="fill:#f4cabb; stroke:none;" d="M345.333 244.667L345.667 245.333L345.333 244.667z"/>
<path style="fill:#e15325; stroke:none;" d="M346 244L346 250C346.951 247.715 346.951 246.285 346 244z"/>
<path style="fill:#f4cabb; stroke:none;" d="M337.333 245.667L337.667 246.333L337.333 245.667z"/>
<path style="fill:#ea9274; stroke:none;" d="M339.333 245.667L339.667 246.333L339.333 245.667z"/>
<path style="fill:#ec9d83; stroke:none;" d="M347 245L347 248L347 245z"/>
<path style="fill:#e37255; stroke:none;" d="M374 245L373 248C374.766 247.021 374.955 246.778 374 245z"/>
<path style="fill:#f3b5a3; stroke:none;" d="M378 245L378 248L378 245z"/>
<path style="fill:#f0ab97; stroke:none;" d="M380 245L380 248L380 245z"/>
<path style="fill:#e88363; stroke:none;" d="M335.333 246.667L335.667 247.333L335.333 246.667z"/>
<path style="fill:#f0ab97; stroke:none;" d="M345 246L345 249L345 246M383.333 246.667L383.667 247.333L383.333 246.667z"/>
<path style="fill:#f4cabb; stroke:none;" d="M389.333 246.667L389.667 247.333L389.333 246.667z"/>
<path style="fill:#ea9274; stroke:none;" d="M385.333 247.667L385.667 248.333L385.333 247.667z"/>
<path style="fill:#e56942; stroke:none;" d="M335 248L334 259C335.833 255.553 336.519 251.654 335 248z"/>
<path style="fill:#ea9274; stroke:none;" d="M336.333 248.667L336.667 249.333L336.333 248.667z"/>
<path style="fill:#f7ded0; stroke:none;" d="M347 248L347 252L347 248z"/>
<path style="fill:#ec9d83; stroke:none;" d="M373 248L373 259C374.431 255.59 374.431 251.41 373 248z"/>
<path style="fill:#e15325; stroke:none;" d="M374 248L374 259C375.431 255.59 375.431 251.41 374 248z"/>
<path style="fill:#f4cabb; stroke:none;" d="M375 248L375 259C376.431 255.59 376.431 251.41 375 248z"/>
<path style="fill:#e56942; stroke:none;" d="M380 248L379 252C380.303 250.332 380.553 250.008 380 248z"/>
<path style="fill:#ec9d83; stroke:none;" d="M389.333 248.667L389.667 249.333L389.333 248.667z"/>
<path style="fill:#f0ab97; stroke:none;" d="M334.333 249.667L334.667 250.333L334.333 249.667z"/>
<path style="fill:#f4cabb; stroke:none;" d="M338 249L338 259C339.346 255.793 339.346 252.207 338 249z"/>
<path style="fill:#e56942; stroke:none;" d="M345 249L347 253L345 249z"/>
<path style="fill:#f2c3ad; stroke:none;" d="M336 250L336 253L336 250z"/>
<path style="fill:#ec9d83; stroke:none;" d="M340 250L340 257C341.059 254.466 341.059 252.534 340 250z"/>
<path style="fill:#e15325; stroke:none;" d="M380 251L380 255L380 251z"/>
<path style="fill:#f7ded0; stroke:none;" d="M381.333 251.667L381.667 252.333L381.333 251.667M384 251L384 259C385.161 256.23 385.161 253.77 384 251z"/>
<path style="fill:#ffffff; stroke:none;" d="M387 251L387 259L389 259L387 251z"/>
<path style="fill:#f3b5a3; stroke:none;" d="M379 252L379 255L379 252z"/>
<path style="fill:#e88363; stroke:none;" d="M386 252L386 259C387.059 256.466 387.059 254.534 386 252z"/>
<path style="fill:#ec9d83; stroke:none;" d="M390 252L390 255L390 252z"/>
<path style="fill:#f4cabb; stroke:none;" d="M344 253L344 256L344 253z"/>
<path style="fill:#e15325; stroke:none;" d="M345 253L345 259C345.951 256.715 345.951 255.285 345 253z"/>
<path style="fill:#f0ab97; stroke:none;" d="M346 253L346 259C346.951 256.715 346.951 255.285 346 253M381.333 253.667L381.667 254.333L381.333 253.667z"/>
<path style="fill:#f7ded0; stroke:none;" d="M388.333 253.667L388.667 254.333L388.333 253.667z"/>
<path style="fill:#f3b5a3; stroke:none;" d="M333.333 254.667L333.667 255.333L333.333 254.667z"/>
<path style="fill:#f4cabb; stroke:none;" d="M335.333 255.667L335.667 256.333L335.333 255.667z"/>
<path style="fill:#e56942; stroke:none;" d="M380 255L380 259L382 259L382 255L380 255z"/>
<path style="fill:#e88363; stroke:none;" d="M333 256L333 259L333 256z"/>
<path style="fill:#ec9d83; stroke:none;" d="M344 256L344 259L344 256M389 256L389 259L389 256z"/>
<path style="fill:#f3b5a3; stroke:none;" d="M391 256L391 259L391 256z"/>
<path style="fill:#e88363; stroke:none;" d="M340.333 257.667L340.667 258.333L340.333 257.667z"/>
<path style="fill:#cfe8e8; stroke:none;" d="M243 259L242 274L245 260L243 259z"/>
<path style="fill:#83bfbf; stroke:none;" d="M291 339L353 338C353.001 324.296 362.152 325.029 372 318.087C385.546 308.538 410.121 280.594 400.397 261.434C397.585 255.893 375.602 259 370 259L277 259L252 259.001C248.918 259.017 244.444 258.556 243.318 262.228C237.357 281.67 255.038 305.306 269.09 316.395C279.815 324.86 291 323.684 291 339z"/>
<path style="fill:#cfe8e8; stroke:none;" d="M401 260L401 273C402.591 269.209 402.591 263.791 401 260M245.333 283.667L245.667 284.333L245.333 283.667z"/>
<path style="fill:#aed5d4; stroke:none;" d="M392.333 295.667L392.667 296.333L392.333 295.667z"/>
<path style="fill:#cfe8e8; stroke:none;" d="M252.333 297.667L252.667 298.333L252.333 297.667M391.333 297.667L391.667 298.333L391.333 297.667M389 301L388 304L389 301M256.333 303.667L256.667 304.333L256.333 303.667z"/>
<path style="fill:#aed5d4; stroke:none;" d="M263 311L266 313L263 311M357.667 325.333L358.333 325.667L357.667 325.333M287.667 326.333L288.333 326.667L287.667 326.333z"/>
<path style="fill:#cfe8e8; stroke:none;" d="M355.667 326.333L356.333 326.667L355.667 326.333M290 327L290 338C291.431 334.59 291.431 330.41 290 327M353 327L353 338C354.431 334.59 354.431 330.41 353 327z"/>
<path style="fill:#aed5d4; stroke:none;" d="M347 338L351 339L347 338z"/>
<path style="fill:#cfe8e8; stroke:none;" d="M351.667 338.333L352.333 338.667L351.667 338.333M293 339L298 340L293 339z"/>
<path style="fill:#aed5d4; stroke:none;" d="M298 339C309.701 343.91 330.258 340 343 340C331.299 335.09 310.742 339 298 339z"/>
<path style="fill:#cfe8e8; stroke:none;" d="M343 339L349 340L343 339z"/>
<path style="fill:#c7b997; stroke:none;" d="M407 355L408 356L407 355z"/>
</svg>
