<?xml version="1.0" standalone="yes"?>
<svg xmlns="http://www.w3.org/2000/svg" width="640" height="480">
<path style="fill:#ffffff; stroke:none;" d="M0 0L0 480L640 480L640 0L0 0z"/>
<path style="fill:#cbe1e7; stroke:none;" d="M197 99L204 100L197 99z"/>
<path style="fill:#83bfbf; stroke:none;" d="M323 150L323 156L336 156C336.446 150.08 342.509 146.07 339.652 140.019C335.158 130.499 321.439 132.885 320 143L210 147L215.907 121C217.021 107.194 199.885 88.8214 189.649 106.093C182.49 118.174 190.709 129.386 193.529 141C194.869 146.515 192.029 154.431 198.109 157.82C205.004 161.664 207.766 154.701 213.093 152.603L226 152L323 150z"/>
<path style="fill:#c2dedc; stroke:none;" d="M188.333 107.667L188.667 108.333L188.333 107.667z"/>
<path style="fill:#cbe8e7; stroke:none;" d="M187.333 109.667L187.667 110.333L187.333 109.667z"/>
<path style="fill:#d5e8ec; stroke:none;" d="M186 113L186 121C187.161 118.23 187.161 115.77 186 113z"/>
<path style="fill:#c2dedc; stroke:none;" d="M188.333 127.667L188.667 128.333L188.333 127.667z"/>
<path style="fill:#cbe8e7; stroke:none;" d="M214.333 127.667L214.667 128.333L214.333 127.667M213.333 130.667L213.667 131.333L213.333 130.667M190.333 133.667L190.667 134.333L190.333 133.667z"/>
<path style="fill:#d5e8ec; stroke:none;" d="M324 134L334 134C330.651 132.595 327.436 132.985 324 134z"/>
<path style="fill:#d1dfe1; stroke:none;" d="M191.333 135.667L191.667 136.333L191.333 135.667z"/>
<path style="fill:#c2dedc; stroke:none;" d="M211.333 135.667L211.667 136.333L211.333 135.667z"/>
<path style="fill:#b6d9d9; stroke:none;" d="M321 136L321 139L323 136L321 136z"/>
<path style="fill:#e4f2f4; stroke:none;" d="M210 138L210 143L210 138z"/>
<path style="fill:#daeff0; stroke:none;" d="M193 139L193 154C194.74 149.852 194.74 143.148 193 139z"/>
<path style="fill:#c2dedc; stroke:none;" d="M319 140L312 142C314.278 143.1 320.531 144.062 319 140z"/>
<path style="fill:#daeff0; stroke:none;" d="M341 141L341 145L341 141z"/>
<path style="fill:#b1d9da; stroke:none;" d="M210 143L210 147L210 143z"/>
<path style="fill:#e4f2f4; stroke:none;" d="M283 143L291 144L283 143z"/>
<path style="fill:#c2dedc; stroke:none;" d="M291 143L299 144L291 143z"/>
<path style="fill:#cbe8e7; stroke:none;" d="M267 144L272 145L267 144z"/>
<path style="fill:#b1d9da; stroke:none;" d="M272 144L280 145L272 144z"/>
<path style="fill:#e4f2f4; stroke:none;" d="M240 145L248 146L240 145z"/>
<path style="fill:#b6dcda; stroke:none;" d="M248 145L256 146L248 145z"/>
<path style="fill:#cbe8e7; stroke:none;" d="M219 146L229 147L219 146z"/>
<path style="fill:#9bcdcd; stroke:none;" d="M312 150L323 151L312 150z"/>
<path style="fill:#c2dedc; stroke:none;" d="M336 150L336 156C336.951 153.715 336.951 152.285 336 150z"/>
<path style="fill:#a9cfcf; stroke:none;" d="M261 151L274 152L261 151z"/>
<path style="fill:#c2dedc; stroke:none;" d="M274 151L288 152L274 151z"/>
<path style="fill:#e4f2f4; stroke:none;" d="M288 151C293.959 153.5 302.564 152 309 152C303.041 149.5 294.436 151 288 151z"/>
<path style="fill:#cbe8e7; stroke:none;" d="M322 151L322 156L322 151z"/>
<path style="fill:#b6dcda; stroke:none;" d="M211 152C216.959 154.5 225.564 153 232 153C226.041 150.5 217.436 152 211 152z"/>
<path style="fill:#d5e8ec; stroke:none;" d="M232 152C236.724 153.982 242.91 153 248 153C243.276 151.018 237.09 152 232 152z"/>
<path style="fill:#e4f2f4; stroke:none;" d="M323 156L337 157L323 156M262 160C278.638 156.039 298.913 159 316 159C342.985 159 373.47 155.075 400 160C395.487 154.836 376.735 158 370 158L290 158C283.564 158 266.338 155.035 262 160z"/>
<path style="fill:#93c0c1; stroke:none;" d="M263 159L268 163L268 160C289.027 162.349 311.782 160 333 160C354.228 160 376.966 162.312 398 160C387.258 155.493 368.682 159 357 159L263 159z"/>
<path style="fill:#83bfbf; stroke:none;" d="M267 161L276.185 171.129C280.285 176.707 282.01 184.007 288.043 188.117C293.011 191.501 305.32 195.591 304.793 202.989C304.291 210.048 293.986 213.872 291 220L371 220C367.228 214.69 358.354 210.666 357.233 203.985C355.769 195.262 366.399 192.984 371.985 188.958C379.044 183.87 380.406 176.491 385.728 170.263L396 160L309 160C295.91 160 279.622 157.415 267 161z"/>
<path style="fill:#b6dcda; stroke:none;" d="M273.667 168.333L274.333 168.667L273.667 168.333z"/>
<path style="fill:#cbe8e7; stroke:none;" d="M385 171L388 168L385 171M276.333 170.667L276.667 171.333L276.333 170.667z"/>
<path style="fill:#a9cfcf; stroke:none;" d="M383 173L382 177L383 173z"/>
<path style="fill:#cbe8e7; stroke:none;" d="M281 180L283 183L281 180z"/>
<path style="fill:#a9cfcf; stroke:none;" d="M290 189L293 191L290 189z"/>
<path style="fill:#cbe1e7; stroke:none;" d="M294.667 192.333L295.333 192.667L294.667 192.333z"/>
<path style="fill:#daeff0; stroke:none;" d="M358 196L357 207L360 196L358 196z"/>
<path style="fill:#a9cfcf; stroke:none;" d="M304 198L304 207C305.256 204.006 305.256 200.994 304 198z"/>
<path style="fill:#d5e8ec; stroke:none;" d="M358.667 208.333L359.333 208.667L358.667 208.333z"/>
<path style="fill:#c2dedc; stroke:none;" d="M290 219C293.304 222.781 302.26 221 307 221L354 221C358.901 221 368.593 222.899 372 219C359.21 222.045 344.118 220 331 220C317.882 220 302.79 222.045 290 219z"/>
<path style="fill:#e4f2f4; stroke:none;" d="M223 223C228.463 225.292 236.113 224 242 224L283 224L426 224C420.538 221.708 412.887 223 407 223L366 223L223 223z"/>
<path style="fill:#b6d9d9; stroke:none;" d="M221 224L221 226L223 224L221 224z"/>
<path style="fill:#93c0c1; stroke:none;" d="M223 224C228.707 226.395 236.846 225 243 225L284 225L427 225C421.293 222.605 413.154 224 407 224L366 224L223 224z"/>
<path style="fill:#83bfbf; stroke:none;" d="M241 235L241 303L240.852 336.981C239.308 346.479 214.765 337.137 220.746 350.852C222.652 355.222 229.168 354 233 354L268 354L386 354L415 354C418.305 354 423.813 354.982 426.397 352.397C436.436 342.351 414.308 342 410 342L410 235C413.673 235 435.204 236.26 427.958 226.603C426.052 224.064 420.737 225 418 225L388 225L268 225L233 225C229.777 225 223.333 223.856 221.029 226.742C213.206 236.539 237.337 235 241 235z"/>
<path style="fill:#d5e8ec; stroke:none;" d="M429 226L428 233C430.293 230.997 430.14 228.734 429 226z"/>
<path style="fill:#cbe1e7; stroke:none;" d="M219 227L219 232L219 227z"/>
<path style="fill:#e4f2f4; stroke:none;" d="M223 235C227.974 237.087 234.638 236 240 236C235.026 233.913 228.362 235 223 235z"/>
<path style="fill:#b1d9da; stroke:none;" d="M240 235L240 341C242.903 334.081 241 323.48 241 316L241 262C241 253.993 243.105 242.4 240 235M410 235L410 342C412.903 335.081 411 324.48 411 317L411 263C411 254.729 413.206 242.639 410 235z"/>
<path style="fill:#e4f2f4; stroke:none;" d="M411 235C415.724 236.982 421.91 236 427 236C422.276 234.018 416.09 235 411 235z"/>
<path style="fill:#b6dcda; stroke:none;" d="M285 276C292.159 279.004 303.256 277 311 277L368 277C360.841 273.996 349.744 276 342 276L285 276z"/>
<path style="fill:#c2dedc; stroke:none;" d="M283.667 277.333L284.333 277.667L283.667 277.333z"/>
<path style="fill:#ffffff; stroke:none;" d="M285.015 277.532C281.479 278.397 278.27 280.651 276.843 284.093L276 296C276 305.503 272.175 324.812 281.301 330.91C287.176 334.837 297.277 333 304 333L347 333C353.902 333 362.353 334.293 368.999 332.196C373.086 330.906 375.721 328.019 377.08 323.999C380.309 314.451 381.444 284.974 371.981 279.228C365.406 275.237 355.379 277 348 277C328.549 277 303.894 272.914 285.015 277.532z"/>
<path style="fill:#b1d9da; stroke:none;" d="M368.667 277.333L369.333 277.667L368.667 277.333z"/>
<path style="fill:#b6dcda; stroke:none;" d="M377 284L377 287L377 284z"/>
<path style="fill:#a9cfcf; stroke:none;" d="M275.333 285.667L275.667 286.333L275.333 285.667z"/>
<path style="fill:#e4f2f4; stroke:none;" d="M275 287L275 322C278.046 314.742 278.046 294.258 275 287z"/>
<path style="fill:#b6d9d9; stroke:none;" d="M378 287L378 322C381.046 314.742 381.046 294.259 378 287z"/>
<path style="fill:#93c0c1; stroke:none;" d="M274 289L274 322C276.92 315.041 276.92 295.959 274 289z"/>
<path style="fill:#c2dedc; stroke:none;" d="M377.333 323.667L377.667 324.333L377.333 323.667M376.333 325.667L376.667 326.333L376.333 325.667z"/>
<path style="fill:#cbe8e7; stroke:none;" d="M283.667 332.333L284.333 332.667L283.667 332.333z"/>
<path style="fill:#c2dedc; stroke:none;" d="M285 333C291.678 335.802 301.784 334 309 334C327.553 334 352.237 338.251 370 333L343 333L285 333z"/>
<path style="fill:#e4f2f4; stroke:none;" d="M222 341C227.222 343.191 234.368 342 240 342C234.778 339.809 227.632 341 222 341z"/>
<path style="fill:#d1dfe1; stroke:none;" d="M424.667 342.333L425.333 342.667L424.667 342.333z"/>
<path style="fill:#c2dedc; stroke:none;" d="M220.333 343.667L220.667 344.333L220.333 343.667z"/>
<path style="fill:#daeff0; stroke:none;" d="M219 345L219 349L219 345z"/>
<path style="fill:#a9cfcf; stroke:none;" d="M428 345L428 350L428 345z"/>
<path style="fill:#9bcdcd; stroke:none;" d="M222 354C227.462 356.292 235.113 355 241 355L282 355L425 355C419.538 352.708 411.887 354 406 354L365 354L222 354z"/>
<path style="fill:#f1f9fb; stroke:none;" d="M223 355C228.462 357.292 236.113 356 242 356L283 356L425 356C419.538 353.708 411.887 355 406 355L365 355L223 355z"/>
</svg>
