<?xml version="1.0" standalone="yes"?>
<svg xmlns="http://www.w3.org/2000/svg" width="640" height="480">
<path style="fill:#ffffff; stroke:none;" d="M0 0L0 480L640 480L640 0L0 0z"/>
<path style="fill:#cce8e7; stroke:none;" d="M435 100L440 101L435 100z"/>
<path style="fill:#83bebf; stroke:none;" d="M431 148L351.001 143.981C343.524 143.652 340.839 130.801 332.264 136.028C323.597 141.311 331.515 150.366 332 157L342 157L342 152L409 153C416.935 153 428.471 150.186 432 159C435.162 158.989 439.012 159.406 441.258 156.682C444.244 153.06 442.568 147.276 443.213 143C444.879 131.962 453.587 115.833 445.436 105.109C433.303 89.1444 424.758 115.282 426.464 125L431 148z"/>
<path style="fill:#daeff0; stroke:none;" d="M427 108L426 112C427.303 110.332 427.553 110.008 427 108z"/>
<path style="fill:#bedede; stroke:none;" d="M447.333 108.667L447.667 109.333L447.333 108.667z"/>
<path style="fill:#9bcdcd; stroke:none;" d="M448 111L448 125C449.667 121.028 449.667 114.972 448 111z"/>
<path style="fill:#e5f2f5; stroke:none;" d="M426 125L427 133C428.038 130.102 427.433 127.696 426 125z"/>
<path style="fill:#bedede; stroke:none;" d="M447.333 128.667L447.667 129.333L447.333 128.667z"/>
<path style="fill:#d1e6e7; stroke:none;" d="M333 134L338 135L333 134z"/>
<path style="fill:#bedede; stroke:none;" d="M343.333 138.667L343.667 139.333L343.333 138.667z"/>
<path style="fill:#cce2e3; stroke:none;" d="M444.333 138.667L444.667 139.333L444.333 138.667M430 139L430 144L430 139z"/>
<path style="fill:#d1e6e7; stroke:none;" d="M344 140L344 143L344 140z"/>
<path style="fill:#cce8e7; stroke:none;" d="M443 140L443 154C444.667 150.028 444.667 143.972 443 140M327 142L327 147L327 142z"/>
<path style="fill:#cce2e3; stroke:none;" d="M345 143L351 144L345 143z"/>
<path style="fill:#bedede; stroke:none;" d="M360 144L366 145L360 144z"/>
<path style="fill:#9bcdcd; stroke:none;" d="M430 144L430 148L430 144z"/>
<path style="fill:#cce8e7; stroke:none;" d="M379 145L385 146L379 145z"/>
<path style="fill:#b3d9d8; stroke:none;" d="M391 146L401 147L391 146z"/>
<path style="fill:#9bcdcd; stroke:none;" d="M404 147L413 148L404 147z"/>
<path style="fill:#cce2e3; stroke:none;" d="M413 147L418 148L413 147z"/>
<path style="fill:#a8d4d4; stroke:none;" d="M331 151L331 157C331.951 154.715 331.951 153.285 331 151z"/>
<path style="fill:#d1e6e7; stroke:none;" d="M360 152L370 153L360 152z"/>
<path style="fill:#b3d9d8; stroke:none;" d="M370 152L385 153L370 152z"/>
<path style="fill:#d1e6e7; stroke:none;" d="M395 153C400.222 155.191 407.368 154 413 154C407.778 151.809 400.632 153 395 153z"/>
<path style="fill:#a8cdd0; stroke:none;" d="M413 153C417.974 155.087 424.638 154 430 154C425.026 151.913 418.362 153 413 153z"/>
<path style="fill:#e5f2f5; stroke:none;" d="M331 157L339 158L331 157M265 158C271.678 160.802 281.784 159 289 159L337 160C330.032 157.076 319.539 158 312 158L265 158M344 158C355.226 162.71 374.781 159 387 159C375.774 154.29 356.219 158 344 158z"/>
<path style="fill:#83bebf; stroke:none;" d="M263 159L276.185 171.129C280.287 176.706 282.009 184.006 288.043 188.117C293.011 191.501 305.32 195.591 304.793 202.989C304.291 210.048 293.986 213.872 291 220L371 220C367.228 214.69 358.354 210.666 357.233 203.985C355.769 195.262 366.399 192.984 371.985 188.958C378.722 184.102 380.372 177.444 385.058 171.13L394 161C374.714 156.591 353.614 159.133 334 159.961L263 159z"/>
<path style="fill:#9bcdcd; stroke:none;" d="M434 159L439 160L434 159z"/>
<path style="fill:#b1d9dd; stroke:none;" d="M394.333 161.667L394.667 162.333L394.333 161.667z"/>
<path style="fill:#bedede; stroke:none;" d="M273.667 168.333L274.333 168.667L273.667 168.333z"/>
<path style="fill:#cce8e7; stroke:none;" d="M385 171L388 168L385 171z"/>
<path style="fill:#cce2e3; stroke:none;" d="M276.333 170.667L276.667 171.333L276.333 170.667z"/>
<path style="fill:#a8cdd0; stroke:none;" d="M383 173L382 177L383 173z"/>
<path style="fill:#cce8e7; stroke:none;" d="M281 180L283 183L281 180z"/>
<path style="fill:#a8cdd0; stroke:none;" d="M290 189L293 191L290 189z"/>
<path style="fill:#cce2e3; stroke:none;" d="M294.667 192.333L295.333 192.667L294.667 192.333z"/>
<path style="fill:#daeff0; stroke:none;" d="M358 196L357 207L360 196L358 196z"/>
<path style="fill:#a8d4d4; stroke:none;" d="M304 198L304 207C305.256 204.006 305.256 200.994 304 198z"/>
<path style="fill:#d1e6e7; stroke:none;" d="M358.667 208.333L359.333 208.667L358.667 208.333z"/>
<path style="fill:#c1dedc; stroke:none;" d="M290 219C293.304 222.781 302.26 221 307 221L354 221C358.901 221 368.593 222.899 372 219C359.21 222.045 344.118 220 331 220C317.882 220 302.79 222.045 290 219z"/>
<path style="fill:#e5f2f5; stroke:none;" d="M223 223C228.463 225.292 236.113 224 242 224L283 224L426 224C420.538 221.708 412.887 223 407 223L366 223L223 223z"/>
<path style="fill:#bedede; stroke:none;" d="M221 224L221 226L223 224L221 224z"/>
<path style="fill:#93c0c1; stroke:none;" d="M223 224C228.707 226.395 236.846 225 243 225L284 225L427 225C421.293 222.605 413.154 224 407 224L366 224L223 224z"/>
<path style="fill:#83bebf; stroke:none;" d="M241 235L241 303L240.852 336.981C239.308 346.479 214.765 337.137 220.746 350.852C222.652 355.222 229.168 354 233 354L268 354L386 354L415 354C418.305 354 423.813 354.982 426.397 352.397C436.436 342.351 414.308 342 410 342L410 235C413.673 235 435.204 236.26 427.958 226.603C426.052 224.064 420.737 225 418 225L388 225L268 225L233 225C229.777 225 223.333 223.856 221.029 226.742C213.206 236.539 237.337 235 241 235z"/>
<path style="fill:#daeff0; stroke:none;" d="M429 226L428 233C430.293 230.997 430.14 228.734 429 226z"/>
<path style="fill:#cce2e3; stroke:none;" d="M219 227L219 232L219 227z"/>
<path style="fill:#e5f2f5; stroke:none;" d="M223 235C227.974 237.087 234.638 236 240 236C235.026 233.913 228.362 235 223 235z"/>
<path style="fill:#b1d9dd; stroke:none;" d="M240 235L240 341C242.903 334.081 241 323.48 241 316L241 262C241 253.993 243.105 242.4 240 235z"/>
<path style="fill:#b3d9d8; stroke:none;" d="M410 235L410 342C412.903 335.081 411 324.48 411 317L411 263C411 254.729 413.206 242.639 410 235z"/>
<path style="fill:#e5f2f5; stroke:none;" d="M411 235C415.724 236.982 421.91 236 427 236C422.276 234.018 416.09 235 411 235z"/>
<path style="fill:#b3d9d8; stroke:none;" d="M285 276C291.919 278.903 302.52 277 310 277C329.417 277 350.893 274.453 370 278C363.836 273.789 352.26 276 345 276L285 276z"/>
<path style="fill:#bedede; stroke:none;" d="M283.667 277.333L284.333 277.667L283.667 277.333z"/>
<path style="fill:#ffffff; stroke:none;" d="M285.015 277.532C281.479 278.397 278.27 280.651 276.843 284.093L276 296C276 305.503 272.175 324.812 281.301 330.91C287.176 334.837 297.277 333 304 333L347 333C353.902 333 362.353 334.293 368.999 332.196C373.086 330.906 375.721 328.019 377.08 323.999C380.309 314.451 381.444 284.974 371.981 279.228C365.406 275.237 355.379 277 348 277C328.549 277 303.894 272.914 285.015 277.532z"/>
<path style="fill:#bedede; stroke:none;" d="M377 284L377 287L377 284z"/>
<path style="fill:#a8cdd0; stroke:none;" d="M275.333 285.667L275.667 286.333L275.333 285.667z"/>
<path style="fill:#e5f2f5; stroke:none;" d="M275 287L275 322C278.046 314.742 278.046 294.258 275 287z"/>
<path style="fill:#b3d9d8; stroke:none;" d="M378 287L378 322C381.046 314.742 381.046 294.259 378 287z"/>
<path style="fill:#93c0c1; stroke:none;" d="M274 289L274 322C276.92 315.041 276.92 295.959 274 289z"/>
<path style="fill:#bedede; stroke:none;" d="M377.333 323.667L377.667 324.333L377.333 323.667z"/>
<path style="fill:#c1dedc; stroke:none;" d="M376.333 325.667L376.667 326.333L376.333 325.667z"/>
<path style="fill:#cce8e7; stroke:none;" d="M283.667 332.333L284.333 332.667L283.667 332.333z"/>
<path style="fill:#c1dedc; stroke:none;" d="M285 333C291.678 335.802 301.784 334 309 334C327.553 334 352.237 338.251 370 333L343 333L285 333z"/>
<path style="fill:#e5f2f5; stroke:none;" d="M222 341C227.222 343.191 234.368 342 240 342C234.778 339.809 227.632 341 222 341z"/>
<path style="fill:#cce2e3; stroke:none;" d="M424.667 342.333L425.333 342.667L424.667 342.333z"/>
<path style="fill:#c1dedc; stroke:none;" d="M220.333 343.667L220.667 344.333L220.333 343.667z"/>
<path style="fill:#daeff0; stroke:none;" d="M219 345L219 349L219 345z"/>
<path style="fill:#a8cdd0; stroke:none;" d="M428 345L428 350L428 345z"/>
<path style="fill:#9bcdcd; stroke:none;" d="M222 354C227.462 356.292 235.113 355 241 355L282 355L425 355C419.538 352.708 411.887 354 406 354L365 354L222 354z"/>
<path style="fill:#f1f9fb; stroke:none;" d="M223 355C228.462 357.292 236.113 356 242 356L283 356L425 356C419.538 353.708 411.887 355 406 355L365 355L223 355z"/>
</svg>
