<?xml version="1.0" standalone="yes"?>
<svg xmlns="http://www.w3.org/2000/svg" width="640" height="480">
<path style="fill:#ffffff; stroke:none;" d="M0 0L0 480L186 480L186 412C186 402.694 185.019 389.646 192.519 382.603C197.552 377.878 215.352 381 222 381L305 381L638 382L638 386L640 386L640 324C634.55 331.605 632.972 338.778 624 343.826C611.538 350.837 595.727 349 582 349L502 349C483.17 349 460.423 352.174 446.174 336.96C437.673 327.883 435.872 314.918 434.914 303L433 244C423.668 243.916 413.111 233.063 425.019 226.84C430.863 223.786 438.62 225 445 225L487 225L640 225L640 0L0 0z"/>
<path style="fill:#d7e8ea; stroke:none;" d="M269 45L270 40L283 40C277.343 37.6263 269.556 37.8665 269 45z"/>
<path style="fill:#83bfbf; stroke:none;" d="M270 40L273 52C261.632 52.724 245.283 73.1643 262 78L258.375 89L261.339 98.8341L253.329 112L253 145L253 196C253 209.726 248.38 233.902 255.367 245.995C262.771 258.809 293.437 258.041 300.175 244.91C305.12 235.274 302 218.641 302 208L302 120C302 115.119 302.366 110.208 299.347 106.043L292.661 98.7947C290.943 93.7035 300.289 87.7532 292 85L297.752 69L294 56L281 52L283 40L270 40z"/>
<path style="fill:#bbc5c5; stroke:none;" d="M283 40L283 45L283 40M270.667 45.3333L271.333 45.6667L270.667 45.3333M272 46L272 52C272.951 49.7147 272.951 48.2852 272 46M281 46C281.077 48.645 280.997 50.266 283 52L281 46M265.667 53.3333L266.333 53.6667L265.667 53.3333M286 53L289 54L286 53M289.667 54.3333L290.333 54.6667L289.667 54.3333z"/>
<path style="fill:#d7e8ea; stroke:none;" d="M291.667 55.3333L292.333 55.6667L291.667 55.3333M294 57L294 62L294 57M297 71L297 74L297 71M261 78L261 84C261.951 81.7147 261.951 80.2852 261 78M292 78L292 84C292.951 81.7147 292.951 80.2853 292 78M259.667 84.3333L260.333 84.6667L259.667 84.3333z"/>
<path style="fill:#bbc5c5; stroke:none;" d="M292.667 84.3333L293.333 84.6667L292.667 84.3333z"/>
<path style="fill:#d7e8ea; stroke:none;" d="M296 87L296 91L296 87M295.333 91.6667L295.667 92.3333L295.333 91.6667z"/>
<path style="fill:#bbc5c5; stroke:none;" d="M259.667 93.3333L260.333 93.6667L259.667 93.3333z"/>
<path style="fill:#d7e8ea; stroke:none;" d="M293.667 93.3333L294.333 93.6667L293.667 93.3333M261 94L261 101C262.059 98.4657 262.059 96.5343 261 94M292 94C292.032 96.875 291.792 99.0745 294 101L292 94M253.333 109.667L253.667 110.333L253.333 109.667M252 111L252 240C255.306 232.121 253 219.534 253 211L253 144C253 134.415 255.707 119.835 252 111M302 112L302 239C305.306 231.121 303 218.534 303 210L303 144C303 134.678 305.607 120.596 302 112z"/>
<path style="fill:#f7dcc8; stroke:none;" d="M427 225C432.707 227.395 440.846 226 447 226L490 226L640 226C634.293 223.605 626.154 225 620 225L577 225L427 225z"/>
<path style="fill:#e15321; stroke:none;" d="M421 241L432.397 244.603C437.124 249.345 434 267.565 434 274C434 292.977 432.356 324.359 447.4 338.526C459.163 349.603 478.025 349 493 349L593 348.985C606.712 348.649 625.838 347.494 634.301 334.999C641.45 324.444 640 310.049 640 298L640 226L472 226L437 226C432.961 226 426.762 224.911 423.434 227.742C419.937 230.717 421 236.92 421 241z"/>
<path style="fill:#e2774f; stroke:none;" d="M421 228L420 240C421.418 236.621 421.853 231.553 421 228M422.667 241.333L423.333 241.667L422.667 241.333z"/>
<path style="fill:#e99574; stroke:none;" d="M423.667 242.333L424.333 242.667L423.667 242.333z"/>
<path style="fill:#f7dcc8; stroke:none;" d="M425.667 243.333L426.333 243.667L425.667 243.333z"/>
<path style="fill:#f0b79d; stroke:none;" d="M427 243L433 244L427 243M433 244L433 276C435.857 269.191 435.857 250.809 433 244z"/>
<path style="fill:#d7e8ea; stroke:none;" d="M297 248L297 250L299 248L297 248z"/>
<path style="fill:#bbc5c5; stroke:none;" d="M261.667 252.333L262.333 252.667L261.667 252.333M265 254C271.687 256.806 281.767 255 289 255C282.313 252.194 272.233 254 265 254z"/>
<path style="fill:#f7dcc8; stroke:none;" d="M433 276L433 284C434.161 281.23 434.161 278.77 433 276z"/>
<path style="fill:#e2774f; stroke:none;" d="M434 288L434 292L434 288z"/>
<path style="fill:#f0b79d; stroke:none;" d="M434 292L434 300C435.161 297.23 435.161 294.77 434 292z"/>
<path style="fill:#d7e8ea; stroke:none;" d="M130 303L140 304L130 303z"/>
<path style="fill:#e99574; stroke:none;" d="M435 303L435 308L435 303z"/>
<path style="fill:#83bfbf; stroke:none;" d="M405 316L405 312L237 312L237 316L242 316L242 319L222 319L222 315C196.263 315 172.154 309.7 147 304.665C140.071 303.278 125.915 301.556 122.028 309.019C118.22 316.329 124.363 322.635 131 324.334C146.006 328.177 162.597 328.608 178 328.985L212.999 334.71L228 334.735L266 346.791L309 347L374 346.957C382.988 346.453 393.087 341.376 396.941 333C399.793 326.803 396.654 317.331 405 316z"/>
<path style="fill:#d7e8ea; stroke:none;" d="M150 305L154 306L150 305z"/>
<path style="fill:#bbc5c5; stroke:none;" d="M156 306L159 307L156 306z"/>
<path style="fill:#f0b79d; stroke:none;" d="M435.333 308.667L435.667 309.333L435.333 308.667z"/>
<path style="fill:#d7e8ea; stroke:none;" d="M171.667 309.333L172.333 309.667L171.667 309.333M120 311L120 316L120 311z"/>
<path style="fill:#f0b79d; stroke:none;" d="M436 313L436 316L436 313z"/>
<path style="fill:#d7e8ea; stroke:none;" d="M198 314C203.469 316.295 211.099 315 217 315C211.531 312.705 203.901 314 198 314z"/>
<path style="fill:#bbc5c5; stroke:none;" d="M222 316C222.654 319.054 224.007 318.936 227 319L222 316M238 316L242 317L238 316M400 316L404 317L400 316z"/>
<path style="fill:#e2774f; stroke:none;" d="M437 316L437 319L437 316z"/>
<path style="fill:#bbc5c5; stroke:none;" d="M399 317L399 325C400.161 322.23 400.161 319.77 399 317z"/>
<path style="fill:#d7e8ea; stroke:none;" d="M227 318L233 319L227 318z"/>
<path style="fill:#f7dcc8; stroke:none;" d="M437.333 319.667L437.667 320.333L437.333 319.667z"/>
<path style="fill:#e99574; stroke:none;" d="M639 319L639 322L639 319M438 321L438 324L438 321z"/>
<path style="fill:#f7dcc8; stroke:none;" d="M639.333 322.667L639.667 323.333L639.333 322.667z"/>
<path style="fill:#d7e8ea; stroke:none;" d="M130.667 324.333L131.333 324.667L130.667 324.333z"/>
<path style="fill:#e99574; stroke:none;" d="M638.333 324.667L638.667 325.333L638.333 324.667z"/>
<path style="fill:#d7e8ea; stroke:none;" d="M134 325L137 326L134 325z"/>
<path style="fill:#f0b79d; stroke:none;" d="M439.333 325.667L439.667 326.333L439.333 325.667z"/>
<path style="fill:#bbc5c5; stroke:none;" d="M141 326L146 327L141 326z"/>
<path style="fill:#d7e8ea; stroke:none;" d="M144 327L151 328L144 327M159 328L165 329L159 328z"/>
<path style="fill:#bbc5c5; stroke:none;" d="M165 328L173 329L165 328z"/>
<path style="fill:#f7dcc8; stroke:none;" d="M440.333 328.667L440.667 329.333L440.333 328.667M637.333 328.667L637.667 329.333L637.333 328.667z"/>
<path style="fill:#d7e8ea; stroke:none;" d="M173 329L184 330L173 329z"/>
<path style="fill:#bbc5c5; stroke:none;" d="M184 329L190 330L184 329z"/>
<path style="fill:#d7e8ea; stroke:none;" d="M192.667 330.333L193.333 330.667L192.667 330.333z"/>
<path style="fill:#f7dcc8; stroke:none;" d="M441.333 330.667L441.667 331.333L441.333 330.667z"/>
<path style="fill:#f0b79d; stroke:none;" d="M636.333 330.667L636.667 331.333L636.333 330.667z"/>
<path style="fill:#d7e8ea; stroke:none;" d="M397.333 331.667L397.667 332.333L397.333 331.667M201.667 332.333L202.333 332.667L201.667 332.333z"/>
<path style="fill:#e99574; stroke:none;" d="M442 332L443 333L442 332z"/>
<path style="fill:#d7e8ea; stroke:none;" d="M205.667 333.333L206.333 333.667L205.667 333.333z"/>
<path style="fill:#f0b79d; stroke:none;" d="M635 333L636 334L635 333z"/>
<path style="fill:#bbc5c5; stroke:none;" d="M210.667 334.333L211.333 334.667L210.667 334.333M213 335L220 336L213 335z"/>
<path style="fill:#d7e8ea; stroke:none;" d="M229.667 335.333L230.333 335.667L229.667 335.333z"/>
<path style="fill:#f0b79d; stroke:none;" d="M444 335L445 336L444 335z"/>
<path style="fill:#d7e8ea; stroke:none;" d="M233.667 336.333L234.333 336.667L233.667 336.333z"/>
<path style="fill:#e99574; stroke:none;" d="M445 336L446 337L445 336z"/>
<path style="fill:#f0b79d; stroke:none;" d="M633 336L634 337L633 336z"/>
<path style="fill:#e99574; stroke:none;" d="M446 337L447 338L446 337M632 337L633 338L632 337z"/>
<path style="fill:#d7e8ea; stroke:none;" d="M240.667 338.333L241.333 338.667L240.667 338.333z"/>
<path style="fill:#e99574; stroke:none;" d="M631 338L632 339L631 338M630 339L631 340L630 339z"/>
<path style="fill:#e2774f; stroke:none;" d="M449.667 340.333L450.333 340.667L449.667 340.333z"/>
<path style="fill:#f0b79d; stroke:none;" d="M629 340L630 341L629 340z"/>
<path style="fill:#e2774f; stroke:none;" d="M452.667 342.333L453.333 342.667L452.667 342.333z"/>
<path style="fill:#f0b79d; stroke:none;" d="M626 342L627 343L626 342z"/>
<path style="fill:#e2774f; stroke:none;" d="M454.667 343.333L455.333 343.667L454.667 343.333z"/>
<path style="fill:#e99574; stroke:none;" d="M623.667 343.333L624.333 343.667L623.667 343.333z"/>
<path style="fill:#f0b79d; stroke:none;" d="M455.667 344.333L456.333 344.667L455.667 344.333z"/>
<path style="fill:#f7dcc8; stroke:none;" d="M622.667 344.333L623.333 344.667L622.667 344.333z"/>
<path style="fill:#bbc5c5; stroke:none;" d="M260.667 345.333L261.333 345.667L260.667 345.333z"/>
<path style="fill:#d7e8ea; stroke:none;" d="M380.667 345.333L381.333 345.667L380.667 345.333z"/>
<path style="fill:#e99574; stroke:none;" d="M458.667 345.333L459.333 345.667L458.667 345.333z"/>
<path style="fill:#f0b79d; stroke:none;" d="M619.667 345.333L620.333 345.667L619.667 345.333M461.667 346.333L462.333 346.667L461.667 346.333z"/>
<path style="fill:#e99574; stroke:none;" d="M614 346L617 347L614 346z"/>
<path style="fill:#f7dcc8; stroke:none;" d="M617.667 346.333L618.333 346.667L617.667 346.333z"/>
<path style="fill:#bbc5c5; stroke:none;" d="M268 347C276.357 350.507 289.94 348 299 348L369 348C360.643 344.493 347.06 347 338 347L268 347z"/>
<path style="fill:#d7e8ea; stroke:none;" d="M369 347L374 348L369 347z"/>
<path style="fill:#f0b79d; stroke:none;" d="M465.667 347.333L466.333 347.667L465.667 347.333z"/>
<path style="fill:#e2774f; stroke:none;" d="M609 347L612 348L609 347z"/>
<path style="fill:#f7dcc8; stroke:none;" d="M612.667 347.333L613.333 347.667L612.667 347.333M469.667 348.333L470.333 348.667L469.667 348.333z"/>
<path style="fill:#f0b79d; stroke:none;" d="M471.667 348.333L472.333 348.667L471.667 348.333z"/>
<path style="fill:#e2774f; stroke:none;" d="M473 348L477 349L473 348M598 348L604 349L598 348z"/>
<path style="fill:#f0b79d; stroke:none;" d="M604.667 348.333L605.333 348.667L604.667 348.333z"/>
<path style="fill:#f7dcc8; stroke:none;" d="M606 348L609 349L606 348z"/>
<path style="fill:#c3c3c3; stroke:none;" d="M215 352L215 354C229.707 358.347 249.653 355 265 355C252.348 349.691 229.788 354 216 354L216 352L267 352C262.28 350.019 256.08 351 251 351C239.752 351 225.801 348.807 215 352M271 351C279.357 354.507 292.94 352 302 352L371 352C362.643 348.493 349.06 351 340 351L271 351M375 352L375 354C389.707 358.347 409.652 355 425 355C410.819 349.049 391.14 356.604 376 353C389.315 349.064 407.113 352 421 352C411.078 347.837 385.304 348.954 375 352z"/>
<path style="fill:#191919; stroke:none;" d="M377 352C389.414 357.209 411.474 353 425 353L425 351L377 352z"/>
<path style="fill:#6c6c6c; stroke:none;" d="M425 351C420.923 354.089 414.941 353 410 353L377 353C386.073 357.381 403.85 354 414 354C416.93 354 425.722 355.377 425 351z"/>
<path style="fill:#818181; stroke:none;" d="M426.333 351.667L426.667 352.333L426.333 351.667z"/>
<path style="fill:#a8a8a8; stroke:none;" d="M427.333 351.667L427.667 352.333L427.333 351.667z"/>
<path style="fill:#d7e8ea; stroke:none;" d="M440 351C437.61 354.686 433.756 353.579 430 355.274C417.555 360.89 403.582 359 390 359L243 359L219.001 358.721C210.433 356.958 198.052 348.157 190.189 358.275C188.224 360.804 184.741 368.472 189.318 370.307C196.502 373.187 211.994 370 220 370L295 370L638 370L638 359C590.216 359 541.656 359.03 494 356L496 351C486.223 358.81 467.082 355.001 455 355C449.183 355 444.355 355.313 440 351z"/>
<path style="fill:#a8a8a8; stroke:none;" d="M441 351C441.482 353.364 441.636 353.518 444 354L441 351z"/>
<path style="fill:#818181; stroke:none;" d="M442.333 351.667L442.667 352.333L442.333 351.667z"/>
<path style="fill:#6c6c6c; stroke:none;" d="M443 351C445.482 354.829 449.794 354 454 354L483 354C487.206 354 491.518 354.829 494 351C483.459 355.039 470.184 353 459 353C453.516 353 447.927 353.74 443 351z"/>
<path style="fill:#191919; stroke:none;" d="M444 351L444 353L492 353L492 351L444 351z"/>
<path style="fill:#a8a8a8; stroke:none;" d="M494.333 351.667L494.667 352.333L494.333 351.667M498 351L500 354L498 351z"/>
<path style="fill:#6c6c6c; stroke:none;" d="M499.333 351.667L499.667 352.333L499.333 351.667z"/>
<path style="fill:#191919; stroke:none;" d="M500 351L500 353L598 353L598 351L500 351z"/>
<path style="fill:#8a8a8a; stroke:none;" d="M598 351C592.4 355.242 580.85 353 574 353C577.547 354.713 598.782 355.741 598 351z"/>
<path style="fill:#d7e8ea; stroke:none;" d="M599 351C593.476 356.641 582.339 353.42 575 354.285C549.939 357.242 524.145 354 499 354C505.202 356.602 513.347 354.537 520 355.17L603 355L601 351L599 351z"/>
<path style="fill:#8a8a8a; stroke:none;" d="M601.333 351.667L601.667 352.333L601.333 351.667z"/>
<path style="fill:#191919; stroke:none;" d="M602 351L602 353L638 353L638 351L602 351M216 352C229.127 357.508 252.689 353 267 353C253.873 347.492 230.311 352 216 352z"/>
<path style="fill:#8a8a8a; stroke:none;" d="M267 352L265 353C266.453 353.555 267.076 353.604 267 352z"/>
<path style="fill:#d7e8ea; stroke:none;" d="M265 354C273.444 356.845 285.095 355 294 355C288.043 352.5 270.846 351.643 265 354z"/>
<path style="fill:#6c6c6c; stroke:none;" d="M271.667 352.333L272.333 352.667L271.667 352.333z"/>
<path style="fill:#191919; stroke:none;" d="M273 352C281.118 355.407 294.203 353 303 353L370 353C361.882 349.593 348.797 352 340 352L273 352z"/>
<path style="fill:#6c6c6c; stroke:none;" d="M370 352L371 353L370 352z"/>
<path style="fill:#d7e8ea; stroke:none;" d="M349 354C356.263 357.048 367.351 354.967 375 354L375 352L349 354z"/>
<path style="fill:#6c6c6c; stroke:none;" d="M376 352L377 353L376 352M216 353C228.652 358.309 251.212 354 265 354C252.348 348.691 229.788 353 216 353z"/>
<path style="fill:#a8a8a8; stroke:none;" d="M271.667 353.333L272.333 353.667L271.667 353.333z"/>
<path style="fill:#818181; stroke:none;" d="M273 353C278.959 355.5 287.564 354 294 354C288.041 351.5 279.436 353 273 353z"/>
<path style="fill:#6c6c6c; stroke:none;" d="M294 353C299.216 355.189 306.381 354 312 354L349 354C343.784 351.811 336.619 353 331 353L294 353z"/>
<path style="fill:#8a8a8a; stroke:none;" d="M349 353C354.959 355.5 363.564 354 370 354C364.041 351.5 355.436 353 349 353z"/>
<path style="fill:#a8a8a8; stroke:none;" d="M425.667 353.333L426.333 353.667L425.667 353.333z"/>
<path style="fill:#8a8a8a; stroke:none;" d="M500 353C506.202 355.603 515.298 354 522 354C515.798 351.397 506.702 353 500 353z"/>
<path style="fill:#6c6c6c; stroke:none;" d="M522 353C526.969 355.085 533.65 354 539 354L574 354C569.031 351.915 562.35 353 557 353L522 353M602 353C611.56 357.011 627.613 354 638 354C628.44 349.989 612.387 353 602 353z"/>
<path style="fill:#c3c3c3; stroke:none;" d="M294 354C299.216 356.189 306.381 355 312 355L349 355C343.784 352.811 336.619 354 331 354L294 354M444 354C456.652 359.309 479.212 355 493 355C480.348 349.691 457.788 354 444 354M523 354C536.127 359.508 559.689 355 574 355C560.873 349.492 537.311 354 523 354M603 354C612.321 357.911 627.875 355 638 355C628.679 351.089 613.125 354 603 354z"/>
<path style="fill:#d7e8ea; stroke:none;" d="M217 355C229.414 360.209 251.474 356 265 356C252.586 350.791 230.526 355 217 355M295 355C308.127 360.508 331.689 356 346 356C332.873 350.492 309.311 355 295 355M377 355C389.177 360.11 410.735 356 424 356C411.823 350.891 390.265 355 377 355M605 355C613.844 358.711 628.399 356 638 356C629.156 352.289 614.601 355 605 355z"/>
<path style="fill:#fbfbfb; stroke:none;" d="M444 357C456.652 362.309 479.212 358 493 358C480.348 352.691 457.788 357 444 357z"/>
<path style="fill:#c3c3c3; stroke:none;" d="M186 376C201.159 372.391 219.438 375 235 375L331 375L638 375C629.643 371.493 616.06 374 607 374L536 374L291 374L213 374C206.713 374 190.25 371.136 186 376z"/>
<path style="fill:#818181; stroke:none;" d="M187 375C193.436 377.701 203.049 376 210 376L262 376C255.564 373.299 245.951 375 239 375L187 375z"/>
<path style="fill:#6c6c6c; stroke:none;" d="M262 375C270.835 378.707 285.415 376 295 376L372 376L638 376C629.165 372.293 614.585 375 605 375L528 375L262 375M186 376L187 377L186 376z"/>
<path style="fill:#191919; stroke:none;" d="M187 376C193.928 378.907 204.503 377 212 377C205.072 374.093 194.497 376 187 376z"/>
<path style="fill:#3a3a3a; stroke:none;" d="M212 376C217.462 378.292 225.113 377 231 377L272 377C266.538 374.708 258.887 376 253 376L212 376z"/>
<path style="fill:#191919; stroke:none;" d="M272 376C280.835 379.707 295.415 377 305 377L379 377L638 377C629.165 373.293 614.585 376 605 376L531 376L272 376z"/>
<path style="fill:#a8a8a8; stroke:none;" d="M186 377L187 378L186 377z"/>
<path style="fill:#818181; stroke:none;" d="M187 377C196.083 380.811 211.137 378 221 378C211.917 374.189 196.863 377 187 377z"/>
<path style="fill:#8a8a8a; stroke:none;" d="M221 377C232.226 381.71 251.781 378 264 378C252.774 373.29 233.219 377 221 377z"/>
<path style="fill:#818181; stroke:none;" d="M264 377C271.879 380.306 284.466 378 293 378L358 378C350.121 374.694 337.534 377 329 377L264 377z"/>
<path style="fill:#6c6c6c; stroke:none;" d="M358 377C364.678 379.802 374.784 378 382 378L435 378C428.322 375.198 418.216 377 411 377L358 377z"/>
<path style="fill:#818181; stroke:none;" d="M435 377C440.707 379.395 448.846 378 455 378L497 378C491.293 375.605 483.154 377 477 377L435 377z"/>
<path style="fill:#6c6c6c; stroke:none;" d="M497 377C507.98 381.607 527.056 378 539 378L638 378C627.02 373.393 607.944 377 596 377L497 377z"/>
<path style="fill:#c3c3c3; stroke:none;" d="M186 378C196.504 382.408 214.58 379 226 379L318 379L638 379C627.496 374.592 609.42 378 598 378L506 378L186 378z"/>
<path style="fill:#d7e8ea; stroke:none;" d="M186 480L640 480C640 448.629 644.802 412.518 638 382L303 381L220 381C213.884 381 196.19 377.994 191.766 382.603C184.68 389.986 186 402.665 186 412L186 480z"/>
</svg>
