<?xml version="1.0" standalone="yes"?>
<svg xmlns="http://www.w3.org/2000/svg" width="640" height="480">
<path style="fill:#ffffff; stroke:none;" d="M0 0L0 480L640 480L640 0L0 0z"/>
<path style="fill:#b7ac89; stroke:none;" d="M301.667 159.333L302.333 159.667L301.667 159.333z"/>
<path style="fill:#9f8d5f; stroke:none;" d="M303 159L315 160L303 159z"/>
<path style="fill:#e2ddcb; stroke:none;" d="M315.667 159.333L316.333 159.667L315.667 159.333z"/>
<path style="fill:#d3ccb7; stroke:none;" d="M299 160L300 161L299 160z"/>
<path style="fill:#897443; stroke:none;" d="M300 160L297 168L303 161L300 160z"/>
<path style="fill:#71571b; stroke:none;" d="M302 160L297.832 169.981C300.266 181.217 327.594 170.095 316 166C314.911 158.589 307.975 160 302 160z"/>
<path style="fill:#8e7e56; stroke:none;" d="M314 160L316 166L320 169C321.651 164.23 318.54 160.966 314 160z"/>
<path style="fill:#c4bda5; stroke:none;" d="M317 160L318 161L317 160z"/>
<path style="fill:#ccc0a4; stroke:none;" d="M298 161L299 162L298 161z"/>
<path style="fill:#9f8d5f; stroke:none;" d="M298 162L297 165L298 162z"/>
<path style="fill:#c4bda5; stroke:none;" d="M319 162L320 163L319 162M320.333 163.667L320.667 164.333L320.333 163.667z"/>
<path style="fill:#b7ac89; stroke:none;" d="M296 164L296 169L296 164z"/>
<path style="fill:#d3ccb7; stroke:none;" d="M320.333 169.667L320.667 170.333L320.333 169.667z"/>
<path style="fill:#b4ad90; stroke:none;" d="M319 171L320 172L319 171z"/>
<path style="fill:#c4bda5; stroke:none;" d="M298 172L299 173L298 172z"/>
<path style="fill:#a49470; stroke:none;" d="M318 172L319 173L318 172z"/>
<path style="fill:#d3ccb7; stroke:none;" d="M299 173L300 174L299 173z"/>
<path style="fill:#bfb397; stroke:none;" d="M317 173L318 174L317 173z"/>
<path style="fill:#ab9e7c; stroke:none;" d="M301 174L315 175L301 174z"/>
<path style="fill:#e2ddcb; stroke:none;" d="M315.667 174.333L316.333 174.667L315.667 174.333M302 178L312 179L302 178M288 179L293 180L288 179z"/>
<path style="fill:#a49470; stroke:none;" d="M293 179L297 180L293 179z"/>
<path style="fill:#897443; stroke:none;" d="M297 179C301.974 181.087 308.638 180 314 180C309.026 177.913 302.362 179 297 179z"/>
<path style="fill:#9f8d5f; stroke:none;" d="M314 179L319 180L314 179z"/>
<path style="fill:#bfb397; stroke:none;" d="M319 179L322 180L319 179z"/>
<path style="fill:#ddd2bf; stroke:none;" d="M284 180L287 181L284 180z"/>
<path style="fill:#a49470; stroke:none;" d="M287.667 180.333L288.333 180.667L287.667 180.333z"/>
<path style="fill:#71571b; stroke:none;" d="M188 291L428 290C427.195 274.287 418.338 257.39 410.698 244C400.063 225.359 386.311 207.958 368 196.286C307.646 157.816 233.531 187.455 202.756 248C196.207 260.885 189.189 276.445 188 291z"/>
<path style="fill:#9f8d5f; stroke:none;" d="M324 180L327 181L324 180z"/>
<path style="fill:#ccc0a4; stroke:none;" d="M327 180L330 181L327 180z"/>
<path style="fill:#c4bda5; stroke:none;" d="M280.667 181.333L281.333 181.667L280.667 181.333z"/>
<path style="fill:#9f8d5f; stroke:none;" d="M282.667 181.333L283.333 181.667L282.667 181.333z"/>
<path style="fill:#897443; stroke:none;" d="M329 181L332 182L329 181z"/>
<path style="fill:#d3ccb7; stroke:none;" d="M332 181L335 182L332 181z"/>
<path style="fill:#a49470; stroke:none;" d="M277.667 182.333L278.333 182.667L277.667 182.333z"/>
<path style="fill:#897443; stroke:none;" d="M279.667 182.333L280.333 182.667L279.667 182.333z"/>
<path style="fill:#ab9e7c; stroke:none;" d="M335.667 182.333L336.333 182.667L335.667 182.333z"/>
<path style="fill:#e2ddcb; stroke:none;" d="M337.667 182.333L338.333 182.667L337.667 182.333z"/>
<path style="fill:#b7ac89; stroke:none;" d="M273.667 183.333L274.333 183.667L273.667 183.333z"/>
<path style="fill:#9f8d5f; stroke:none;" d="M338 183L341 184L338 183z"/>
<path style="fill:#ddd2bf; stroke:none;" d="M269.667 184.333L270.333 184.667L269.667 184.333z"/>
<path style="fill:#8e7e56; stroke:none;" d="M271.667 184.333L272.333 184.667L271.667 184.333M341.667 184.333L342.333 184.667L341.667 184.333z"/>
<path style="fill:#d3ccb7; stroke:none;" d="M343.667 184.333L344.333 184.667L343.667 184.333z"/>
<path style="fill:#b7ac89; stroke:none;" d="M267.667 185.333L268.333 185.667L267.667 185.333z"/>
<path style="fill:#e2ddcb; stroke:none;" d="M346.667 185.333L347.333 185.667L346.667 185.333z"/>
<path style="fill:#c4bda5; stroke:none;" d="M265 186L266 187L265 186z"/>
<path style="fill:#9f8d5f; stroke:none;" d="M348 186L349 187L348 186z"/>
<path style="fill:#8e7e56; stroke:none;" d="M263.667 187.333L264.333 187.667L263.667 187.333z"/>
<path style="fill:#e2ddcb; stroke:none;" d="M351.667 187.333L352.333 187.667L351.667 187.333z"/>
<path style="fill:#ddd2bf; stroke:none;" d="M260 188L261 189L260 188z"/>
<path style="fill:#ab9e7c; stroke:none;" d="M353 188L354 189L353 188z"/>
<path style="fill:#d3ccb7; stroke:none;" d="M258 189L259 190L258 189z"/>
<path style="fill:#a49470; stroke:none;" d="M355 189L356 190L355 189z"/>
<path style="fill:#ccc0a4; stroke:none;" d="M256 190L257 191L256 190z"/>
<path style="fill:#ab9e7c; stroke:none;" d="M357 190L358 191L357 190z"/>
<path style="fill:#d3ccb7; stroke:none;" d="M358 190L359 191L358 190z"/>
<path style="fill:#ddd2bf; stroke:none;" d="M254 191L255 192L254 191z"/>
<path style="fill:#897443; stroke:none;" d="M255.667 191.333L256.333 191.667L255.667 191.333z"/>
<path style="fill:#a49470; stroke:none;" d="M359 191L360 192L359 191z"/>
<path style="fill:#ab9e7c; stroke:none;" d="M361 192L362 193L361 192z"/>
<path style="fill:#bfb397; stroke:none;" d="M251 193L252 194L251 193z"/>
<path style="fill:#b7ac89; stroke:none;" d="M363 193L364 194L363 193z"/>
<path style="fill:#d3ccb7; stroke:none;" d="M249 194L250 195L249 194z"/>
<path style="fill:#8e7e56; stroke:none;" d="M364 194L365 195L364 194z"/>
<path style="fill:#ccc0a4; stroke:none;" d="M365 194L366 195L365 194z"/>
<path style="fill:#ab9e7c; stroke:none;" d="M248 195L249 196L248 195z"/>
<path style="fill:#c4bda5; stroke:none;" d="M246 196L247 197L246 196z"/>
<path style="fill:#ccc0a4; stroke:none;" d="M368 196L369 197L368 196z"/>
<path style="fill:#ab9e7c; stroke:none;" d="M369 197L370 198L369 197z"/>
<path style="fill:#d3ccb7; stroke:none;" d="M243 198L244 199L243 198z"/>
<path style="fill:#b7ac89; stroke:none;" d="M242 199L243 200L242 199M372 199L373 200L372 199z"/>
<path style="fill:#9f8d5f; stroke:none;" d="M241 200L242 201L241 200z"/>
<path style="fill:#d3ccb7; stroke:none;" d="M239 201L240 202L239 201z"/>
<path style="fill:#c4bda5; stroke:none;" d="M238 202L239 203L238 202z"/>
<path style="fill:#b4ad90; stroke:none;" d="M376 202L377 203L376 202z"/>
<path style="fill:#ab9e7c; stroke:none;" d="M237 203L238 204L237 203z"/>
<path style="fill:#a49470; stroke:none;" d="M377 203L378 204L377 203M236 204L237 205L236 204z"/>
<path style="fill:#d3ccb7; stroke:none;" d="M379 204L380 205L379 204M380 205L381 206L380 205M233 206L234 207L233 206z"/>
<path style="fill:#ccc0a4; stroke:none;" d="M381 206L382 207L381 206z"/>
<path style="fill:#d3ccb7; stroke:none;" d="M232 207L233 208L232 207z"/>
<path style="fill:#bfb397; stroke:none;" d="M382 207L383 208L382 207z"/>
<path style="fill:#d3ccb7; stroke:none;" d="M231 208L232 209L231 208z"/>
<path style="fill:#b4ad90; stroke:none;" d="M383 208L384 209L383 208z"/>
<path style="fill:#ccc0a4; stroke:none;" d="M230 209L231 210L230 209z"/>
<path style="fill:#b7ac89; stroke:none;" d="M384 209L385 210L384 209z"/>
<path style="fill:#ccc0a4; stroke:none;" d="M229 210L230 211L229 210z"/>
<path style="fill:#b7ac89; stroke:none;" d="M385 210L386 211L385 210z"/>
<path style="fill:#ccc0a4; stroke:none;" d="M228 211L229 212L228 211z"/>
<path style="fill:#b7ac89; stroke:none;" d="M386 211L387 212L386 211z"/>
<path style="fill:#ccc0a4; stroke:none;" d="M227 212L228 213L227 212z"/>
<path style="fill:#b4ad90; stroke:none;" d="M387 212L388 213L387 212z"/>
<path style="fill:#ccc0a4; stroke:none;" d="M226 213L227 214L226 213z"/>
<path style="fill:#b7ac89; stroke:none;" d="M388 213L389 214L388 213z"/>
<path style="fill:#b4ad90; stroke:none;" d="M389 214L390 215L389 214z"/>
<path style="fill:#b7ac89; stroke:none;" d="M390 215L391 216L390 215z"/>
<path style="fill:#9f8d5f; stroke:none;" d="M224 216L225 217L224 216z"/>
<path style="fill:#c4bda5; stroke:none;" d="M391 216L392 217L391 216z"/>
<path style="fill:#9f8d5f; stroke:none;" d="M223 217L224 218L223 217z"/>
<path style="fill:#ccc0a4; stroke:none;" d="M392 217L393 218L392 217z"/>
<path style="fill:#ab9e7c; stroke:none;" d="M222 218L223 219L222 218z"/>
<path style="fill:#b7ac89; stroke:none;" d="M221 219L222 220L221 219z"/>
<path style="fill:#c4bda5; stroke:none;" d="M220 220L221 221L220 220z"/>
<path style="fill:#a49470; stroke:none;" d="M394 220L395 221L394 220z"/>
<path style="fill:#d3ccb7; stroke:none;" d="M219 221L220 222L219 221z"/>
<path style="fill:#ab9e7c; stroke:none;" d="M395 221L396 222L395 221z"/>
<path style="fill:#b7ac89; stroke:none;" d="M396 222L397 223L396 222z"/>
<path style="fill:#a49470; stroke:none;" d="M218 223L219 224L218 223z"/>
<path style="fill:#d3ccb7; stroke:none;" d="M397 223L398 224L397 223z"/>
<path style="fill:#b7ac89; stroke:none;" d="M217 224L218 225L217 224z"/>
<path style="fill:#ddd2bf; stroke:none;" d="M216 225L217 226L216 225z"/>
<path style="fill:#a49470; stroke:none;" d="M398 225L399 226L398 225z"/>
<path style="fill:#897443; stroke:none;" d="M216 226L215 229L216 226z"/>
<path style="fill:#b4ad90; stroke:none;" d="M399 226L400 227L399 226z"/>
<path style="fill:#ccc0a4; stroke:none;" d="M400 227L401 228L400 227z"/>
<path style="fill:#bfb397; stroke:none;" d="M214 228L215 229L214 228z"/>
<path style="fill:#a49470; stroke:none;" d="M401 229L402 230L401 229z"/>
<path style="fill:#9f8d5f; stroke:none;" d="M213 230L214 231L213 230z"/>
<path style="fill:#c4bda5; stroke:none;" d="M402 230L403 231L402 230z"/>
<path style="fill:#b7ac89; stroke:none;" d="M212 231L213 232L212 231z"/>
<path style="fill:#d3ccb7; stroke:none;" d="M211 232L212 233L211 232z"/>
<path style="fill:#9f8d5f; stroke:none;" d="M403 232L404 233L403 232z"/>
<path style="fill:#ccc0a4; stroke:none;" d="M404 233L405 234L404 233z"/>
<path style="fill:#e2ddcb; stroke:none;" d="M405.333 233.667L405.667 234.333L405.333 233.667z"/>
<path style="fill:#bfb397; stroke:none;" d="M210 234L211 235L210 234z"/>
<path style="fill:#a49470; stroke:none;" d="M209 236L210 237L209 236z"/>
<path style="fill:#bfb397; stroke:none;" d="M406 236L407 237L406 236z"/>
<path style="fill:#d3ccb7; stroke:none;" d="M208 237L209 238L208 237z"/>
<path style="fill:#ab9e7c; stroke:none;" d="M407 238L408 239L407 238z"/>
<path style="fill:#b7ac89; stroke:none;" d="M207 239L208 240L207 239z"/>
<path style="fill:#ab9e7c; stroke:none;" d="M206 241L207 242L206 241z"/>
<path style="fill:#bfb397; stroke:none;" d="M409 241L410 242L409 241z"/>
<path style="fill:#897443; stroke:none;" d="M410.333 243.667L410.667 244.333L410.333 243.667z"/>
<path style="fill:#c4bda5; stroke:none;" d="M204 244L205 245L204 244z"/>
<path style="fill:#d3ccb7; stroke:none;" d="M411 244L412 245L411 244z"/>
<path style="fill:#a49470; stroke:none;" d="M411 245L412 246L411 245z"/>
<path style="fill:#bfb397; stroke:none;" d="M203 246L204 247L203 246z"/>
<path style="fill:#d3ccb7; stroke:none;" d="M412 246L413 247L412 246z"/>
<path style="fill:#bfb397; stroke:none;" d="M202 248L203 249L202 248z"/>
<path style="fill:#ccc0a4; stroke:none;" d="M413 248L414 249L413 248z"/>
<path style="fill:#c4bda5; stroke:none;" d="M201 250L202 251L201 250z"/>
<path style="fill:#ccc0a4; stroke:none;" d="M414 250L415 251L414 250z"/>
<path style="fill:#bfb397; stroke:none;" d="M200 252L201 253L200 252z"/>
<path style="fill:#ccc0a4; stroke:none;" d="M415 252L416 253L415 252M199 254L200 255L199 254M416 254L417 255L416 254z"/>
<path style="fill:#d3ccb7; stroke:none;" d="M198 256L199 257L198 256M417 256L418 257L417 256z"/>
<path style="fill:#e2ddcb; stroke:none;" d="M197.333 257.667L197.667 258.333L197.333 257.667z"/>
<path style="fill:#897443; stroke:none;" d="M197.333 259.667L197.667 260.333L197.333 259.667z"/>
<path style="fill:#8e7e56; stroke:none;" d="M418.333 259.667L418.667 260.333L418.333 259.667z"/>
<path style="fill:#bfb397; stroke:none;" d="M196 261L197 262L196 261M419 261L420 262L419 261z"/>
<path style="fill:#a49470; stroke:none;" d="M195.333 263.667L195.667 264.333L195.333 263.667z"/>
<path style="fill:#ccc0a4; stroke:none;" d="M420 263L421 264L420 263z"/>
<path style="fill:#b4ad90; stroke:none;" d="M421.333 265.667L421.667 266.333L421.333 265.667z"/>
<path style="fill:#8e7e56; stroke:none;" d="M194.333 266.667L194.667 267.333L194.333 266.667z"/>
<path style="fill:#ab9e7c; stroke:none;" d="M193.333 268.667L193.667 269.333L193.333 268.667z"/>
<path style="fill:#ccc0a4; stroke:none;" d="M422 268L423 269L422 268z"/>
<path style="fill:#a49470; stroke:none;" d="M192.333 271.667L192.667 272.333L192.333 271.667z"/>
<path style="fill:#9f8d5f; stroke:none;" d="M423.333 271.667L423.667 272.333L423.333 271.667z"/>
<path style="fill:#c4bda5; stroke:none;" d="M191.333 273.667L191.667 274.333L191.333 273.667z"/>
<path style="fill:#b7ac89; stroke:none;" d="M424.333 273.667L424.667 274.333L424.333 273.667z"/>
<path style="fill:#897443; stroke:none;" d="M191.333 275.667L191.667 276.333L191.333 275.667z"/>
<path style="fill:#b4ad90; stroke:none;" d="M425.333 276.667L425.667 277.333L425.333 276.667z"/>
<path style="fill:#a49470; stroke:none;" d="M190.333 277.667L190.667 278.333L190.333 277.667z"/>
<path style="fill:#d3ccb7; stroke:none;" d="M189.333 279.667L189.667 280.333L189.333 279.667z"/>
<path style="fill:#bfb397; stroke:none;" d="M426.333 279.667L426.667 280.333L426.333 279.667z"/>
<path style="fill:#8e7e56; stroke:none;" d="M189.333 281.667L189.667 282.333L189.333 281.667z"/>
<path style="fill:#897443; stroke:none;" d="M426.333 281.667L426.667 282.333L426.333 281.667z"/>
<path style="fill:#bfb397; stroke:none;" d="M188.333 283.667L188.667 284.333L188.333 283.667z"/>
<path style="fill:#ab9e7c; stroke:none;" d="M427.333 283.667L427.667 284.333L427.333 283.667z"/>
<path style="fill:#897443; stroke:none;" d="M188.333 285.667L188.667 286.333L188.333 285.667z"/>
<path style="fill:#ddd2bf; stroke:none;" d="M187 286L187 289L187 286z"/>
<path style="fill:#9f8d5f; stroke:none;" d="M428 287C424.942 291.717 417.074 290 412 290C416.974 292.087 423.638 291 429 291L428 287z"/>
<path style="fill:#897443; stroke:none;" d="M187 289C187.904 293.221 192.346 292 196 292L225 292C213.468 287.161 198.235 295.248 187 289M328 290C333.707 292.395 341.846 291 348 291L391 291C385.293 288.605 377.154 290 371 290L328 290z"/>
<path style="fill:#8e7e56; stroke:none;" d="M391 290C396.959 292.5 405.564 291 412 291C406.041 288.5 397.436 290 391 290M225 291C230.959 293.5 239.564 292 246 292C240.041 289.5 231.436 291 225 291z"/>
<path style="fill:#9f8d5f; stroke:none;" d="M246 291C251.959 293.5 260.564 292 267 292C261.041 289.5 252.436 291 246 291z"/>
<path style="fill:#ab9e7c; stroke:none;" d="M267 291C272.715 293.398 280.831 292 287 292C281.285 289.602 273.169 291 267 291z"/>
<path style="fill:#b4ad90; stroke:none;" d="M287 291C292.959 293.5 301.564 292 308 292C302.041 289.5 293.436 291 287 291z"/>
<path style="fill:#c4bda5; stroke:none;" d="M308 291C313.959 293.5 322.564 292 329 292C323.041 289.5 314.436 291 308 291z"/>
<path style="fill:#d3ccb7; stroke:none;" d="M329 291C335.202 293.603 344.298 292 351 292C344.798 289.397 335.702 291 329 291z"/>
<path style="fill:#e2ddcb; stroke:none;" d="M351 291C356.715 293.398 364.831 292 371 292C365.285 289.602 357.169 291 351 291z"/>
<path style="fill:#f7efdf; stroke:none;" d="M371 291C376.217 293.189 383.381 292 389 292L428 292C422.784 289.811 415.619 291 410 291L371 291z"/>
<path style="fill:#e2ddcb; stroke:none;" d="M187 292C191.724 293.982 197.91 293 203 293C198.276 291.018 192.09 292 187 292z"/>
<path style="fill:#f7efdf; stroke:none;" d="M203 292C208.707 294.395 216.846 293 223 293L267 293C261.293 290.605 253.154 292 247 292L203 292z"/>
<path style="fill:#bfb397; stroke:none;" d="M178.667 299.333L179.333 299.667L178.667 299.333z"/>
<path style="fill:#9f8d5f; stroke:none;" d="M180 299C186.678 301.802 196.784 300 204 300L256 300L437 300C430.322 297.198 420.216 299 413 299L361 299L180 299z"/>
<path style="fill:#ccc0a4; stroke:none;" d="M437.667 299.333L438.333 299.667L437.667 299.333z"/>
<path style="fill:#71571b; stroke:none;" d="M177.148 301.028C171.959 304.1 173.246 314.131 179.044 315.682C190.474 318.739 206.159 316 218 316L380 316L425 316C429.863 316 437.836 317.53 441.566 313.682C446.285 308.815 443.301 301.385 436.999 300.228C422.309 297.533 404.946 300 390 300L236 300L194 300C189.244 300 181.378 298.523 177.148 301.028z"/>
<path style="fill:#8e7e56; stroke:none;" d="M439 300L440 301L439 300z"/>
<path style="fill:#b7ac89; stroke:none;" d="M441 301L442 302L441 301z"/>
<path style="fill:#b4ad90; stroke:none;" d="M442 302L443 303L442 302z"/>
<path style="fill:#d3ccb7; stroke:none;" d="M443 303L444 304L443 303z"/>
<path style="fill:#ab9e7c; stroke:none;" d="M173.333 304.667L173.667 305.333L173.333 304.667z"/>
<path style="fill:#d3ccb7; stroke:none;" d="M444.333 305.667L444.667 306.333L444.333 305.667z"/>
<path style="fill:#f7efdf; stroke:none;" d="M172 306L172 310L172 306z"/>
<path style="fill:#897443; stroke:none;" d="M173 306L173 311L173 306z"/>
<path style="fill:#bfb397; stroke:none;" d="M444 307L444 310L444 307z"/>
<path style="fill:#a49470; stroke:none;" d="M443 311L444 312L443 311z"/>
<path style="fill:#9f8d5f; stroke:none;" d="M174 312L175 313L174 312z"/>
<path style="fill:#d3ccb7; stroke:none;" d="M174 313L175 314L174 313z"/>
<path style="fill:#b7ac89; stroke:none;" d="M442 313L443 314L442 313z"/>
<path style="fill:#ccc0a4; stroke:none;" d="M175 314L176 315L175 314z"/>
<path style="fill:#a49470; stroke:none;" d="M441 314L442 315L441 314z"/>
<path style="fill:#d3ccb7; stroke:none;" d="M176 315L177 316L176 315z"/>
<path style="fill:#bfb397; stroke:none;" d="M440 315L441 316L440 315z"/>
<path style="fill:#ab9e7c; stroke:none;" d="M178.667 316.333L179.333 316.667L178.667 316.333z"/>
<path style="fill:#8e7e56; stroke:none;" d="M180 316C186.678 318.802 196.784 317 204 317L256 317L437 317C430.322 314.198 420.216 316 413 316L361 316L180 316z"/>
<path style="fill:#bfb397; stroke:none;" d="M437.667 316.333L438.333 316.667L437.667 316.333z"/>
<path style="fill:#f7efdf; stroke:none;" d="M181 317C187.678 319.802 197.784 318 205 318L257 318L437 318C430.322 315.198 420.216 317 413 317L361 317L181 317z"/>
</svg>
