<?xml version="1.0" standalone="yes"?>
<svg xmlns="http://www.w3.org/2000/svg" width="640" height="480">
<path style="fill:#ffffff; stroke:none;" d="M0 0L0 480L640 480L640 173C611.802 181.69 584.752 197.444 557 207.949C547.616 211.501 534.359 219.76 524 217.721C513.076 215.571 501.604 202.29 493.91 194.83C488.399 189.486 481.275 184.023 478 177C452.685 176.458 444.423 146.101 423 137.39C377.853 119.035 347.024 183.511 347 220C373.406 220 404.035 215.65 430 220.263C436.967 221.501 444.378 229.534 437.427 235.891C433.968 239.055 429.382 238.987 425 239C425 260.466 424.934 282.718 422.286 304C421.004 314.305 420.429 324.909 412.815 332.907C401.664 344.62 383.044 344.999 368 345C335.381 345.002 302.635 347.337 270 345.09C254.37 344.013 237.469 343.766 226.301 330.985C218.484 322.04 216.833 309.426 215.914 298L214 239C201.567 238.887 193.861 224.675 209 220.499C220.491 217.33 236.087 220 248 220L331 220C331.055 200.035 336.095 180.296 340.769 161C342.745 152.842 344.17 142.535 351 137C350.962 129.685 356.482 123.236 361.289 118.09C387.674 89.8422 417.051 110.593 445 122.451C453.143 125.905 473.565 131.296 474 118C459.334 117.958 450.767 103.349 443.612 92.0146C426.497 64.9039 404.022 33.387 404 0L0 0z"/>
<path style="fill:#d8edec; stroke:none;" d="M404 0L404 10C405.346 6.79291 405.346 3.207 404 0z"/>
<path style="fill:#b2d6d6; stroke:none;" d="M405 0L405 11C406.431 7.59 406.431 3.41 405 0z"/>
<path style="fill:#83bfbf; stroke:none;" d="M406 0C406 33.4318 424.035 58.9293 440.15 87C448.484 101.518 456.767 116.998 475 117C474.257 141.803 441.684 116.431 431 117.728C424.847 118.474 409.982 125.498 411.878 133.682L429.285 141.19L457 168.764L475.871 176.988C492.383 187.11 500.958 209.878 521 216.095C530.705 219.105 540.128 213.626 548.999 210.439L612 184.6C618.877 181.849 634.596 178.478 638.972 172.351C642.402 167.55 640 154.756 640 149L640 97C640 90.4162 641.9 80.3136 639.397 74.1698C636.601 67.3078 625.465 64.4546 624.02 57.0857L628.995 40C629.095 26.5725 624.545 13.077 622 0L612 0L619.039 33C620.318 38.3555 622.833 43.7835 617 47C615.35 42.3083 611.204 43.011 607 44C606.178 40.6728 606.025 36.0648 603.347 33.6034C600.638 31.1133 595.381 31.9305 592 32.0146C580.794 32.2935 568.273 36.7486 558 40.9962C554.601 42.4014 541.369 48.1368 538.816 44.5887C536.533 41.4142 541.268 34.4177 542 31C534.571 28.2917 510.171 27.5365 514.789 42.7222C516.239 47.4901 524.678 47.1978 527 53C513.31 56.9136 496.944 65.3893 485 73.1697C480.699 75.9716 474.467 78.851 472.607 84.0038C470.765 89.109 474.346 94.3756 476 99C470.902 100.547 471.017 104.217 471 109C461.952 106.407 455.952 92.7483 451.012 85.2469C434.359 59.9579 418 30.8389 418 0L406 0z"/>
<path style="fill:#b2d6d6; stroke:none;" d="M418 0L419 20C420.861 15.4378 419.912 4.55682 418 0z"/>
<path style="fill:#d8edec; stroke:none;" d="M419 0L419 14C420.667 10.0278 420.667 3.97211 419 0z"/>
<path style="fill:#ffffff; stroke:none;" d="M420 0C420 30.9403 433.117 54.6245 448.424 81C453.781 90.2302 459.516 103.927 470 108C470.346 103.419 471.84 101.005 476 99C475.025 94.8877 470.425 90.3068 471.661 86C473.286 80.3398 480.463 76.8156 485 73.831C498.158 65.1758 512.475 58.9592 527 53C525.067 46.471 514.921 47.3992 513.998 41.8148C512.185 30.8547 532.1 23.2679 539.643 29.8935C544.257 33.947 533.903 44.1199 540.318 46.2114C544.421 47.5491 551.199 42.7931 555 41.439L589 32.1813C592.956 31.3404 598.728 28.4171 602.567 31.0278C605.964 33.3373 606.762 40.2523 607 44C612.102 43.0989 615.236 44.3094 620 46C620 30.4978 615.865 14.6232 611 0L420 0z"/>
<path style="fill:#b2d6d6; stroke:none;" d="M611 0L612 4L611 0z"/>
<path style="fill:#d8edec; stroke:none;" d="M622 0L624 10C625.064 6.53006 624.044 2.9407 622 0z"/>
<path style="fill:#ffffff; stroke:none;" d="M623 0C625.454 12.6522 638.082 45.9364 623 54C624.064 63.5506 633.8 66.0874 639 73C641.701 66.564 640 56.9509 640 50L640 0L623 0z"/>
<path style="fill:#c9e9f8; stroke:none;" d="M614 9L614 13L614 9z"/>
<path style="fill:#d8edec; stroke:none;" d="M405 11L405 15L405 11M625 12L625 16L625 12z"/>
<path style="fill:#c9e9f8; stroke:none;" d="M615 14L615 18L615 14M626 17L626 21L626 17z"/>
<path style="fill:#b2d6d6; stroke:none;" d="M420 22L422 29C422.797 26.1111 421.836 24.3082 420 22z"/>
<path style="fill:#c9e9f8; stroke:none;" d="M627 22L628 33C629.46 29.4209 628.649 25.4305 627 22z"/>
<path style="fill:#b2d6d6; stroke:none;" d="M408 24L409 29C409.651 26.7658 409.318 25.9261 408 24M525 27L531 28L525 27M521 31L525 29C522.777 28.6311 522.266 29.1405 521 31M531 28L537 29L531 28z"/>
<path style="fill:#c9e9f8; stroke:none;" d="M537 28L540 30L537 28M540.667 30.3333L541.333 30.6667L540.667 30.3333z"/>
<path style="fill:#d8edec; stroke:none;" d="M594 30C597.981 31.6903 601.008 31.4081 604 35C605.643 29.0071 597.93 30.0004 594 30z"/>
<path style="fill:#b2d6d6; stroke:none;" d="M592 31L602 32L592 31M519 32L518 35L519 32M424 33L426 41C426.628 38.0137 425.61 35.5622 424 33z"/>
<path style="fill:#c9e9f8; stroke:none;" d="M580 33L583 34L580 33z"/>
<path style="fill:#b2d6d6; stroke:none;" d="M577 34L580 35L577 34M540 35L540 38L540 35z"/>
<path style="fill:#c9e9f8; stroke:none;" d="M569 36L574 36L569 36M629 35L629 45C630.346 41.793 630.346 38.207 629 35z"/>
<path style="fill:#b2d6d6; stroke:none;" d="M515.333 36.6667L515.667 37.3333L515.333 36.6667M620 37L620 46C621.256 43.0059 621.256 39.9941 620 37z"/>
<path style="fill:#d8edec; stroke:none;" d="M514 38L513 44C514.305 41.8192 514.736 40.4333 514 38z"/>
<path style="fill:#b2d6d6; stroke:none;" d="M606 38L606 43L606 38M552 42C554.672 42.7992 556.432 42.0777 559 41L552 42M537 42L537 45L537 42M416 45L418 48L416 45z"/>
<path style="fill:#c9e9f8; stroke:none;" d="M516.667 45.3333L517.333 45.6667L516.667 45.3333M617 45L620 47L617 45z"/>
<path style="fill:#b2d6d6; stroke:none;" d="M628 46L628 49L628 46M523.667 47.3333L524.333 47.6667L523.667 47.3333M418.333 48.6667L418.667 49.3333L418.333 48.6667M430 48L432 51L430 48z"/>
<path style="fill:#d8edec; stroke:none;" d="M418 50L420 53L418 50z"/>
<path style="fill:#c9e9f8; stroke:none;" d="M432.333 51.6667L432.667 52.3333L432.333 51.6667z"/>
<path style="fill:#d8edec; stroke:none;" d="M626 51L625 54L626 51z"/>
<path style="fill:#c9e9f8; stroke:none;" d="M433 53L434 57L433 53M421 55L423 58L421 55z"/>
<path style="fill:#b2d6d6; stroke:none;" d="M510 60L515 59L510 60z"/>
<path style="fill:#c9e9f8; stroke:none;" d="M508.667 60.3333L509.333 60.6667L508.667 60.3333z"/>
<path style="fill:#b2d6d6; stroke:none;" d="M437.333 61.6667L437.667 62.3333L437.333 61.6667M505 63L508 61L505 63M438.333 63.6667L438.667 64.3333L438.333 63.6667z"/>
<path style="fill:#d8edec; stroke:none;" d="M426 64L428 67L426 64z"/>
<path style="fill:#b2d6d6; stroke:none;" d="M439.333 65.6667L439.667 66.3333L439.333 65.6667M497 66L501 66L497 66M493 69L496 67L493 69z"/>
<path style="fill:#c9e9f8; stroke:none;" d="M429.333 68.6667L429.667 69.3333L429.333 68.6667z"/>
<path style="fill:#d8edec; stroke:none;" d="M634 68L639 72L634 68z"/>
<path style="fill:#b2d6d6; stroke:none;" d="M441 69L443 72L441 69z"/>
<path style="fill:#c9e9f8; stroke:none;" d="M432.333 73.6667L432.667 74.3333L432.333 73.6667M444 74L446 77L444 74z"/>
<path style="fill:#b2d6d6; stroke:none;" d="M446.333 77.6667L446.667 78.3333L446.333 77.6667M448 81L450 84L448 81M471 84L471 88L471 84z"/>
<path style="fill:#d8edec; stroke:none;" d="M439.333 85.6667L439.667 86.3333L439.333 85.6667z"/>
<path style="fill:#b2d6d6; stroke:none;" d="M452.333 87.6667L452.667 88.3333L452.333 87.6667z"/>
<path style="fill:#d8edec; stroke:none;" d="M471 88L472 92L471 88z"/>
<path style="fill:#fdebdc; stroke:none;" d="M274 89L284 90L274 89z"/>
<path style="fill:#f7c6af; stroke:none;" d="M272 90L275 91L272 90z"/>
<path style="fill:#e78466; stroke:none;" d="M275 90L285 91L275 90z"/>
<path style="fill:#efa387; stroke:none;" d="M285.667 90.3333L286.333 90.6667L285.667 90.3333z"/>
<path style="fill:#f7cdbd; stroke:none;" d="M287.667 90.3333L288.333 90.6667L287.667 90.3333M267 91L270 92L267 91z"/>
<path style="fill:#e78466; stroke:none;" d="M270 91L273 92L270 91z"/>
<path style="fill:#df5121; stroke:none;" d="M206 116C205.503 109.434 197.261 104.111 192.032 110.318C189.019 113.895 190.231 118.858 191 123L171 130.4C153.874 137.257 124.71 145.152 117.468 164C112.271 177.528 119.166 195.717 125 208C118.994 210.003 104.851 221.487 118.133 225.566C123.493 227.212 129.226 223.834 134 221.861L164 209.8L286 160.601L321 146.6C324.942 145.023 331.657 143.664 333.971 139.775C336.1 136.2 333.954 131.606 333 128L318 130C316.658 123.583 314.137 117.637 310.731 112.039C307.115 106.095 303.841 99.751 297.999 95.6489C289.255 89.5085 277.902 90.4897 268 92.3896C246.323 96.5488 226.801 109.023 206 116z"/>
<path style="fill:#e78466; stroke:none;" d="M288.667 91.3333L289.333 91.6667L288.667 91.3333z"/>
<path style="fill:#f7cdbd; stroke:none;" d="M290.667 91.3333L291.333 91.6667L290.667 91.3333z"/>
<path style="fill:#eb9077; stroke:none;" d="M265 92L268 93L265 92M291 92L294 93L291 92z"/>
<path style="fill:#f9dccc; stroke:none;" d="M259 93L262 94L259 93z"/>
<path style="fill:#f7cdbd; stroke:none;" d="M294.667 93.3333L295.333 93.6667L294.667 93.3333z"/>
<path style="fill:#f0bba9; stroke:none;" d="M257.667 94.3333L258.333 94.6667L257.667 94.3333z"/>
<path style="fill:#e78466; stroke:none;" d="M259.667 94.3333L260.333 94.6667L259.667 94.3333z"/>
<path style="fill:#f9dccc; stroke:none;" d="M296.667 94.3333L297.333 94.6667L296.667 94.3333z"/>
<path style="fill:#f0bba9; stroke:none;" d="M254.667 95.3333L255.333 95.6667L254.667 95.3333z"/>
<path style="fill:#e78466; stroke:none;" d="M256.667 95.3333L257.333 95.6667L256.667 95.3333z"/>
<path style="fill:#eb9077; stroke:none;" d="M250 97L254 97L250 97M247.667 98.3333L248.333 98.6667L247.667 98.3333M242.667 100.333L243.333 100.667L242.667 100.333z"/>
<path style="fill:#efa387; stroke:none;" d="M239.667 101.333L240.333 101.667L239.667 101.333z"/>
<path style="fill:#e4714e; stroke:none;" d="M241.667 101.333L242.333 101.667L241.667 101.333z"/>
<path style="fill:#e78466; stroke:none;" d="M235 103L239 103L235 103z"/>
<path style="fill:#c9e9f8; stroke:none;" d="M470 102L470 108L465 106C466.988 108.061 468.157 108.579 471 109L470 102z"/>
<path style="fill:#efa387; stroke:none;" d="M305 103L306 104L305 103z"/>
<path style="fill:#c9e9f8; stroke:none;" d="M351 137C344.032 140.739 342.704 151.881 341 159C336.209 179.015 331.014 199.3 331 220L347 220C347.094 186.025 372.968 130.959 412 136C411.889 123.158 425.296 122.158 433 116C411.612 102.489 383.199 96.9076 363.09 115.428C357.488 120.587 349.91 128.935 351 137z"/>
<path style="fill:#e78466; stroke:none;" d="M230 105L234 105L230 105z"/>
<path style="fill:#f7c6af; stroke:none;" d="M195 106L199 107L195 106z"/>
<path style="fill:#fdebdc; stroke:none;" d="M199.667 106.333L200.333 106.667L199.667 106.333z"/>
<path style="fill:#eb9077; stroke:none;" d="M225 107L230 107L225 107z"/>
<path style="fill:#e4714e; stroke:none;" d="M307.333 106.667L307.667 107.333L307.333 106.667z"/>
<path style="fill:#efa387; stroke:none;" d="M193.667 107.333L194.333 107.667L193.667 107.333z"/>
<path style="fill:#e4714e; stroke:none;" d="M195 107L201 108L195 107z"/>
<path style="fill:#f9dccc; stroke:none;" d="M201.667 107.333L202.333 107.667L201.667 107.333z"/>
<path style="fill:#f0b69d; stroke:none;" d="M192 108L193 109L192 108z"/>
<path style="fill:#efa387; stroke:none;" d="M220 109L224 109L220 109z"/>
<path style="fill:#e78466; stroke:none;" d="M190 112L193 109L190 112M309.333 109.667L309.667 110.333L309.333 109.667z"/>
<path style="fill:#efa387; stroke:none;" d="M215 111L219 111L215 111z"/>
<path style="fill:#e4714e; stroke:none;" d="M219.667 110.333L220.333 110.667L219.667 110.333z"/>
<path style="fill:#efa387; stroke:none;" d="M310.333 110.667L310.667 111.333L310.333 110.667M189.333 111.667L189.667 112.333L189.333 111.667z"/>
<path style="fill:#f7cdbd; stroke:none;" d="M188 112L188 118C188.951 115.715 188.951 114.285 188 112z"/>
<path style="fill:#f0bba9; stroke:none;" d="M210 113L215 113L210 113z"/>
<path style="fill:#eb9077; stroke:none;" d="M311.333 112.667L311.667 113.333L311.333 112.667z"/>
<path style="fill:#e4714e; stroke:none;" d="M189 113L189 117L189 113M206 114L209 116L206 114z"/>
<path style="fill:#f7cdbd; stroke:none;" d="M207 114L210 115L207 114z"/>
<path style="fill:#d8edec; stroke:none;" d="M463.667 116.333L464.333 116.667L463.667 116.333z"/>
<path style="fill:#efa387; stroke:none;" d="M189.333 117.667L189.667 118.333L189.333 117.667z"/>
<path style="fill:#d8edec; stroke:none;" d="M465 117L474 118L474 124L475 117L465 117z"/>
<path style="fill:#efa387; stroke:none;" d="M314.333 118.667L314.667 119.333L314.333 118.667z"/>
<path style="fill:#f7cdbd; stroke:none;" d="M190 120L188 122C190.033 122.785 190.785 122.033 190 120z"/>
<path style="fill:#efa387; stroke:none;" d="M315.333 120.667L315.667 121.333L315.333 120.667z"/>
<path style="fill:#b2d6d6; stroke:none;" d="M439 120L442 121L439 120z"/>
<path style="fill:#efa387; stroke:none;" d="M316.333 122.667L316.667 123.333L316.333 122.667z"/>
<path style="fill:#f9dccc; stroke:none;" d="M185 123L188 124L185 123z"/>
<path style="fill:#f7cdbd; stroke:none;" d="M183.667 124.333L184.333 124.667L183.667 124.333z"/>
<path style="fill:#f0b69d; stroke:none;" d="M317.333 124.667L317.667 125.333L317.333 124.667z"/>
<path style="fill:#b2d6d6; stroke:none;" d="M450 124L454 126L450 124z"/>
<path style="fill:#f7cdbd; stroke:none;" d="M178 126L183 126L178 126z"/>
<path style="fill:#b2d6d6; stroke:none;" d="M460 127C464.311 128.809 468.887 127.979 473 126L460 127z"/>
<path style="fill:#e4714e; stroke:none;" d="M317.333 126.667L317.667 127.333L317.333 126.667z"/>
<path style="fill:#f7cdbd; stroke:none;" d="M324 126L333 128C330.15 126.053 327.41 126.03 324 126z"/>
<path style="fill:#d8edec; stroke:none;" d="M458 126L469 127L458 126z"/>
<path style="fill:#f9dccc; stroke:none;" d="M175 127L178 128L175 127z"/>
<path style="fill:#f7cdbd; stroke:none;" d="M318 127L321 129L318 127z"/>
<path style="fill:#f0bba9; stroke:none;" d="M322.667 127.333L323.333 127.667L322.667 127.333z"/>
<path style="fill:#e4714e; stroke:none;" d="M324 127L331 128L324 127z"/>
<path style="fill:#f7cdbd; stroke:none;" d="M173.667 128.333L174.333 128.667L173.667 128.333z"/>
<path style="fill:#e4714e; stroke:none;" d="M175.667 128.333L176.333 128.667L175.667 128.333z"/>
<path style="fill:#e78466; stroke:none;" d="M321.667 128.333L322.333 128.667L321.667 128.333z"/>
<path style="fill:#f9dccc; stroke:none;" d="M170 129L173 130L170 129z"/>
<path style="fill:#eb9077; stroke:none;" d="M318 129L321 130L318 129z"/>
<path style="fill:#e4714e; stroke:none;" d="M333.333 129.667L333.667 130.333L333.333 129.667z"/>
<path style="fill:#f7cdbd; stroke:none;" d="M168.667 130.333L169.333 130.667L168.667 130.333z"/>
<path style="fill:#e4714e; stroke:none;" d="M170.667 130.333L171.333 130.667L170.667 130.333z"/>
<path style="fill:#f9dccc; stroke:none;" d="M163 132L168 132L163 132z"/>
<path style="fill:#eb9077; stroke:none;" d="M334.333 131.667L334.667 132.333L334.333 131.667z"/>
<path style="fill:#e4714e; stroke:none;" d="M165.667 132.333L166.333 132.667L165.667 132.333z"/>
<path style="fill:#f9dccc; stroke:none;" d="M158.667 134.333L159.333 134.667L158.667 134.333z"/>
<path style="fill:#e78466; stroke:none;" d="M160.667 134.333L161.333 134.667L160.667 134.333z"/>
<path style="fill:#e4714e; stroke:none;" d="M335 134L335 139L335 134z"/>
<path style="fill:#f7cdbd; stroke:none;" d="M336 134L336 138L336 134z"/>
<path style="fill:#efa387; stroke:none;" d="M157.667 135.333L158.333 135.667L157.667 135.333z"/>
<path style="fill:#e78466; stroke:none;" d="M155.667 136.333L156.333 136.667L155.667 136.333z"/>
<path style="fill:#b2d6d6; stroke:none;" d="M425 138L428 140L425 138z"/>
<path style="fill:#e78466; stroke:none;" d="M148.667 139.333L149.333 139.667L148.667 139.333M146.667 140.333L147.333 140.667L146.667 140.333z"/>
<path style="fill:#f0b69d; stroke:none;" d="M334 140L335 141L334 140z"/>
<path style="fill:#efa387; stroke:none;" d="M139 143L145 142L139 143z"/>
<path style="fill:#f0b69d; stroke:none;" d="M333 141L334 142L333 141z"/>
<path style="fill:#eb9077; stroke:none;" d="M331 142L332 143L331 142z"/>
<path style="fill:#e78466; stroke:none;" d="M328 143L331 144L328 143z"/>
<path style="fill:#e4714e; stroke:none;" d="M138.667 144.333L139.333 144.667L138.667 144.333z"/>
<path style="fill:#eb9077; stroke:none;" d="M326.667 144.333L327.333 144.667L326.667 144.333z"/>
<path style="fill:#e78466; stroke:none;" d="M134 146L138 146L134 146z"/>
<path style="fill:#eb9077; stroke:none;" d="M321 146L326 146L321 146M316 148L321 148L316 148z"/>
<path style="fill:#efa387; stroke:none;" d="M131 148L132 149L131 148z"/>
<path style="fill:#f0bba9; stroke:none;" d="M129 149L130 150L129 149z"/>
<path style="fill:#eb9077; stroke:none;" d="M311 150L316 150L311 150z"/>
<path style="fill:#f0b69d; stroke:none;" d="M128 150L129 151L128 150z"/>
<path style="fill:#eb9077; stroke:none;" d="M306 152L311 152L306 152z"/>
<path style="fill:#f0b69d; stroke:none;" d="M124 153L125 154L124 153z"/>
<path style="fill:#e78466; stroke:none;" d="M303 153L306 154L303 153z"/>
<path style="fill:#f0b69d; stroke:none;" d="M123 154L124 155L123 154z"/>
<path style="fill:#eb9077; stroke:none;" d="M301.667 154.333L302.333 154.667L301.667 154.333z"/>
<path style="fill:#f9dccc; stroke:none;" d="M303.667 154.333L304.333 154.667L303.667 154.333z"/>
<path style="fill:#f0b69d; stroke:none;" d="M122 155L123 156L122 155z"/>
<path style="fill:#e78466; stroke:none;" d="M294 157L301 156L294 157z"/>
<path style="fill:#f0bba9; stroke:none;" d="M121 156L122 157L121 156z"/>
<path style="fill:#f7c6af; stroke:none;" d="M120 157L121 158L120 157z"/>
<path style="fill:#e78466; stroke:none;" d="M291 158L294 159L291 158z"/>
<path style="fill:#efa387; stroke:none;" d="M119 159L120 160L119 159z"/>
<path style="fill:#e78466; stroke:none;" d="M286 160L291 160L286 160z"/>
<path style="fill:#eb9077; stroke:none;" d="M118.333 160.667L118.667 161.333L118.333 160.667z"/>
<path style="fill:#f9dccc; stroke:none;" d="M288.667 160.333L289.333 160.667L288.667 160.333z"/>
<path style="fill:#e78466; stroke:none;" d="M281 162L286 162L281 162z"/>
<path style="fill:#eb9077; stroke:none;" d="M117.333 162.667L117.667 163.333L117.333 162.667z"/>
<path style="fill:#f7cdbd; stroke:none;" d="M116.333 163.667L116.667 164.333L116.333 163.667z"/>
<path style="fill:#e78466; stroke:none;" d="M276 164L281 164L276 164z"/>
<path style="fill:#eb9077; stroke:none;" d="M116.333 165.667L116.667 166.333L116.333 165.667z"/>
<path style="fill:#e78466; stroke:none;" d="M271 166L276 166L271 166z"/>
<path style="fill:#f0bba9; stroke:none;" d="M115 166L115 171L115 166z"/>
<path style="fill:#eb9077; stroke:none;" d="M269.667 167.333L270.333 167.667L269.667 167.333M264 169L269 169L264 169M259 171L264 171L259 171M115 171L115 177C115.951 174.715 115.951 173.285 115 171M254 173L259 173L254 173z"/>
<path style="fill:#e78466; stroke:none;" d="M251 174L254 175L251 174z"/>
<path style="fill:#eb9077; stroke:none;" d="M249.667 175.333L250.333 175.667L249.667 175.333z"/>
<path style="fill:#b2d6d6; stroke:none;" d="M468 175L477 177L468 175z"/>
<path style="fill:#c9e9f8; stroke:none;" d="M633.667 175.333L634.333 175.667L633.667 175.333z"/>
<path style="fill:#eb9077; stroke:none;" d="M244 177L249 177L244 177z"/>
<path style="fill:#f0bba9; stroke:none;" d="M115 177L115 180L115 177z"/>
<path style="fill:#eb9077; stroke:none;" d="M239 179L244 179L239 179z"/>
<path style="fill:#c9e9f8; stroke:none;" d="M478.333 178.667L478.667 179.333L478.333 178.667z"/>
<path style="fill:#b2d6d6; stroke:none;" d="M626.667 178.333L627.333 178.667L626.667 178.333z"/>
<path style="fill:#c9e9f8; stroke:none;" d="M622 180L626 180L622 180z"/>
<path style="fill:#f9dccc; stroke:none;" d="M115 180L115 183L115 180z"/>
<path style="fill:#eb9077; stroke:none;" d="M234 181L239 181L234 181z"/>
<path style="fill:#b2d6d6; stroke:none;" d="M617 182L622 182L617 182z"/>
<path style="fill:#efa387; stroke:none;" d="M116 182L116 185L116 182z"/>
<path style="fill:#e78466; stroke:none;" d="M229 183L234 183L229 183z"/>
<path style="fill:#b2d6d6; stroke:none;" d="M612 184L617 184L612 184z"/>
<path style="fill:#e78466; stroke:none;" d="M224 185L229 185L224 185z"/>
<path style="fill:#b2d6d6; stroke:none;" d="M607 186L611 186L607 186z"/>
<path style="fill:#e78466; stroke:none;" d="M219 187L224 187L219 187z"/>
<path style="fill:#f0b69d; stroke:none;" d="M117 187L117 190L117 187z"/>
<path style="fill:#f9dccc; stroke:none;" d="M221.667 187.333L222.333 187.667L221.667 187.333z"/>
<path style="fill:#b2d6d6; stroke:none;" d="M602 188L607 188L602 188z"/>
<path style="fill:#e78466; stroke:none;" d="M214 189L219 189L214 189M118 189L118 192L118 189z"/>
<path style="fill:#b2d6d6; stroke:none;" d="M597 190L602 190L597 190z"/>
<path style="fill:#e78466; stroke:none;" d="M209 191L214 191L209 191z"/>
<path style="fill:#f7cdbd; stroke:none;" d="M211.667 191.333L212.333 191.667L211.667 191.333z"/>
<path style="fill:#e78466; stroke:none;" d="M119 192L119 195L119 192z"/>
<path style="fill:#eb9077; stroke:none;" d="M207.667 192.333L208.333 192.667L207.667 192.333z"/>
<path style="fill:#b2d6d6; stroke:none;" d="M592.667 192.333L593.333 192.667L592.667 192.333z"/>
<path style="fill:#e78466; stroke:none;" d="M204.667 193.333L205.333 193.667L204.667 193.333z"/>
<path style="fill:#f9dccc; stroke:none;" d="M206.667 193.333L207.333 193.667L206.667 193.333z"/>
<path style="fill:#c9e9f8; stroke:none;" d="M590.667 193.333L591.333 193.667L590.667 193.333z"/>
<path style="fill:#eb9077; stroke:none;" d="M202.667 194.333L203.333 194.667L202.667 194.333z"/>
<path style="fill:#b2d6d6; stroke:none;" d="M585 195L590 195L585 195z"/>
<path style="fill:#e4714e; stroke:none;" d="M120.333 195.667L120.667 196.333L120.333 195.667z"/>
<path style="fill:#e78466; stroke:none;" d="M199 195L202 196L199 195z"/>
<path style="fill:#eb9077; stroke:none;" d="M197.667 196.333L198.333 196.667L197.667 196.333z"/>
<path style="fill:#b2d6d6; stroke:none;" d="M582 196L585 197L582 196z"/>
<path style="fill:#f7c6af; stroke:none;" d="M120.333 197.667L120.667 198.333L120.333 197.667z"/>
<path style="fill:#e78466; stroke:none;" d="M194 197L197 198L194 197z"/>
<path style="fill:#b2d6d6; stroke:none;" d="M580.667 197.333L581.333 197.667L580.667 197.333z"/>
<path style="fill:#eb9077; stroke:none;" d="M192.667 198.333L193.333 198.667L192.667 198.333z"/>
<path style="fill:#b2d6d6; stroke:none;" d="M575 199L580 199L575 199z"/>
<path style="fill:#eb9077; stroke:none;" d="M187 200L192 200L187 200z"/>
<path style="fill:#b2d6d6; stroke:none;" d="M573.667 200.333L574.333 200.667L573.667 200.333z"/>
<path style="fill:#e78466; stroke:none;" d="M184 201L187 202L184 201z"/>
<path style="fill:#f7c6af; stroke:none;" d="M122.333 202.667L122.667 203.333L122.333 202.667z"/>
<path style="fill:#eb9077; stroke:none;" d="M182.667 202.333L183.333 202.667L182.667 202.333z"/>
<path style="fill:#b2d6d6; stroke:none;" d="M568.667 202.333L569.333 202.667L568.667 202.333z"/>
<path style="fill:#eb9077; stroke:none;" d="M177 204L182 204L177 204z"/>
<path style="fill:#b2d6d6; stroke:none;" d="M561 205L565 205L561 205z"/>
<path style="fill:#e78466; stroke:none;" d="M174 205L177 206L174 205z"/>
<path style="fill:#eb9077; stroke:none;" d="M124.333 206.667L124.667 207.333L124.333 206.667M172.667 206.333L173.333 206.667L172.667 206.333z"/>
<path style="fill:#b2d6d6; stroke:none;" d="M556 207L561 207L556 207z"/>
<path style="fill:#eb9077; stroke:none;" d="M167 208L172 208L167 208M119 209L123 209L119 209z"/>
<path style="fill:#e78466; stroke:none;" d="M162 210L167 210L162 210z"/>
<path style="fill:#b2d6d6; stroke:none;" d="M551.667 209.333L552.333 209.667L551.667 209.333z"/>
<path style="fill:#eb9077; stroke:none;" d="M117.667 210.333L118.333 210.667L117.667 210.333z"/>
<path style="fill:#f9dccc; stroke:none;" d="M164.667 210.333L165.333 210.667L164.667 210.333z"/>
<path style="fill:#b2d6d6; stroke:none;" d="M546 211L551 211L546 211z"/>
<path style="fill:#e78466; stroke:none;" d="M157 212L162 212L157 212z"/>
<path style="fill:#f7c6af; stroke:none;" d="M114 212L115 213L114 212z"/>
<path style="fill:#b2d6d6; stroke:none;" d="M543 212L546 213L543 212z"/>
<path style="fill:#efa387; stroke:none;" d="M155.667 213.333L156.333 213.667L155.667 213.333z"/>
<path style="fill:#d8edec; stroke:none;" d="M538 214L545 214L538 214z"/>
<path style="fill:#e78466; stroke:none;" d="M152 214L155 215L152 214z"/>
<path style="fill:#fdebdc; stroke:none;" d="M111 215L111 219L111 215z"/>
<path style="fill:#eb9077; stroke:none;" d="M112 215L112 219L112 215z"/>
<path style="fill:#e78466; stroke:none;" d="M149 215L152 216L149 215z"/>
<path style="fill:#b2d6d6; stroke:none;" d="M518.667 215.333L519.333 215.667L518.667 215.333z"/>
<path style="fill:#eb9077; stroke:none;" d="M147.667 216.333L148.333 216.667L147.667 216.333z"/>
<path style="fill:#f9dccc; stroke:none;" d="M149.667 216.333L150.333 216.667L149.667 216.333z"/>
<path style="fill:#d8edec; stroke:none;" d="M520 216L523 218L520 216M529 217L534 217L529 217z"/>
<path style="fill:#efa387; stroke:none;" d="M145.667 217.333L146.333 217.667L145.667 217.333z"/>
<path style="fill:#b2d6d6; stroke:none;" d="M523 217L529 218L523 217z"/>
<path style="fill:#efa387; stroke:none;" d="M140 219L145 219L140 219z"/>
<path style="fill:#f9dccc; stroke:none;" d="M112.333 219.667L112.667 220.333L112.333 219.667z"/>
<path style="fill:#f0b69d; stroke:none;" d="M113.333 220.667L113.667 221.333L113.333 220.667z"/>
<path style="fill:#eb9077; stroke:none;" d="M137 220L140 221L137 220z"/>
<path style="fill:#f9dccc; stroke:none;" d="M207 220C212.951 222.497 221.58 221 228 221L274 221L433 221C427.049 218.503 418.42 220 412 220L366 220L207 220z"/>
<path style="fill:#eb9077; stroke:none;" d="M130 223L137 222L130 223z"/>
<path style="fill:#e4714e; stroke:none;" d="M204 222L225 222L274 222L434 222C428.293 219.605 420.154 221 414 221L370 221L259 221C241.608 221 220.934 217.968 204 222z"/>
<path style="fill:#efa387; stroke:none;" d="M114.333 222.667L114.667 223.333L114.333 222.667z"/>
<path style="fill:#df5121; stroke:none;" d="M424 238C428.174 237.997 434.209 238.638 437.397 235.297C440.607 231.932 439.628 223.838 434.941 222.434L414 222L370 222L247 222L216 222C212.38 222.001 206.66 221.254 203.742 223.938C192.677 234.117 214.392 237.818 214.941 244.005C216.891 265.973 212.848 289.431 218.269 311C220.434 319.613 222.103 328.124 229.2 334.246C239.244 342.911 252.631 342.766 265 344.285C299.388 348.508 335.459 344 370 344C384.054 344 403.873 343.528 413.775 331.985C421.653 322.802 421.734 307.433 422.015 296L424 238z"/>
<path style="fill:#efa387; stroke:none;" d="M436 222L437 223L436 222z"/>
<path style="fill:#e78466; stroke:none;" d="M202 223L201 226L202 223z"/>
<path style="fill:#f7c6af; stroke:none;" d="M438 223L439 224L438 223z"/>
<path style="fill:#efa387; stroke:none;" d="M125 225L129 225L125 225z"/>
<path style="fill:#f9dccc; stroke:none;" d="M129.667 224.333L130.333 224.667L129.667 224.333z"/>
<path style="fill:#e4714e; stroke:none;" d="M115.667 225.333L116.333 225.667L115.667 225.333z"/>
<path style="fill:#fdebdc; stroke:none;" d="M200 225L200 234C201.256 231.006 201.256 227.994 200 225z"/>
<path style="fill:#efa387; stroke:none;" d="M439 225L439 235C440.346 231.793 440.346 228.207 439 225M116.667 226.333L117.333 226.667L116.667 226.333z"/>
<path style="fill:#e4714e; stroke:none;" d="M118 226L123 227L118 226z"/>
<path style="fill:#f0bba9; stroke:none;" d="M123.667 226.333L124.333 226.667L123.667 226.333z"/>
<path style="fill:#e4714e; stroke:none;" d="M201 226L201 235C202.256 232.006 202.256 228.994 201 226z"/>
<path style="fill:#f7cdbd; stroke:none;" d="M117 227L123 228L117 227z"/>
<path style="fill:#f0b69d; stroke:none;" d="M436.667 236.333L437.333 236.667L436.667 236.333z"/>
<path style="fill:#eb9077; stroke:none;" d="M204.667 237.333L205.333 237.667L204.667 237.333z"/>
<path style="fill:#e78466; stroke:none;" d="M433 237L436 238L433 237z"/>
<path style="fill:#f9dccc; stroke:none;" d="M206.667 238.333L207.333 238.667L206.667 238.333z"/>
<path style="fill:#f0b69d; stroke:none;" d="M208 238L214 239L208 238z"/>
<path style="fill:#f0bba9; stroke:none;" d="M424 238L424 247L425 239L432 239L424 238z"/>
<path style="fill:#f9dccc; stroke:none;" d="M432.667 238.333L433.333 238.667L432.667 238.333z"/>
<path style="fill:#f0bba9; stroke:none;" d="M214 239L214 262C216.284 256.557 216.284 244.443 214 239z"/>
<path style="fill:#f9dccc; stroke:none;" d="M424 247L424 255C425.161 252.23 425.161 249.77 424 247z"/>
<path style="fill:#e4714e; stroke:none;" d="M423 249L423 263C424.667 259.028 424.667 252.972 423 249z"/>
<path style="fill:#f7cdbd; stroke:none;" d="M214 262L214 278C215.812 273.681 215.812 266.319 214 262z"/>
<path style="fill:#eb9077; stroke:none;" d="M423 263L423 271C424.161 268.23 424.161 265.77 423 263z"/>
<path style="fill:#e4714e; stroke:none;" d="M215 271L215 284C216.591 280.209 216.591 274.791 215 271z"/>
<path style="fill:#f0bba9; stroke:none;" d="M423 271L423 284C424.591 280.209 424.591 274.791 423 271z"/>
<path style="fill:#eb9077; stroke:none;" d="M215 284L215 291C216.059 288.466 216.059 286.534 215 284z"/>
<path style="fill:#fdebdc; stroke:none;" d="M423 284L423 297C424.591 293.209 424.591 287.791 423 284z"/>
<path style="fill:#e4714e; stroke:none;" d="M422 290L422 298C423.161 295.23 423.161 292.77 422 290z"/>
<path style="fill:#f7c6af; stroke:none;" d="M215 291L215 295L215 291z"/>
<path style="fill:#efa387; stroke:none;" d="M216 298L216 303L216 298z"/>
<path style="fill:#f0b69d; stroke:none;" d="M422 298L422 303L422 298z"/>
<path style="fill:#f7c6af; stroke:none;" d="M216.333 303.667L216.667 304.333L216.333 303.667z"/>
<path style="fill:#eb9077; stroke:none;" d="M421 306L421 311L421 306z"/>
<path style="fill:#efa387; stroke:none;" d="M217 308L217 311L217 308z"/>
<path style="fill:#e4714e; stroke:none;" d="M218 311L218 314L218 311z"/>
<path style="fill:#f7c6af; stroke:none;" d="M421.333 311.667L421.667 312.333L421.333 311.667z"/>
<path style="fill:#f7cdbd; stroke:none;" d="M218.333 314.667L218.667 315.333L218.333 314.667z"/>
<path style="fill:#e78466; stroke:none;" d="M420 314L420 317L420 314z"/>
<path style="fill:#eb9077; stroke:none;" d="M219 316L219 319L219 316z"/>
<path style="fill:#f9dccc; stroke:none;" d="M420.333 317.667L420.667 318.333L420.333 317.667z"/>
<path style="fill:#efa387; stroke:none;" d="M419.333 319.667L419.667 320.333L419.333 319.667z"/>
<path style="fill:#f0b69d; stroke:none;" d="M220.333 320.667L220.667 321.333L220.333 320.667z"/>
<path style="fill:#f9dccc; stroke:none;" d="M221.333 323.667L221.667 324.333L221.333 323.667z"/>
<path style="fill:#f7c6af; stroke:none;" d="M418.333 323.667L418.667 324.333L418.333 323.667z"/>
<path style="fill:#f7cdbd; stroke:none;" d="M222.333 325.667L222.667 326.333L222.333 325.667z"/>
<path style="fill:#f0b69d; stroke:none;" d="M417.333 325.667L417.667 326.333L417.333 325.667z"/>
<path style="fill:#efa387; stroke:none;" d="M223 327L224 328L223 327z"/>
<path style="fill:#f0bba9; stroke:none;" d="M416 328L417 329L416 328z"/>
<path style="fill:#f0b69d; stroke:none;" d="M225 330L226 331L225 330z"/>
<path style="fill:#efa387; stroke:none;" d="M226 331L227 332L226 331z"/>
<path style="fill:#f0b69d; stroke:none;" d="M414 331L415 332L414 331z"/>
<path style="fill:#eb9077; stroke:none;" d="M227 332L228 333L227 332z"/>
<path style="fill:#efa387; stroke:none;" d="M413 332L414 333L413 332M412 333L413 334L412 333M411 334L412 335L411 334z"/>
<path style="fill:#e4714e; stroke:none;" d="M230.667 335.333L231.333 335.667L230.667 335.333z"/>
<path style="fill:#f0b69d; stroke:none;" d="M410 335L411 336L410 335M233 337L234 338L233 337z"/>
<path style="fill:#efa387; stroke:none;" d="M407 337L408 338L407 337z"/>
<path style="fill:#e4714e; stroke:none;" d="M235.667 338.333L236.333 338.667L235.667 338.333z"/>
<path style="fill:#eb9077; stroke:none;" d="M404.667 338.333L405.333 338.667L404.667 338.333z"/>
<path style="fill:#efa387; stroke:none;" d="M236.667 339.333L237.333 339.667L236.667 339.333z"/>
<path style="fill:#f9dccc; stroke:none;" d="M403.667 339.333L404.333 339.667L403.667 339.333z"/>
<path style="fill:#efa387; stroke:none;" d="M239.667 340.333L240.333 340.667L239.667 340.333z"/>
<path style="fill:#f7c6af; stroke:none;" d="M400.667 340.333L401.333 340.667L400.667 340.333z"/>
<path style="fill:#efa387; stroke:none;" d="M242.667 341.333L243.333 341.667L242.667 341.333z"/>
<path style="fill:#e4714e; stroke:none;" d="M394.667 341.333L395.333 341.667L394.667 341.333z"/>
<path style="fill:#efa387; stroke:none;" d="M396.667 341.333L397.333 341.667L396.667 341.333z"/>
<path style="fill:#fdebdc; stroke:none;" d="M398.667 341.333L399.333 341.667L398.667 341.333z"/>
<path style="fill:#f0b69d; stroke:none;" d="M246.667 342.333L247.333 342.667L246.667 342.333z"/>
<path style="fill:#e78466; stroke:none;" d="M390 342L393 343L390 342z"/>
<path style="fill:#f7cdbd; stroke:none;" d="M393.667 342.333L394.333 342.667L393.667 342.333z"/>
<path style="fill:#f0b69d; stroke:none;" d="M250 343L254 344L250 343z"/>
<path style="fill:#e4714e; stroke:none;" d="M254 343L258 344L254 343z"/>
<path style="fill:#e78466; stroke:none;" d="M382.667 343.333L383.333 343.667L382.667 343.333z"/>
<path style="fill:#efa387; stroke:none;" d="M384 343L387 344L384 343z"/>
<path style="fill:#f7c6af; stroke:none;" d="M387 343L390 344L387 343z"/>
<path style="fill:#efa387; stroke:none;" d="M260 344L267 345L260 344z"/>
<path style="fill:#e4714e; stroke:none;" d="M342 344C348.687 346.806 358.767 345 366 345C359.313 342.194 349.233 344 342 344z"/>
<path style="fill:#e78466; stroke:none;" d="M366 344L374 345L366 344z"/>
<path style="fill:#f0bba9; stroke:none;" d="M374 344L379 345L374 344z"/>
<path style="fill:#fdebdc; stroke:none;" d="M379 344L384 345L379 344z"/>
<path style="fill:#f7cdbd; stroke:none;" d="M273 345L286 346L273 345z"/>
<path style="fill:#f0bba9; stroke:none;" d="M286 345C291.216 347.189 298.381 346 304 346L342 346C336.784 343.811 329.619 345 324 345L286 345z"/>
<path style="fill:#f7cdbd; stroke:none;" d="M342 345C346.724 346.982 352.91 346 358 346C353.276 344.018 347.09 345 342 345z"/>
</svg>
