<?xml version="1.0" standalone="yes"?>
<svg xmlns="http://www.w3.org/2000/svg" width="640" height="480">
<path style="fill:#ffffff; stroke:none;" d="M0 0L0 480L186 480C186 450.756 183.335 420.003 187 391C193.978 390.675 188.903 381.775 197.004 381.059C242.75 377.013 290.191 382 336 382L638 382L638 386L640 386L640 0L0 0z"/>
<path style="fill:#f7dac8; stroke:none;" d="M264 146C275.463 150.81 295.52 147 308 147C296.537 142.19 276.48 146 264 146z"/>
<path style="fill:#e15321; stroke:none;" d="M215 202C209.053 202 189.501 206.755 201.318 216.142C205.21 219.234 212.374 218 217 218L254 218L385 218L420 218C423.952 218 430.224 219.129 433.682 216.821C444.799 209.402 429.428 202.053 423 202C423 187.744 423.91 169.541 413.671 158.093C404.479 147.817 387.792 147 375 147L297 148C276.389 148.001 241.952 141.871 225.093 156.479C212.52 167.374 215 187.193 215 202z"/>
<path style="fill:#f2bca6; stroke:none;" d="M325 146L334 147L325 146z"/>
<path style="fill:#f2a37e; stroke:none;" d="M334 146C338.724 147.982 344.91 147 350 147C345.276 145.018 339.09 146 334 146z"/>
<path style="fill:#eb8d71; stroke:none;" d="M350 146C356.202 148.603 365.298 147 372 147C365.798 144.397 356.702 146 350 146z"/>
<path style="fill:#f0ab91; stroke:none;" d="M372 146L382 147L372 146z"/>
<path style="fill:#f7dac8; stroke:none;" d="M249 147L254 148L249 147z"/>
<path style="fill:#f2a37e; stroke:none;" d="M254 147L262 148L254 147z"/>
<path style="fill:#e27452; stroke:none;" d="M262 147C273.939 152.01 294.997 148 308 148C296.061 142.99 275.003 147 262 147z"/>
<path style="fill:#eb8d71; stroke:none;" d="M387 147L390 148L387 147z"/>
<path style="fill:#f7dac8; stroke:none;" d="M390 147L393 148L390 147z"/>
<path style="fill:#f2bca6; stroke:none;" d="M243 148L246 149L243 148z"/>
<path style="fill:#e27452; stroke:none;" d="M246 148L250 149L246 148z"/>
<path style="fill:#eb8d71; stroke:none;" d="M393 148L396 149L393 148z"/>
<path style="fill:#f7dac8; stroke:none;" d="M396.667 148.333L397.333 148.667L396.667 148.333z"/>
<path style="fill:#f0ab91; stroke:none;" d="M239.667 149.333L240.333 149.667L239.667 149.333M398.667 149.333L399.333 149.667L398.667 149.333M235 150L238 151L235 150M401.667 150.333L402.333 150.667L401.667 150.333M232.667 151.333L233.333 151.667L232.667 151.333z"/>
<path style="fill:#f2bca6; stroke:none;" d="M404.667 151.333L405.333 151.667L404.667 151.333z"/>
<path style="fill:#f2a37e; stroke:none;" d="M230.667 152.333L231.333 152.667L230.667 152.333z"/>
<path style="fill:#eb8d71; stroke:none;" d="M406 152L407 153L406 152z"/>
<path style="fill:#f0ab91; stroke:none;" d="M408 153L409 154L408 153z"/>
<path style="fill:#f2bca6; stroke:none;" d="M227 154L228 155L227 154z"/>
<path style="fill:#eb8d71; stroke:none;" d="M409 154L410 155L409 154M226 155L227 156L226 155z"/>
<path style="fill:#f2bca6; stroke:none;" d="M412 156L413 157L412 156M223 157L224 158L223 157M413 157L414 158L413 157z"/>
<path style="fill:#f0ab91; stroke:none;" d="M221 160L222 161L221 160z"/>
<path style="fill:#eb8d71; stroke:none;" d="M415 160L416 161L415 160z"/>
<path style="fill:#f2bca6; stroke:none;" d="M220 161L221 162L220 161M416 161L417 162L416 161z"/>
<path style="fill:#f0ab91; stroke:none;" d="M219 163L220 164L219 163M417 163L418 164L417 163z"/>
<path style="fill:#e27452; stroke:none;" d="M218.333 165.667L218.667 166.333L218.333 165.667M418.333 165.667L418.667 166.333L418.333 165.667z"/>
<path style="fill:#f2a37e; stroke:none;" d="M217.333 167.667L217.667 168.333L217.333 167.667M419.333 167.667L419.667 168.333L419.333 167.667M216.333 170.667L216.667 171.333L216.333 170.667M420.333 170.667L420.667 171.333L420.333 170.667z"/>
<path style="fill:#f2bca6; stroke:none;" d="M215.333 173.667L215.667 174.333L215.333 173.667M421.333 173.667L421.667 174.333L421.333 173.667z"/>
<path style="fill:#f2a37e; stroke:none;" d="M215.333 175.667L215.667 176.333L215.333 175.667z"/>
<path style="fill:#eb8d71; stroke:none;" d="M421.333 175.667L421.667 176.333L421.333 175.667z"/>
<path style="fill:#f7dac8; stroke:none;" d="M422.333 178.667L422.667 179.333L422.333 178.667z"/>
<path style="fill:#f2bca6; stroke:none;" d="M214 180L214 183L214 180z"/>
<path style="fill:#f0ab91; stroke:none;" d="M422 180L422 183L422 180z"/>
<path style="fill:#e27452; stroke:none;" d="M214 183L214 202C216.02 197.187 216.02 187.813 214 183z"/>
<path style="fill:#f2bca6; stroke:none;" d="M423 187L423 191L423 187z"/>
<path style="fill:#f7dac8; stroke:none;" d="M213 191L213 199C214.161 196.23 214.161 193.77 213 191z"/>
<path style="fill:#f0ab91; stroke:none;" d="M423 191L423 202L431 202L424 201L423 191z"/>
<path style="fill:#eb8d71; stroke:none;" d="M204 201L214 202L204 201z"/>
<path style="fill:#e27452; stroke:none;" d="M202.667 202.333L203.333 202.667L202.667 202.333M430 202L433 203L430 202z"/>
<path style="fill:#f2bca6; stroke:none;" d="M200 203L201 204L200 203z"/>
<path style="fill:#eb8d71; stroke:none;" d="M434 203L435 204L434 203z"/>
<path style="fill:#e27452; stroke:none;" d="M199 204L199 207L199 204z"/>
<path style="fill:#f2bca6; stroke:none;" d="M436 204L437 205L436 204M198 205L198 215C199.346 211.793 199.346 208.207 198 205z"/>
<path style="fill:#e27452; stroke:none;" d="M436 205L436 215C437.346 211.793 437.346 208.207 436 205z"/>
<path style="fill:#f7dac8; stroke:none;" d="M437 205L437 215C438.346 211.793 438.346 208.207 437 205z"/>
<path style="fill:#f0ab91; stroke:none;" d="M199 215L200 216L199 215z"/>
<path style="fill:#f2bca6; stroke:none;" d="M436 215L437 216L436 215M200 216L201 217L200 216z"/>
<path style="fill:#e27452; stroke:none;" d="M202.667 217.333L203.333 217.667L202.667 217.333z"/>
<path style="fill:#f2a37e; stroke:none;" d="M433 217L434 218L433 217z"/>
<path style="fill:#eb8d71; stroke:none;" d="M204 218C209.951 220.497 218.58 219 225 219L271 219L431 219C425.049 216.503 416.42 218 410 218L364 218L204 218z"/>
<path style="fill:#f7dac8; stroke:none;" d="M208 220C213.951 222.497 222.58 221 229 221L275 221L433 221C427.049 218.503 418.42 220 412 220L366 220L208 220z"/>
<path style="fill:#f2bca6; stroke:none;" d="M205 221L206 222L205 221z"/>
<path style="fill:#e15321; stroke:none;" d="M202 236L213.397 239.603C218.059 244.28 214.764 260.713 215.039 267C215.911 286.91 212.515 318.429 228.4 333.529C240.093 344.644 259.051 344 274 344L372 344C385.547 343.999 404.29 343.043 413.775 331.985C421.45 323.037 421.741 308.159 422.015 297L424 238C428.049 238 433.283 238.691 436.682 235.991C440.401 233.037 439.914 224.862 435.852 222.457C431.502 219.881 424.842 221 420 221L386 221L257 221L219 221C214.748 221 207.933 219.766 204.434 222.742C200.937 225.717 202 231.92 202 236z"/>
<path style="fill:#f2a37e; stroke:none;" d="M436 222L437 223L436 222z"/>
<path style="fill:#eb8d71; stroke:none;" d="M202 223L201 226L202 223z"/>
<path style="fill:#f2bca6; stroke:none;" d="M438 223L439 224L438 223z"/>
<path style="fill:#f0ab91; stroke:none;" d="M439 224L439 234C440.346 230.793 440.346 227.207 439 224z"/>
<path style="fill:#e27452; stroke:none;" d="M201 226L201 235C202.256 232.006 202.256 228.994 201 226M203.667 236.333L204.333 236.667L203.667 236.333z"/>
<path style="fill:#f0ab91; stroke:none;" d="M436.667 236.333L437.333 236.667L436.667 236.333z"/>
<path style="fill:#eb8d71; stroke:none;" d="M204.667 237.333L205.333 237.667L204.667 237.333z"/>
<path style="fill:#f2a37e; stroke:none;" d="M434.667 237.333L435.333 237.667L434.667 237.333z"/>
<path style="fill:#f7dac8; stroke:none;" d="M206.667 238.333L207.333 238.667L206.667 238.333z"/>
<path style="fill:#f0ab91; stroke:none;" d="M208 238L214 239L208 238M424 238L432 239L424 238z"/>
<path style="fill:#f7dac8; stroke:none;" d="M432.667 238.333L433.333 238.667L432.667 238.333z"/>
<path style="fill:#f2bca6; stroke:none;" d="M214 239L214 261C216.219 255.713 216.219 244.287 214 239M424 239L424 247C425.161 244.23 425.161 241.77 424 239z"/>
<path style="fill:#f7dac8; stroke:none;" d="M424 247L424 255C425.161 252.23 425.161 249.77 424 247z"/>
<path style="fill:#e27452; stroke:none;" d="M423 249L423 263C424.667 259.028 424.667 252.972 423 249z"/>
<path style="fill:#f7dac8; stroke:none;" d="M214 261L214 279C215.952 274.349 215.952 265.651 214 261z"/>
<path style="fill:#eb8d71; stroke:none;" d="M423 263L423 271C424.161 268.23 424.161 265.77 423 263z"/>
<path style="fill:#e27452; stroke:none;" d="M215 271L215 284C216.591 280.209 216.591 274.791 215 271z"/>
<path style="fill:#f2bca6; stroke:none;" d="M423 271L423 284C424.591 280.209 424.591 274.791 423 271z"/>
<path style="fill:#eb8d71; stroke:none;" d="M215 284L215 291C216.059 288.466 216.059 286.534 215 284z"/>
<path style="fill:#f2bca6; stroke:none;" d="M215 291L215 295L215 291z"/>
<path style="fill:#e27452; stroke:none;" d="M422 291L422 298C423.059 295.466 423.059 293.534 422 291z"/>
<path style="fill:#f2a37e; stroke:none;" d="M216 298L216 303L216 298z"/>
<path style="fill:#f2bca6; stroke:none;" d="M422 298L422 303L422 298M216.333 303.667L216.667 304.333L216.333 303.667z"/>
<path style="fill:#f2a37e; stroke:none;" d="M421 307L421 311L421 307z"/>
<path style="fill:#f0ab91; stroke:none;" d="M217 308L217 311L217 308z"/>
<path style="fill:#e27452; stroke:none;" d="M218 311L218 314L218 311z"/>
<path style="fill:#f2bca6; stroke:none;" d="M421.333 311.667L421.667 312.333L421.333 311.667z"/>
<path style="fill:#f7dac8; stroke:none;" d="M218.333 314.667L218.667 315.333L218.333 314.667z"/>
<path style="fill:#eb8d71; stroke:none;" d="M420 314L420 317L420 314M219 316L219 319L219 316z"/>
<path style="fill:#f7dac8; stroke:none;" d="M420.333 317.667L420.667 318.333L420.333 317.667z"/>
<path style="fill:#f2a37e; stroke:none;" d="M419.333 319.667L419.667 320.333L419.333 319.667z"/>
<path style="fill:#f2bca6; stroke:none;" d="M220.333 320.667L220.667 321.333L220.333 320.667z"/>
<path style="fill:#f7dac8; stroke:none;" d="M221.333 323.667L221.667 324.333L221.333 323.667z"/>
<path style="fill:#f2bca6; stroke:none;" d="M418.333 323.667L418.667 324.333L418.333 323.667z"/>
<path style="fill:#f7dac8; stroke:none;" d="M222.333 325.667L222.667 326.333L222.333 325.667z"/>
<path style="fill:#f0ab91; stroke:none;" d="M417.333 325.667L417.667 326.333L417.333 325.667z"/>
<path style="fill:#f2a37e; stroke:none;" d="M223 327L224 328L223 327z"/>
<path style="fill:#f2bca6; stroke:none;" d="M416 328L417 329L416 328z"/>
<path style="fill:#f0ab91; stroke:none;" d="M225 330L226 331L225 330z"/>
<path style="fill:#f2a37e; stroke:none;" d="M226 331L227 332L226 331z"/>
<path style="fill:#f2bca6; stroke:none;" d="M414 331L415 332L414 331z"/>
<path style="fill:#eb8d71; stroke:none;" d="M227 332L228 333L227 332z"/>
<path style="fill:#f2a37e; stroke:none;" d="M413 332L414 333L413 332M412 333L413 334L412 333M411 334L412 335L411 334z"/>
<path style="fill:#e27452; stroke:none;" d="M230.667 335.333L231.333 335.667L230.667 335.333z"/>
<path style="fill:#f0ab91; stroke:none;" d="M410 335L411 336L410 335z"/>
<path style="fill:#f2bca6; stroke:none;" d="M231 336L232 337L231 336M233 337L234 338L233 337z"/>
<path style="fill:#f0ab91; stroke:none;" d="M407 337L408 338L407 337z"/>
<path style="fill:#e27452; stroke:none;" d="M235.667 338.333L236.333 338.667L235.667 338.333z"/>
<path style="fill:#eb8d71; stroke:none;" d="M404.667 338.333L405.333 338.667L404.667 338.333z"/>
<path style="fill:#f0ab91; stroke:none;" d="M236.667 339.333L237.333 339.667L236.667 339.333z"/>
<path style="fill:#f7dac8; stroke:none;" d="M403.667 339.333L404.333 339.667L403.667 339.333z"/>
<path style="fill:#f2a37e; stroke:none;" d="M239.667 340.333L240.333 340.667L239.667 340.333z"/>
<path style="fill:#f2bca6; stroke:none;" d="M400.667 340.333L401.333 340.667L400.667 340.333z"/>
<path style="fill:#f0ab91; stroke:none;" d="M242.667 341.333L243.333 341.667L242.667 341.333z"/>
<path style="fill:#eb8d71; stroke:none;" d="M395 341L398 342L395 341z"/>
<path style="fill:#f7dac8; stroke:none;" d="M398.667 341.333L399.333 341.667L398.667 341.333z"/>
<path style="fill:#f0ab91; stroke:none;" d="M246.667 342.333L247.333 342.667L246.667 342.333z"/>
<path style="fill:#eb8d71; stroke:none;" d="M390 342L393 343L390 342z"/>
<path style="fill:#f7dac8; stroke:none;" d="M393.667 342.333L394.333 342.667L393.667 342.333z"/>
<path style="fill:#f0ab91; stroke:none;" d="M250 343L254 344L250 343z"/>
<path style="fill:#e27452; stroke:none;" d="M254 343L258 344L254 343M382 343L385 344L382 343z"/>
<path style="fill:#f0ab91; stroke:none;" d="M385.667 343.333L386.333 343.667L385.667 343.333z"/>
<path style="fill:#f2bca6; stroke:none;" d="M387 343L390 344L387 343z"/>
<path style="fill:#c4c4c4; stroke:none;" d="M216 347C229.127 352.508 252.689 348 267 348C253.873 342.492 230.311 347 216 347M270 353C274.733 345.93 283.328 348 291 348L348 348C354.762 348 368.578 345.023 371 353C374.375 344.116 355.963 347 351 347L289 347C282.319 347 270.692 344.12 270 353M376 347C391.79 353.626 412.384 342.409 428 351C425.045 345.942 419.232 347 414 347L376 347M444 347C458.097 352.915 478.753 346.169 494 349C489.923 345.911 483.941 347 479 347L444 347M497 353C502.352 345.006 515.339 348 524 348L598 348C591.322 345.198 581.216 347 574 347L520 347C512.925 347 497.736 343.552 497 353M601 350C611.679 345.475 626.529 348 638 348C631.733 345.37 604.775 344.177 601 350z"/>
<path style="fill:#a4a4a4; stroke:none;" d="M215 348L214 353L217 348L215 348z"/>
<path style="fill:#7f7f7f; stroke:none;" d="M217 348C229.414 353.209 251.474 349 265 349C252.586 343.791 230.526 348 217 348z"/>
<path style="fill:#a4a4a4; stroke:none;" d="M265 348L267 353L268 348L265 348M273 354C273.374 345.891 290.035 349 296 349L370 349C363.322 346.198 353.216 348 346 348L292 348C288.916 348 264.983 346.89 273 354z"/>
<path style="fill:#f7dac8; stroke:none;" d="M373 348C368.811 356.801 357.373 354 349 354C355.781 356.845 364.792 354.451 372 354.684L424 356C409.849 350.062 388.424 356.167 373 353L375 348L373 348z"/>
<path style="fill:#a4a4a4; stroke:none;" d="M375 348L375 353L377 348L375 348z"/>
<path style="fill:#7f7f7f; stroke:none;" d="M377 348C389.414 353.209 411.474 349 425 349C412.586 343.791 390.526 348 377 348M442 353L444 349L492 349C481.735 344.693 464.158 347.999 453 348C447.866 348 443.282 347.125 442 353z"/>
<path style="fill:#a4a4a4; stroke:none;" d="M500 354L499 349L598 349L598 353L599 348L521 348C517.774 348 491.904 346.82 500 354z"/>
<path style="fill:#f7dac8; stroke:none;" d="M599 348C597.477 357.552 583.208 353.484 576 354.17C550.413 356.605 524.63 354 499 354C505.202 356.602 513.347 354.537 520 355.17L603 355L601 348L599 348z"/>
<path style="fill:#7f7f7f; stroke:none;" d="M603 348C612.321 351.911 627.875 349 638 349C628.679 345.089 613.125 348 603 348z"/>
<path style="fill:#c4c4c4; stroke:none;" d="M214 349L213 353L214 349z"/>
<path style="fill:#464646; stroke:none;" d="M216 349L216 353L217 350L262 350C250.061 344.99 229.003 349 216 349z"/>
<path style="fill:#1a1a1a; stroke:none;" d="M217 350L217 353L267 353L267 349L217 350z"/>
<path style="fill:#f7dac8; stroke:none;" d="M268 349C266.01 355.701 259.943 355 254 355L217 355C221.969 357.085 228.65 356 234 356C246.468 356 258.817 356.785 271 354L270 349L268 349z"/>
<path style="fill:#464646; stroke:none;" d="M272 353C280.19 349.862 289.331 351 298 351L344 351C350.136 351 365.839 353.762 370 349C346.562 353.351 319.832 350 296 350C290.191 350 274.041 346.91 272 353z"/>
<path style="fill:#6d6d6d; stroke:none;" d="M276 349C283.639 352.206 295.729 350 304 350L368 350C360.361 346.794 348.271 349 340 349L276 349M370 349L370 353L370 349z"/>
<path style="fill:#464646; stroke:none;" d="M376 349L376 353L376 349z"/>
<path style="fill:#1a1a1a; stroke:none;" d="M377 349L377 353L425 353L425 349C410.402 350.845 391.397 352.428 377 349z"/>
<path style="fill:#464646; stroke:none;" d="M378 349C389.463 353.81 409.52 350 422 350C410.537 345.19 390.48 349 378 349z"/>
<path style="fill:#6d6d6d; stroke:none;" d="M425 349L425 353L376 353C380.72 354.981 386.92 354 392 354C403.282 354 415.99 355.621 427 353L425 349z"/>
<path style="fill:#a4a4a4; stroke:none;" d="M441 349C441.064 351.993 440.946 353.346 444 354L443 349L441 349z"/>
<path style="fill:#393939; stroke:none;" d="M444 349L444 353L444 349z"/>
<path style="fill:#1a1a1a; stroke:none;" d="M445 349L445 353L492 353L492 349C478.323 351.539 458.561 352.229 445 349z"/>
<path style="fill:#464646; stroke:none;" d="M446 349C457.463 353.81 477.52 350 490 350C478.537 345.19 458.48 349 446 349M492 349L492 353L492 349z"/>
<path style="fill:#898989; stroke:none;" d="M493 349L493 353L493 349z"/>
<path style="fill:#6d6d6d; stroke:none;" d="M499 349L499 353L500 350L564 350C574.976 350 587.288 348.45 598 351C593.929 346.341 578.985 349 573 349L499 349z"/>
<path style="fill:#464646; stroke:none;" d="M602 349L602 353L603 350L638 350C628.44 345.989 612.387 349 602 349z"/>
<path style="fill:#c4c4c4; stroke:none;" d="M373 350L373 353L375 353L375 350L373 350z"/>
<path style="fill:#a4a4a4; stroke:none;" d="M494 350L494 353L494 350z"/>
<path style="fill:#464646; stroke:none;" d="M502 353C502 349.31 520.067 351 524 351C546.721 351 576.698 346.129 598 353C595.503 347.376 580.597 350 575 350L519 350C516.28 350 496.41 349.86 502 353z"/>
<path style="fill:#7f7f7f; stroke:none;" d="M601 350L601 353L601 350z"/>
<path style="fill:#1a1a1a; stroke:none;" d="M603 350L603 353L638 353L638 350L603 350z"/>
<path style="fill:#898989; stroke:none;" d="M215 351L217 354L215 351z"/>
<path style="fill:#1a1a1a; stroke:none;" d="M274 351L274 353L370 353L370 351L274 351z"/>
<path style="fill:#a4a4a4; stroke:none;" d="M427.333 351.667L427.667 352.333L427.333 351.667z"/>
<path style="fill:#c4c4c4; stroke:none;" d="M495 351C490.672 355.056 484.593 354 479 354L444 354C453.726 358.697 473.11 355 484 355C486.97 355 496.852 356.019 495 351z"/>
<path style="fill:#1a1a1a; stroke:none;" d="M501 351C506.902 355.472 519.772 353 527 353L596 353L596 351L501 351z"/>
<path style="fill:#6d6d6d; stroke:none;" d="M217 353C229.414 358.209 251.474 354 265 354C252.586 348.791 230.526 353 217 353z"/>
<path style="fill:#898989; stroke:none;" d="M265.667 353.333L266.333 353.667L265.667 353.333M273 353C278.959 355.5 287.564 354 294 354C288.041 351.5 279.436 353 273 353z"/>
<path style="fill:#6d6d6d; stroke:none;" d="M294 353C298.969 355.085 305.65 354 311 354L347 354C342.031 351.915 335.35 353 330 353L294 353z"/>
<path style="fill:#898989; stroke:none;" d="M347 353C353.445 355.704 363.032 354 370 354C363.555 351.296 353.968 353 347 353z"/>
<path style="fill:#c4c4c4; stroke:none;" d="M425.667 353.333L426.333 353.667L425.667 353.333z"/>
<path style="fill:#6d6d6d; stroke:none;" d="M444 353C456.652 358.309 479.212 354 493 354C480.348 348.691 457.788 353 444 353z"/>
<path style="fill:#898989; stroke:none;" d="M500 353C506.202 355.603 515.298 354 522 354C515.798 351.397 506.702 353 500 353z"/>
<path style="fill:#6d6d6d; stroke:none;" d="M522 353C526.969 355.085 533.65 354 539 354L574 354C569.031 351.915 562.35 353 557 353L522 353z"/>
<path style="fill:#898989; stroke:none;" d="M574 353C580.687 355.806 590.767 354 598 354C591.313 351.194 581.233 353 574 353z"/>
<path style="fill:#6d6d6d; stroke:none;" d="M602 353C611.56 357.011 627.613 354 638 354C628.44 349.989 612.387 353 602 353z"/>
<path style="fill:#f7dac8; stroke:none;" d="M638 370L638 359L495.83 357.519L448.004 358.981L434.999 354.113L419 358.985L294 359C270.015 359 243.881 361.99 220 358.867L207.961 354.058C199.332 353.316 186.087 355.022 187.202 366.941C187.776 373.075 207.025 370 212 370L293 370L638 370z"/>
<path style="fill:#c4c4c4; stroke:none;" d="M216 354C228.652 359.309 251.212 355 265 355C252.348 349.691 229.788 354 216 354z"/>
<path style="fill:#f7dac8; stroke:none;" d="M271 354C277.445 356.704 287.032 355 294 355C287.555 352.296 277.968 354 271 354z"/>
<path style="fill:#c4c4c4; stroke:none;" d="M294 354C299.216 356.189 306.381 355 312 355L349 355C343.784 352.811 336.619 354 331 354L294 354M377 354C389.414 359.209 411.474 355 425 355C412.586 349.791 390.526 354 377 354M523 354C536.127 359.508 559.689 355 574 355C560.873 349.492 537.311 354 523 354M603 354C612.321 357.911 627.875 355 638 355C628.679 351.089 613.125 354 603 354z"/>
<path style="fill:#f7dac8; stroke:none;" d="M295 355C308.127 360.508 331.689 356 346 356C332.873 350.492 309.311 355 295 355M445 355C457.177 360.11 478.735 356 492 356C479.823 350.891 458.265 355 445 355M605 355C613.844 358.711 628.399 356 638 356C629.156 352.289 614.601 355 605 355z"/>
<path style="fill:#c4c4c4; stroke:none;" d="M186 376C201.159 372.391 219.438 375 235 375L331 375L638 375C629.643 371.493 616.06 374 607 374L536 374L291 374L213 374C206.713 374 190.25 371.136 186 376z"/>
<path style="fill:#7f7f7f; stroke:none;" d="M187 375C193.436 377.701 203.049 376 210 376L262 376C255.564 373.299 245.951 375 239 375L187 375z"/>
<path style="fill:#6d6d6d; stroke:none;" d="M262 375C270.835 378.707 285.415 376 295 376L372 376L638 376C629.165 372.293 614.585 375 605 375L528 375L262 375M186 376L187 377L186 376z"/>
<path style="fill:#1a1a1a; stroke:none;" d="M187 376L192 377L187 376z"/>
<path style="fill:#393939; stroke:none;" d="M192 376C198.919 378.903 209.52 377 217 377L272 377C265.081 374.097 254.48 376 247 376L192 376z"/>
<path style="fill:#1a1a1a; stroke:none;" d="M272 376C280.835 379.707 295.415 377 305 377L379 377L638 377C629.165 373.293 614.585 376 605 376L531 376L272 376z"/>
<path style="fill:#a4a4a4; stroke:none;" d="M186 377L187 378L186 377z"/>
<path style="fill:#7f7f7f; stroke:none;" d="M187 377C196.083 380.811 211.137 378 221 378C211.917 374.189 196.863 377 187 377z"/>
<path style="fill:#898989; stroke:none;" d="M221 377C230.798 381.111 247.351 378 258 378C248.202 373.889 231.649 377 221 377z"/>
<path style="fill:#7f7f7f; stroke:none;" d="M258 377C266.357 380.507 279.94 378 289 378L358 378C349.643 374.493 336.06 377 327 377L258 377z"/>
<path style="fill:#6d6d6d; stroke:none;" d="M358 377C364.678 379.802 374.784 378 382 378L435 378C428.322 375.198 418.216 377 411 377L358 377z"/>
<path style="fill:#7f7f7f; stroke:none;" d="M435 377C440.707 379.395 448.846 378 455 378L497 378C491.293 375.605 483.154 377 477 377L435 377z"/>
<path style="fill:#6d6d6d; stroke:none;" d="M497 377C507.98 381.607 527.056 378 539 378L638 378C627.02 373.393 607.944 377 596 377L497 377z"/>
<path style="fill:#c4c4c4; stroke:none;" d="M186 378C196.504 382.408 214.58 379 226 379L318 379L638 379C627.496 374.592 609.42 378 598 378L506 378L186 378z"/>
<path style="fill:#f7dac8; stroke:none;" d="M187 391C181.787 419.077 186 451.438 186 480L640 480C640 448.629 644.802 412.518 638 382L335 382L238 381C224.248 381 208.599 378.895 195.044 381.148C188.328 382.265 193.222 390.22 187 391z"/>
</svg>
