<?xml version="1.0" standalone="yes"?>
<svg xmlns="http://www.w3.org/2000/svg" width="640" height="480">
<path style="fill:#ffffff; stroke:none;" d="M0 0L0 480L640 480L640 0L0 0z"/>
<path style="fill:#bcae93; stroke:none;" d="M407 176L410 177L407 176z"/>
<path style="fill:#9f916b; stroke:none;" d="M410 176L413 177L410 176z"/>
<path style="fill:#d9d3c3; stroke:none;" d="M413 176L416 178L413 176z"/>
<path style="fill:#8d6631; stroke:none;" d="M402 182L403 183C413.93 175.907 418.702 184.159 408 191C418.448 195.977 420.687 170.56 406.059 178.003L402 182z"/>
<path style="fill:#d9d3c3; stroke:none;" d="M404 178L405 179L404 178z"/>
<path style="fill:#bcae93; stroke:none;" d="M409 178L413 179L409 178z"/>
<path style="fill:#ccb9b4; stroke:none;" d="M403 179L404 180L403 179z"/>
<path style="fill:#d9d3c3; stroke:none;" d="M407.667 179.333L408.333 179.667L407.667 179.333z"/>
<path style="fill:#ffffff; stroke:none;" d="M409.015 179.617C402.807 181.102 404.173 190.675 410.071 189.248C416.011 187.812 416.338 177.865 409.015 179.617z"/>
<path style="fill:#d9d3c3; stroke:none;" d="M396 182L402 181C399.471 179.961 397.824 179.907 396 182z"/>
<path style="fill:#ccb9b4; stroke:none;" d="M402 180L403 181L402 180z"/>
<path style="fill:#bcae93; stroke:none;" d="M417 180L417 183L417 180z"/>
<path style="fill:#d9d3c3; stroke:none;" d="M418 180L418 185L418 180z"/>
<path style="fill:#bcae93; stroke:none;" d="M397 181L402 182L397 181M415 181L415 185L415 181z"/>
<path style="fill:#ccb9b4; stroke:none;" d="M395 182L396 183L395 182z"/>
<path style="fill:#70521e; stroke:none;" d="M217 341C249.569 340.978 283.4 315.225 309 297.435C317.744 291.359 330.993 285.064 337.628 276.7C342.918 270.031 328.758 263.237 336.153 257.039L390 213.275C395.281 208.81 407.155 202.796 409.342 196C410.968 190.948 403.819 186.81 403 182C395.326 182.091 392.612 186.654 386.961 191.13L356.985 215.165L319.586 246.96L258.83 297.745C244.882 310.454 225.443 323.545 217 341z"/>
<path style="fill:#bcae93; stroke:none;" d="M394 183L395 184L394 183z"/>
<path style="fill:#9f916b; stroke:none;" d="M402.333 183.667L402.667 184.333L402.333 183.667z"/>
<path style="fill:#d9d3c3; stroke:none;" d="M403.333 183.667L403.667 184.333L403.333 183.667z"/>
<path style="fill:#9f916b; stroke:none;" d="M417 183L417 186L417 183z"/>
<path style="fill:#bcae93; stroke:none;" d="M393 184L394 185L393 184z"/>
<path style="fill:#8d6631; stroke:none;" d="M379 197L394 186C388.649 185.824 382.102 192.947 379 197z"/>
<path style="fill:#ccb9b4; stroke:none;" d="M390 186L391 187L390 186z"/>
<path style="fill:#9f916b; stroke:none;" d="M404 186L405 187L404 186z"/>
<path style="fill:#bcae93; stroke:none;" d="M389 187L390 188L389 187M405 187L406 188L405 187M413 187L414 188L413 187M416 187L417 188L416 187M388 188L389 189L388 188z"/>
<path style="fill:#ccb9b4; stroke:none;" d="M406 188L407 189L406 188M385 190L386 191L385 190z"/>
<path style="fill:#9f916b; stroke:none;" d="M396 191L400 191L396 191z"/>
<path style="fill:#ccb9b4; stroke:none;" d="M408.667 190.333L409.333 190.667L408.667 190.333z"/>
<path style="fill:#bcae93; stroke:none;" d="M413 190L414 191L413 190z"/>
<path style="fill:#ccb9b4; stroke:none;" d="M384 191L385 192L384 191z"/>
<path style="fill:#d9d3c3; stroke:none;" d="M397 191L400 192L397 191z"/>
<path style="fill:#bcae93; stroke:none;" d="M412 191L413 192L412 191M383 192L384 193L383 192z"/>
<path style="fill:#8d6631; stroke:none;" d="M395 192L395 195L395 192z"/>
<path style="fill:#ffffff; stroke:none;" d="M396 192L396 195L400 195L400 192L396 192z"/>
<path style="fill:#ccb9b4; stroke:none;" d="M400 192L400 195L400 192z"/>
<path style="fill:#bcae93; stroke:none;" d="M411 192L412 193L411 192M410 193L410 197L410 193z"/>
<path style="fill:#d9d3c3; stroke:none;" d="M380 194L381 195L380 194z"/>
<path style="fill:#ccb9b4; stroke:none;" d="M379 195L380 196L379 195z"/>
<path style="fill:#d9d3c3; stroke:none;" d="M397 195L400 196L397 195z"/>
<path style="fill:#bcae93; stroke:none;" d="M378 196L379 197L378 196z"/>
<path style="fill:#9f916b; stroke:none;" d="M397 196L400 197L397 196z"/>
<path style="fill:#bcae93; stroke:none;" d="M377 197L378 198L377 197M409 197L410 198L409 197z"/>
<path style="fill:#9f916b; stroke:none;" d="M376 198L377 199L376 198z"/>
<path style="fill:#d9d3c3; stroke:none;" d="M408.667 198.333L409.333 198.667L408.667 198.333M374 199L375 200L374 199z"/>
<path style="fill:#ccb9b4; stroke:none;" d="M407 199L408 200L407 199M373 200L374 201L373 200z"/>
<path style="fill:#9f916b; stroke:none;" d="M405 200L406 201L405 200z"/>
<path style="fill:#bcae93; stroke:none;" d="M372 201L373 202L372 201M404 201L405 202L404 201M371 202L372 203L371 202M403 202L404 203L403 202z"/>
<path style="fill:#ccb9b4; stroke:none;" d="M402 203L403 204L402 203M368 204L369 205L368 204z"/>
<path style="fill:#9f916b; stroke:none;" d="M400 204L401 205L400 204z"/>
<path style="fill:#bcae93; stroke:none;" d="M367 205L368 206L367 205z"/>
<path style="fill:#9f916b; stroke:none;" d="M399 205L400 206L399 205z"/>
<path style="fill:#bcae93; stroke:none;" d="M366 206L367 207L366 206M398 206L399 207L398 206M397 207L398 208L397 207z"/>
<path style="fill:#ccb9b4; stroke:none;" d="M363 208L364 209L363 208z"/>
<path style="fill:#9f916b; stroke:none;" d="M395 208L396 209L395 208z"/>
<path style="fill:#ccb9b4; stroke:none;" d="M362 209L363 210L362 209z"/>
<path style="fill:#9f916b; stroke:none;" d="M394 209L395 210L394 209z"/>
<path style="fill:#bcae93; stroke:none;" d="M361 210L362 211L361 210z"/>
<path style="fill:#9f916b; stroke:none;" d="M393 210L394 211L393 210z"/>
<path style="fill:#8d6631; stroke:none;" d="M355 217L362 211C358.817 212.433 356.758 213.969 355 217z"/>
<path style="fill:#bcae93; stroke:none;" d="M392 211L393 212L392 211z"/>
<path style="fill:#d9d3c3; stroke:none;" d="M358 212L359 213L358 212z"/>
<path style="fill:#9f916b; stroke:none;" d="M390 212L391 213L390 212z"/>
<path style="fill:#ccb9b4; stroke:none;" d="M357 213L358 214L357 213z"/>
<path style="fill:#9f916b; stroke:none;" d="M389 213L390 214L389 213z"/>
<path style="fill:#bcae93; stroke:none;" d="M356 214L357 215L356 214z"/>
<path style="fill:#9f916b; stroke:none;" d="M388 214L389 215L388 214z"/>
<path style="fill:#bcae93; stroke:none;" d="M387 215L388 216L387 215z"/>
<path style="fill:#9f916b; stroke:none;" d="M354 216L355 217L354 216z"/>
<path style="fill:#d9d3c3; stroke:none;" d="M386.667 216.333L387.333 216.667L386.667 216.333M352 217L353 218L352 217z"/>
<path style="fill:#ccb9b4; stroke:none;" d="M385 217L386 218L385 217M351 218L352 219L351 218z"/>
<path style="fill:#9f916b; stroke:none;" d="M383 218L384 219L383 218z"/>
<path style="fill:#bcae93; stroke:none;" d="M350 219L351 220L350 219M382 219L383 220L382 219M349 220L350 221L349 220M381 220L382 221L381 220z"/>
<path style="fill:#d9d3c3; stroke:none;" d="M347 221L348 222L347 221z"/>
<path style="fill:#ccb9b4; stroke:none;" d="M380 221L381 222L380 221M346 222L347 223L346 222z"/>
<path style="fill:#9f916b; stroke:none;" d="M378 222L379 223L378 222z"/>
<path style="fill:#bcae93; stroke:none;" d="M345 223L344 225L345 223z"/>
<path style="fill:#8d6631; stroke:none;" d="M346 223L338 229C341.503 229.48 346.09 226.775 346 223z"/>
<path style="fill:#9f916b; stroke:none;" d="M377 223L378 224L377 223z"/>
<path style="fill:#979794; stroke:none;" d="M376 224L377 225L376 224z"/>
<path style="fill:#bcae93; stroke:none;" d="M375 225L376 226L375 225z"/>
<path style="fill:#ccb9b4; stroke:none;" d="M341 226L342 227L341 226z"/>
<path style="fill:#9f916b; stroke:none;" d="M373 226L374 227L373 226z"/>
<path style="fill:#ccb9b4; stroke:none;" d="M340 227L341 228L340 227z"/>
<path style="fill:#9f916b; stroke:none;" d="M372 227L373 228L372 227z"/>
<path style="fill:#bcae93; stroke:none;" d="M339 228L340 229L339 228z"/>
<path style="fill:#9f916b; stroke:none;" d="M371 228L372 229L371 228z"/>
<path style="fill:#bcae93; stroke:none;" d="M370 229L371 230L370 229z"/>
<path style="fill:#d9d3c3; stroke:none;" d="M336 230L337 231L336 230z"/>
<path style="fill:#9f916b; stroke:none;" d="M337 230L338 231L337 230M368 230L369 231L368 230z"/>
<path style="fill:#ccb9b4; stroke:none;" d="M335 231L336 232L335 231z"/>
<path style="fill:#9f916b; stroke:none;" d="M367 231L368 232L367 231z"/>
<path style="fill:#bcae93; stroke:none;" d="M334 232L335 233L334 232z"/>
<path style="fill:#9f916b; stroke:none;" d="M366 232L367 233L366 232z"/>
<path style="fill:#8d6631; stroke:none;" d="M333 233L333 235L335 233L333 233z"/>
<path style="fill:#bcae93; stroke:none;" d="M365 233L366 234L365 233z"/>
<path style="fill:#9f916b; stroke:none;" d="M332 234L333 235L332 234z"/>
<path style="fill:#d9d3c3; stroke:none;" d="M364.667 234.333L365.333 234.667L364.667 234.333M330 235L331 236L330 235z"/>
<path style="fill:#ccb9b4; stroke:none;" d="M363 235L364 236L363 235M329 236L330 237L329 236z"/>
<path style="fill:#9f916b; stroke:none;" d="M361 236L362 237L361 236z"/>
<path style="fill:#bcae93; stroke:none;" d="M328 237L329 238L328 237M360 237L361 238L360 237M327 238L328 239L327 238M359 238L360 239L359 238z"/>
<path style="fill:#d9d3c3; stroke:none;" d="M325 239L326 240L325 239z"/>
<path style="fill:#ccb9b4; stroke:none;" d="M358 239L359 240L358 239M324 240L322 245L324 240z"/>
<path style="fill:#9f916b; stroke:none;" d="M356 240L357 241L356 240z"/>
<path style="fill:#8d6631; stroke:none;" d="M324 241L323 244L324 241z"/>
<path style="fill:#9f916b; stroke:none;" d="M333 246L338 242C334.639 240.86 333.672 242.911 333 246M355 241L356 242L355 241z"/>
<path style="fill:#d9d3c3; stroke:none;" d="M335 242L338 243L335 242z"/>
<path style="fill:#bcae93; stroke:none;" d="M354 242L355 243L354 242z"/>
<path style="fill:#ffffff; stroke:none;" d="M334 243L334 246L338 246L338 243L334 243z"/>
<path style="fill:#ccb9b4; stroke:none;" d="M338 243L338 246L338 243M353 243L354 244L353 243z"/>
<path style="fill:#9f916b; stroke:none;" d="M351 244L352 245L351 244M321 245L322 246L321 245M350 245L351 246L350 245z"/>
<path style="fill:#d9d3c3; stroke:none;" d="M319 246L320 247L319 246M335 246L338 247L335 246z"/>
<path style="fill:#9f916b; stroke:none;" d="M349 246L350 247L349 246z"/>
<path style="fill:#ccb9b4; stroke:none;" d="M318 247L319 248L318 247z"/>
<path style="fill:#9f916b; stroke:none;" d="M319 247L320 248L319 247z"/>
<path style="fill:#bcae93; stroke:none;" d="M348 247L349 248L348 247z"/>
<path style="fill:#ccb9b4; stroke:none;" d="M317 248L318 249L317 248z"/>
<path style="fill:#9f916b; stroke:none;" d="M346 248L347 249L346 248z"/>
<path style="fill:#979794; stroke:none;" d="M316 249L317 250L316 249z"/>
<path style="fill:#9f916b; stroke:none;" d="M345 249L346 250L345 249z"/>
<path style="fill:#d9d3c3; stroke:none;" d="M314 250L315 251L314 250z"/>
<path style="fill:#9f916b; stroke:none;" d="M344 250L345 251L344 250M314 251L315 252L314 251z"/>
<path style="fill:#bcae93; stroke:none;" d="M343 251L344 252L343 251z"/>
<path style="fill:#ccb9b4; stroke:none;" d="M312 252L313 253L312 252z"/>
<path style="fill:#bcae93; stroke:none;" d="M342 252L343 253L342 252M311 253L312 254L311 253z"/>
<path style="fill:#ccb9b4; stroke:none;" d="M341 253L342 254L341 253z"/>
<path style="fill:#bcae93; stroke:none;" d="M310 254L311 255L310 254z"/>
<path style="fill:#9f916b; stroke:none;" d="M339 254L340 255L339 254M309 255L310 256L309 255z"/>
<path style="fill:#bcae93; stroke:none;" d="M338 255L339 256L338 255z"/>
<path style="fill:#ccb9b4; stroke:none;" d="M307 256L308 257L307 256z"/>
<path style="fill:#bcae93; stroke:none;" d="M337 256L338 257L337 256M306 257L307 258L306 257z"/>
<path style="fill:#9f916b; stroke:none;" d="M334 257L337 258L334 257z"/>
<path style="fill:#bcae93; stroke:none;" d="M305 258L306 259L305 258z"/>
<path style="fill:#8d6631; stroke:none;" d="M333 258L333 263L333 258z"/>
<path style="fill:#d9d3c3; stroke:none;" d="M334 258L337 269L336 258L334 258z"/>
<path style="fill:#9f916b; stroke:none;" d="M304 259L305 260L304 259z"/>
<path style="fill:#ccb9b4; stroke:none;" d="M302 260L303 261L302 260M301 261L302 262L301 261z"/>
<path style="fill:#bcae93; stroke:none;" d="M300 262L301 263L300 262z"/>
<path style="fill:#9f916b; stroke:none;" d="M299 263L300 264L299 263z"/>
<path style="fill:#ccb9b4; stroke:none;" d="M297 264L298 265L297 264M296 265L297 266L296 265z"/>
<path style="fill:#8d6631; stroke:none;" d="M335.333 265.667L335.667 266.333L335.333 265.667z"/>
<path style="fill:#bcae93; stroke:none;" d="M295 266L296 267L295 266z"/>
<path style="fill:#9f916b; stroke:none;" d="M294 267L295 268L294 267z"/>
<path style="fill:#d9d3c3; stroke:none;" d="M292 268L293 269L292 268z"/>
<path style="fill:#9f916b; stroke:none;" d="M292 269L293 270L292 269z"/>
<path style="fill:#ccb9b4; stroke:none;" d="M290 270L291 271L290 270z"/>
<path style="fill:#9f916b; stroke:none;" d="M338 270L340 273L338 270z"/>
<path style="fill:#bcae93; stroke:none;" d="M289 271L290 272L289 271z"/>
<path style="fill:#d9d3c3; stroke:none;" d="M286 273L287 274L286 273z"/>
<path style="fill:#9f916b; stroke:none;" d="M287 273L288 274L287 273z"/>
<path style="fill:#bcae93; stroke:none;" d="M340.333 273.667L340.667 274.333L340.333 273.667M285 274L286 275L285 274M284 275L285 276L284 275z"/>
<path style="fill:#979794; stroke:none;" d="M339 275L340 276L339 275z"/>
<path style="fill:#bcae93; stroke:none;" d="M283 276L284 277L283 276M338 276L339 277L338 276z"/>
<path style="fill:#d9d3c3; stroke:none;" d="M281 277L282 278L281 277z"/>
<path style="fill:#9f916b; stroke:none;" d="M282 277L283 278L282 277z"/>
<path style="fill:#ccb9b4; stroke:none;" d="M337 277L338 278L337 277M280 278L281 279L280 278z"/>
<path style="fill:#9f916b; stroke:none;" d="M335 278L336 279L335 278z"/>
<path style="fill:#bcae93; stroke:none;" d="M279 279L280 280L279 279M334 279L335 280L334 279M278 280L279 281L278 280z"/>
<path style="fill:#d9d3c3; stroke:none;" d="M333.667 280.333L334.333 280.667L333.667 280.333M276 281L277 282L276 281z"/>
<path style="fill:#9f916b; stroke:none;" d="M331 281L332 282L331 281z"/>
<path style="fill:#d9d3c3; stroke:none;" d="M332 281L333 282L332 281z"/>
<path style="fill:#ccb9b4; stroke:none;" d="M275 282L276 283L275 282z"/>
<path style="fill:#bcae93; stroke:none;" d="M330 282L331 283L330 282z"/>
<path style="fill:#ccb9b4; stroke:none;" d="M274 283L275 284L274 283z"/>
<path style="fill:#9f916b; stroke:none;" d="M328 283L329 284L328 283z"/>
<path style="fill:#bcae93; stroke:none;" d="M273 284L274 285L273 284M327 284L328 285L327 284M325 285L325 287L327 285L325 285z"/>
<path style="fill:#ccb9b4; stroke:none;" d="M270 286L271 287L270 286z"/>
<path style="fill:#9f916b; stroke:none;" d="M324 286L325 287L324 286z"/>
<path style="fill:#d9d3c3; stroke:none;" d="M269 287L270 288L269 287z"/>
<path style="fill:#bcae93; stroke:none;" d="M323 287L324 288L323 287M268 288L269 289L268 288z"/>
<path style="fill:#9f916b; stroke:none;" d="M321 288L322 289L321 288z"/>
<path style="fill:#bcae93; stroke:none;" d="M267 289L268 290L267 289M320 289L321 290L320 289M266 290L267 291L266 290z"/>
<path style="fill:#ccb9b4; stroke:none;" d="M317 293L320 290L317 293z"/>
<path style="fill:#9f916b; stroke:none;" d="M265 291L266 292L265 291z"/>
<path style="fill:#ccb9b4; stroke:none;" d="M263 292L264 293L263 292z"/>
<path style="fill:#bcae93; stroke:none;" d="M316 292L317 293L316 292z"/>
<path style="fill:#ccb9b4; stroke:none;" d="M262 293L263 294L262 293M261 294L262 295L261 294z"/>
<path style="fill:#bcae93; stroke:none;" d="M313 294L314 295L313 294M260 295L261 296L260 295z"/>
<path style="fill:#9f916b; stroke:none;" d="M311 295L312 296L311 295z"/>
<path style="fill:#8d6631; stroke:none;" d="M256 300L261 296L256 300z"/>
<path style="fill:#9f916b; stroke:none;" d="M310 296L311 297L310 296M307 299L310 297L307 299z"/>
<path style="fill:#d9d3c3; stroke:none;" d="M256 298L257 299L256 298z"/>
<path style="fill:#ccb9b4; stroke:none;" d="M255 299L256 300L255 299z"/>
<path style="fill:#bcae93; stroke:none;" d="M306 299L307 300L306 299z"/>
<path style="fill:#ccb9b4; stroke:none;" d="M254 300L255 301L254 300z"/>
<path style="fill:#bcae93; stroke:none;" d="M304 300L305 301L304 300M253 301L254 302L253 301M252 302L253 303L252 302z"/>
<path style="fill:#9f916b; stroke:none;" d="M301 302L302 303L301 302z"/>
<path style="fill:#bcae93; stroke:none;" d="M251 303L252 304L251 303M300 303L301 304L300 303M250 304L251 305L250 304z"/>
<path style="fill:#9f916b; stroke:none;" d="M298 304L299 305L298 304z"/>
<path style="fill:#bcae93; stroke:none;" d="M249 305L250 306L249 305z"/>
<path style="fill:#9f916b; stroke:none;" d="M295 307L298 305L295 307M248 306L249 307L248 306z"/>
<path style="fill:#ccb9b4; stroke:none;" d="M298 306L300 308L298 306z"/>
<path style="fill:#201319; stroke:none;" d="M294 307L294 312L298 308L294 307z"/>
<path style="fill:#652b46; stroke:none;" d="M298 307L302 311L298 307z"/>
<path style="fill:#d9d3c3; stroke:none;" d="M245 308L246 309L245 308z"/>
<path style="fill:#979794; stroke:none;" d="M292.667 308.333L293.333 308.667L292.667 308.333z"/>
<path style="fill:#a16078; stroke:none;" d="M296.667 308.333L297.333 308.667L296.667 308.333z"/>
<path style="fill:#d9d3c3; stroke:none;" d="M244 309L245 310L244 309z"/>
<path style="fill:#9f916b; stroke:none;" d="M288 313L292 309L288 313z"/>
<path style="fill:#ccb9b4; stroke:none;" d="M292.667 309.333L293.333 309.667L292.667 309.333z"/>
<path style="fill:#8f3a63; stroke:none;" d="M295 309L295 311L297 311L295 309z"/>
<path style="fill:#e3559c; stroke:none;" d="M296 309C295.279 315.714 287.391 316.953 285.093 323.039C281.167 333.442 289.458 338.484 292 347L303 348L315 344L310 347L323 348L321 347L327 346L326 348C335.923 347.882 338.249 337.618 339 329L337 331C334.956 326.124 332.753 322.525 328 320C332.526 321.019 334.727 324.08 337 328C338.967 322.793 334.469 319.35 331 316L328 318L329 315L323 316L328 318C324.618 319.691 320.357 318.573 321 316C318.684 316.159 317.972 315.862 318 318L296 309z"/>
<path style="fill:#ccb9b4; stroke:none;" d="M301 309L302 310L301 309M243 310L244 311L243 310z"/>
<path style="fill:#652b46; stroke:none;" d="M291 310L292 311L291 310z"/>
<path style="fill:#201319; stroke:none;" d="M292 310L293 311L292 310z"/>
<path style="fill:#652b46; stroke:none;" d="M293 310L293 314L297 312L293 310z"/>
<path style="fill:#8f3a63; stroke:none;" d="M301 311L311 316L303 310L301 311z"/>
<path style="fill:#ccb9b4; stroke:none;" d="M242 311L243 312L242 311z"/>
<path style="fill:#e3559c; stroke:none;" d="M287 311L284 317C274.029 318.493 264.347 324.36 272 335L271 341C274.673 340.197 273.332 337.844 272 335C278.377 341.512 279.503 347.775 290 348L284 345L291 346C285.841 339.252 283.024 334.686 283 326C279.318 331.39 281.603 338.452 284 344C271.338 328.3 287.017 323.74 293 311L287 311z"/>
<path style="fill:#ccb9b4; stroke:none;" d="M241 312L242 313L241 312z"/>
<path style="fill:#9f916b; stroke:none;" d="M282 314L287 313L282 314z"/>
<path style="fill:#bcae93; stroke:none;" d="M306 312L307 313L306 312z"/>
<path style="fill:#ccb9b4; stroke:none;" d="M240 313L241 314L240 313z"/>
<path style="fill:#8f3a63; stroke:none;" d="M292 313L289 318L294 314L292 313M294.667 313.333L295.333 313.667L294.667 313.333z"/>
<path style="fill:#ccb9b4; stroke:none;" d="M308 313L309 314L308 313M320 314L323 315L320 314z"/>
<path style="fill:#a16078; stroke:none;" d="M323 314L326 315L323 314z"/>
<path style="fill:#201319; stroke:none;" d="M326.667 314.333L327.333 314.667L326.667 314.333z"/>
<path style="fill:#615559; stroke:none;" d="M328 314L329 315L328 314z"/>
<path style="fill:#bcae93; stroke:none;" d="M329.667 314.333L330.333 314.667L329.667 314.333z"/>
<path style="fill:#ccb9b4; stroke:none;" d="M238 315L239 316L238 315z"/>
<path style="fill:#bcae93; stroke:none;" d="M280 316L284 316L280 316z"/>
<path style="fill:#652b46; stroke:none;" d="M285.667 315.333L286.333 315.667L285.667 315.333z"/>
<path style="fill:#615559; stroke:none;" d="M311.667 315.333L312.333 315.667L311.667 315.333z"/>
<path style="fill:#979794; stroke:none;" d="M313.667 315.333L314.333 315.667L313.667 315.333z"/>
<path style="fill:#652b46; stroke:none;" d="M315 315L315 318L318 318L318 316L315 315z"/>
<path style="fill:#201319; stroke:none;" d="M318.667 315.333L319.333 315.667L318.667 315.333z"/>
<path style="fill:#8f3a63; stroke:none;" d="M320 315L320 318L328 319L323 317L327 316L320 315z"/>
<path style="fill:#652b46; stroke:none;" d="M329 315L337 323C337.643 318.195 333.173 315.844 329 315z"/>
<path style="fill:#bcae93; stroke:none;" d="M332 315L333 316L332 315z"/>
<path style="fill:#ccb9b4; stroke:none;" d="M237 316L238 317L237 316z"/>
<path style="fill:#9f916b; stroke:none;" d="M277 318L278 319L280 316L277 318z"/>
<path style="fill:#652b46; stroke:none;" d="M283 316L284 317L283 316z"/>
<path style="fill:#201319; stroke:none;" d="M313 316L316 317L313 316z"/>
<path style="fill:#ccb9b4; stroke:none;" d="M329 316L328 318L330 318L329 316M236 317L237 318L236 317z"/>
<path style="fill:#8f3a63; stroke:none;" d="M280.333 317.667L280.667 318.333L280.333 317.667z"/>
<path style="fill:#201319; stroke:none;" d="M281 317L282 318L281 317M288 317L289 318L288 317z"/>
<path style="fill:#8f3a63; stroke:none;" d="M302.667 317.333L303.333 317.667L302.667 317.333z"/>
<path style="fill:#ccb9b4; stroke:none;" d="M235 318L236 319L235 318z"/>
<path style="fill:#bcae93; stroke:none;" d="M275 320L278 318L275 320z"/>
<path style="fill:#201319; stroke:none;" d="M279 318L280 319L279 318z"/>
<path style="fill:#652b46; stroke:none;" d="M283 324L289 319C285.483 318.076 284.054 320.998 283 324z"/>
<path style="fill:#8f3a63; stroke:none;" d="M318 318L325 329L324 325L325 327C326.922 321.936 322.125 319.667 318 318z"/>
<path style="fill:#ccb9b4; stroke:none;" d="M234 319L235 320L234 319z"/>
<path style="fill:#8d6631; stroke:none;" d="M272 321L275 320C273.222 319.045 272.979 319.234 272 321z"/>
<path style="fill:#a16078; stroke:none;" d="M277 319L278 320L277 319z"/>
<path style="fill:#201319; stroke:none;" d="M278 319L279 320L278 319z"/>
<path style="fill:#8f3a63; stroke:none;" d="M328 319L337 331L339 326L337 328C335.214 323.403 332.7 320.611 328 319z"/>
<path style="fill:#ccb9b4; stroke:none;" d="M233 320L234 321L233 320z"/>
<path style="fill:#201319; stroke:none;" d="M277 320L278 321L277 320z"/>
<path style="fill:#979794; stroke:none;" d="M337 320L338 321L337 320z"/>
<path style="fill:#ccb9b4; stroke:none;" d="M232 321L233 322L232 321z"/>
<path style="fill:#201319; stroke:none;" d="M276 321L275 323L276 321z"/>
<path style="fill:#8d6631; stroke:none;" d="M338 322L339 323L338 322z"/>
<path style="fill:#ccb9b4; stroke:none;" d="M230 323L231 324L230 323z"/>
<path style="fill:#8d6631; stroke:none;" d="M267.667 323.333L268.333 323.667L267.667 323.333z"/>
<path style="fill:#652b46; stroke:none;" d="M274.333 323.667L274.667 324.333L274.333 323.667z"/>
<path style="fill:#201319; stroke:none;" d="M282 323L281 325L283 325L282 323M326 323L327 324L326 323M338 323L338 326L338 323z"/>
<path style="fill:#d9d3c3; stroke:none;" d="M229 324L230 325L229 324z"/>
<path style="fill:#8d6631; stroke:none;" d="M230 324L229 327L230 324z"/>
<path style="fill:#d9d3c3; stroke:none;" d="M266.667 324.333L267.333 324.667L266.667 324.333z"/>
<path style="fill:#652b46; stroke:none;" d="M268 324L268 327L268 324z"/>
<path style="fill:#8f3a63; stroke:none;" d="M270.333 324.667L270.667 325.333L270.333 324.667z"/>
<path style="fill:#652b46; stroke:none;" d="M278 328C279.252 328 279.482 341.16 284 344C281.497 336.491 280.058 332.654 283 325C280.095 325.101 279.435 325.476 278 328z"/>
<path style="fill:#8f3a63; stroke:none;" d="M283 324L283 329L285 329L283 324z"/>
<path style="fill:#201319; stroke:none;" d="M327 324L328 325L327 324z"/>
<path style="fill:#979794; stroke:none;" d="M339.333 324.667L339.667 325.333L339.333 324.667z"/>
<path style="fill:#d9d3c3; stroke:none;" d="M264.667 325.333L265.333 325.667L264.667 325.333z"/>
<path style="fill:#8f3a63; stroke:none;" d="M273.333 325.667L273.667 326.333L273.333 325.667z"/>
<path style="fill:#201319; stroke:none;" d="M324 325L324 328L324 325z"/>
<path style="fill:#652b46; stroke:none;" d="M328 325L329 326L328 325z"/>
<path style="fill:#8f3a63; stroke:none;" d="M329 325L328 326L331 328L329 325z"/>
<path style="fill:#bcae93; stroke:none;" d="M228 326L229 327L228 326z"/>
<path style="fill:#d9d3c3; stroke:none;" d="M260 327L264 327L260 327z"/>
<path style="fill:#8f3a63; stroke:none;" d="M288 326L288 335L290 326L288 326z"/>
<path style="fill:#615559; stroke:none;" d="M339 326L339 330L339 326z"/>
<path style="fill:#d9d3c3; stroke:none;" d="M340 326L340 330L340 326z"/>
<path style="fill:#bcae93; stroke:none;" d="M227 327L228 328L227 327z"/>
<path style="fill:#201319; stroke:none;" d="M268 327C268.012 331.194 267.508 336.176 271 339L272 335L268 327z"/>
<path style="fill:#8f3a63; stroke:none;" d="M272.333 327.667L272.667 328.333L272.333 327.667z"/>
<path style="fill:#a16078; stroke:none;" d="M279 327L279 330L279 327z"/>
<path style="fill:#9f916b; stroke:none;" d="M258 328L259 329L258 328z"/>
<path style="fill:#652b46; stroke:none;" d="M277 328L275 331L277 328z"/>
<path style="fill:#8f3a63; stroke:none;" d="M331.333 328.667L331.667 329.333L331.333 328.667z"/>
<path style="fill:#bcae93; stroke:none;" d="M225 329L226 330L225 329z"/>
<path style="fill:#9f916b; stroke:none;" d="M256 329L257 330L256 329z"/>
<path style="fill:#d9d3c3; stroke:none;" d="M257.667 329.333L258.333 329.667L257.667 329.333z"/>
<path style="fill:#652b46; stroke:none;" d="M283 329L283 333L283 329z"/>
<path style="fill:#a16078; stroke:none;" d="M323 329L325 331L325 329L323 329z"/>
<path style="fill:#bcae93; stroke:none;" d="M224 330L225 331L224 330z"/>
<path style="fill:#9f916b; stroke:none;" d="M253.667 330.333L254.333 330.667L253.667 330.333z"/>
<path style="fill:#8f3a63; stroke:none;" d="M294 330L298 343L296 330L294 330z"/>
<path style="fill:#652b46; stroke:none;" d="M325.333 330.667L325.667 331.333L325.333 330.667M332.333 330.667L332.667 331.333L332.333 330.667z"/>
<path style="fill:#201319; stroke:none;" d="M339 330L339 333L339 330z"/>
<path style="fill:#ccb9b4; stroke:none;" d="M223 331L224 332L223 331M252.667 331.333L253.333 331.667L252.667 331.333z"/>
<path style="fill:#8f3a63; stroke:none;" d="M280 331L280 335L280 331z"/>
<path style="fill:#ccb9b4; stroke:none;" d="M222 332L223 333L222 332z"/>
<path style="fill:#bcae93; stroke:none;" d="M245 334L251 333L245 334z"/>
<path style="fill:#d9d3c3; stroke:none;" d="M221 333L222 334L221 333z"/>
<path style="fill:#8d6631; stroke:none;" d="M222 333L221 336L222 333z"/>
<path style="fill:#8f3a63; stroke:none;" d="M283 333C284.244 338.175 286.357 342.214 291 345L288 345L292 348C291.798 343.247 286.838 335.866 283 333z"/>
<path style="fill:#615559; stroke:none;" d="M338 333L338 339C338.951 336.715 338.951 335.285 338 333z"/>
<path style="fill:#979794; stroke:none;" d="M339 333L339 337L339 333z"/>
<path style="fill:#652b46; stroke:none;" d="M289 334L291 340C291.542 337.336 290.772 336.028 289 334z"/>
<path style="fill:#8f3a63; stroke:none;" d="M322 334L321 336L323 336L322 334z"/>
<path style="fill:#bcae93; stroke:none;" d="M220 335L221 336L220 335z"/>
<path style="fill:#8d6631; stroke:none;" d="M241 335L244 336L241 335z"/>
<path style="fill:#d9d3c3; stroke:none;" d="M244.667 335.333L245.333 335.667L244.667 335.333z"/>
<path style="fill:#615559; stroke:none;" d="M268 335L268 338L268 335z"/>
<path style="fill:#201319; stroke:none;" d="M272 335L273 336L272 335z"/>
<path style="fill:#8f3a63; stroke:none;" d="M273 335L273 339L273 335z"/>
<path style="fill:#bcae93; stroke:none;" d="M219 336L220 337L219 336z"/>
<path style="fill:#ccb9b4; stroke:none;" d="M241 336L244 337L241 336z"/>
<path style="fill:#8f3a63; stroke:none;" d="M281.333 336.667L281.667 337.333L281.333 336.667z"/>
<path style="fill:#652b46; stroke:none;" d="M321.333 336.667L321.667 337.333L321.333 336.667z"/>
<path style="fill:#8f3a63; stroke:none;" d="M337 336L337 339L337 336z"/>
<path style="fill:#bcae93; stroke:none;" d="M218 337L219 338L218 337z"/>
<path style="fill:#8d6631; stroke:none;" d="M236 337L239 338L236 337z"/>
<path style="fill:#d9d3c3; stroke:none;" d="M239.667 337.333L240.333 337.667L239.667 337.333z"/>
<path style="fill:#652b46; stroke:none;" d="M274 337C274.064 339.993 273.946 341.346 277 342L274 337z"/>
<path style="fill:#ccb9b4; stroke:none;" d="M217 338L218 339L217 338z"/>
<path style="fill:#9f916b; stroke:none;" d="M234.667 338.333L235.333 338.667L234.667 338.333z"/>
<path style="fill:#ccb9b4; stroke:none;" d="M236 338L239 339L236 338z"/>
<path style="fill:#979794; stroke:none;" d="M268 338L269 339L268 338z"/>
<path style="fill:#652b46; stroke:none;" d="M319.667 338.333L320.333 338.667L319.667 338.333z"/>
<path style="fill:#8d6631; stroke:none;" d="M230.667 339.333L231.333 339.667L230.667 339.333z"/>
<path style="fill:#bcae93; stroke:none;" d="M232 339L235 340L232 339z"/>
<path style="fill:#652b46; stroke:none;" d="M269 339L272 340L269 339z"/>
<path style="fill:#201319; stroke:none;" d="M319 339L320 340L319 339M337 339L338 340L337 339z"/>
<path style="fill:#bcae93; stroke:none;" d="M216.333 340.667L216.667 341.333L216.333 340.667z"/>
<path style="fill:#8d6631; stroke:none;" d="M226.667 340.333L227.333 340.667L226.667 340.333z"/>
<path style="fill:#9f916b; stroke:none;" d="M228 340L231 341L228 340z"/>
<path style="fill:#d9d3c3; stroke:none;" d="M231.667 340.333L232.333 340.667L231.667 340.333z"/>
<path style="fill:#201319; stroke:none;" d="M270 340L278 345C276.096 341.874 273.413 341.125 270 340z"/>
<path style="fill:#8f3a63; stroke:none;" d="M291 340L296 345L291 340z"/>
<path style="fill:#a16078; stroke:none;" d="M318 340L317 342L319 342L318 340z"/>
<path style="fill:#652b46; stroke:none;" d="M319 340L320 341L319 340z"/>
<path style="fill:#615559; stroke:none;" d="M336 340L335 348L338 340L336 340z"/>
<path style="fill:#9f916b; stroke:none;" d="M217 341L224 342L217 341z"/>
<path style="fill:#bcae93; stroke:none;" d="M224 341L227 342L224 341z"/>
<path style="fill:#d9d3c3; stroke:none;" d="M227 341L230 342L227 341z"/>
<path style="fill:#979794; stroke:none;" d="M270 341L271 342L270 341z"/>
<path style="fill:#d9d3c3; stroke:none;" d="M337.333 341.667L337.667 342.333L337.333 341.667M218 342L222 343L218 342z"/>
<path style="fill:#979794; stroke:none;" d="M272 342L273 343L272 342z"/>
<path style="fill:#bcae93; stroke:none;" d="M274.667 343.333L275.333 343.667L274.667 343.333z"/>
<path style="fill:#ccb9b4; stroke:none;" d="M336.333 343.667L336.667 344.333L336.333 343.667z"/>
<path style="fill:#8f3a63; stroke:none;" d="M278 344L278 346L280 346L278 344z"/>
<path style="fill:#652b46; stroke:none;" d="M284 344L288 346L284 344z"/>
<path style="fill:#8f3a63; stroke:none;" d="M313 344L313 346L315 346L315 344L313 344M334.333 344.667L334.667 345.333L334.333 344.667M304 346L304 348L311 346L304 346z"/>
<path style="fill:#652b46; stroke:none;" d="M309 348L313 345L309 348M302 346L300 347C301.482 347.791 302.796 347.87 302 346z"/>
<path style="fill:#8f3a63; stroke:none;" d="M321 346C323.269 347.508 324.326 347.542 327 347L321 346z"/>
<path style="fill:#652b46; stroke:none;" d="M333 346L333 348L335 348L335 346L333 346z"/>
<path style="fill:#ccb9b4; stroke:none;" d="M282 347L283 348L282 347z"/>
<path style="fill:#70521e; stroke:none;" d="M281 348L292 349L292 351L273 352L278 353L275 354L276 357L264 357L274 355L270 353C269.63 350.017 267.916 350.137 265 350L273 349C268.391 347.066 259.244 346.738 256 351L262 350L257 352L264 353L255 355L261 360C264.744 358.976 266.205 359.547 268 363L254 362C257.887 364.944 263.284 364 268 364L267 367L269 364L298 364L294 363L304 362C298.698 357.544 286.072 360.894 279 360C279 363.803 274.014 363 271 363L271 361L277 361L273 360L273 358L307 357C300.561 350.231 287.018 356.49 279 357C285.771 351.007 295.613 352.954 304 353C304.228 350.879 304.151 351.11 306 350C306.898 354.19 311.396 353.787 315 353C311.527 347.919 306.086 348.286 301 351C297.531 345.629 286.685 347.364 281 348z"/>
<path style="fill:#7f5224; stroke:none;" d="M189 348L192 355L208 353L203 354C207.351 356.029 212.352 356.627 215 361L210 361C213.211 363.237 219.332 363.057 222 360L218 360C220.057 358.158 220.626 357.574 223 359L234 357L233 354C241.168 355.946 250.11 357.402 258 354C246.686 341.982 225.814 353.646 212 353C217.213 350.878 224.346 350.051 230 350L217 349.836L189 348z"/>
<path style="fill:#5f3a1d; stroke:none;" d="M193 348C198.453 350.347 205.195 349.342 211 349C205.778 346.809 198.632 348 193 348M212 348C216.932 351.736 224.177 349.048 230 349L222 350C227.937 352.491 233.101 349.468 239.015 349.054L259 349C246.823 343.891 225.265 348 212 348z"/>
<path style="fill:#7f5224; stroke:none;" d="M265 349C267.174 350.325 269.584 350.161 270 353L274 354L264 356L276 357C275.784 354.55 275.564 354.314 278 354L273 353C278.907 350.158 285.574 351 292 351L292 349L265 349z"/>
<path style="fill:#5f3a1d; stroke:none;" d="M300 348L301 351C308.295 347.909 331.146 349.473 337 355L343 354L342 350L365 349C359.049 346.503 350.42 348 344 348L300 348z"/>
<path style="fill:#70521e; stroke:none;" d="M354 351C356.636 352.44 363.335 355.179 364 351L367 352C363.624 354.492 360.752 356.685 357 354C348.653 355.838 341.046 354.975 333 353L335 354L324 353C325.734 355.003 327.355 354.923 330 355L318 357L323 360L315 360C312.516 362.54 310.524 362.888 307 363L316 365L308 366L312 367L309 368C317.035 371.861 327.419 369.176 336 369L320 372C329.021 375.786 341.674 371.994 351 370.894L380 371C376.976 368.37 373.936 368.084 370 368C373.789 366.785 378.455 367.276 381 364L370 363L390 362L390 359C386.268 359.003 383.04 358.697 380 361C375.151 358.62 369.351 359.999 364 360L374 357L366 356L371 355L368 353C378.84 349.677 391.628 353.001 403 353C404.081 356.3 405.757 356.952 409 358L397 360C404.838 363.289 414.865 360.107 423 360.106C427.74 360.106 431.806 362.639 435 358C425.455 358.24 414.376 356.238 405 354L419 352L416 354C421.923 356.485 429.796 354.784 436 354C436 349.09 448.258 350 452 350L452 348L389 348C377.618 348 364.702 346.464 354 351z"/>
<path style="fill:#5f3a1d; stroke:none;" d="M401 349C403.682 350.671 405.891 350.322 409 350L401 349z"/>
<path style="fill:#8d6631; stroke:none;" d="M256 351L262 351L256 351z"/>
<path style="fill:#5f3a1d; stroke:none;" d="M303 352L306 350L303 352z"/>
<path style="fill:#8d6631; stroke:none;" d="M342 350L345 351L342 350z"/>
<path style="fill:#7f5224; stroke:none;" d="M342 351L343 354L338 354C340.927 357.22 352.832 355.219 357 354C359.932 359.09 369.757 352.236 364 351C364 354.087 346.359 350.197 342 351z"/>
<path style="fill:#8d6631; stroke:none;" d="M352 350L356 351L352 350z"/>
<path style="fill:#7f5224; stroke:none;" d="M368 352L371 354L366 355L374 356L364 359C369.705 361.388 374.469 357.339 380 361C381.277 359.085 381.277 359.915 380 358L390 359L390 362L370 367L380 370C368.541 373.387 351.998 371.752 340 372C348.357 375.507 361.94 373 371 373L442 373L427 372L429 371L419 370L427 368L414 368L416 371L408 372L413 367C409.895 365.699 407.192 366.058 404 367C409.956 362.488 429.682 362.258 437 364L430 367C433.276 368.572 444.903 367.339 443 372L452 373L452 353L446 354L452 350C447.817 351.005 436.832 348.4 436 354L416 355L419 353L414 352L415 354C411.562 354 410.381 354.475 411 352L405 353C413.234 359.246 434.24 358.106 444 357L438 360L441 359L429.424 360.758L392 362L396 361L393 359L399 359C401.841 357.165 404.668 357.868 408 358L403 353L368 352z"/>
<path style="fill:#8d6631; stroke:none;" d="M405 352L410 351C407.7 350.084 406.623 350.121 405 352M420 352L426 351C423.471 349.961 421.824 349.907 420 352M445 350L451 351L445 350M212 352C216.423 354.52 221.221 352.617 226 352C221.941 350.345 216.33 351.48 212 352z"/>
<path style="fill:#7f5224; stroke:none;" d="M314 351L311 356L316 356C304.393 360.379 288.408 358.992 276 359L277 361L271 361L271 363C274.19 362.989 278.492 363.674 279 360L304 361L294 362L298 363C289.253 365.585 278.139 364.001 269 364C277.855 369.305 293.955 365 304 365L300 366L304 367L294 369C294.026 366.483 293.604 366.478 291 366L293 368L272 368C273.238 369.65 274.667 369.333 272 370C281.807 375.558 297.94 372.756 308 369L306 367L316 366C313.15 364.053 310.41 364.03 307 364L314 363L314 361L310 361L314 360L312 359L318 359C321.382 356.398 325.796 356.181 330 356L324 355L324 351L314 351z"/>
<path style="fill:#8d6631; stroke:none;" d="M189 352C189.614 354.851 190.303 354.854 193 354L189 352z"/>
<path style="fill:#7f5224; stroke:none;" d="M285 353C290.478 357.15 301.17 354.395 308 356C307.018 354.387 306.89 354.507 308 353C301.227 351.921 291.672 351.55 285 353z"/>
<path style="fill:#8d6631; stroke:none;" d="M324 352L335 355L333 354L336 353L324 352z"/>
<path style="fill:#5f3a1d; stroke:none;" d="M410 353L415 354C412.99 352.526 412.478 352.535 410 353z"/>
<path style="fill:#8d6631; stroke:none;" d="M430 352L434 353L430 352M446 353L452 353L446 353z"/>
<path style="fill:#5f3a1d; stroke:none;" d="M189 355L194 361L193 358L209 357L209 355L203 355L208 354C202.535 351.711 194.978 354.999 189 355z"/>
<path style="fill:#8d6631; stroke:none;" d="M258 353L264 354L258 353M306 354L308 356L300 357C305.19 360.104 310.433 357.75 316 357L311 353L306 354z"/>
<path style="fill:#70521e; stroke:none;" d="M233 354C235.492 357.47 239.984 357.937 244 359C240.728 359.935 238.748 360.075 236 358L233 360C237.974 362.087 244.638 361 250 361C247.224 358.622 244.624 357.474 241 357L244 356L233 354z"/>
<path style="fill:#8d6631; stroke:none;" d="M279 357C282.285 356.895 284.177 356.818 286 354C282.952 354.277 280.88 354.526 279 357z"/>
<path style="fill:#5f3a1d; stroke:none;" d="M375 356L386 357C383.409 353.004 378.755 353.751 375 356z"/>
<path style="fill:#8d6631; stroke:none;" d="M241 356L250 360L233 361L235 358C237.908 360.037 240.498 359.988 244 360C238.417 355.561 229.126 355.893 223 359C220.973 356.699 219.617 357.74 218 360L222 360C218.587 362.589 214.171 362.466 210 362L215 361C212.753 353.317 198.793 358.224 193 358L194 361L190 356L189 364C194.504 363.954 200.835 363.907 205 360C206.374 361.705 207.062 361.703 206 363C212.194 365.599 221.314 364 228 364L268 365L254 363L268 363C266.95 359.544 265.295 357.819 262 360C254.62 355.479 249.38 356.041 241 356z"/>
<path style="fill:#5f3a1d; stroke:none;" d="M417 356L426 357L417 356z"/>
<path style="fill:#8d6631; stroke:none;" d="M399 359L393 358L396 360L392 361L400 362L397 361L409 359C405.88 357.599 401.491 356.26 399 359M435 359L441 358L438 359C440.796 359.976 442.31 359.4 444 357C440.694 357.213 437.3 356.367 435 359M273 360L286 359C282.353 357.47 275.758 356.844 273 360M312 358L314 359L310 360L315 362L323 361C319.921 357.793 316.228 358.156 312 358M372 359L378 359L372 359M380 358L387 359L380 358z"/>
<path style="fill:#7f5224; stroke:none;" d="M205 360C200.144 363.208 194.752 363.881 189 364L189 373L273 373L268 369C268 372.66 255.454 371 252 371L255 368L261 370L261 367C253.27 367.005 246.446 369.709 239 367L240 371C236.072 371 229.414 370.344 230 368L210 370L212 368L204 367L207 365C206.792 363.339 206.505 363.46 208 363L205 360z"/>
<path style="fill:#5f3a1d; stroke:none;" d="M346 361L350 363L346 361z"/>
<path style="fill:#8d6631; stroke:none;" d="M323 362C331.22 365.449 343.161 364 352 364C344.548 359.536 331.486 362 323 362M354 363L361 364C358.526 362.188 356.993 362.364 354 363z"/>
<path style="fill:#7f5224; stroke:none;" d="M370 362L377 364L370 362z"/>
<path style="fill:#8d6631; stroke:none;" d="M376 362C379.445 364.607 382.932 363.755 387 363L376 362M437 363L450 363C445.98 361.313 441.119 361.783 437 363z"/>
<path style="fill:#5f3a1d; stroke:none;" d="M245 363L248 364L245 363M386 367C388.679 369.31 390.417 370.592 394 371L393 368L398 368L388 366L396 366C392.398 362.629 388.5 362.469 386 367M422 363L425 365C419.148 366.268 408.285 362.096 404 367L413 366L411 369L427 367L419 369L429 370L427 371C431.912 373.061 439.719 372.59 445 372C443.165 366.472 434.991 368.176 430 368L432 367L429 366L437 365L422 363z"/>
<path style="fill:#8d6631; stroke:none;" d="M424 363L436 364L424 363z"/>
<path style="fill:#70521e; stroke:none;" d="M204 366L212 367L210 370C215.708 370.913 224.276 369.245 230 368C230.546 371.273 237.066 370 240 370L239 367L247 369C244.494 366.649 242.412 366.184 239 366L240 364C229.158 364 213.889 361.241 204 366z"/>
<path style="fill:#8d6631; stroke:none;" d="M211 365L219 366L211 365M225 365L230 366L225 365z"/>
<path style="fill:#5f3a1d; stroke:none;" d="M239 365C246.788 368.865 252.742 367.023 261 367L261 370L255 368L252 370C256.974 372.087 263.638 371 269 371L264 370L274 370L272 368L293 368L291 367C293.209 366.632 294 366.437 294 369L304 368L300 367L304 366C296.504 362.855 286.877 366.051 279 365.995C275.632 365.972 271.427 364.445 269 367L267 367C262.653 362.025 245.47 365 239 365z"/>
<path style="fill:#8d6631; stroke:none;" d="M330 365L334 366L330 365M338 365L342 366L338 365M364 365C364.578 367.698 365.261 367.789 368 368L364 365M420 365L425 366L420 365M429 365L433 366L429 365M193 367L196 368L193 367M306 367L308 369L298 372C302.298 373.803 313.779 374.686 317 371L307 371L312 368L306 367M413 368L408 372L416 372L413 368M264 369L268 370L264 369z"/>
<path style="fill:#7f5224; stroke:none;" d="M307 370C310.355 372.007 313.256 371.86 317 371C319.147 373.272 320.212 371.445 321 369L307 370M322 372L336 370C331.884 368.289 324.767 368.258 322 372z"/>
<path style="fill:#8d6631; stroke:none;" d="M236 370L240 371L236 370M270 370C273.391 374.454 280.917 373 286 373C281.366 369.571 275.465 371.121 270 370M321.667 370.333L322.333 370.667L321.667 370.333M227 372C233.687 374.806 243.767 373 251 373C244.361 370.214 234.153 371.752 227 372M218 372L226 373L218 372z"/>
</svg>
