<?xml version="1.0" standalone="yes"?>
<svg xmlns="http://www.w3.org/2000/svg" width="640" height="480">
<path style="fill:#ffffff; stroke:none;" d="M0 0L0 480L640 480L640 0L0 0z"/>
<path style="fill:#ccc5b3; stroke:none;" d="M467 285L470 286L467 285M462.667 286.333L463.333 286.667L462.667 286.333z"/>
<path style="fill:#bcb094; stroke:none;" d="M464.667 286.333L465.333 286.667L464.667 286.333z"/>
<path style="fill:#a09169; stroke:none;" d="M466 286L471 287L466 286z"/>
<path style="fill:#ccc5b3; stroke:none;" d="M479 286L482 287L479 286M457.667 287.333L458.333 287.667L457.667 287.333z"/>
<path style="fill:#bcb094; stroke:none;" d="M459.667 287.333L460.333 287.667L459.667 287.333z"/>
<path style="fill:#92703d; stroke:none;" d="M461 287L466 288L461 287z"/>
<path style="fill:#755221; stroke:none;" d="M315 315L315 318L326 324L320 341C318.085 339.723 318.915 339.723 317 341L316 345L374 340C373.342 334.792 371.432 327.491 376.279 323.603C383.144 318.095 400.417 318.068 409 316.83C429.153 313.924 451.328 310.753 470.91 305.146C474.838 304.021 481.825 301.763 484.562 298.721C491.578 290.926 480.738 288.004 475 288L480.945 290.025C490.296 295.408 472.531 306.811 472.84 293.115L474 289C461.023 283.537 439.385 291.785 426 294.486L377.09 302.959C356.786 307.524 335.891 313.337 315 315z"/>
<path style="fill:#bcb094; stroke:none;" d="M471 287L472 288L471 287z"/>
<path style="fill:#ccc5b3; stroke:none;" d="M473.667 287.333L474.333 287.667L473.667 287.333z"/>
<path style="fill:#bcb094; stroke:none;" d="M475.667 287.333L476.333 287.667L475.667 287.333z"/>
<path style="fill:#92703d; stroke:none;" d="M477 287L482 288L477 287z"/>
<path style="fill:#bcb094; stroke:none;" d="M482 287L483 288L482 287z"/>
<path style="fill:#ccc5b3; stroke:none;" d="M451 288L454 289L451 288z"/>
<path style="fill:#a09169; stroke:none;" d="M454 288L457 289L454 288z"/>
<path style="fill:#92703d; stroke:none;" d="M472 288L475 290L472 288z"/>
<path style="fill:#ccc5b3; stroke:none;" d="M445 289L448 290L445 289z"/>
<path style="fill:#bcb094; stroke:none;" d="M448.667 289.333L449.333 289.667L448.667 289.333z"/>
<path style="fill:#92703d; stroke:none;" d="M450 289L454 290L450 289z"/>
<path style="fill:#a09169; stroke:none;" d="M475 289L478 290L475 289z"/>
<path style="fill:#bcb094; stroke:none;" d="M478 289L482 290L478 289z"/>
<path style="fill:#ccc5b3; stroke:none;" d="M440.667 290.333L441.333 290.667L440.667 290.333z"/>
<path style="fill:#bcb094; stroke:none;" d="M442.667 290.333L443.333 290.667L442.667 290.333z"/>
<path style="fill:#a09169; stroke:none;" d="M444 290L447 291L444 290z"/>
<path style="fill:#bcb094; stroke:none;" d="M472 290L472 293L472 290z"/>
<path style="fill:#ffffff; stroke:none;" d="M473 290L474 299C486.716 298.885 484.978 290.008 473 290z"/>
<path style="fill:#ccc5b3; stroke:none;" d="M482 290L483 291L482 290M434.667 291.333L435.333 291.667L434.667 291.333z"/>
<path style="fill:#bcb094; stroke:none;" d="M436.667 291.333L437.333 291.667L436.667 291.333z"/>
<path style="fill:#a09169; stroke:none;" d="M438 291L441 292L438 291M486.333 291.667L486.667 292.333L486.333 291.667z"/>
<path style="fill:#ccc5b3; stroke:none;" d="M429.667 292.333L430.333 292.667L429.667 292.333z"/>
<path style="fill:#bcb094; stroke:none;" d="M431.667 292.333L432.333 292.667L431.667 292.333z"/>
<path style="fill:#a09169; stroke:none;" d="M433 292L436 293L433 292z"/>
<path style="fill:#ccc5b3; stroke:none;" d="M484 292L484 295L484 292M423 293L426 294L423 293z"/>
<path style="fill:#a09169; stroke:none;" d="M426 293L430 294L426 293z"/>
<path style="fill:#ccc5b3; stroke:none;" d="M417 294L420 295L417 294z"/>
<path style="fill:#bcb094; stroke:none;" d="M420.667 294.333L421.333 294.667L420.667 294.333z"/>
<path style="fill:#92703d; stroke:none;" d="M422 294L427 295L422 294z"/>
<path style="fill:#a09169; stroke:none;" d="M463 294L466 295L463 294z"/>
<path style="fill:#ccc5b3; stroke:none;" d="M412 295L415 296L412 295z"/>
<path style="fill:#a09169; stroke:none;" d="M415 295L418 296L415 295z"/>
<path style="fill:#ffffff; stroke:none;" d="M462 295L462 299L466 299L466 295L462 295z"/>
<path style="fill:#a09169; stroke:none;" d="M484.333 295.667L484.667 296.333L484.333 295.667z"/>
<path style="fill:#ccc5b3; stroke:none;" d="M406.667 296.333L407.333 296.667L406.667 296.333z"/>
<path style="fill:#bcb094; stroke:none;" d="M408.667 296.333L409.333 296.667L408.667 296.333z"/>
<path style="fill:#92703d; stroke:none;" d="M410 296L415 297L410 296z"/>
<path style="fill:#a09169; stroke:none;" d="M461 296L461 299L461 296z"/>
<path style="fill:#bcb094; stroke:none;" d="M466 296L466 299L466 296M473.333 296.667L473.667 297.333L473.333 296.667z"/>
<path style="fill:#ccc5b3; stroke:none;" d="M486.333 296.667L486.667 297.333L486.333 296.667M401 297L404 298L401 297z"/>
<path style="fill:#92703d; stroke:none;" d="M404 297L408 298L404 297z"/>
<path style="fill:#bcb094; stroke:none;" d="M483 297L484 298L483 297z"/>
<path style="fill:#ccc5b3; stroke:none;" d="M395 298L398 299L395 298z"/>
<path style="fill:#a09169; stroke:none;" d="M398.667 298.333L399.333 298.667L398.667 298.333z"/>
<path style="fill:#92703d; stroke:none;" d="M400 298L404 299L400 298M473.333 298.667L473.667 299.333L473.333 298.667z"/>
<path style="fill:#ccc5b3; stroke:none;" d="M481 298L482 299L481 298z"/>
<path style="fill:#a09169; stroke:none;" d="M485 298L486 299L485 298z"/>
<path style="fill:#ccc5b3; stroke:none;" d="M389.667 299.333L390.333 299.667L389.667 299.333z"/>
<path style="fill:#bcb094; stroke:none;" d="M391.667 299.333L392.333 299.667L391.667 299.333z"/>
<path style="fill:#92703d; stroke:none;" d="M393 299L398 300L393 299z"/>
<path style="fill:#a09169; stroke:none;" d="M462 299L463 300L462 299z"/>
<path style="fill:#ccc5b3; stroke:none;" d="M463 299L466 300L463 299M474 299L477 300L474 299z"/>
<path style="fill:#bcb094; stroke:none;" d="M477 299L480 300L477 299z"/>
<path style="fill:#a09169; stroke:none;" d="M484 299L485 300L484 299z"/>
<path style="fill:#ccc5b3; stroke:none;" d="M384.667 300.333L385.333 300.667L384.667 300.333z"/>
<path style="fill:#bcb094; stroke:none;" d="M386.667 300.333L387.333 300.667L386.667 300.333z"/>
<path style="fill:#92703d; stroke:none;" d="M388 300L392 301L388 300z"/>
<path style="fill:#a09169; stroke:none;" d="M474 300L477 301L474 300z"/>
<path style="fill:#ccc5b3; stroke:none;" d="M483 300L484 301L483 300M378 301L381 302L378 301z"/>
<path style="fill:#bcb094; stroke:none;" d="M381.667 301.333L382.333 301.667L381.667 301.333z"/>
<path style="fill:#92703d; stroke:none;" d="M383 301L387 302L383 301z"/>
<path style="fill:#bcb094; stroke:none;" d="M480.667 301.333L481.333 301.667L480.667 301.333z"/>
<path style="fill:#ccc5b3; stroke:none;" d="M374.667 302.333L375.333 302.667L374.667 302.333z"/>
<path style="fill:#92703d; stroke:none;" d="M376 302L380 303L376 302z"/>
<path style="fill:#bcb094; stroke:none;" d="M475 302L478 303L475 302z"/>
<path style="fill:#ccc5b3; stroke:none;" d="M474.333 303.667L474.667 304.333L474.333 303.667z"/>
<path style="fill:#a09169; stroke:none;" d="M373 304L374 305L373 304z"/>
<path style="fill:#bcb094; stroke:none;" d="M367 305L370 306L367 305z"/>
<path style="fill:#92703d; stroke:none;" d="M469 305L473 306L469 305z"/>
<path style="fill:#ccc5b3; stroke:none;" d="M473 305L474 306L473 305z"/>
<path style="fill:#bcb094; stroke:none;" d="M295 306L296 307L295 306z"/>
<path style="fill:#797c73; stroke:none;" d="M296.667 306.333L297.333 306.667L296.667 306.333z"/>
<path style="fill:#ccc5b3; stroke:none;" d="M298 306L300 308L298 306z"/>
<path style="fill:#bcb094; stroke:none;" d="M362 306L365 307L362 306z"/>
<path style="fill:#a09169; stroke:none;" d="M464 306L469 307L464 306z"/>
<path style="fill:#bcb094; stroke:none;" d="M469 306L472 307L469 306M281 307L285 308L281 307M293 307L293 310L293 307z"/>
<path style="fill:#1f1916; stroke:none;" d="M294 307L294 311L299 308L294 307z"/>
<path style="fill:#bcb094; stroke:none;" d="M356 307L359 308L356 307z"/>
<path style="fill:#a09169; stroke:none;" d="M453 308L463 308L453 308z"/>
<path style="fill:#bcb094; stroke:none;" d="M463.667 307.333L464.333 307.667L463.667 307.333z"/>
<path style="fill:#ccc5b3; stroke:none;" d="M465.667 307.333L466.333 307.667L465.667 307.333z"/>
<path style="fill:#a38a89; stroke:none;" d="M277 308L278 309L277 308z"/>
<path style="fill:#1f1916; stroke:none;" d="M278 308L281 309L278 308z"/>
<path style="fill:#4d242d; stroke:none;" d="M281 308L285 309L281 308z"/>
<path style="fill:#1f1916; stroke:none;" d="M285 308L288 309L285 308z"/>
<path style="fill:#797c73; stroke:none;" d="M288 308L289 309L288 308z"/>
<path style="fill:#e4559d; stroke:none;" d="M296 308C295.875 315.564 287.557 316.512 285.093 323.039C281.167 333.442 289.458 338.484 292 347L303 348L318 343L324 324C316.031 317.216 305.594 312.248 296 308z"/>
<path style="fill:#565453; stroke:none;" d="M298 308L303 311L298 308z"/>
<path style="fill:#bcb094; stroke:none;" d="M351 308L354 309L351 308z"/>
<path style="fill:#a09169; stroke:none;" d="M384.667 308.333L385.333 308.667L384.667 308.333z"/>
<path style="fill:#ccc5b3; stroke:none;" d="M458 308L461 309L458 308z"/>
<path style="fill:#797c73; stroke:none;" d="M275 309L276 310L275 309z"/>
<path style="fill:#4d242d; stroke:none;" d="M274 312L278 310C275.777 309.631 275.266 310.14 274 312z"/>
<path style="fill:#e4559d; stroke:none;" d="M269 319L287 315C282.406 319.391 274.042 317.524 272 324C280.26 320.514 288.715 320.125 293 311C283.586 308.016 272.761 308.028 269 319z"/>
<path style="fill:#783755; stroke:none;" d="M288 309L289 310L288 309z"/>
<path style="fill:#4d242d; stroke:none;" d="M289.667 309.333L290.333 309.667L289.667 309.333z"/>
<path style="fill:#a09169; stroke:none;" d="M291 309L292 310L291 309z"/>
<path style="fill:#a03d6d; stroke:none;" d="M295 309L295 311L297 311L295 309z"/>
<path style="fill:#ccc5b3; stroke:none;" d="M301 309L302 310L301 309z"/>
<path style="fill:#bcb094; stroke:none;" d="M345 309L348 310L345 309M383 309L382 313L383 309z"/>
<path style="fill:#ffffff; stroke:none;" d="M383 313L387 313L387 309C384.374 309.839 383.839 310.374 383 313z"/>
<path style="fill:#a09169; stroke:none;" d="M444 310L452 310L444 310z"/>
<path style="fill:#bcb094; stroke:none;" d="M452.667 309.333L453.333 309.667L452.667 309.333z"/>
<path style="fill:#ccc5b3; stroke:none;" d="M454.667 309.333L455.333 309.667L454.667 309.333M273 310L274 311L273 310z"/>
<path style="fill:#a03d6d; stroke:none;" d="M283 312L286 311C284.222 310.045 283.979 310.234 283 312z"/>
<path style="fill:#1f1916; stroke:none;" d="M291.667 310.333L292.333 310.667L291.667 310.333z"/>
<path style="fill:#797c73; stroke:none;" d="M293.333 310.667L293.667 311.333L293.333 310.667z"/>
<path style="fill:#bcb094; stroke:none;" d="M339 310L342 311L339 310M387 310L387 313L387 310z"/>
<path style="fill:#ccc5b3; stroke:none;" d="M447.667 310.333L448.333 310.667L447.667 310.333z"/>
<path style="fill:#797c73; stroke:none;" d="M272 311L273 312L272 311z"/>
<path style="fill:#1f1916; stroke:none;" d="M273 311L274 312L273 311z"/>
<path style="fill:#783755; stroke:none;" d="M277 313L283 312L277 313z"/>
<path style="fill:#4d242d; stroke:none;" d="M293 314L297 312C294.692 311.442 294.244 312.004 293 314z"/>
<path style="fill:#a03d6d; stroke:none;" d="M301 311L311 316C308.644 312.787 304.837 311.682 301 311z"/>
<path style="fill:#bcb094; stroke:none;" d="M334.667 311.333L335.333 311.667L334.667 311.333z"/>
<path style="fill:#92703d; stroke:none;" d="M336.667 311.333L337.333 311.667L336.667 311.333z"/>
<path style="fill:#a09169; stroke:none;" d="M436 311L441 312L436 311z"/>
<path style="fill:#bcb094; stroke:none;" d="M441 311L444 312L441 311z"/>
<path style="fill:#565453; stroke:none;" d="M271 312L272 313L271 312z"/>
<path style="fill:#1f1916; stroke:none;" d="M272 312L273 313L272 312z"/>
<path style="fill:#bcb094; stroke:none;" d="M306 312L307 313L306 312M328 312L331 313L328 312z"/>
<path style="fill:#a09169; stroke:none;" d="M428 313L435 313L428 313z"/>
<path style="fill:#bcb094; stroke:none;" d="M435 312L438 313L435 312z"/>
<path style="fill:#797c73; stroke:none;" d="M270 313L271 314L270 313z"/>
<path style="fill:#1f1916; stroke:none;" d="M271 313L272 314L271 313z"/>
<path style="fill:#783755; stroke:none;" d="M292 313L289 318L294 314L292 313M294.667 313.333L295.333 313.667L294.667 313.333z"/>
<path style="fill:#bcb094; stroke:none;" d="M308 313L309 314L308 313M322 313L325 314L322 313z"/>
<path style="fill:#a09169; stroke:none;" d="M383 313L384 314L383 313z"/>
<path style="fill:#ccc5b3; stroke:none;" d="M384 313L387 314L384 313z"/>
<path style="fill:#92703d; stroke:none;" d="M425 313L428 314L425 313z"/>
<path style="fill:#bcb094; stroke:none;" d="M430.667 313.333L431.333 313.667L430.667 313.333z"/>
<path style="fill:#ccc5b3; stroke:none;" d="M269 314L270 315L269 314z"/>
<path style="fill:#1f1916; stroke:none;" d="M270 314L271 315L270 314z"/>
<path style="fill:#4d242d; stroke:none;" d="M276 314L277 315L276 314z"/>
<path style="fill:#bcb094; stroke:none;" d="M317 314L320 315L317 314z"/>
<path style="fill:#a09169; stroke:none;" d="M411 316L424 315C419.899 313.399 415.212 315.183 411 316z"/>
<path style="fill:#bcb094; stroke:none;" d="M424 314L427 315L424 314z"/>
<path style="fill:#1f1916; stroke:none;" d="M269.333 315.667L269.667 316.333L269.333 315.667z"/>
<path style="fill:#4d242d; stroke:none;" d="M275 315L276 316L275 315M284 315L287 316L284 315z"/>
<path style="fill:#5b3b1f; stroke:none;" d="M311.667 315.333L312.333 315.667L311.667 315.333z"/>
<path style="fill:#a09169; stroke:none;" d="M313.667 315.333L314.333 315.667L313.667 315.333z"/>
<path style="fill:#ccc5b3; stroke:none;" d="M419.667 315.333L420.333 315.667L419.667 315.333z"/>
<path style="fill:#4d242d; stroke:none;" d="M274 316L275 317L274 316z"/>
<path style="fill:#783755; stroke:none;" d="M282.667 316.333L283.333 316.667L282.667 316.333z"/>
<path style="fill:#e49bba; stroke:none;" d="M282 317C284.046 317.751 284.596 317.656 286 316L282 317z"/>
<path style="fill:#1f1916; stroke:none;" d="M313 316L316 317L313 316z"/>
<path style="fill:#ccc5b3; stroke:none;" d="M414 316L417 317L414 316z"/>
<path style="fill:#5b3b1f; stroke:none;" d="M268 317L269 318L268 317z"/>
<path style="fill:#4d242d; stroke:none;" d="M273 317L274 318L273 317z"/>
<path style="fill:#e49bba; stroke:none;" d="M278 317L278 319L280 317L278 317z"/>
<path style="fill:#ccc5b3; stroke:none;" d="M280.667 317.333L281.333 317.667L280.667 317.333z"/>
<path style="fill:#1f1916; stroke:none;" d="M288 317L289 318L288 317z"/>
<path style="fill:#783755; stroke:none;" d="M302.667 317.333L303.333 317.667L302.667 317.333z"/>
<path style="fill:#a03d6d; stroke:none;" d="M304 317C304.482 319.364 304.636 319.518 307 320L304 317z"/>
<path style="fill:#92703d; stroke:none;" d="M403 317L406 318L403 317z"/>
<path style="fill:#a09169; stroke:none;" d="M406.667 317.333L407.333 317.667L406.667 317.333z"/>
<path style="fill:#ccc5b3; stroke:none;" d="M408.667 317.333L409.333 317.667L408.667 317.333z"/>
<path style="fill:#1f1916; stroke:none;" d="M268 318L269 319L268 318z"/>
<path style="fill:#a38a89; stroke:none;" d="M272 318L272 320L274 318L272 318z"/>
<path style="fill:#ccc5b3; stroke:none;" d="M274 318L278 319L274 318z"/>
<path style="fill:#a38a89; stroke:none;" d="M279.667 318.333L280.333 318.667L279.667 318.333z"/>
<path style="fill:#5b3b1f; stroke:none;" d="M279 335C282.213 329.098 283.684 323.65 289 319C281.728 317.084 279.218 330.008 279 335z"/>
<path style="fill:#92703d; stroke:none;" d="M397 318L400 319L397 318z"/>
<path style="fill:#a09169; stroke:none;" d="M400.667 318.333L401.333 318.667L400.667 318.333z"/>
<path style="fill:#bcb094; stroke:none;" d="M402 318L405 319L402 318z"/>
<path style="fill:#a38a89; stroke:none;" d="M268.333 319.667L268.667 320.333L268.333 319.667z"/>
<path style="fill:#ccc5b3; stroke:none;" d="M269 319L272 320L269 319z"/>
<path style="fill:#e49bba; stroke:none;" d="M273.667 319.333L274.333 319.667L273.667 319.333z"/>
<path style="fill:#1f1916; stroke:none;" d="M278 319L279 320L278 319z"/>
<path style="fill:#a09169; stroke:none;" d="M394 319L397 320L394 319z"/>
<path style="fill:#ccc5b3; stroke:none;" d="M397 319L400 320L397 319z"/>
<path style="fill:#e4559d; stroke:none;" d="M269 320L269 324L271 320L269 320z"/>
<path style="fill:#a03d6d; stroke:none;" d="M271.667 320.333L272.333 320.667L271.667 320.333z"/>
<path style="fill:#1f1916; stroke:none;" d="M277 320L278 321L277 320z"/>
<path style="fill:#a09169; stroke:none;" d="M383 321L391 321L383 321z"/>
<path style="fill:#ccc5b3; stroke:none;" d="M391 320L394 321L391 320z"/>
<path style="fill:#783755; stroke:none;" d="M268 321L268 324L268 321M271.333 321.667L271.667 322.333L271.333 321.667z"/>
<path style="fill:#4d242d; stroke:none;" d="M276 321L277 322L276 321z"/>
<path style="fill:#e49bba; stroke:none;" d="M277 321L284 322L277 321z"/>
<path style="fill:#ccc5b3; stroke:none;" d="M386.667 321.333L387.333 321.667L386.667 321.333z"/>
<path style="fill:#755221; stroke:none;" d="M233 337C244.036 348.996 273.029 346.691 288 347C279.193 339.76 278.683 333.354 282 323C265.762 322.484 248.321 332.082 233 337z"/>
<path style="fill:#ccc5b3; stroke:none;" d="M276 322L279 323L276 322z"/>
<path style="fill:#a09169; stroke:none;" d="M279 322L282 323L279 322z"/>
<path style="fill:#a03d6d; stroke:none;" d="M322.333 322.667L322.667 323.333L322.333 322.667z"/>
<path style="fill:#a09169; stroke:none;" d="M376 322L381 323L376 322z"/>
<path style="fill:#ccc5b3; stroke:none;" d="M381.667 322.333L382.333 322.667L381.667 322.333z"/>
<path style="fill:#a03d6d; stroke:none;" d="M270.667 323.333L271.333 323.667L270.667 323.333z"/>
<path style="fill:#bcb094; stroke:none;" d="M375 323L376 324L375 323z"/>
<path style="fill:#a38a89; stroke:none;" d="M268 326L272 325C269.954 324.249 269.404 324.344 268 326z"/>
<path style="fill:#a03d6d; stroke:none;" d="M283 324L283 329L285 329L283 324z"/>
<path style="fill:#1f1916; stroke:none;" d="M325 324L324 328L325 324z"/>
<path style="fill:#bcb094; stroke:none;" d="M374.333 324.667L374.667 325.333L374.333 324.667M266.667 325.333L267.333 325.667L266.667 325.333z"/>
<path style="fill:#783755; stroke:none;" d="M323 325L323 329L323 325z"/>
<path style="fill:#bcb094; stroke:none;" d="M262 326L265 327L262 326z"/>
<path style="fill:#e4559d; stroke:none;" d="M282 326C279.983 334.475 281.155 344.202 291 346C285.439 339.043 285.224 333.665 282 326z"/>
<path style="fill:#a03d6d; stroke:none;" d="M288 326L288 335L290 326L288 326z"/>
<path style="fill:#ccc5b3; stroke:none;" d="M374 326L374 334C375.161 331.23 375.161 328.77 374 326M257 327L260 328L257 327z"/>
<path style="fill:#a09169; stroke:none;" d="M260.667 327.333L261.333 327.667L260.667 327.333z"/>
<path style="fill:#92703d; stroke:none;" d="M373 327L373 337C374.346 333.793 374.346 330.207 373 327z"/>
<path style="fill:#a09169; stroke:none;" d="M256.667 328.333L257.333 328.667L256.667 328.333z"/>
<path style="fill:#bcb094; stroke:none;" d="M252.667 329.333L253.333 329.667L252.667 329.333z"/>
<path style="fill:#783755; stroke:none;" d="M283 329L283 333L283 329z"/>
<path style="fill:#92703d; stroke:none;" d="M324.333 329.667L324.667 330.333L324.333 329.667z"/>
<path style="fill:#bcb094; stroke:none;" d="M250.667 330.333L251.333 330.667L250.667 330.333z"/>
<path style="fill:#a03d6d; stroke:none;" d="M294 330L294 334L296 330L294 330z"/>
<path style="fill:#bcb094; stroke:none;" d="M246.667 331.333L247.333 331.667L246.667 331.333z"/>
<path style="fill:#a03d6d; stroke:none;" d="M280 331L280 335L280 331z"/>
<path style="fill:#a09169; stroke:none;" d="M244.667 332.333L245.333 332.667L244.667 332.333z"/>
<path style="fill:#783755; stroke:none;" d="M295 332L295 336L295 332z"/>
<path style="fill:#a09169; stroke:none;" d="M241.667 333.333L242.333 333.667L241.667 333.333z"/>
<path style="fill:#a03d6d; stroke:none;" d="M283 333C284.442 339.062 287.326 342.971 292 347C291.262 342.655 286.61 335.696 283 333z"/>
<path style="fill:#a09169; stroke:none;" d="M239.667 334.333L240.333 334.667L239.667 334.333z"/>
<path style="fill:#4d242d; stroke:none;" d="M289.333 334.667L289.667 335.333L289.333 334.667z"/>
<path style="fill:#bcb094; stroke:none;" d="M374 334L374 340C374.951 337.715 374.951 336.285 374 334M235.667 335.333L236.333 335.667L235.667 335.333z"/>
<path style="fill:#4d242d; stroke:none;" d="M280.333 335.667L280.667 336.333L280.333 335.667z"/>
<path style="fill:#783755; stroke:none;" d="M290 335L291 340L290 335z"/>
<path style="fill:#a09169; stroke:none;" d="M234.667 336.333L235.333 336.667L234.667 336.333z"/>
<path style="fill:#a03d6d; stroke:none;" d="M281.333 336.667L281.667 337.333L281.333 336.667M295 336L295 338L297 336L295 336z"/>
<path style="fill:#1f1916; stroke:none;" d="M321.333 336.667L321.667 337.333L321.333 336.667M280.333 337.667L280.667 338.333L280.333 337.667z"/>
<path style="fill:#783755; stroke:none;" d="M296 337L297 341C297.553 338.992 297.303 338.668 296 337z"/>
<path style="fill:#bcb094; stroke:none;" d="M233 338L234 339L233 338z"/>
<path style="fill:#5b3b1f; stroke:none;" d="M281 338C281.421 340.843 281.939 342.012 284 344L281 338z"/>
<path style="fill:#4d242d; stroke:none;" d="M319 338L319 341L321 338L319 338z"/>
<path style="fill:#ccc5b3; stroke:none;" d="M234 339L235 340L234 339z"/>
<path style="fill:#a09169; stroke:none;" d="M236.667 340.333L237.333 340.667L236.667 340.333z"/>
<path style="fill:#a03d6d; stroke:none;" d="M291 340L296 345L291 340z"/>
<path style="fill:#92703d; stroke:none;" d="M365 340L370 341L365 340z"/>
<path style="fill:#bcb094; stroke:none;" d="M370 340L373 341L370 340z"/>
<path style="fill:#ccc5b3; stroke:none;" d="M238 341L239 342L238 341z"/>
<path style="fill:#92703d; stroke:none;" d="M239.667 341.333L240.333 341.667L239.667 341.333z"/>
<path style="fill:#783755; stroke:none;" d="M298.333 341.667L298.667 342.333L298.333 341.667z"/>
<path style="fill:#a09169; stroke:none;" d="M359 341L364 342L359 341z"/>
<path style="fill:#bcb094; stroke:none;" d="M364 341L367 342L364 341M240.667 342.333L241.333 342.667L240.667 342.333z"/>
<path style="fill:#92703d; stroke:none;" d="M348 342L354 343L348 342z"/>
<path style="fill:#bcb094; stroke:none;" d="M354 342L357 343L354 342z"/>
<path style="fill:#ccc5b3; stroke:none;" d="M357 342L363 343L357 342M242 343L245 344L242 343z"/>
<path style="fill:#92703d; stroke:none;" d="M245 343L248 344L245 343z"/>
<path style="fill:#a09169; stroke:none;" d="M342.667 343.333L343.333 343.667L342.667 343.333z"/>
<path style="fill:#bcb094; stroke:none;" d="M344 343L349 344L344 343z"/>
<path style="fill:#ccc5b3; stroke:none;" d="M349 343L352 344L349 343M246 344L249 345L246 344z"/>
<path style="fill:#92703d; stroke:none;" d="M249 344L254 345L249 344z"/>
<path style="fill:#4d242d; stroke:none;" d="M284 344L288 346L284 344M309 348L315 345C312.099 344.517 310.592 345.59 309 348z"/>
<path style="fill:#92703d; stroke:none;" d="M314 345L320 346L314 345z"/>
<path style="fill:#a09169; stroke:none;" d="M331 344L338 345L331 344z"/>
<path style="fill:#ccc5b3; stroke:none;" d="M338 344L345 345L338 344z"/>
<path style="fill:#bcb094; stroke:none;" d="M252 345L255 346L252 345z"/>
<path style="fill:#92703d; stroke:none;" d="M255 345L260 346L255 345z"/>
<path style="fill:#783755; stroke:none;" d="M309.667 345.333L310.333 345.667L309.667 345.333z"/>
<path style="fill:#a09169; stroke:none;" d="M320 345L326 346L320 345z"/>
<path style="fill:#a03d6d; stroke:none;" d="M321 346C323.929 347.883 325.841 347.27 329 346L321 346z"/>
<path style="fill:#e4559d; stroke:none;" d="M326 347L333 348C330.892 345.331 329.006 345.809 326 347z"/>
<path style="fill:#ccc5b3; stroke:none;" d="M330 345L333 346L330 345z"/>
<path style="fill:#565453; stroke:none;" d="M334 345L335 348L336 345L334 345z"/>
<path style="fill:#ccc5b3; stroke:none;" d="M258 346L262 347L258 346z"/>
<path style="fill:#bcb094; stroke:none;" d="M262 346L266 347L262 346z"/>
<path style="fill:#92703d; stroke:none;" d="M266 346L272 347L266 346M274 346L282 347L274 346z"/>
<path style="fill:#783755; stroke:none;" d="M288 346L291 347L288 346M302 346L300 347C301.482 347.791 302.796 347.87 302 346M304 346L304 348L309 348L309 346L304 346z"/>
<path style="fill:#797c73; stroke:none;" d="M312 346L313 347L312 346z"/>
<path style="fill:#e4559d; stroke:none;" d="M313 346L313 348L323 348L313 346z"/>
<path style="fill:#ccc5b3; stroke:none;" d="M318 346L321 347L318 346z"/>
<path style="fill:#4d242d; stroke:none;" d="M333 346L333 348L335 348L335 346L333 346z"/>
<path style="fill:#ccc5b3; stroke:none;" d="M269 347L280 348L269 347z"/>
<path style="fill:#bcb094; stroke:none;" d="M280 347L286 348L280 347z"/>
<path style="fill:#a38a89; stroke:none;" d="M286 347L291 348L286 347z"/>
<path style="fill:#755221; stroke:none;" d="M256 349L262 350C255.202 352.923 241.973 349 234 349L236 353L229 354L233 352C226.851 349.444 218.672 353.312 212 353C217.213 350.878 224.346 350.051 230 350L217 349.836L189 348L192 355L208 353L203 354C207.351 356.029 212.352 356.627 215 361L210 361C213.211 363.237 219.332 363.057 222 360L218 360C220.057 358.158 220.626 357.574 223 359C230.454 356.289 236.413 356.993 244 359C240.728 359.935 238.748 360.075 236 358L233 360C237.974 362.087 244.638 361 250 361C247.224 358.622 244.624 357.474 241 357C248.209 355.012 254.755 356.086 261 360C264.744 358.976 266.205 359.547 268 363L254 362C257.887 364.944 263.284 364 268 364L267 367C277.607 363.495 292.769 365 304 365L300 366L304 367L294 369C294.026 366.483 293.604 366.478 291 366L293 368L272 368C273.238 369.65 274.667 369.333 272 370C281.807 375.558 297.94 372.756 308 369L306 368L312 367L307 370C310.355 372.007 313.256 371.86 317 371C321.686 376.362 341.968 373 349 373L442 373L427 372L429 371L419 370L427 368L414 368L416 371L408 372L413 367C409.895 365.699 407.192 366.058 404 367C409.956 362.488 429.682 362.258 437 364L430 367C433.276 368.572 444.903 367.339 443 372L452 373L452 353L446 354L452 352L452 348L339 351L339 353L343 353C339.295 354.395 336.788 353.69 333 353L335 354C330.956 354.722 325.944 353.912 324 350L313 351L315 350C310.507 348.115 305.217 348.75 301 351C298.17 346.618 292.684 347.444 288 347.834L256 349z"/>
<path style="fill:#a38a89; stroke:none;" d="M310 347L313 348L310 347z"/>
<path style="fill:#5b3b1f; stroke:none;" d="M193 348C198.453 350.347 205.195 349.342 211 349C205.778 346.809 198.632 348 193 348M212 348C216.932 351.736 224.177 349.048 230 349L222 350C227.616 352.357 232.456 349.784 238.039 349.129L257 351C257 348.915 256.862 349.276 259 349C246.823 343.891 225.265 348 212 348M300 348L301 351C305.693 349.012 309.971 349 315 349L313 350C316.607 351.513 320.259 350.891 324 350L337 355L343 354L339 353C344.632 348.102 357.691 349.061 365 349C359.049 346.503 350.42 348 344 348L300 348M401 349C403.682 350.671 405.891 350.322 409 350L401 349z"/>
<path style="fill:#92703d; stroke:none;" d="M256 351L262 351L256 351M342 350L345 351L342 350M420 352L426 351C423.471 349.961 421.824 349.907 420 352M445 350L451 351L445 350M212 352C216.423 354.52 221.221 352.617 226 352C221.941 350.345 216.33 351.48 212 352M229 353C232.037 354.177 234.122 353.661 236 351L229 353M189 352C189.614 354.851 190.303 354.854 193 354L189 352M279 357L295 354C289.815 351.764 282.565 352.233 279 357M324 352L335 355L333 354L336 353L324 352z"/>
<path style="fill:#5b3b1f; stroke:none;" d="M410 353L415 354C412.99 352.526 412.478 352.535 410 353z"/>
<path style="fill:#92703d; stroke:none;" d="M430 352L434 353L430 352M446 353L452 353L446 353z"/>
<path style="fill:#5b3b1f; stroke:none;" d="M189 355L194 361L193 358L209 357L209 355L203 355L208 354C202.535 351.711 194.978 354.999 189 355z"/>
<path style="fill:#92703d; stroke:none;" d="M258 353L264 354L258 353M306 354L308 356L300 357C304.318 359.583 309.18 358.312 314 359L310 360L315 362L323 361C319.921 357.793 316.228 358.156 312 358L316 357L311 353L306 354z"/>
<path style="fill:#5b3b1f; stroke:none;" d="M375 356L386 357C383.409 353.004 378.755 353.751 375 356z"/>
<path style="fill:#92703d; stroke:none;" d="M241 356L250 360L233 361L235 358C237.908 360.037 240.498 359.988 244 360C238.417 355.561 229.126 355.893 223 359C220.973 356.699 219.617 357.74 218 360L222 360C218.587 362.589 214.171 362.466 210 362L215 361C212.753 353.317 198.793 358.224 193 358L194 361L190 356L189 364C194.504 363.954 200.835 363.907 205 360C206.374 361.705 207.062 361.703 206 363C212.194 365.599 221.314 364 228 364L268 365L254 363L268 363C266.95 359.544 265.295 357.819 262 360C254.62 355.479 249.38 356.041 241 356z"/>
<path style="fill:#5b3b1f; stroke:none;" d="M417 356L426 357L417 356z"/>
<path style="fill:#92703d; stroke:none;" d="M399 359L393 358L396 360L392 361L400 362L397 361L409 359C405.88 357.599 401.491 356.26 399 359M435 359L441 358L438 359C440.796 359.976 442.31 359.4 444 357C440.694 357.213 437.3 356.367 435 359M273 360L286 359C282.353 357.47 275.758 356.844 273 360M372 359L378 359L372 359M380 358L387 359L380 358z"/>
<path style="fill:#755221; stroke:none;" d="M205 360C200.144 363.208 194.752 363.881 189 364L189 373L273 373L268 369C268 372.66 255.454 371 252 371L255 368L261 370L261 367L239 366L240 364L206 364L208 362L205 360z"/>
<path style="fill:#5b3b1f; stroke:none;" d="M346 361L350 363L346 361z"/>
<path style="fill:#92703d; stroke:none;" d="M335 362C339.957 364.97 346.397 364 352 364C347.043 361.03 340.603 362 335 362M354 363L361 364C358.526 362.188 356.993 362.364 354 363M376 362C379.445 364.607 382.932 363.755 387 363L376 362M437 363L450 363C445.98 361.313 441.119 361.783 437 363z"/>
<path style="fill:#5b3b1f; stroke:none;" d="M245 363L248 364L245 363M386 367C388.679 369.31 390.417 370.592 394 371L393 368L398 368L388 366L396 366C392.398 362.629 388.5 362.469 386 367M422 363L425 365C419.148 366.268 408.285 362.096 404 367L413 366L411 369L427 367L419 369L429 370L427 371C431.912 373.061 439.719 372.59 445 372C443.165 366.472 434.991 368.176 430 368L432 367L429 366L437 365L422 363z"/>
<path style="fill:#92703d; stroke:none;" d="M424 363L436 364L424 363M211 365L219 366L211 365M225 365L230 366L225 365z"/>
<path style="fill:#5b3b1f; stroke:none;" d="M239 365C246.788 368.865 252.742 367.023 261 367L261 370L255 368L252 370C256.974 372.087 263.638 371 269 371L264 370L274 370L272 368L293 368L291 367C293.209 366.632 294 366.437 294 369L304 368L300 367L304 366C296.504 362.855 286.877 366.051 279 365.995C275.632 365.972 271.427 364.445 269 367L267 367C262.653 362.025 245.47 365 239 365z"/>
<path style="fill:#92703d; stroke:none;" d="M330 365L334 366L330 365M338 365L342 366L338 365M420 365L425 366L420 365M429 365L433 366L429 365M193 367L196 368L193 367M306 367L308 369L298 372C302.298 373.803 313.779 374.686 317 371L307 371L312 368L306 367M413 368L408 372L416 372L413 368M264 369L268 370L264 369M236 370L240 371L236 370M270 370C273.391 374.454 280.917 373 286 373C281.366 369.571 275.465 371.121 270 370M321.667 370.333L322.333 370.667L321.667 370.333M227 372C233.687 374.806 243.767 373 251 373C244.361 370.214 234.153 371.752 227 372M218 372L226 373L218 372z"/>
</svg>
