<?xml version="1.0" standalone="yes"?>
<svg xmlns="http://www.w3.org/2000/svg" width="640" height="480">
<path style="fill:#ffffff; stroke:none;" d="M0 0L0 480L640 480L640 379L188 379L188 374L640 374L640 356L611 355.891C608.158 355.573 603.38 353.865 603.921 350.133C604.429 346.637 609.483 347.018 612 347.001L640 347L640 35C608.678 43.9542 577.907 61.6028 548 74.5756C508.627 91.6546 465.278 105.785 428 127L418 103C437.157 97.7603 455.772 87.1456 474 79.2809L589 29.4213L626 13.2809C633.39 10.0926 639.893 9.05539 640 0L0 0z"/>
<path style="fill:#a49e98; stroke:none;" d="M639 7L640 8L639 7z"/>
<path style="fill:#888987; stroke:none;" d="M637 8L638 9L637 8z"/>
<path style="fill:#5f3627; stroke:none;" d="M625 16C629.974 14.4854 637.002 12.394 640 8C634.73 9.25177 627.813 11.1307 625 16z"/>
<path style="fill:#d4ccc7; stroke:none;" d="M634 9L635 10L634 9z"/>
<path style="fill:#a49e98; stroke:none;" d="M632 10L633 11L632 10z"/>
<path style="fill:#724c25; stroke:none;" d="M625 16L625 14L619 16L621 18L618 19L616 23C615.363 19.1572 608.782 20.9371 606 22.0093L578 34C577.583 37.3539 574.109 38.4909 571 39L571 41L579 41L565 46L567 41L533 57C528.533 52.113 509.743 64.045 504 66L505 70C501.798 70.584 499.816 71.2578 498 74L502 73L502 77L494 80C494.338 78.3278 494.537 78.6898 493 78L495 72C486.948 69.7921 470.735 80.8267 463 84L464 87L456 90C455.504 87.0701 452.539 88.7231 450.648 90.2037C442.229 96.7943 428.32 95.1843 420.481 102.926C414.128 109.201 426.183 112.141 431 109.079C435.474 106.234 439.694 103.799 445 103C445.831 96.9731 453.662 99.8137 458 100L456 102L458 103L452 106L453 109L429 114L433 116L431 118C433.534 120.218 428.576 119.249 427 119L427 124C442.187 122.958 450.621 111.991 464 106C464.817 110.875 477.995 104.864 481 103.588L535 80C534.764 77.6141 535.131 76.1174 533 75C557.574 73.3343 579.667 59.6216 602 49L592 50C593.719 47.2339 595.773 46.364 599 46L601 42L593 44L608 37L604 39L607 44L605 46L609 46C608.902 43.2675 610.528 42.7063 613 42L611 45C614.357 45.9906 617.047 44.8501 619 42L615 43L618 39L616 38L624 39L623 36L640 35L639 30L628 35L630 30C634.165 28.8948 638.543 28.4054 640 24L621.439 27.9838L608 37L613 32L607 32C613.128 28.4955 618.776 25.2345 626 26C629.289 22.9963 635.608 22.2522 640 21L640 10L625 16z"/>
<path style="fill:#888987; stroke:none;" d="M630 11L631 12L630 11z"/>
<path style="fill:#d4ccc7; stroke:none;" d="M627 12L628 13L627 12z"/>
<path style="fill:#a49e98; stroke:none;" d="M625 13L626 14L625 13M623 14L624 15L623 14z"/>
<path style="fill:#d4ccc7; stroke:none;" d="M620 15L621 16L620 15z"/>
<path style="fill:#a49e98; stroke:none;" d="M618 16L619 17L618 16M616 17L617 18L616 17z"/>
<path style="fill:#5f3627; stroke:none;" d="M611 20C613.093 22.0927 616.848 19.6093 616 23L619 22L618 19L621 18C617.439 16.7654 614.301 18.4654 611 20z"/>
<path style="fill:#888987; stroke:none;" d="M614 18L615 19L614 18z"/>
<path style="fill:#d4ccc7; stroke:none;" d="M611 19L612 20L611 19z"/>
<path style="fill:#a49e98; stroke:none;" d="M609 20L610 21L609 20z"/>
<path style="fill:#888987; stroke:none;" d="M607 21L608 22L607 21z"/>
<path style="fill:#875e30; stroke:none;" d="M626 26C618.73 24.582 613.515 28.4192 607 31L613 32L608 36C614.333 37.4328 617.366 30.6054 622.289 27.9838C627.668 25.1197 637.626 27.7575 640 21C635.804 21.7424 628.351 22.4626 626 26z"/>
<path style="fill:#d4ccc7; stroke:none;" d="M604 22L605 23L604 22z"/>
<path style="fill:#a49e98; stroke:none;" d="M602 23L603 24L602 23M600 24L601 25L600 24z"/>
<path style="fill:#d4ccc7; stroke:none;" d="M597 25L598 26L597 25z"/>
<path style="fill:#5f3627; stroke:none;" d="M599 30L603 29C601.723 30.9151 601.723 30.085 603 32L610 26C606.32 24.7228 601.389 27.0622 599 30z"/>
<path style="fill:#e5a39b; stroke:none;" d="M595 26L596 27L595 26z"/>
<path style="fill:#a49e98; stroke:none;" d="M593 27L594 28L593 27z"/>
<path style="fill:#5f3627; stroke:none;" d="M639 27L630 30L628 35C630.828 35 639.405 26.3806 638 32C639.879 30.3769 639.916 29.3004 639 27z"/>
<path style="fill:#888987; stroke:none;" d="M591 28L592 29L591 28z"/>
<path style="fill:#d4ccc7; stroke:none;" d="M588 29L589 30L588 29z"/>
<path style="fill:#a49e98; stroke:none;" d="M586 30L587 31L586 30z"/>
<path style="fill:#888987; stroke:none;" d="M584 31L585 32L584 31z"/>
<path style="fill:#d4ccc7; stroke:none;" d="M581 32L582 33L581 32z"/>
<path style="fill:#a49e98; stroke:none;" d="M579 33L580 34L579 33z"/>
<path style="fill:#888987; stroke:none;" d="M577 34L578 35L577 34z"/>
<path style="fill:#a49e98; stroke:none;" d="M574 35L575 36L574 35z"/>
<path style="fill:#5f3627; stroke:none;" d="M532 54L533 57C548.763 52.2015 564.577 43.8866 579 36C574.19 34.336 568.384 38.2309 564 40.2307L532 54z"/>
<path style="fill:#a49e98; stroke:none;" d="M637 35L638 36L637 35M572 36L573 37L572 36z"/>
<path style="fill:#875e30; stroke:none;" d="M623 36L624 39L616 37L618 39L615 43C621.074 42.5106 629.326 41.3856 633 36L623 36z"/>
<path style="fill:#a49e98; stroke:none;" d="M635 36L636 37L635 36z"/>
<path style="fill:#888987; stroke:none;" d="M570 37L571 38L570 37z"/>
<path style="fill:#875e30; stroke:none;" d="M593 43L601 42L599 46C595.706 45.7647 592.751 46.4789 592 50L602 48C593.61 53.2955 576.963 55.1974 572 64L612 47C611.792 45.3389 611.505 45.4601 613 45L613 42C610.367 42.7372 609.324 43.2616 609 46L605 46L607 44L604 39L608 38C603.173 37.0017 597.22 40.7504 593 43z"/>
<path style="fill:#d4ccc7; stroke:none;" d="M633 37L634 38L633 37M565 39L566 40L565 39z"/>
<path style="fill:#a36b80; stroke:none;" d="M591 39L591 41L593 41L593 39L591 39z"/>
<path style="fill:#a49e98; stroke:none;" d="M628 39L629 40L628 39M563 40L564 41L563 40z"/>
<path style="fill:#875e30; stroke:none;" d="M565 46C569.782 44.76 575.52 44.6704 579 41C572.988 40.9503 567.07 38.8698 565 46z"/>
<path style="fill:#a49e98; stroke:none;" d="M626 40L627 41L626 40z"/>
<path style="fill:#a36b80; stroke:none;" d="M561 41L562 42L561 41z"/>
<path style="fill:#d4ccc7; stroke:none;" d="M624 41L625 42L624 41M558 42L559 43L558 42z"/>
<path style="fill:#a49e98; stroke:none;" d="M621 42L622 43L621 42M556 43L557 44L556 43M619 43L620 44L619 43z"/>
<path style="fill:#888987; stroke:none;" d="M554 44L555 45L554 44z"/>
<path style="fill:#d4ccc7; stroke:none;" d="M617 44L618 45L617 44z"/>
<path style="fill:#a49e98; stroke:none;" d="M551 45L552 46L551 45z"/>
<path style="fill:#6f6d6d; stroke:none;" d="M552 45L553 46L552 45z"/>
<path style="fill:#a49e98; stroke:none;" d="M614 45L615 46L614 45M549 46L550 47L549 46M612 46L613 47L612 46z"/>
<path style="fill:#888987; stroke:none;" d="M547 47L548 48L547 47z"/>
<path style="fill:#d4ccc7; stroke:none;" d="M610 47L611 48L610 47M544 48L545 49L544 48z"/>
<path style="fill:#875e30; stroke:none;" d="M572 48L552 56L561 56L556 59C558.292 61.2924 561.947 57.2115 561 61C564.301 60.1949 566.701 59.5426 569 57L566 58L582 50L572 48z"/>
<path style="fill:#a49e98; stroke:none;" d="M542 49L543 50L542 49z"/>
<path style="fill:#875e30; stroke:none;" d="M587 51L590 49L587 51z"/>
<path style="fill:#a49e98; stroke:none;" d="M605 49L606 50L605 49M540 50L541 51L540 50z"/>
<path style="fill:#888987; stroke:none;" d="M538 51L539 52L538 51z"/>
<path style="fill:#d4ccc7; stroke:none;" d="M601 51L602 52L601 51M535 52L536 53L535 52z"/>
<path style="fill:#a49e98; stroke:none;" d="M598 52L599 53L598 52M533 53L534 54L533 53M596 53L597 54L596 53z"/>
<path style="fill:#888987; stroke:none;" d="M531 54L532 55L531 54z"/>
<path style="fill:#d4ccc7; stroke:none;" d="M594 54L595 55L594 54M528 55L529 56L528 55z"/>
<path style="fill:#a49e98; stroke:none;" d="M591 55L592 56L591 55M526 56L527 57L526 56z"/>
<path style="fill:#e5a39b; stroke:none;" d="M589 56L590 57L589 56z"/>
<path style="fill:#888987; stroke:none;" d="M524 57L525 58L524 57z"/>
<path style="fill:#d4ccc7; stroke:none;" d="M587 57L588 58L587 57M521 58L522 59L521 58z"/>
<path style="fill:#a49e98; stroke:none;" d="M584 58L585 59L584 58z"/>
<path style="fill:#e5a39b; stroke:none;" d="M519 59L520 60L519 59z"/>
<path style="fill:#a49e98; stroke:none;" d="M582 59L583 60L582 59M517 60L518 61L517 60z"/>
<path style="fill:#875e30; stroke:none;" d="M525 68L535 64C531.151 57.9889 527.165 63.6263 525 68z"/>
<path style="fill:#d4ccc7; stroke:none;" d="M580 60L581 61L580 60z"/>
<path style="fill:#888987; stroke:none;" d="M515 61L516 62L515 61z"/>
<path style="fill:#d4ccc7; stroke:none;" d="M512 62L513 63L512 62z"/>
<path style="fill:#875e30; stroke:none;" d="M554 63L558 63L554 63z"/>
<path style="fill:#a49e98; stroke:none;" d="M575 62L576 63L575 62M510 63L511 64L510 63z"/>
<path style="fill:#d4ccc7; stroke:none;" d="M573 63L574 64L573 63z"/>
<path style="fill:#888987; stroke:none;" d="M508 64L509 65L508 64M569.667 64.3333L570.333 64.6667L569.667 64.3333z"/>
<path style="fill:#d4ccc7; stroke:none;" d="M571 64L572 65L571 64M505 65L506 66L505 65z"/>
<path style="fill:#875e30; stroke:none;" d="M509 68L504 75L509 74L508 72L521 66L509 68M566.667 65.3333L567.333 65.6667L566.667 65.3333z"/>
<path style="fill:#a49e98; stroke:none;" d="M568 65L569 66L568 65M503 66L504 67L503 66M566 66L567 67L566 66M501 67L502 68L501 67z"/>
<path style="fill:#875e30; stroke:none;" d="M493 72L493 78C495.179 78.7264 494.78 78.4395 494 80L502 77L502 73L498 74L505 70L504 67L493 72z"/>
<path style="fill:#d4ccc7; stroke:none;" d="M564 67L565 68L564 67M498 68L499 69L498 68z"/>
<path style="fill:#a49e98; stroke:none;" d="M561 68L562 69L561 68z"/>
<path style="fill:#e5a39b; stroke:none;" d="M496 69L497 70L496 69z"/>
<path style="fill:#a49e98; stroke:none;" d="M559 69L560 70L559 69z"/>
<path style="fill:#888987; stroke:none;" d="M494 70L495 71L494 70z"/>
<path style="fill:#d4ccc7; stroke:none;" d="M557 70L558 71L557 70M491 71L492 72L491 71z"/>
<path style="fill:#888987; stroke:none;" d="M554 71L555 72L554 71z"/>
<path style="fill:#d4ccc7; stroke:none;" d="M489 72L490 73L489 72z"/>
<path style="fill:#a49e98; stroke:none;" d="M552 72L553 73L552 72M487 73L488 74L487 73z"/>
<path style="fill:#875e30; stroke:none;" d="M500 81L516 74C510.923 72.5027 502.571 76.5498 500 81M533 74L535 80L548 74L533 74z"/>
<path style="fill:#a49e98; stroke:none;" d="M550 73L551 74L550 73z"/>
<path style="fill:#888987; stroke:none;" d="M485 74L486 75L485 74z"/>
<path style="fill:#d4ccc7; stroke:none;" d="M548 74L549 75L548 74M482 75L483 76L482 75z"/>
<path style="fill:#a49e98; stroke:none;" d="M545 75L546 76L545 75M480 76L481 77L480 76z"/>
<path style="fill:#e5a39b; stroke:none;" d="M543 76L544 77L543 76z"/>
<path style="fill:#888987; stroke:none;" d="M478 77L479 78L478 77z"/>
<path style="fill:#d4ccc7; stroke:none;" d="M541 77L542 78L541 77M475 78L476 79L475 78z"/>
<path style="fill:#a49e98; stroke:none;" d="M538 78L539 79L538 78M473 79L474 80L473 79z"/>
<path style="fill:#875e30; stroke:none;" d="M506 83C510.075 84.201 513.353 82.0301 516 79L506 83z"/>
<path style="fill:#e5a39b; stroke:none;" d="M536 79L537 80L536 79z"/>
<path style="fill:#888987; stroke:none;" d="M471 80L472 81L471 80z"/>
<path style="fill:#d4ccc7; stroke:none;" d="M534 80L535 81L534 80M468 81L469 82L468 81z"/>
<path style="fill:#a49e98; stroke:none;" d="M531 81L532 82L531 81M466 82L467 83L466 82M529 82L530 83L529 82M464 83L465 84L464 83z"/>
<path style="fill:#875e30; stroke:none;" d="M478 87L483 87L476 89C478.198 91.1977 482.901 88.3978 482 92L485 92L484 90L497 86L496 83C491.854 83.8225 480.423 84.2063 478 87z"/>
<path style="fill:#d4ccc7; stroke:none;" d="M527 83L528 84L527 83z"/>
<path style="fill:#a36b80; stroke:none;" d="M462 84L463 85L462 84z"/>
<path style="fill:#d4ccc7; stroke:none;" d="M525 84L526 85L525 84M459 85L460 86L459 85z"/>
<path style="fill:#5f3627; stroke:none;" d="M456 87L456 90L464 86L456 87z"/>
<path style="fill:#a49e98; stroke:none;" d="M522 85L523 86L522 85M457 86L458 87L457 86z"/>
<path style="fill:#5f3627; stroke:none;" d="M476 94L477 97L473 95L464 101C466.335 102.941 474.483 102.102 475 99C479.076 99.6994 481.628 99.1085 483 95L492 92L492 96C496.161 95.3064 505.678 92.7421 501 89L505 86C495.212 87.9046 485.985 94.3846 476 94z"/>
<path style="fill:#e5a39b; stroke:none;" d="M520 86L521 87L520 86z"/>
<path style="fill:#888987; stroke:none;" d="M455 87L456 88L455 87z"/>
<path style="fill:#d4ccc7; stroke:none;" d="M518 87L519 88L518 87M452 88L453 89L452 88z"/>
<path style="fill:#a49e98; stroke:none;" d="M515 88L516 89L515 88M450 89L451 90L450 89M513 89L514 90L513 89z"/>
<path style="fill:#d4ccc7; stroke:none;" d="M272 90L275 91L272 90z"/>
<path style="fill:#e98f73; stroke:none;" d="M275 90L285 91L275 90z"/>
<path style="fill:#e5a39b; stroke:none;" d="M285.667 90.3333L286.333 90.6667L285.667 90.3333z"/>
<path style="fill:#d4ccc7; stroke:none;" d="M287.667 90.3333L288.333 90.6667L287.667 90.3333z"/>
<path style="fill:#888987; stroke:none;" d="M448 90L449 91L448 90z"/>
<path style="fill:#5f3627; stroke:none;" d="M440 94C444.147 95.4842 447.6 93.3971 451 91C447.155 90.2048 443.539 92.5485 440 94z"/>
<path style="fill:#d4ccc7; stroke:none;" d="M511 90L512 91L511 90M267 91L270 92L267 91z"/>
<path style="fill:#e98f73; stroke:none;" d="M270 91L273 92L270 91z"/>
<path style="fill:#df5121; stroke:none;" d="M206 116C205.434 108.521 196.27 104.414 191.152 111.148C188.302 114.898 190.065 118.906 191 123L171 130.4C153.874 137.257 124.71 145.152 117.468 164C112.271 177.528 119.166 195.717 125 208C113.781 211.741 113.17 215.193 115 226C133.9 225.998 153.627 213.948 171 207L287 160.203L321 146.6C324.942 145.023 331.657 143.664 333.971 139.775C336.1 136.2 333.954 131.606 333 128L318 130C316.658 123.583 314.137 117.637 310.731 112.039C307.115 106.095 303.841 99.751 297.999 95.6489C289.255 89.5085 277.902 90.4897 268 92.3896C246.267 96.5595 226.838 109.01 206 116z"/>
<path style="fill:#e98f73; stroke:none;" d="M288.667 91.3333L289.333 91.6667L288.667 91.3333z"/>
<path style="fill:#d4ccc7; stroke:none;" d="M290.667 91.3333L291.333 91.6667L290.667 91.3333M445 91L446 92L445 91z"/>
<path style="fill:#875e30; stroke:none;" d="M495 93L500 92L495 93z"/>
<path style="fill:#a49e98; stroke:none;" d="M508 91L509 92L508 91z"/>
<path style="fill:#e98f73; stroke:none;" d="M265 92L268 93L265 92M291 92L294 93L291 92z"/>
<path style="fill:#a49e98; stroke:none;" d="M443 92L444 93L443 92M506 92L507 93L506 92z"/>
<path style="fill:#d4ccc7; stroke:none;" d="M259 93L262 94L259 93M294.667 93.3333L295.333 93.6667L294.667 93.3333z"/>
<path style="fill:#888987; stroke:none;" d="M441 93L442 94L441 93z"/>
<path style="fill:#d4ccc7; stroke:none;" d="M504 93L505 94L504 93z"/>
<path style="fill:#ecb0c9; stroke:none;" d="M257.667 94.3333L258.333 94.6667L257.667 94.3333z"/>
<path style="fill:#e98f73; stroke:none;" d="M259.667 94.3333L260.333 94.6667L259.667 94.3333z"/>
<path style="fill:#d4ccc7; stroke:none;" d="M296.667 94.3333L297.333 94.6667L296.667 94.3333z"/>
<path style="fill:#888987; stroke:none;" d="M439 94L440 95L439 94z"/>
<path style="fill:#a49e98; stroke:none;" d="M501 94L502 95L501 94z"/>
<path style="fill:#ecb0c9; stroke:none;" d="M254.667 95.3333L255.333 95.6667L254.667 95.3333z"/>
<path style="fill:#e98f73; stroke:none;" d="M256.667 95.3333L257.333 95.6667L256.667 95.3333z"/>
<path style="fill:#d4ccc7; stroke:none;" d="M436 95L437 96L436 95z"/>
<path style="fill:#a49e98; stroke:none;" d="M499 95L500 96L499 95z"/>
<path style="fill:#e98f73; stroke:none;" d="M250 97L254 97L250 97z"/>
<path style="fill:#a49e98; stroke:none;" d="M434 96L435 97L434 96z"/>
<path style="fill:#d4ccc7; stroke:none;" d="M497 96L498 97L497 96z"/>
<path style="fill:#888987; stroke:none;" d="M432 97L433 98L432 97z"/>
<path style="fill:#d4ccc7; stroke:none;" d="M495 97L496 98L495 97z"/>
<path style="fill:#e98f73; stroke:none;" d="M247.667 98.3333L248.333 98.6667L247.667 98.3333z"/>
<path style="fill:#d4ccc7; stroke:none;" d="M429 98L430 99L429 98z"/>
<path style="fill:#a49e98; stroke:none;" d="M492 98L493 99L492 98M427 99L428 100L427 99z"/>
<path style="fill:#875e30; stroke:none;" d="M445 103C436.595 103.842 430.198 111.655 422 111L425 120C426.498 119.842 435.213 119.832 431 118L433 117L429 115C436.152 110.654 445.098 111.488 453 109L452 106L458 104L458 101C454.055 99.1039 445.325 96.8019 445 103z"/>
<path style="fill:#e5a39b; stroke:none;" d="M490 99L491 100L490 99z"/>
<path style="fill:#e98f73; stroke:none;" d="M242.667 100.333L243.333 100.667L242.667 100.333z"/>
<path style="fill:#888987; stroke:none;" d="M425 100L426 101L425 100z"/>
<path style="fill:#d4ccc7; stroke:none;" d="M488 100L489 101L488 100z"/>
<path style="fill:#e5a39b; stroke:none;" d="M239.667 101.333L240.333 101.667L239.667 101.333z"/>
<path style="fill:#d4ccc7; stroke:none;" d="M422 101L423 102L422 101z"/>
<path style="fill:#a49e98; stroke:none;" d="M485 101L486 102L485 101z"/>
<path style="fill:#e98f73; stroke:none;" d="M235 103L239 103L235 103z"/>
<path style="fill:#a49e98; stroke:none;" d="M420 102L421 103L420 102z"/>
<path style="fill:#e5a39b; stroke:none;" d="M483 102L484 103L483 102M305 103L306 104L305 103z"/>
<path style="fill:#a49e98; stroke:none;" d="M418.333 103.667L418.667 104.333L418.333 103.667z"/>
<path style="fill:#d4ccc7; stroke:none;" d="M481 103L482 104L481 103z"/>
<path style="fill:#e98f73; stroke:none;" d="M230 105L234 105L230 105z"/>
<path style="fill:#a49e98; stroke:none;" d="M478 104L479 105L478 104M476 105L477 106L476 105z"/>
<path style="fill:#ecb0c9; stroke:none;" d="M195 106L199 107L195 106z"/>
<path style="fill:#e98f73; stroke:none;" d="M225 107L230 107L225 107M307.333 106.667L307.667 107.333L307.333 106.667z"/>
<path style="fill:#875e30; stroke:none;" d="M445 119L458 114L456 111L464 111L472 108C469.531 105.531 462.913 110.347 464 106C457.836 107.979 447.142 112.474 445 119z"/>
<path style="fill:#d4ccc7; stroke:none;" d="M474 106L475 107L474 106z"/>
<path style="fill:#e5a39b; stroke:none;" d="M193.667 107.333L194.333 107.667L193.667 107.333z"/>
<path style="fill:#e98f73; stroke:none;" d="M195 107L201 108L195 107z"/>
<path style="fill:#d4ccc7; stroke:none;" d="M201.667 107.333L202.333 107.667L201.667 107.333M419 107L420 108L419 107M472 107L473 108L472 107z"/>
<path style="fill:#ecb0c9; stroke:none;" d="M192 108L193 109L192 108z"/>
<path style="fill:#e5a39b; stroke:none;" d="M220 109L224 109L220 109z"/>
<path style="fill:#a49e98; stroke:none;" d="M469 108L470 109L469 108z"/>
<path style="fill:#e98f73; stroke:none;" d="M190 112L193 109L190 112M309.333 109.667L309.667 110.333L309.333 109.667z"/>
<path style="fill:#d4ccc7; stroke:none;" d="M420 109L421 110L420 109z"/>
<path style="fill:#724c25; stroke:none;" d="M456 113C459.545 112.634 461.988 112.034 464 109C460.674 109.7 457.988 110.15 456 113z"/>
<path style="fill:#e5a39b; stroke:none;" d="M467 109L468 110L467 109M215 111L219 111L215 111z"/>
<path style="fill:#e98f73; stroke:none;" d="M219.667 110.333L220.333 110.667L219.667 110.333z"/>
<path style="fill:#e5a39b; stroke:none;" d="M310.333 110.667L310.667 111.333L310.333 110.667z"/>
<path style="fill:#d4ccc7; stroke:none;" d="M465 110L466 111L465 110z"/>
<path style="fill:#e5a39b; stroke:none;" d="M189.333 111.667L189.667 112.333L189.333 111.667z"/>
<path style="fill:#a49e98; stroke:none;" d="M421 111L422 112L421 111M462 111L463 112L462 111z"/>
<path style="fill:#d4ccc7; stroke:none;" d="M188 112L188 118C188.951 115.715 188.951 114.285 188 112z"/>
<path style="fill:#ecb0c9; stroke:none;" d="M210 113L215 113L210 113z"/>
<path style="fill:#e98f73; stroke:none;" d="M311.333 112.667L311.667 113.333L311.333 112.667z"/>
<path style="fill:#e5a39b; stroke:none;" d="M460 112L461 113L460 112z"/>
<path style="fill:#a49e98; stroke:none;" d="M422 113L423 114L422 113z"/>
<path style="fill:#d4ccc7; stroke:none;" d="M458 113L459 114L458 113z"/>
<path style="fill:#e98f73; stroke:none;" d="M206 114L209 116L206 114z"/>
<path style="fill:#d4ccc7; stroke:none;" d="M207 114L210 115L207 114z"/>
<path style="fill:#a49e98; stroke:none;" d="M455 114L456 115L455 114z"/>
<path style="fill:#e5a39b; stroke:none;" d="M453 115L454 116L453 115z"/>
<path style="fill:#d4ccc7; stroke:none;" d="M423 116L424 117L423 116z"/>
<path style="fill:#e5a39b; stroke:none;" d="M189.333 117.667L189.667 118.333L189.333 117.667z"/>
<path style="fill:#d4ccc7; stroke:none;" d="M449 117L450 118L449 117z"/>
<path style="fill:#e5a39b; stroke:none;" d="M314.333 118.667L314.667 119.333L314.333 118.667z"/>
<path style="fill:#a49e98; stroke:none;" d="M424 118L425 119L424 118M446 118L447 119L446 118z"/>
<path style="fill:#e5a39b; stroke:none;" d="M444 119L445 120L444 119z"/>
<path style="fill:#d4ccc7; stroke:none;" d="M190 120L188 122C190.033 122.785 190.785 122.033 190 120z"/>
<path style="fill:#e5a39b; stroke:none;" d="M315.333 120.667L315.667 121.333L315.333 120.667z"/>
<path style="fill:#a49e98; stroke:none;" d="M425 120L426 121L425 120z"/>
<path style="fill:#d4ccc7; stroke:none;" d="M442 120L443 121L442 120z"/>
<path style="fill:#a49e98; stroke:none;" d="M439 121L440 122L439 121z"/>
<path style="fill:#e5a39b; stroke:none;" d="M316.333 122.667L316.667 123.333L316.333 122.667z"/>
<path style="fill:#a49e98; stroke:none;" d="M437 122L438 123L437 122z"/>
<path style="fill:#d4ccc7; stroke:none;" d="M185 123L188 124L185 123M426 123L427 124L426 123z"/>
<path style="fill:#875e30; stroke:none;" d="M427 125L432 125C429.869 123.791 429.131 123.791 427 125z"/>
<path style="fill:#d4ccc7; stroke:none;" d="M435 123L436 124L435 123M183.667 124.333L184.333 124.667L183.667 124.333z"/>
<path style="fill:#ecb0c9; stroke:none;" d="M317.333 124.667L317.667 125.333L317.333 124.667z"/>
<path style="fill:#a49e98; stroke:none;" d="M432 124L433 125L432 124z"/>
<path style="fill:#d4ccc7; stroke:none;" d="M178 126L183 126L178 126z"/>
<path style="fill:#e5a39b; stroke:none;" d="M427 125L428 126L427 125z"/>
<path style="fill:#a49e98; stroke:none;" d="M430 125L431 126L430 125z"/>
<path style="fill:#e98f73; stroke:none;" d="M317.333 126.667L317.667 127.333L317.333 126.667z"/>
<path style="fill:#d4ccc7; stroke:none;" d="M324 126L333 128C330.15 126.053 327.41 126.03 324 126M428 126L429 127L428 126M173 128L178 128L173 128M318 127L321 129L318 127z"/>
<path style="fill:#ecb0c9; stroke:none;" d="M322.667 127.333L323.333 127.667L322.667 127.333z"/>
<path style="fill:#ed5fa0; stroke:none;" d="M324 127L331 128L324 127z"/>
<path style="fill:#e98f73; stroke:none;" d="M175.667 128.333L176.333 128.667L175.667 128.333M321.667 128.333L322.333 128.667L321.667 128.333z"/>
<path style="fill:#d4ccc7; stroke:none;" d="M168 130L173 130L168 130z"/>
<path style="fill:#e98f73; stroke:none;" d="M318 129L321 130L318 129M333.333 129.667L333.667 130.333L333.333 129.667M170.667 130.333L171.333 130.667L170.667 130.333z"/>
<path style="fill:#888987; stroke:none;" d="M410 130L413 131L410 130z"/>
<path style="fill:#d4ccc7; stroke:none;" d="M163 132L168 132L163 132z"/>
<path style="fill:#e98f73; stroke:none;" d="M334.333 131.667L334.667 132.333L334.333 131.667z"/>
<path style="fill:#d4ccc7; stroke:none;" d="M407 131L408 132L407 131z"/>
<path style="fill:#724c25; stroke:none;" d="M408 131L407 134L408 131z"/>
<path style="fill:#1b1919; stroke:none;" d="M409.667 131.333L410.333 131.667L409.667 131.333z"/>
<path style="fill:#724c25; stroke:none;" d="M411 131L416 134L417 133L411 131z"/>
<path style="fill:#d4ccc7; stroke:none;" d="M415.667 131.333L416.333 131.667L415.667 131.333z"/>
<path style="fill:#e98f73; stroke:none;" d="M165.667 132.333L166.333 132.667L165.667 132.333z"/>
<path style="fill:#888987; stroke:none;" d="M406 132L407 133L406 132z"/>
<path style="fill:#a36b80; stroke:none;" d="M409 132L410 133L409 132z"/>
<path style="fill:#ecb0c9; stroke:none;" d="M408 133C410.046 133.751 410.596 133.656 412 132L408 133z"/>
<path style="fill:#e98f73; stroke:none;" d="M397 157C400.493 154.807 402.223 150.669 404 147L398 151C400.771 144.396 405.149 140.261 412 138L412 152C415.294 147.178 415.218 139.201 410 136L415 132C399.816 135.57 398.092 143.471 397 157z"/>
<path style="fill:#a49e98; stroke:none;" d="M417 132L418 133L417 132z"/>
<path style="fill:#d4ccc7; stroke:none;" d="M404 133L403 135L404 133z"/>
<path style="fill:#a36b80; stroke:none;" d="M405.333 133.667L405.667 134.333L405.333 133.667z"/>
<path style="fill:#1b1919; stroke:none;" d="M406 133L407 134L406 133M414 134L417 138L417 134L420 138C420.875 133.841 417.375 133.444 414 134z"/>
<path style="fill:#a49e98; stroke:none;" d="M419 133L420 134L419 133z"/>
<path style="fill:#d4ccc7; stroke:none;" d="M158.667 134.333L159.333 134.667L158.667 134.333z"/>
<path style="fill:#e98f73; stroke:none;" d="M160.667 134.333L161.333 134.667L160.667 134.333M335 134L335 139L335 134z"/>
<path style="fill:#d4ccc7; stroke:none;" d="M336 134L336 138L336 134z"/>
<path style="fill:#724c25; stroke:none;" d="M404.333 134.667L404.667 135.333L404.333 134.667z"/>
<path style="fill:#5f3627; stroke:none;" d="M417 134L417 136L419 134L417 134z"/>
<path style="fill:#a49e98; stroke:none;" d="M420 134L421 135L420 134z"/>
<path style="fill:#e98f73; stroke:none;" d="M157.667 135.333L158.333 135.667L157.667 135.333z"/>
<path style="fill:#1b1919; stroke:none;" d="M403 135L404 136L403 135z"/>
<path style="fill:#ecb0c9; stroke:none;" d="M410 135L414 143L415 135L410 135z"/>
<path style="fill:#5f3627; stroke:none;" d="M415 135L416 136L415 135z"/>
<path style="fill:#ed5fa0; stroke:none;" d="M418 135C418 143.34 417.501 151.322 413.816 159L403 178C413.921 173.089 426.105 145.741 418 135z"/>
<path style="fill:#913963; stroke:none;" d="M419 135L420 136L419 135z"/>
<path style="fill:#888987; stroke:none;" d="M421 135L422 136L421 135z"/>
<path style="fill:#e98f73; stroke:none;" d="M155.667 136.333L156.333 136.667L155.667 136.333z"/>
<path style="fill:#e5a39b; stroke:none;" d="M400 139L404 136L400 139M415.333 136.667L415.667 137.333L415.333 136.667z"/>
<path style="fill:#5f3627; stroke:none;" d="M421 136L420 140L421 136M416 137C416.213 139.116 416.53 140.541 415 142L416 148C419.162 145.237 418.353 140.106 416 137z"/>
<path style="fill:#ecb0c9; stroke:none;" d="M400 149L404 147L400 156C402.738 153.063 403.641 150.613 408 151L407 158C409.408 154.058 409.905 149.562 410 145L404 147L410 143L411 147C412.442 143.975 412.522 141.291 412 138C406.087 139.196 402.298 143.586 400 149z"/>
<path style="fill:#a36b80; stroke:none;" d="M415 138L415 141L417 138L415 138z"/>
<path style="fill:#724c25; stroke:none;" d="M421.333 138.667L421.667 139.333L421.333 138.667z"/>
<path style="fill:#e98f73; stroke:none;" d="M148.667 139.333L149.333 139.667L148.667 139.333z"/>
<path style="fill:#5f3627; stroke:none;" d="M400 139L401 140L400 139z"/>
<path style="fill:#e98f73; stroke:none;" d="M146.667 140.333L147.333 140.667L146.667 140.333z"/>
<path style="fill:#ecb0c9; stroke:none;" d="M334 140L335 141L334 140z"/>
<path style="fill:#6f6d6d; stroke:none;" d="M399 140L397 143C398.994 142.153 399.699 141.993 399 140z"/>
<path style="fill:#1b1919; stroke:none;" d="M420 140L420 150L422 140L420 140z"/>
<path style="fill:#e5a39b; stroke:none;" d="M139 143L145 142L139 143z"/>
<path style="fill:#ecb0c9; stroke:none;" d="M333 141L334 142L333 141z"/>
<path style="fill:#1b1919; stroke:none;" d="M415 141L416 142L415 141z"/>
<path style="fill:#e98f73; stroke:none;" d="M416 141L417 142L416 141z"/>
<path style="fill:#6f6d6d; stroke:none;" d="M421.333 141.667L421.667 142.333L421.333 141.667z"/>
<path style="fill:#e98f73; stroke:none;" d="M331 142L332 143L331 142z"/>
<path style="fill:#a36b80; stroke:none;" d="M402 142L400 147L404 142L402 142z"/>
<path style="fill:#913963; stroke:none;" d="M419.333 142.667L419.667 143.333L419.333 142.667z"/>
<path style="fill:#e98f73; stroke:none;" d="M328 143L331 144L328 143z"/>
<path style="fill:#5f3627; stroke:none;" d="M397 143L398 144L397 143z"/>
<path style="fill:#ed5fa0; stroke:none;" d="M404 147L410 145L409 155C412.517 152.746 412.683 148.976 413 145L412 147L410 143L404 147z"/>
<path style="fill:#a36b80; stroke:none;" d="M414 143L414 150C416.455 147.822 415.738 145.548 414 143z"/>
<path style="fill:#875e30; stroke:none;" d="M415 143L415 145L417 145L417 143L415 143z"/>
<path style="fill:#5f3627; stroke:none;" d="M421.333 143.667L421.667 144.333L421.333 143.667z"/>
<path style="fill:#e98f73; stroke:none;" d="M138.667 144.333L139.333 144.667L138.667 144.333M326.667 144.333L327.333 144.667L326.667 144.333z"/>
<path style="fill:#5f3627; stroke:none;" d="M396 144L397 145L396 144M401 144L402 145L401 144z"/>
<path style="fill:#e98f73; stroke:none;" d="M134 146L138 146L134 146M321 146L326 146L321 146z"/>
<path style="fill:#a49e98; stroke:none;" d="M382 145L387 146L382 145z"/>
<path style="fill:#724c25; stroke:none;" d="M414.333 145.667L414.667 146.333L414.333 145.667z"/>
<path style="fill:#5f3627; stroke:none;" d="M419 145L420 152L419 145z"/>
<path style="fill:#888987; stroke:none;" d="M421 145L421 148L421 145z"/>
<path style="fill:#6f6d6d; stroke:none;" d="M378 146L377 148L379 148L378 146M380 146L381 147L380 146z"/>
<path style="fill:#1b1919; stroke:none;" d="M367 160L379 149L373 157C376.431 154.477 380.212 151.275 381 147C386.261 148.082 390.33 148.232 392 154C394.056 147.429 386.102 145.248 381 146.613C374.309 148.405 369.952 154.075 367 160z"/>
<path style="fill:#e98f73; stroke:none;" d="M316 148L321 148L316 148z"/>
<path style="fill:#a36b80; stroke:none;" d="M381.667 147.333L382.333 147.667L381.667 147.333z"/>
<path style="fill:#724c25; stroke:none;" d="M385.667 147.333L386.333 147.667L385.667 147.333z"/>
<path style="fill:#ecb0c9; stroke:none;" d="M395 147L395 150L395 147z"/>
<path style="fill:#5f3627; stroke:none;" d="M397 147L398 148L397 147z"/>
<path style="fill:#875e30; stroke:none;" d="M399 147L398 151C399.303 149.332 399.553 149.008 399 147z"/>
<path style="fill:#e5a39b; stroke:none;" d="M131 148L132 149L131 148z"/>
<path style="fill:#ed5fa0; stroke:none;" d="M379 148L380 149L379 148z"/>
<path style="fill:#a49e98; stroke:none;" d="M382 148L383 149L382 148z"/>
<path style="fill:#ecb0c9; stroke:none;" d="M367 170L369 169C367.73 172.25 364.087 176.942 369 178L366 190L365 185L363 192L359 191L358 183L354 184C355.197 187.824 354.516 189.994 351 192L358 177C353.306 180.346 351.494 183.34 351 189L349 186L345 188C345.397 192.099 339.511 206.651 337 210C343.276 213.003 349.503 211.231 354 206L350 207C351.277 205.085 351.277 205.915 350 204L360 198L362 193C362.071 198.501 368.477 206.625 371 198L366 200L369 182L367 198L376 189L374 177L376 182C377.658 178.043 377.127 174.659 373 173L374 177L370 176C374.836 170.286 378.369 161.238 386 159L379 182C381.522 180.426 382.095 178.835 383 176L383 184L387 174C394.898 178.078 387.713 191.929 381 194L381 183C378.181 189.703 379.44 197.178 381 204C388.735 201.227 391.63 190.224 394 183C394.445 190.667 388.426 197.887 386 205C394.122 198.626 396.68 185.802 398 176L397 178L396 166L398 171C400.261 166.176 398.685 162.293 396 158L393 160L395 164L393 162L386 166C388.54 160.557 388.999 155.945 389 150L385 150L388 149C378.137 145.2 369.362 162.536 367 170z"/>
<path style="fill:#e98f73; stroke:none;" d="M385 149L389 150L389 158L391 149L385 149z"/>
<path style="fill:#a36b80; stroke:none;" d="M389 148L390 149L389 148z"/>
<path style="fill:#a49e98; stroke:none;" d="M391 148L392 149L391 148z"/>
<path style="fill:#a36b80; stroke:none;" d="M396 148C394.948 151.157 395.35 152.587 393 152L396 159C398.481 157.983 399.264 157.562 400 155L397 157C397.563 153.577 397.787 151.042 396 148z"/>
<path style="fill:#1b1919; stroke:none;" d="M416.333 148.667L416.667 149.333L416.333 148.667z"/>
<path style="fill:#ecb0c9; stroke:none;" d="M129 149L130 150L129 149z"/>
<path style="fill:#e98f73; stroke:none;" d="M311 150L316 150L311 150z"/>
<path style="fill:#d4ccc7; stroke:none;" d="M374 149L375 150L374 149z"/>
<path style="fill:#5f3627; stroke:none;" d="M377 149L378 150L377 149z"/>
<path style="fill:#e98f73; stroke:none;" d="M378 149L379 150L378 149z"/>
<path style="fill:#a36b80; stroke:none;" d="M380 149L381 150L380 149z"/>
<path style="fill:#d4ccc7; stroke:none;" d="M421.333 149.667L421.667 150.333L421.333 149.667z"/>
<path style="fill:#ecb0c9; stroke:none;" d="M128 150L129 151L128 150z"/>
<path style="fill:#913963; stroke:none;" d="M376 150L377 151L376 150z"/>
<path style="fill:#e98f73; stroke:none;" d="M377 150L378 151L377 150z"/>
<path style="fill:#a36b80; stroke:none;" d="M379 150L380 151L379 150z"/>
<path style="fill:#e5a39b; stroke:none;" d="M390 150L390 157C391.98 154.345 391.98 152.655 390 150z"/>
<path style="fill:#724c25; stroke:none;" d="M391 150L392 151L391 150z"/>
<path style="fill:#e5a39b; stroke:none;" d="M403 164C404.557 161.603 404.284 159.853 404 157L408 159L404 170C408.949 164.811 413.122 156.9 415 150C411.953 151.888 409.167 154.589 408 158L408 151C400.282 149.202 401.518 158.987 403 164z"/>
<path style="fill:#5f3627; stroke:none;" d="M415 150L412 162L417 150L415 150z"/>
<path style="fill:#e98f73; stroke:none;" d="M306 152L311 152L306 152z"/>
<path style="fill:#ed5fa0; stroke:none;" d="M362 172L362 168C349.032 173.401 330.686 192.272 335 208C342.473 192.825 346.597 182.592 361 172L360 181L377 151C369.384 154.627 364.181 164.089 362 172z"/>
<path style="fill:#6f6d6d; stroke:none;" d="M378 151L379 152L378 151z"/>
<path style="fill:#a36b80; stroke:none;" d="M414.333 151.667L414.667 152.333L414.333 151.667z"/>
<path style="fill:#1b1919; stroke:none;" d="M419 151L419 154L419 151z"/>
<path style="fill:#a49e98; stroke:none;" d="M420.333 152.667L420.667 153.333L420.333 152.667z"/>
<path style="fill:#ecb0c9; stroke:none;" d="M124 153L125 154L124 153z"/>
<path style="fill:#e98f73; stroke:none;" d="M301 154L306 154L301 154z"/>
<path style="fill:#5f3627; stroke:none;" d="M418 153L418 156L418 153z"/>
<path style="fill:#ecb0c9; stroke:none;" d="M123 154L124 155L123 154z"/>
<path style="fill:#d4ccc7; stroke:none;" d="M303.667 154.333L304.333 154.667L303.667 154.333z"/>
<path style="fill:#6f6d6d; stroke:none;" d="M370 154L371 155L370 154z"/>
<path style="fill:#5f3627; stroke:none;" d="M392 154L393 155L392 154z"/>
<path style="fill:#e5a39b; stroke:none;" d="M393.333 154.667L393.667 155.333L393.333 154.667z"/>
<path style="fill:#6f6d6d; stroke:none;" d="M419.333 154.667L419.667 155.333L419.333 154.667z"/>
<path style="fill:#ecb0c9; stroke:none;" d="M122 155L123 156L122 155z"/>
<path style="fill:#e98f73; stroke:none;" d="M294 157L301 156L294 157z"/>
<path style="fill:#d4ccc7; stroke:none;" d="M369 155L370 156L369 155z"/>
<path style="fill:#a36b80; stroke:none;" d="M392 155L389 160C391.335 158.588 392.62 157.765 392 155z"/>
<path style="fill:#1b1919; stroke:none;" d="M394 155L393 159C395.183 157.581 395.643 157.079 394 155z"/>
<path style="fill:#a36b80; stroke:none;" d="M401.333 155.667L401.667 156.333L401.333 155.667z"/>
<path style="fill:#ecb0c9; stroke:none;" d="M121 156L122 157L121 156z"/>
<path style="fill:#724c25; stroke:none;" d="M393 156L394 157L393 156z"/>
<path style="fill:#e98f73; stroke:none;" d="M400 156L400 159L400 156z"/>
<path style="fill:#1b1919; stroke:none;" d="M418.333 156.667L418.667 157.333L418.333 156.667z"/>
<path style="fill:#d4ccc7; stroke:none;" d="M419.333 156.667L419.667 157.333L419.333 156.667z"/>
<path style="fill:#ecb0c9; stroke:none;" d="M120 157L121 158L120 157z"/>
<path style="fill:#724c25; stroke:none;" d="M372.667 157.333L373.333 157.667L372.667 157.333z"/>
<path style="fill:#e5a39b; stroke:none;" d="M377 157L376 160L377 157z"/>
<path style="fill:#5f3627; stroke:none;" d="M401.333 157.667L401.667 158.333L401.333 157.667z"/>
<path style="fill:#ed5fa0; stroke:none;" d="M404 157L406 162C405.967 159.464 405.723 158.872 404 157z"/>
<path style="fill:#a36b80; stroke:none;" d="M411.667 157.333L412.333 157.667L411.667 157.333z"/>
<path style="fill:#913963; stroke:none;" d="M414.333 157.667L414.667 158.333L414.333 157.667z"/>
<path style="fill:#5f3627; stroke:none;" d="M417 157L417 159L419 159L417 157z"/>
<path style="fill:#e98f73; stroke:none;" d="M291 158L294 159L291 158z"/>
<path style="fill:#6f6d6d; stroke:none;" d="M367 158L368 159L367 158z"/>
<path style="fill:#1b1919; stroke:none;" d="M372 158L373 159L372 158z"/>
<path style="fill:#724c25; stroke:none;" d="M392 158L392 160L394 160L392 158M394 158L395 159L394 158z"/>
<path style="fill:#1b1919; stroke:none;" d="M397 158C399.527 165.352 402 170 402 178L412 161L403 172C403.193 165.951 403.006 160.963 397 158z"/>
<path style="fill:#5f3627; stroke:none;" d="M399.333 158.667L399.667 159.333L399.333 158.667z"/>
<path style="fill:#724c25; stroke:none;" d="M411 158L409 163L413 158L411 158z"/>
<path style="fill:#e5a39b; stroke:none;" d="M119 159L120 160L119 159z"/>
<path style="fill:#e98f73; stroke:none;" d="M286 160L291 160L286 160z"/>
<path style="fill:#a49e98; stroke:none;" d="M366 159L367 160L366 159z"/>
<path style="fill:#5f3627; stroke:none;" d="M371.333 159.667L371.667 160.333L371.333 159.667z"/>
<path style="fill:#e98f73; stroke:none;" d="M375 159L374 162L375 159z"/>
<path style="fill:#ed5fa0; stroke:none;" d="M381 162L385 162C386.426 158.221 382.287 159.651 381 162z"/>
<path style="fill:#1b1919; stroke:none;" d="M390 159L390 161L392 159L390 159z"/>
<path style="fill:#875e30; stroke:none;" d="M400 159L402 161L402 159L400 159z"/>
<path style="fill:#724c25; stroke:none;" d="M407.333 159.667L407.667 160.333L407.333 159.667z"/>
<path style="fill:#1b1919; stroke:none;" d="M417 159L416 162L417 159z"/>
<path style="fill:#888987; stroke:none;" d="M418 159L419 160L418 159z"/>
<path style="fill:#e98f73; stroke:none;" d="M118.333 160.667L118.667 161.333L118.333 160.667z"/>
<path style="fill:#d4ccc7; stroke:none;" d="M288.667 160.333L289.333 160.667L288.667 160.333z"/>
<path style="fill:#5f3627; stroke:none;" d="M366 160L365 162L367 162L366 160z"/>
<path style="fill:#913963; stroke:none;" d="M367 160L368 161L367 160z"/>
<path style="fill:#e98f73; stroke:none;" d="M373 173L380 171C381.018 169 382.731 166.477 380 166L386 163L385 160C379.175 162.263 374.654 166.93 373 173z"/>
<path style="fill:#ed5fa0; stroke:none;" d="M388.333 160.667L388.667 161.333L388.333 160.667z"/>
<path style="fill:#724c25; stroke:none;" d="M389 160L389 162L391 162L389 160z"/>
<path style="fill:#e5a39b; stroke:none;" d="M391 160L389 165L392 162L395 164C394.146 161.475 393.492 160.97 391 160z"/>
<path style="fill:#a36b80; stroke:none;" d="M397 160L398 161L397 160z"/>
<path style="fill:#e98f73; stroke:none;" d="M281 162L286 162L281 162z"/>
<path style="fill:#1b1919; stroke:none;" d="M370 161L371 162L370 161z"/>
<path style="fill:#888987; stroke:none;" d="M398 161L399 162L398 161z"/>
<path style="fill:#5f3627; stroke:none;" d="M406 161L404 166C405.554 164.218 406.242 163.329 406 161z"/>
<path style="fill:#888987; stroke:none;" d="M417 161L418 162L417 161z"/>
<path style="fill:#e98f73; stroke:none;" d="M117.333 162.667L117.667 163.333L117.333 162.667z"/>
<path style="fill:#d4ccc7; stroke:none;" d="M364 162L365 163L364 162z"/>
<path style="fill:#1b1919; stroke:none;" d="M365 162L355 170L362 168L361 172C363.141 169.171 365.049 165.578 365 162z"/>
<path style="fill:#5f3627; stroke:none;" d="M369 162L370 163L369 162z"/>
<path style="fill:#a36b80; stroke:none;" d="M370 162L371 163L370 162z"/>
<path style="fill:#e98f73; stroke:none;" d="M373 162L371 166C372.63 164.485 373.163 164.145 373 162z"/>
<path style="fill:#6f6d6d; stroke:none;" d="M387 164L390 162L387 164z"/>
<path style="fill:#913963; stroke:none;" d="M400.333 162.667L400.667 163.333L400.333 162.667M415.333 162.667L415.667 163.333L415.333 162.667z"/>
<path style="fill:#5f3627; stroke:none;" d="M416.333 162.667L416.667 163.333L416.333 162.667z"/>
<path style="fill:#d4ccc7; stroke:none;" d="M417 162L418 163L417 162M116.333 163.667L116.667 164.333L116.333 163.667z"/>
<path style="fill:#e98f73; stroke:none;" d="M276 164L281 164L276 164z"/>
<path style="fill:#913963; stroke:none;" d="M365 163L366 164L365 163z"/>
<path style="fill:#1b1919; stroke:none;" d="M369 163L368 166L369 163z"/>
<path style="fill:#ed5fa0; stroke:none;" d="M384 163L380 166C382.121 166 381.755 166.07 383 168C384.475 166.065 384.791 165.307 384 163z"/>
<path style="fill:#875e30; stroke:none;" d="M402 163L403 164L402 163z"/>
<path style="fill:#913963; stroke:none;" d="M411 163L412 164L411 163z"/>
<path style="fill:#6f6d6d; stroke:none;" d="M363 164L364 165L363 164z"/>
<path style="fill:#a49e98; stroke:none;" d="M369 164L370 165L369 164z"/>
<path style="fill:#a36b80; stroke:none;" d="M386 164L386 166L388 164L386 164M399 164L400 165L399 164M405 164L406 165L405 164z"/>
<path style="fill:#5f3627; stroke:none;" d="M408 164L409 165L408 164z"/>
<path style="fill:#1b1919; stroke:none;" d="M415 164L414 167L415 164z"/>
<path style="fill:#888987; stroke:none;" d="M416 164L417 165L416 164z"/>
<path style="fill:#e98f73; stroke:none;" d="M116.333 165.667L116.667 166.333L116.333 165.667M271 166L276 166L271 166z"/>
<path style="fill:#d4ccc7; stroke:none;" d="M362 165L363 166L362 165z"/>
<path style="fill:#913963; stroke:none;" d="M400 165L401 169C401.553 166.992 401.303 166.668 400 165z"/>
<path style="fill:#a36b80; stroke:none;" d="M407 165L408 166L407 165z"/>
<path style="fill:#ecb0c9; stroke:none;" d="M115 166L115 171L115 166z"/>
<path style="fill:#6f6d6d; stroke:none;" d="M361 166L362 167L361 166z"/>
<path style="fill:#1b1919; stroke:none;" d="M367 166L362 178C364.623 174.835 367.696 170.18 367 166z"/>
<path style="fill:#e5a39b; stroke:none;" d="M370 166L369 169L370 166z"/>
<path style="fill:#ed5fa0; stroke:none;" d="M396.333 166.667L396.667 167.333L396.333 166.667z"/>
<path style="fill:#724c25; stroke:none;" d="M399 166L399 170C400.084 168.138 400.073 167.882 399 166z"/>
<path style="fill:#a36b80; stroke:none;" d="M403 166L403 171L403 166z"/>
<path style="fill:#5f3627; stroke:none;" d="M409 166L410 167L409 166z"/>
<path style="fill:#888987; stroke:none;" d="M415 166L416 167L415 166z"/>
<path style="fill:#e98f73; stroke:none;" d="M269.667 167.333L270.333 167.667L269.667 167.333z"/>
<path style="fill:#913963; stroke:none;" d="M363 167L364 168L363 167z"/>
<path style="fill:#d4ccc7; stroke:none;" d="M382 167L379 174L382 174L385 168L382 167z"/>
<path style="fill:#724c25; stroke:none;" d="M384 167L385 168L384 167M406 167L407 168L406 167z"/>
<path style="fill:#5f3627; stroke:none;" d="M413 167L409 175L415 167L413 167z"/>
<path style="fill:#e98f73; stroke:none;" d="M264 169L269 169L264 169z"/>
<path style="fill:#888987; stroke:none;" d="M357 168L358 169L357 168z"/>
<path style="fill:#5f3627; stroke:none;" d="M360 168L361 169L360 168z"/>
<path style="fill:#e98f73; stroke:none;" d="M396 168L396 178C398.279 174.784 399.414 170.69 396 168z"/>
<path style="fill:#a36b80; stroke:none;" d="M405 168L406 169L405 168z"/>
<path style="fill:#5f3627; stroke:none;" d="M408 168L409 169L408 168z"/>
<path style="fill:#d4ccc7; stroke:none;" d="M355 169L356 170L355 169z"/>
<path style="fill:#5f3627; stroke:none;" d="M358 169L359 170L358 169z"/>
<path style="fill:#e98f73; stroke:none;" d="M368 169L364 175C367.04 173.96 368.543 172.278 368 169z"/>
<path style="fill:#ed5fa0; stroke:none;" d="M400 169L400 171L402 171L402 169L400 169z"/>
<path style="fill:#5f3627; stroke:none;" d="M405 169L406 170L405 169M407 169L408 170L407 169z"/>
<path style="fill:#e98f73; stroke:none;" d="M259 171L264 171L259 171z"/>
<path style="fill:#d4ccc7; stroke:none;" d="M353 170L354 171L353 170z"/>
<path style="fill:#5f3627; stroke:none;" d="M354.333 170.667L354.667 171.333L354.333 170.667M356 170L357 171L356 170z"/>
<path style="fill:#1b1919; stroke:none;" d="M375 173C377.545 174.635 377.779 175.994 378 179C380.077 175.82 379.408 173.406 378 170L375 173M399 170L399 175L399 170z"/>
<path style="fill:#5f3627; stroke:none;" d="M404 170L403 172L405 172L404 170z"/>
<path style="fill:#d4ccc7; stroke:none;" d="M413 170L414 171L413 170z"/>
<path style="fill:#e98f73; stroke:none;" d="M115 171L115 177C115.951 174.715 115.951 173.285 115 171z"/>
<path style="fill:#6f6d6d; stroke:none;" d="M352 171L353 172L352 171z"/>
<path style="fill:#1b1919; stroke:none;" d="M353 171L354 172L353 171z"/>
<path style="fill:#a49e98; stroke:none;" d="M385.333 171.667L385.667 172.333L385.333 171.667z"/>
<path style="fill:#913963; stroke:none;" d="M400 171L400 173L402 173L402 171L400 171z"/>
<path style="fill:#6f6d6d; stroke:none;" d="M412 171L413 172L412 171z"/>
<path style="fill:#e98f73; stroke:none;" d="M254 173L259 173L254 173z"/>
<path style="fill:#724c25; stroke:none;" d="M351 172L352 173L351 172z"/>
<path style="fill:#1b1919; stroke:none;" d="M352 172L353 173L352 172M360 172C351.376 178.845 342.245 185.974 339 197C342.134 193.409 344.311 187.573 349 186L358 175L359 190C361.914 189.363 361.528 174.781 360 172z"/>
<path style="fill:#ed5fa0; stroke:none;" d="M372 172L370 176L374 177L372 172z"/>
<path style="fill:#a49e98; stroke:none;" d="M398.333 172.667L398.667 173.333L398.333 172.667z"/>
<path style="fill:#1b1919; stroke:none;" d="M345 213L337 209C338.515 207.215 337.852 206.205 337 204L336 208C330.178 196.069 345.89 181.708 352 173C340.118 178.587 320.698 212.214 345 213z"/>
<path style="fill:#5f3627; stroke:none;" d="M375 173L378 175L375 173z"/>
<path style="fill:#a36b80; stroke:none;" d="M380 173L380 176L380 173z"/>
<path style="fill:#ed5fa0; stroke:none;" d="M400 173L395 196C400.025 189.912 401.667 180.73 402 173L400 173z"/>
<path style="fill:#d4ccc7; stroke:none;" d="M411 173L412 174L411 173z"/>
<path style="fill:#e98f73; stroke:none;" d="M251 174L254 175L251 174M387 174L382 187L385 188L382 189L382 193C388.159 190.762 396.134 176.781 387 174z"/>
<path style="fill:#5f3627; stroke:none;" d="M398 174L399 178C399.553 175.992 399.303 175.668 398 174z"/>
<path style="fill:#913963; stroke:none;" d="M403.333 174.667L403.667 175.333L403.333 174.667M408 174L409 175L408 174z"/>
<path style="fill:#888987; stroke:none;" d="M410 174L411 175L410 174z"/>
<path style="fill:#e98f73; stroke:none;" d="M249.667 175.333L250.333 175.667L249.667 175.333z"/>
<path style="fill:#913963; stroke:none;" d="M355 175L356 176L355 175z"/>
<path style="fill:#a49e98; stroke:none;" d="M358 175L358 178L358 175z"/>
<path style="fill:#ecb0c9; stroke:none;" d="M364 175L361 187C362.954 183.522 365.159 178.93 364 175z"/>
<path style="fill:#ed5fa0; stroke:none;" d="M365 175L365 178L365 175z"/>
<path style="fill:#724c25; stroke:none;" d="M377 175L378 181L377 175z"/>
<path style="fill:#1b1919; stroke:none;" d="M407 175L407 177L409 175L407 175z"/>
<path style="fill:#888987; stroke:none;" d="M409 175L410 176L409 175z"/>
<path style="fill:#e98f73; stroke:none;" d="M244 177L249 177L244 177z"/>
<path style="fill:#5f3627; stroke:none;" d="M354 176L355 177L354 176z"/>
<path style="fill:#a36b80; stroke:none;" d="M363 176L364 177L363 176z"/>
<path style="fill:#e5a39b; stroke:none;" d="M383 176C379.968 182.652 371.301 197.513 379.513 204.218C387.285 210.563 394.276 187.832 395 183C389.241 189.505 389.224 199.5 381 204L380 183L384 185L383 176z"/>
<path style="fill:#913963; stroke:none;" d="M406 176L407 177L406 176z"/>
<path style="fill:#d4ccc7; stroke:none;" d="M408 176L409 177L408 176z"/>
<path style="fill:#ecb0c9; stroke:none;" d="M115 177L115 180L115 177z"/>
<path style="fill:#875e30; stroke:none;" d="M356 177L357 178L356 177z"/>
<path style="fill:#e5a39b; stroke:none;" d="M374 177L376 180L374 177z"/>
<path style="fill:#a49e98; stroke:none;" d="M379.333 177.667L379.667 178.333L379.333 177.667z"/>
<path style="fill:#1b1919; stroke:none;" d="M398.333 177.667L398.667 178.333L398.333 177.667z"/>
<path style="fill:#5f3627; stroke:none;" d="M401 181C403.802 180.084 405.32 179.418 407 177C403.861 177.609 401.704 177.7 401 181z"/>
<path style="fill:#888987; stroke:none;" d="M407 177L408 178L407 177z"/>
<path style="fill:#e98f73; stroke:none;" d="M239 179L244 179L239 179z"/>
<path style="fill:#a36b80; stroke:none;" d="M355 178L356 179L355 178z"/>
<path style="fill:#5f3627; stroke:none;" d="M361.667 178.333L362.333 178.667L361.667 178.333z"/>
<path style="fill:#a36b80; stroke:none;" d="M364.333 178.667L364.667 179.333L364.333 178.667z"/>
<path style="fill:#724c25; stroke:none;" d="M365 178L365 181L365 178z"/>
<path style="fill:#e98f73; stroke:none;" d="M366 178L365 190L369 178L366 178z"/>
<path style="fill:#724c25; stroke:none;" d="M387.667 178.333L388.333 178.667L387.667 178.333z"/>
<path style="fill:#888987; stroke:none;" d="M406 178L407 179L406 178z"/>
<path style="fill:#5f3627; stroke:none;" d="M344 179L345 180L344 179z"/>
<path style="fill:#a36b80; stroke:none;" d="M354 179L355 180L354 179z"/>
<path style="fill:#913963; stroke:none;" d="M359 179L360 183L359 179z"/>
<path style="fill:#1b1919; stroke:none;" d="M361 179L361 182L361 179M387.667 179.333L388.333 179.667L387.667 179.333z"/>
<path style="fill:#6f6d6d; stroke:none;" d="M397.333 179.667L397.667 180.333L397.333 179.667z"/>
<path style="fill:#5f3627; stroke:none;" d="M398 179L398 182L398 179z"/>
<path style="fill:#d4ccc7; stroke:none;" d="M115 180L115 183L115 180z"/>
<path style="fill:#e98f73; stroke:none;" d="M234 181L239 181L234 181z"/>
<path style="fill:#d4ccc7; stroke:none;" d="M343 180L344 181L343 180z"/>
<path style="fill:#a36b80; stroke:none;" d="M353 180L354 181L353 180z"/>
<path style="fill:#875e30; stroke:none;" d="M357 180L358 181L357 180z"/>
<path style="fill:#5f3627; stroke:none;" d="M364.333 180.667L364.667 181.333L364.333 180.667z"/>
<path style="fill:#a36b80; stroke:none;" d="M375 180L375 183L375 180z"/>
<path style="fill:#1b1919; stroke:none;" d="M377.333 180.667L377.667 181.333L377.333 180.667z"/>
<path style="fill:#875e30; stroke:none;" d="M386 182L389 180L386 182z"/>
<path style="fill:#1b1919; stroke:none;" d="M402 180L400 187L404 180L402 180z"/>
<path style="fill:#d4ccc7; stroke:none;" d="M404 180L405 181L404 180z"/>
<path style="fill:#a36b80; stroke:none;" d="M352 181L353 182L352 181z"/>
<path style="fill:#5f3627; stroke:none;" d="M356 181L356 183L358 183L356 181z"/>
<path style="fill:#a49e98; stroke:none;" d="M363 181L364 182L363 181z"/>
<path style="fill:#e98f73; stroke:none;" d="M378.333 181.667L378.667 182.333L378.333 181.667z"/>
<path style="fill:#1b1919; stroke:none;" d="M397.333 181.667L397.667 182.333L397.333 181.667z"/>
<path style="fill:#a49e98; stroke:none;" d="M403 181L404 182L403 181z"/>
<path style="fill:#e98f73; stroke:none;" d="M116 182L116 185L116 182M229 183L234 183L229 183z"/>
<path style="fill:#5f3627; stroke:none;" d="M350 182L349 185L350 182z"/>
<path style="fill:#a36b80; stroke:none;" d="M351 182L352 183L351 182M354 182L356 184L354 182z"/>
<path style="fill:#1b1919; stroke:none;" d="M355 182L356 183L355 182z"/>
<path style="fill:#6f6d6d; stroke:none;" d="M363 182L362 190L365 182L363 182z"/>
<path style="fill:#ed5fa0; stroke:none;" d="M369 182C366.761 187.934 366.004 193.689 366 200L371 197L367 198L369 182z"/>
<path style="fill:#e98f73; stroke:none;" d="M372 182L372 187L374 187L372 182z"/>
<path style="fill:#5f3627; stroke:none;" d="M376 182L377 185L378 182L376 182z"/>
<path style="fill:#d4ccc7; stroke:none;" d="M402.333 182.667L402.667 183.333L402.333 182.667z"/>
<path style="fill:#6f6d6d; stroke:none;" d="M341 183L342 184L341 183z"/>
<path style="fill:#724c25; stroke:none;" d="M353 183L354 184L353 183z"/>
<path style="fill:#1b1919; stroke:none;" d="M354 183L355 184L354 183z"/>
<path style="fill:#a49e98; stroke:none;" d="M375.333 183.667L375.667 184.333L375.333 183.667z"/>
<path style="fill:#1b1919; stroke:none;" d="M376 183L375 186C376.766 185.021 376.955 184.778 376 183z"/>
<path style="fill:#a36b80; stroke:none;" d="M396.333 183.667L396.667 184.333L396.333 183.667z"/>
<path style="fill:#5f3627; stroke:none;" d="M397.333 183.667L397.667 184.333L397.333 183.667z"/>
<path style="fill:#913963; stroke:none;" d="M400.333 183.667L400.667 184.333L400.333 183.667z"/>
<path style="fill:#e98f73; stroke:none;" d="M224 185L229 185L224 185z"/>
<path style="fill:#a49e98; stroke:none;" d="M340 184L341 185L340 184z"/>
<path style="fill:#e5a39b; stroke:none;" d="M348 184L349 185L348 184z"/>
<path style="fill:#ed5fa0; stroke:none;" d="M350 184L350 189L350 184z"/>
<path style="fill:#a36b80; stroke:none;" d="M352 184L353 185L352 184z"/>
<path style="fill:#1b1919; stroke:none;" d="M353 184L352 186L353 184z"/>
<path style="fill:#ed5fa0; stroke:none;" d="M359 184L360 185L359 184M381 184L381 194L385 192L382 193L385 189C383.62 187.207 382.63 186.957 384 185L381 184z"/>
<path style="fill:#5f3627; stroke:none;" d="M345 185L346 186L345 185z"/>
<path style="fill:#e5a39b; stroke:none;" d="M347 185L348 186L347 185z"/>
<path style="fill:#ed5fa0; stroke:none;" d="M353 185L351 192C354.557 190.762 355.204 188.636 355 185L353 185z"/>
<path style="fill:#913963; stroke:none;" d="M359 185L360 186L359 185z"/>
<path style="fill:#a36b80; stroke:none;" d="M377.333 185.667L377.667 186.333L377.333 185.667z"/>
<path style="fill:#913963; stroke:none;" d="M396 185L396 189L398 185L396 185z"/>
<path style="fill:#a49e98; stroke:none;" d="M401.333 185.667L401.667 186.333L401.333 185.667z"/>
<path style="fill:#e98f73; stroke:none;" d="M219 187L224 187L219 187z"/>
<path style="fill:#6f6d6d; stroke:none;" d="M339 186L340 187L339 186z"/>
<path style="fill:#a36b80; stroke:none;" d="M346 186L347 187L346 186z"/>
<path style="fill:#5f3627; stroke:none;" d="M347 186L348 187L347 186z"/>
<path style="fill:#1b1919; stroke:none;" d="M351 186L352 187L351 186z"/>
<path style="fill:#875e30; stroke:none;" d="M376.333 186.667L376.667 187.333L376.333 186.667z"/>
<path style="fill:#ecb0c9; stroke:none;" d="M117 187L117 190L117 187z"/>
<path style="fill:#d4ccc7; stroke:none;" d="M221.667 187.333L222.333 187.667L221.667 187.333z"/>
<path style="fill:#ed5fa0; stroke:none;" d="M348 187L343 199L344 197L346 202L354 199L346 200C346.784 195.603 350.253 191.19 348 187z"/>
<path style="fill:#a36b80; stroke:none;" d="M395.333 187.667L395.667 188.333L395.333 187.667z"/>
<path style="fill:#5f3627; stroke:none;" d="M399 187L399 189L401 189L401 187L399 187z"/>
<path style="fill:#e98f73; stroke:none;" d="M214 189L219 189L214 189z"/>
<path style="fill:#1b1919; stroke:none;" d="M357.333 188.667L357.667 189.333L357.333 188.667z"/>
<path style="fill:#724c25; stroke:none;" d="M359 188L360 189L359 188z"/>
<path style="fill:#e5a39b; stroke:none;" d="M374 188L371 199C373.305 195.906 374.873 191.826 374 188z"/>
<path style="fill:#1b1919; stroke:none;" d="M376 188L377 189L376 188z"/>
<path style="fill:#e98f73; stroke:none;" d="M118 189L118 192L118 189z"/>
<path style="fill:#a49e98; stroke:none;" d="M337 189L338 190L337 189z"/>
<path style="fill:#913963; stroke:none;" d="M339 189L340 190L339 189M342 189L343 190L342 189z"/>
<path style="fill:#e5a39b; stroke:none;" d="M344 189L341 196C343.132 193.815 344.659 192.067 344 189z"/>
<path style="fill:#a36b80; stroke:none;" d="M345 189L346 190L345 189z"/>
<path style="fill:#724c25; stroke:none;" d="M375 189L377 192L377 189L375 189z"/>
<path style="fill:#5f3627; stroke:none;" d="M395.333 189.667L395.667 190.333L395.333 189.667z"/>
<path style="fill:#1b1919; stroke:none;" d="M399 189L400 190L399 189z"/>
<path style="fill:#d4ccc7; stroke:none;" d="M400.333 189.667L400.667 190.333L400.333 189.667z"/>
<path style="fill:#e98f73; stroke:none;" d="M209 191L214 191L209 191z"/>
<path style="fill:#5f3627; stroke:none;" d="M343 190L344 191L343 190z"/>
<path style="fill:#a36b80; stroke:none;" d="M356.667 190.333L357.333 190.667L356.667 190.333z"/>
<path style="fill:#875e30; stroke:none;" d="M359 190L360 191L359 190z"/>
<path style="fill:#5f3627; stroke:none;" d="M361.333 190.667L361.667 191.333L361.333 190.667z"/>
<path style="fill:#e5a39b; stroke:none;" d="M362.333 190.667L362.667 191.333L362.333 190.667M364 190L363 199C365.148 196.164 365.378 193.292 364 190z"/>
<path style="fill:#a36b80; stroke:none;" d="M374 190L374 193L374 190z"/>
<path style="fill:#724c25; stroke:none;" d="M398 190L400 192L400 190L398 190z"/>
<path style="fill:#d4ccc7; stroke:none;" d="M211.667 191.333L212.333 191.667L211.667 191.333z"/>
<path style="fill:#a49e98; stroke:none;" d="M336 191L337 192L336 191z"/>
<path style="fill:#913963; stroke:none;" d="M338 191L339 192L338 191z"/>
<path style="fill:#5f3627; stroke:none;" d="M356 191L357 192L356 191z"/>
<path style="fill:#a36b80; stroke:none;" d="M358.333 191.667L358.667 192.333L358.333 191.667z"/>
<path style="fill:#1b1919; stroke:none;" d="M375 191C372.499 197.88 369.872 202.271 362 201C366.936 207.282 374.819 198.711 375 199C376.161 196.23 376.161 193.77 375 191z"/>
<path style="fill:#913963; stroke:none;" d="M394 191L394 193L396 193L396 191L394 191z"/>
<path style="fill:#1b1919; stroke:none;" d="M398 191L397 195L398 191z"/>
<path style="fill:#e98f73; stroke:none;" d="M119 192L119 195L119 192M207.667 192.333L208.333 192.667L207.667 192.333z"/>
<path style="fill:#913963; stroke:none;" d="M340 192L341 193L340 192z"/>
<path style="fill:#e98f73; stroke:none;" d="M355 192L354 195L355 192z"/>
<path style="fill:#a36b80; stroke:none;" d="M376.333 192.667L376.667 193.333L376.333 192.667z"/>
<path style="fill:#e98f73; stroke:none;" d="M204.667 193.333L205.333 193.667L204.667 193.333z"/>
<path style="fill:#d4ccc7; stroke:none;" d="M206.667 193.333L207.333 193.667L206.667 193.333z"/>
<path style="fill:#5f3627; stroke:none;" d="M341 193L342 194L341 193z"/>
<path style="fill:#a36b80; stroke:none;" d="M343 193L344 194L343 193z"/>
<path style="fill:#ed5fa0; stroke:none;" d="M350 193C350.578 195.697 351.261 195.789 354 196L350 193z"/>
<path style="fill:#5f3627; stroke:none;" d="M361 193L362 194L361 193z"/>
<path style="fill:#ed5fa0; stroke:none;" d="M368 193L368 195L370 193L368 193z"/>
<path style="fill:#1b1919; stroke:none;" d="M394 193L395 194L394 193z"/>
<path style="fill:#888987; stroke:none;" d="M398 193L399 194L398 193z"/>
<path style="fill:#e98f73; stroke:none;" d="M202.667 194.333L203.333 194.667L202.667 194.333z"/>
<path style="fill:#724c25; stroke:none;" d="M342.333 194.667L342.667 195.333L342.333 194.667z"/>
<path style="fill:#888987; stroke:none;" d="M360 194L359 197L362 197L360 194z"/>
<path style="fill:#1b1919; stroke:none;" d="M361 194L362 195L361 194z"/>
<path style="fill:#5f3627; stroke:none;" d="M373.333 194.667L373.667 195.333L373.333 194.667M376.333 194.667L376.667 195.333L376.333 194.667z"/>
<path style="fill:#888987; stroke:none;" d="M393 194L394 195L393 194z"/>
<path style="fill:#913963; stroke:none;" d="M394 194L393 196L395 196L394 194z"/>
<path style="fill:#5f3627; stroke:none;" d="M396 194L396 196L398 196L396 194z"/>
<path style="fill:#d4ccc7; stroke:none;" d="M398.333 194.667L398.667 195.333L398.333 194.667z"/>
<path style="fill:#e98f73; stroke:none;" d="M120.333 195.667L120.667 196.333L120.333 195.667M199 195L202 196L199 195z"/>
<path style="fill:#5f3627; stroke:none;" d="M340 195L341 198L340 195z"/>
<path style="fill:#e98f73; stroke:none;" d="M197.667 196.333L198.333 196.667L197.667 196.333z"/>
<path style="fill:#6f6d6d; stroke:none;" d="M334 196L335 197L334 196z"/>
<path style="fill:#913963; stroke:none;" d="M336 196L337 197L336 196z"/>
<path style="fill:#e98f73; stroke:none;" d="M340.333 196.667L340.667 197.333L340.333 196.667z"/>
<path style="fill:#a36b80; stroke:none;" d="M376 196L376 199L376 196M392 196L393 197L392 196z"/>
<path style="fill:#1b1919; stroke:none;" d="M393 196L392 199L393 196z"/>
<path style="fill:#a36b80; stroke:none;" d="M394 196L391 198L392 201L396 196L394 196z"/>
<path style="fill:#1b1919; stroke:none;" d="M396 196L392 203C394.782 201.345 396.371 199.308 396 196z"/>
<path style="fill:#888987; stroke:none;" d="M397 196L398 197L397 196z"/>
<path style="fill:#d4ccc7; stroke:none;" d="M120.333 197.667L120.667 198.333L120.333 197.667z"/>
<path style="fill:#e98f73; stroke:none;" d="M194 197L197 198L194 197z"/>
<path style="fill:#5f3627; stroke:none;" d="M339 197L340 198L339 197M358 197L359 198L358 197z"/>
<path style="fill:#1b1919; stroke:none;" d="M359 200C361.332 199.523 361.624 199.353 362 197L359 200z"/>
<path style="fill:#5f3627; stroke:none;" d="M374 197L373 201L378 203L374 197M395 197L396 198L395 197z"/>
<path style="fill:#e98f73; stroke:none;" d="M192.667 198.333L193.333 198.667L192.667 198.333z"/>
<path style="fill:#1b1919; stroke:none;" d="M338 198L339 202L341 198C339.387 198.982 339.507 199.11 338 198z"/>
<path style="fill:#e5a39b; stroke:none;" d="M339.333 198.667L339.667 199.333L339.333 198.667z"/>
<path style="fill:#1b1919; stroke:none;" d="M357 198L353 203L357 198z"/>
<path style="fill:#e5a39b; stroke:none;" d="M358 198L353 204L360 203L361 199L358 198z"/>
<path style="fill:#a36b80; stroke:none;" d="M359 198L360 199L359 198z"/>
<path style="fill:#a49e98; stroke:none;" d="M396 198L397 199L396 198z"/>
<path style="fill:#e98f73; stroke:none;" d="M187 200L192 200L187 200z"/>
<path style="fill:#a49e98; stroke:none;" d="M333 199L334 200L333 199z"/>
<path style="fill:#a36b80; stroke:none;" d="M362 199L363 200L362 199z"/>
<path style="fill:#6f6d6d; stroke:none;" d="M371 199L372 200L371 199z"/>
<path style="fill:#5f3627; stroke:none;" d="M391.333 199.667L391.667 200.333L391.333 199.667z"/>
<path style="fill:#724c25; stroke:none;" d="M395 199L396 200L395 199z"/>
<path style="fill:#875e30; stroke:none;" d="M338 200L339 201L338 200z"/>
<path style="fill:#5f3627; stroke:none;" d="M358 200L357 202L358 200z"/>
<path style="fill:#724c25; stroke:none;" d="M361.667 200.333L362.333 200.667L361.667 200.333z"/>
<path style="fill:#a49e98; stroke:none;" d="M374 200L375 201L374 200z"/>
<path style="fill:#888987; stroke:none;" d="M375.333 200.667L375.667 201.333L375.333 200.667z"/>
<path style="fill:#a36b80; stroke:none;" d="M390 200L391 201L390 200z"/>
<path style="fill:#5f3627; stroke:none;" d="M393 200L394 201L393 200z"/>
<path style="fill:#a49e98; stroke:none;" d="M395 200L396 201L395 200z"/>
<path style="fill:#e98f73; stroke:none;" d="M184 201L187 202L184 201z"/>
<path style="fill:#1b1919; stroke:none;" d="M337 201L339 204L337 201z"/>
<path style="fill:#e5a39b; stroke:none;" d="M338 201L339 202L338 201z"/>
<path style="fill:#a49e98; stroke:none;" d="M361 201L362 202L361 201M364 201L365 202L364 201z"/>
<path style="fill:#6f6d6d; stroke:none;" d="M368 201L369 202L368 201z"/>
<path style="fill:#888987; stroke:none;" d="M372 201L373 202L372 201z"/>
<path style="fill:#a36b80; stroke:none;" d="M377 201L378 202L377 201z"/>
<path style="fill:#724c25; stroke:none;" d="M387 204L391 206L393 204L393 201L387 204z"/>
<path style="fill:#d4ccc7; stroke:none;" d="M122.333 202.667L122.667 203.333L122.333 202.667z"/>
<path style="fill:#e98f73; stroke:none;" d="M182.667 202.333L183.333 202.667L182.667 202.333z"/>
<path style="fill:#5f3627; stroke:none;" d="M338 202L339 203L338 202z"/>
<path style="fill:#a36b80; stroke:none;" d="M339 202L340 203L339 202z"/>
<path style="fill:#ed5fa0; stroke:none;" d="M341 202L341 206L341 202z"/>
<path style="fill:#a36b80; stroke:none;" d="M358 202L357 204L358 202z"/>
<path style="fill:#6f6d6d; stroke:none;" d="M362 202L363 203L362 202z"/>
<path style="fill:#888987; stroke:none;" d="M371 202L372 203L371 202z"/>
<path style="fill:#d4ccc7; stroke:none;" d="M375 202L376 203L375 202z"/>
<path style="fill:#888987; stroke:none;" d="M389 202L390 203L389 202z"/>
<path style="fill:#e98f73; stroke:none;" d="M177 204L182 204L177 204z"/>
<path style="fill:#724c25; stroke:none;" d="M332 203L333 204L332 203z"/>
<path style="fill:#6f6d6d; stroke:none;" d="M336 203L339 205L336 203z"/>
<path style="fill:#724c25; stroke:none;" d="M351.667 203.333L352.333 203.667L351.667 203.333z"/>
<path style="fill:#1b1919; stroke:none;" d="M358 203L359 204L358 203z"/>
<path style="fill:#6f6d6d; stroke:none;" d="M364.667 203.333L365.333 203.667L364.667 203.333z"/>
<path style="fill:#888987; stroke:none;" d="M369 203L370 204L369 203z"/>
<path style="fill:#a49e98; stroke:none;" d="M376 203L377 204L376 203z"/>
<path style="fill:#1b1919; stroke:none;" d="M377 203L378 204L377 203z"/>
<path style="fill:#a49e98; stroke:none;" d="M393 203L394 204L393 203z"/>
<path style="fill:#e5a39b; stroke:none;" d="M337 204L338 205L337 204z"/>
<path style="fill:#a36b80; stroke:none;" d="M350 204L351 205L350 204z"/>
<path style="fill:#ed5fa0; stroke:none;" d="M350 207L355 204C352.355 204.427 351.539 204.821 350 207z"/>
<path style="fill:#6f6d6d; stroke:none;" d="M356 204L355 206L357 206L356 204z"/>
<path style="fill:#1b1919; stroke:none;" d="M357 204L358 205L357 204z"/>
<path style="fill:#a49e98; stroke:none;" d="M367.667 204.333L368.333 204.667L367.667 204.333z"/>
<path style="fill:#5f3627; stroke:none;" d="M377.667 204.333L378.333 204.667L377.667 204.333z"/>
<path style="fill:#a49e98; stroke:none;" d="M391.667 204.333L392.333 204.667L391.667 204.333z"/>
<path style="fill:#e98f73; stroke:none;" d="M174 205L177 206L174 205z"/>
<path style="fill:#888987; stroke:none;" d="M378 205L379 206L378 205z"/>
<path style="fill:#875e30; stroke:none;" d="M379 205L381 207L381 205L379 205z"/>
<path style="fill:#a36b80; stroke:none;" d="M383.667 205.333L384.333 205.667L383.667 205.333z"/>
<path style="fill:#1b1919; stroke:none;" d="M381 206L390 206L381 206z"/>
<path style="fill:#e98f73; stroke:none;" d="M124.333 206.667L124.667 207.333L124.333 206.667M172.667 206.333L173.333 206.667L172.667 206.333z"/>
<path style="fill:#d4ccc7; stroke:none;" d="M332 206L333 207L332 206z"/>
<path style="fill:#ed5fa0; stroke:none;" d="M343 207L345 208L341 209C344.228 210.248 346.828 209.155 350 208L345 208L347 207L343 207z"/>
<path style="fill:#5f3627; stroke:none;" d="M354 206L355 207L354 206z"/>
<path style="fill:#d4ccc7; stroke:none;" d="M355 206L356 207L355 206z"/>
<path style="fill:#a49e98; stroke:none;" d="M379 206L380 207L379 206z"/>
<path style="fill:#6f6d6d; stroke:none;" d="M386.667 206.333L387.333 206.667L386.667 206.333z"/>
<path style="fill:#a49e98; stroke:none;" d="M388 206L389 207L388 206z"/>
<path style="fill:#e98f73; stroke:none;" d="M167 208L172 208L167 208z"/>
<path style="fill:#1b1919; stroke:none;" d="M353 207L354 208L353 207z"/>
<path style="fill:#d4ccc7; stroke:none;" d="M381 207L382 208L381 207z"/>
<path style="fill:#5f3627; stroke:none;" d="M382.667 207.333L383.333 207.667L382.667 207.333z"/>
<path style="fill:#a49e98; stroke:none;" d="M384.667 207.333L385.333 207.667L384.667 207.333z"/>
<path style="fill:#d4ccc7; stroke:none;" d="M386.667 207.333L387.333 207.667L386.667 207.333z"/>
<path style="fill:#e98f73; stroke:none;" d="M119 209L123 209L119 209z"/>
<path style="fill:#6f6d6d; stroke:none;" d="M352 208L353 209L352 208z"/>
<path style="fill:#e98f73; stroke:none;" d="M162 210L167 210L162 210z"/>
<path style="fill:#724c25; stroke:none;" d="M335 209L336 210L335 209z"/>
<path style="fill:#a36b80; stroke:none;" d="M339.667 209.333L340.333 209.667L339.667 209.333z"/>
<path style="fill:#1b1919; stroke:none;" d="M350 209L351 210L350 209z"/>
<path style="fill:#e98f73; stroke:none;" d="M117.667 210.333L118.333 210.667L117.667 210.333z"/>
<path style="fill:#d4ccc7; stroke:none;" d="M164.667 210.333L165.333 210.667L164.667 210.333z"/>
<path style="fill:#6f6d6d; stroke:none;" d="M336 210L337 211L336 210z"/>
<path style="fill:#1b1919; stroke:none;" d="M346 211L350 211L346 211z"/>
<path style="fill:#e98f73; stroke:none;" d="M157 212L162 212L157 212z"/>
<path style="fill:#a49e98; stroke:none;" d="M337 211L338 212L337 211z"/>
<path style="fill:#a36b80; stroke:none;" d="M339 211L340 212L339 211z"/>
<path style="fill:#6f6d6d; stroke:none;" d="M345.333 211.667L345.667 212.333L345.333 211.667z"/>
<path style="fill:#888987; stroke:none;" d="M348 211L349 212L348 211z"/>
<path style="fill:#d4ccc7; stroke:none;" d="M114 212L115 213L114 212M338 212L339 213L338 212z"/>
<path style="fill:#e5a39b; stroke:none;" d="M155.667 213.333L156.333 213.667L155.667 213.333z"/>
<path style="fill:#a49e98; stroke:none;" d="M340 213L343 214L340 213z"/>
<path style="fill:#e98f73; stroke:none;" d="M152 214L155 215L152 214M112 215L112 219L112 215M147 216L152 216L147 216z"/>
<path style="fill:#d4ccc7; stroke:none;" d="M149.667 216.333L150.333 216.667L149.667 216.333z"/>
<path style="fill:#e5a39b; stroke:none;" d="M145.667 217.333L146.333 217.667L145.667 217.333M140 219L145 219L140 219z"/>
<path style="fill:#d4ccc7; stroke:none;" d="M112.333 219.667L112.667 220.333L112.333 219.667z"/>
<path style="fill:#e5a39b; stroke:none;" d="M113.333 220.667L113.667 221.333L113.333 220.667z"/>
<path style="fill:#e98f73; stroke:none;" d="M137 220L140 221L137 220z"/>
<path style="fill:#d4ccc7; stroke:none;" d="M207 220C212.951 222.497 221.58 221 228 221L274 221L433 221C427.049 218.503 418.42 220 412 220L366 220L207 220z"/>
<path style="fill:#e98f73; stroke:none;" d="M130 223L137 222L130 223z"/>
<path style="fill:#df5121; stroke:none;" d="M424 238C428.174 237.997 434.209 238.638 437.397 235.297C441.71 230.776 438.56 222.697 432.995 221.394C414.037 216.956 389.497 221 370 221L249 221L218 221C213.808 221 207.885 219.989 204.344 222.742C200.739 225.545 199.403 233.032 203.318 236.142L213.972 240.318C217.494 245.598 215 258.791 215 265C215 285.058 212.515 318.429 228.4 333.529C240.301 344.842 258.866 344 274 344L372 344C385.479 343.999 404.353 342.969 413.775 331.985C421.653 322.802 421.734 307.433 422.015 296L424 238z"/>
<path style="fill:#e5a39b; stroke:none;" d="M114.333 222.667L114.667 223.333L114.333 222.667M436 222L437 223L436 222z"/>
<path style="fill:#e98f73; stroke:none;" d="M202 223L201 226L202 223z"/>
<path style="fill:#d4ccc7; stroke:none;" d="M438 223L439 224L438 223z"/>
<path style="fill:#e5a39b; stroke:none;" d="M125 225L129 225L125 225z"/>
<path style="fill:#d4ccc7; stroke:none;" d="M129.667 224.333L130.333 224.667L129.667 224.333z"/>
<path style="fill:#e5a39b; stroke:none;" d="M439 225L439 235C440.346 231.793 440.346 228.207 439 225z"/>
<path style="fill:#e98f73; stroke:none;" d="M116 226L123 227L116 226z"/>
<path style="fill:#ecb0c9; stroke:none;" d="M123.667 226.333L124.333 226.667L123.667 226.333z"/>
<path style="fill:#d4ccc7; stroke:none;" d="M117 227L123 228L117 227z"/>
<path style="fill:#e5a39b; stroke:none;" d="M436.667 236.333L437.333 236.667L436.667 236.333z"/>
<path style="fill:#e98f73; stroke:none;" d="M204.667 237.333L205.333 237.667L204.667 237.333M433 237L436 238L433 237z"/>
<path style="fill:#d4ccc7; stroke:none;" d="M206.667 238.333L207.333 238.667L206.667 238.333z"/>
<path style="fill:#e5a39b; stroke:none;" d="M208 238L214 239L208 238z"/>
<path style="fill:#ecb0c9; stroke:none;" d="M424 238L424 247L425 239L432 239L424 238z"/>
<path style="fill:#d4ccc7; stroke:none;" d="M432.667 238.333L433.333 238.667L432.667 238.333z"/>
<path style="fill:#ecb0c9; stroke:none;" d="M214 239L214 262C216.284 256.557 216.284 244.443 214 239z"/>
<path style="fill:#d4ccc7; stroke:none;" d="M424 247L424 255C425.161 252.23 425.161 249.77 424 247z"/>
<path style="fill:#e98f73; stroke:none;" d="M423 258L423 271C424.591 267.209 424.591 261.791 423 258z"/>
<path style="fill:#d4ccc7; stroke:none;" d="M214 262L214 278C215.812 273.681 215.812 266.319 214 262z"/>
<path style="fill:#ecb0c9; stroke:none;" d="M423 271L423 284C424.591 280.209 424.591 274.791 423 271z"/>
<path style="fill:#e98f73; stroke:none;" d="M215 284L215 291C216.059 288.466 216.059 286.534 215 284M422 290L422 298C423.161 295.23 423.161 292.77 422 290z"/>
<path style="fill:#ecb0c9; stroke:none;" d="M215 291L215 295L215 291z"/>
<path style="fill:#e5a39b; stroke:none;" d="M216 298L216 303L216 298z"/>
<path style="fill:#ecb0c9; stroke:none;" d="M422 298L422 303L422 298z"/>
<path style="fill:#d4ccc7; stroke:none;" d="M216.333 303.667L216.667 304.333L216.333 303.667z"/>
<path style="fill:#e98f73; stroke:none;" d="M421 306L421 311L421 306z"/>
<path style="fill:#e5a39b; stroke:none;" d="M217 308L217 311L217 308z"/>
<path style="fill:#ed5fa0; stroke:none;" d="M218 311L218 314L218 311z"/>
<path style="fill:#d4ccc7; stroke:none;" d="M421.333 311.667L421.667 312.333L421.333 311.667M218.333 314.667L218.667 315.333L218.333 314.667z"/>
<path style="fill:#e98f73; stroke:none;" d="M420 314L420 317L420 314M219 316L219 319L219 316z"/>
<path style="fill:#d4ccc7; stroke:none;" d="M420.333 317.667L420.667 318.333L420.333 317.667z"/>
<path style="fill:#e5a39b; stroke:none;" d="M419.333 319.667L419.667 320.333L419.333 319.667z"/>
<path style="fill:#ecb0c9; stroke:none;" d="M220.333 320.667L220.667 321.333L220.333 320.667z"/>
<path style="fill:#d4ccc7; stroke:none;" d="M221.333 323.667L221.667 324.333L221.333 323.667M418.333 323.667L418.667 324.333L418.333 323.667M222.333 325.667L222.667 326.333L222.333 325.667z"/>
<path style="fill:#e5a39b; stroke:none;" d="M417.333 325.667L417.667 326.333L417.333 325.667M223 327L224 328L223 327z"/>
<path style="fill:#ecb0c9; stroke:none;" d="M416 328L417 329L416 328z"/>
<path style="fill:#e5a39b; stroke:none;" d="M225 330L226 331L225 330z"/>
<path style="fill:#e98f73; stroke:none;" d="M226 331L227 332L226 331z"/>
<path style="fill:#e5a39b; stroke:none;" d="M414 331L415 332L414 331z"/>
<path style="fill:#e98f73; stroke:none;" d="M227 332L228 333L227 332z"/>
<path style="fill:#e5a39b; stroke:none;" d="M413 332L414 333L413 332M412 333L413 334L412 333M411 334L412 335L411 334z"/>
<path style="fill:#e98f73; stroke:none;" d="M230.667 335.333L231.333 335.667L230.667 335.333z"/>
<path style="fill:#e5a39b; stroke:none;" d="M410 335L411 336L410 335z"/>
<path style="fill:#ecb0c9; stroke:none;" d="M233 337L234 338L233 337z"/>
<path style="fill:#e5a39b; stroke:none;" d="M407 337L408 338L407 337z"/>
<path style="fill:#e98f73; stroke:none;" d="M235.667 338.333L236.333 338.667L235.667 338.333M404.667 338.333L405.333 338.667L404.667 338.333z"/>
<path style="fill:#e5a39b; stroke:none;" d="M236.667 339.333L237.333 339.667L236.667 339.333z"/>
<path style="fill:#d4ccc7; stroke:none;" d="M403.667 339.333L404.333 339.667L403.667 339.333z"/>
<path style="fill:#e5a39b; stroke:none;" d="M239.667 340.333L240.333 340.667L239.667 340.333z"/>
<path style="fill:#d4ccc7; stroke:none;" d="M400.667 340.333L401.333 340.667L400.667 340.333z"/>
<path style="fill:#e5a39b; stroke:none;" d="M242.667 341.333L243.333 341.667L242.667 341.333z"/>
<path style="fill:#e98f73; stroke:none;" d="M394.667 341.333L395.333 341.667L394.667 341.333z"/>
<path style="fill:#e5a39b; stroke:none;" d="M396.667 341.333L397.333 341.667L396.667 341.333M246.667 342.333L247.333 342.667L246.667 342.333z"/>
<path style="fill:#e98f73; stroke:none;" d="M390 342L393 343L390 342z"/>
<path style="fill:#d4ccc7; stroke:none;" d="M393.667 342.333L394.333 342.667L393.667 342.333z"/>
<path style="fill:#e5a39b; stroke:none;" d="M250 343L254 344L250 343z"/>
<path style="fill:#e98f73; stroke:none;" d="M382 343L387 344L382 343z"/>
<path style="fill:#d4ccc7; stroke:none;" d="M387 343L390 344L387 343M215 353C225.061 342.362 254.893 348 269 348C258.021 343.393 238.943 346.999 227 347C221.316 347 216.069 346.297 215 353M272 353C276.733 345.93 285.328 348 293 348L349 348C353.065 348 369.932 345.683 371.654 350.259C372.852 353.441 367.893 353.898 365.999 353.981L345 354L326 354L296 354C303.259 359.499 322.003 356 331 356L427 356L427 354L378 354C379.126 346.939 385.144 348 391 348C403.054 348 419.228 345.074 430 351C427.186 346.183 422.031 347 417 347C405.71 346.999 383.069 342.709 374 350C370.526 344.642 358.794 347 353 347L293 347C286.118 347 272.716 343.811 272 353M446 347C455.79 351.108 472.366 347.999 483 348C488.223 348 495.629 346.9 495 354C500.104 352.906 496.86 347.88 493 347.111C478.555 344.236 460.756 347 446 347M499 353C504.352 345.006 517.339 348 526 348L600 348C593.322 345.198 583.216 347 576 347L522 347C514.925 347 499.736 343.552 499 353M604 347C613.56 351.011 629.613 348 640 348C630.44 343.989 614.387 347 604 347z"/>
<path style="fill:#888987; stroke:none;" d="M219 354C219.264 348.277 224.362 349.002 229 349L258 349C261.075 349.001 268.931 348.199 267 353C269.959 353.488 269.882 350.484 270 348L228 348C224.834 348 212.746 348.454 219 354z"/>
<path style="fill:#a49e98; stroke:none;" d="M275 354C275.374 345.891 292.035 349 298 349L372 349C365.322 346.198 355.216 348 348 348L294 348C290.916 348 266.983 346.89 275 354z"/>
<path style="fill:#888987; stroke:none;" d="M379 348C391.414 353.209 413.474 349 427 349C414.586 343.791 392.526 348 379 348M444 353L446 349L494 349C483.735 344.693 466.158 347.999 455 348C449.866 348 445.282 347.125 444 353z"/>
<path style="fill:#a49e98; stroke:none;" d="M502 354L501 349L600 349L600 353L601 348L523 348C519.774 348 493.904 346.82 502 354M603 348L603 353L605 348L603 348z"/>
<path style="fill:#888987; stroke:none;" d="M605 348C614.321 351.911 629.875 349 640 349C630.679 345.089 615.125 348 605 348z"/>
<path style="fill:#5f3627; stroke:none;" d="M218 353L219 350L264 350C254.688 346.093 239.109 348.999 229 349C224.46 349 219.655 348.013 218 353z"/>
<path style="fill:#1b1919; stroke:none;" d="M219 350L219 353L269 353C267.145 347.428 260.791 349.976 256 349.999L219 350z"/>
<path style="fill:#5f3627; stroke:none;" d="M274 353C282.19 349.862 291.331 351 300 351L346 351C352.136 351 367.839 353.762 372 349C348.562 353.351 321.832 350 298 350C292.191 350 276.041 346.91 274 353z"/>
<path style="fill:#6f6d6d; stroke:none;" d="M278 349C285.639 352.206 297.729 350 306 350L370 350C362.361 346.794 350.271 349 342 349L278 349M372 349L372 353L372 349z"/>
<path style="fill:#724c25; stroke:none;" d="M378 349L378 353L378 349z"/>
<path style="fill:#1b1919; stroke:none;" d="M379 349L379 353L427 353L427 349C411.919 350.906 394.001 351.785 379 349z"/>
<path style="fill:#5f3627; stroke:none;" d="M381 349C392.226 353.71 411.781 350 424 350C412.774 345.29 393.219 349 381 349z"/>
<path style="fill:#6f6d6d; stroke:none;" d="M427 349L427 353L378 353C382.72 354.981 388.92 354 394 354C405.282 354 417.99 355.621 429 353L427 349z"/>
<path style="fill:#a49e98; stroke:none;" d="M443 349C443.064 351.993 442.946 353.346 446 354L445 349L443 349z"/>
<path style="fill:#5f3627; stroke:none;" d="M446 349L446 353L446 349z"/>
<path style="fill:#1b1919; stroke:none;" d="M447 349L447 353L494 353L494 349C480.323 351.539 460.561 352.229 447 349z"/>
<path style="fill:#5f3627; stroke:none;" d="M448 349C459.463 353.81 479.52 350 492 350C480.537 345.19 460.48 349 448 349z"/>
<path style="fill:#724c25; stroke:none;" d="M494 349L494 353L494 349z"/>
<path style="fill:#888987; stroke:none;" d="M495 349L495 353L495 349z"/>
<path style="fill:#6f6d6d; stroke:none;" d="M501 349L501 353L502 350L566 350C576.976 350 589.288 348.45 600 351C595.929 346.341 580.985 349 575 349L501 349z"/>
<path style="fill:#5f3627; stroke:none;" d="M604 349L604 353L605 350L640 350C630.44 345.989 614.387 349 604 349M504 353C504 349.31 522.067 351 526 351C548.721 351 578.698 346.129 600 353C597.503 347.376 582.597 350 577 350L521 350C518.28 350 498.41 349.86 504 353z"/>
<path style="fill:#1b1919; stroke:none;" d="M605 350L605 353L640 353L640 350L605 350z"/>
<path style="fill:#a49e98; stroke:none;" d="M216.333 351.667L216.667 352.333L216.333 351.667z"/>
<path style="fill:#1b1919; stroke:none;" d="M276 351L276 353L372 353L372 351L276 351z"/>
<path style="fill:#a49e98; stroke:none;" d="M429.333 351.667L429.667 352.333L429.333 351.667z"/>
<path style="fill:#1b1919; stroke:none;" d="M503 351C508.902 355.472 521.772 353 529 353L598 353L598 351L503 351z"/>
<path style="fill:#6f6d6d; stroke:none;" d="M219 353C231.414 358.209 253.474 354 267 354C254.586 348.791 232.526 353 219 353z"/>
<path style="fill:#888987; stroke:none;" d="M275 353C280.959 355.5 289.564 354 296 354C290.041 351.5 281.436 353 275 353z"/>
<path style="fill:#6f6d6d; stroke:none;" d="M296 353C300.969 355.085 307.65 354 313 354L349 354C344.031 351.915 337.35 353 332 353L296 353z"/>
<path style="fill:#888987; stroke:none;" d="M349 353C355.445 355.704 365.032 354 372 354C365.555 351.296 355.968 353 349 353z"/>
<path style="fill:#a49e98; stroke:none;" d="M427.667 353.333L428.333 353.667L427.667 353.333z"/>
<path style="fill:#6f6d6d; stroke:none;" d="M446 353C458.652 358.309 481.212 354 495 354C482.348 348.691 459.788 353 446 353z"/>
<path style="fill:#888987; stroke:none;" d="M502 353C508.202 355.603 517.298 354 524 354C517.798 351.397 508.702 353 502 353z"/>
<path style="fill:#6f6d6d; stroke:none;" d="M524 353C528.969 355.085 535.65 354 541 354L576 354C571.031 351.915 564.35 353 559 353L524 353z"/>
<path style="fill:#888987; stroke:none;" d="M576 353C582.687 355.806 592.767 354 600 354C593.313 351.194 583.233 353 576 353z"/>
<path style="fill:#6f6d6d; stroke:none;" d="M604 353C613.56 357.011 629.613 354 640 354C630.44 349.989 614.387 353 604 353z"/>
<path style="fill:#d4ccc7; stroke:none;" d="M218 354C222.077 357.089 228.059 356 233 356L267 356L267 354L218 354M446 354C450.077 357.089 456.059 356 461 356L494 356L494 354L446 354M524 354C528.261 357.228 534.838 356 540 356L576 356L576 354L524 354M605 354C612.874 359.379 630.609 356 640 356L640 354L605 354M188 376C203.159 372.391 221.438 375 237 375L333 375L640 375C631.643 371.493 618.06 374 609 374L538 374L293 374L215 374C208.713 374 192.25 371.136 188 376z"/>
<path style="fill:#6f6d6d; stroke:none;" d="M188 376C202.777 378.306 219.95 376 235 376L334 376L640 376C630.211 371.892 613.634 375 603 375L519 375L292 375L222 375C211.338 375 198.242 372.973 188 376z"/>
<path style="fill:#1b1919; stroke:none;" d="M189 376C195.928 378.907 206.503 377 214 377C207.072 374.093 196.497 376 189 376z"/>
<path style="fill:#5f3627; stroke:none;" d="M214 376C219.462 378.292 227.113 377 233 377L274 377C268.538 374.708 260.887 376 255 376L214 376z"/>
<path style="fill:#1b1919; stroke:none;" d="M274 376C282.835 379.707 297.415 377 307 377L381 377L640 377C631.165 373.293 616.585 376 607 376L533 376L274 376z"/>
<path style="fill:#a49e98; stroke:none;" d="M188 377L189 378L188 377z"/>
<path style="fill:#888987; stroke:none;" d="M189 377C196.159 380.004 207.256 378 215 378L273 378C265.841 374.996 254.744 377 247 377L189 377z"/>
<path style="fill:#6f6d6d; stroke:none;" d="M273 377C281.835 380.707 296.415 378 306 378L381 378L640 378C631.165 374.293 616.585 377 607 377L532 377L273 377z"/>
<path style="fill:#d4ccc7; stroke:none;" d="M188 378C198.504 382.408 216.58 379 228 379L320 379L640 379C629.496 374.592 611.42 378 600 378L508 378L188 378z"/>
</svg>
