<?xml version="1.0" standalone="yes"?>
<svg xmlns="http://www.w3.org/2000/svg" width="640" height="480">
<path style="fill:#ffffff; stroke:none;" d="M0 0L0 480L640 480L640 0L0 0z"/>
<path style="fill:#e5f3f7; stroke:none;" d="M253 257C263.504 261.408 281.58 258 293 258L387 258C376.496 253.592 358.42 257 347 257L253 257z"/>
<path style="fill:#95c1c1; stroke:none;" d="M249 258C260.218 262.707 279.794 259 292 259L391 259C379.782 254.293 360.206 258 348 258L249 258z"/>
<path style="fill:#d4eaea; stroke:none;" d="M391 258L397 259L391 258z"/>
<path style="fill:#c8e6e5; stroke:none;" d="M243.667 259.333L244.333 259.667L243.667 259.333z"/>
<path style="fill:#83bfbf; stroke:none;" d="M291 339L353 338C353.001 324.296 362.152 325.029 372 318.087C385.546 308.538 410.121 280.594 400.397 261.434C397.585 255.893 375.602 259 370 259L277 259L252 259.001C248.918 259.017 244.444 258.556 243.318 262.228C237.357 281.67 255.038 305.306 269.09 316.395C279.815 324.86 291 323.684 291 339z"/>
<path style="fill:#cfe7e7; stroke:none;" d="M242 260L242 274C243.667 270.028 243.667 263.972 242 260M401 260L401 273C402.591 269.209 402.591 263.791 401 260z"/>
<path style="fill:#c7e3e1; stroke:none;" d="M245.333 283.667L245.667 284.333L245.333 283.667z"/>
<path style="fill:#b3dbdb; stroke:none;" d="M392.333 295.667L392.667 296.333L392.333 295.667z"/>
<path style="fill:#c7e3e1; stroke:none;" d="M252.333 297.667L252.667 298.333L252.333 297.667z"/>
<path style="fill:#c9dfdd; stroke:none;" d="M391.333 297.667L391.667 298.333L391.333 297.667z"/>
<path style="fill:#dbeff0; stroke:none;" d="M389 301L388 304L389 301z"/>
<path style="fill:#cfe7e7; stroke:none;" d="M256.333 303.667L256.667 304.333L256.333 303.667z"/>
<path style="fill:#a9d0cf; stroke:none;" d="M263 311L266 313L263 311z"/>
<path style="fill:#b7dfe1; stroke:none;" d="M357.667 325.333L358.333 325.667L357.667 325.333z"/>
<path style="fill:#b9d9db; stroke:none;" d="M287.667 326.333L288.333 326.667L287.667 326.333z"/>
<path style="fill:#c8e6e5; stroke:none;" d="M355.667 326.333L356.333 326.667L355.667 326.333M290 327L290 338C291.431 334.59 291.431 330.41 290 327z"/>
<path style="fill:#c1e5e5; stroke:none;" d="M353 327L353 338C354.431 334.59 354.431 330.41 353 327z"/>
<path style="fill:#a9d0cf; stroke:none;" d="M347 338L351 339L347 338z"/>
<path style="fill:#d4eaea; stroke:none;" d="M351.667 338.333L352.333 338.667L351.667 338.333z"/>
<path style="fill:#dbeff0; stroke:none;" d="M293 339L298 340L293 339z"/>
<path style="fill:#a9d0cf; stroke:none;" d="M298 339C309.701 343.91 330.258 340 343 340C331.299 335.09 310.742 339 298 339z"/>
<path style="fill:#d4eaea; stroke:none;" d="M343 339L349 340L343 339z"/>
<path style="fill:#c7b997; stroke:none;" d="M407 355L408 356L407 355z"/>
</svg>
