<?xml version="1.0" standalone="yes"?>
<svg xmlns="http://www.w3.org/2000/svg" width="640" height="480">
<path style="fill:#ffffff; stroke:none;" d="M0 0L0 480L640 480L640 0L477 0L427 0L404.213 0.317902C399.004 1.85873 394.669 12.9875 390.91 16.9962C382.616 25.8398 372.186 31.6604 361 36L361 31C335.296 49.2578 333.733 77.9568 334.961 106C336.057 131.035 339.088 156.552 344.884 181C347.771 193.174 357.04 209.672 355.822 222C353.016 250.39 306.288 244.529 291 232C306.452 238.989 343.708 250.891 352.991 228C356.512 219.317 352.062 210.122 349.355 202L340.424 166C336.54 144.466 334.401 122.767 332.91 101C332.273 91.6892 330.359 81.1519 333.043 72C337.819 55.7179 349.592 43.5142 359 30L350 27C352.781 19.8229 349.792 12.5435 346 6C353.337 2.72308 346.949 0.0348206 342 0.000762939L310 0C309.718 8.66211 302.173 6.38724 300 13C316.939 17.76 330.013 11.5702 346 7C331.293 16.3533 315.379 17.7892 299 14L299 22L293 22L297 37C283.008 34.2957 272.798 25.2224 263.039 15C259.302 11.0846 255.24 1.79779 249.896 0.317902C242.563 -1.71259 232.598 0 225 0L172 0L0 0z"/>
<path style="fill:#bd8b66; stroke:none;" d="M252 0L254 4C254.369 1.77737 253.86 1.26547 252 0z"/>
<path style="fill:#e5c1a8; stroke:none;" d="M254 0L254 5C257.406 6.05725 259.08 9.07831 261 12L264 11C270.874 22.7141 285.478 21.2155 297 21L299.028 10.3032C302.398 5.0921 307.742 7.77423 308 0L254 0z"/>
<path style="fill:#bd8b66; stroke:none;" d="M308 0C307.413 7.60098 300.018 5.86047 298 12C302.911 8.74222 313.285 7.78488 308 0z"/>
<path style="fill:#e3d7c7; stroke:none;" d="M309.333 0.666656L309.667 1.33334L309.333 0.666656z"/>
<path style="fill:#b77d54; stroke:none;" d="M349 0L348 14C349.715 9.56244 353.989 2.93887 349 0z"/>
<path style="fill:#cfb29d; stroke:none;" d="M351 0L350 10C367.477 12.2087 382.137 5.15488 399 5C400.01 1.9704 399.923 1.48083 402 2C399.03 -1.39862 392.241 0 388 0L351 0z"/>
<path style="fill:#b77d54; stroke:none;" d="M400.333 1.66666L400.667 2.33334L400.333 1.66666z"/>
<path style="fill:#e5c1a8; stroke:none;" d="M350 3L351 4L350 3z"/>
<path style="fill:#bd8b66; stroke:none;" d="M399 3L396 10L401 3L399 3z"/>
<path style="fill:#c4a592; stroke:none;" d="M255.333 4.66666L255.667 5.33334L255.333 4.66666M396 4C384.49 10.0436 360.738 14.8461 349 8L350 17C354.865 18.4417 353.393 22.1228 352 26C356.599 27.7843 361.42 28.9504 363 34C371.439 31.1263 381.003 26.2172 387.978 20.6512L397 11L396 4z"/>
<path style="fill:#b77d54; stroke:none;" d="M256.333 5.66666L256.667 6.33334L256.333 5.66666z"/>
<path style="fill:#bda8a1; stroke:none;" d="M346 6L349 8L348 5L346 6z"/>
<path style="fill:#d1c0b9; stroke:none;" d="M256 7L257 8L256 7z"/>
<path style="fill:#bd8b66; stroke:none;" d="M257 7C260.958 16.3478 271.524 26.3552 281 30C274.67 22.2238 264.973 13.0973 257 7z"/>
<path style="fill:#bda8a1; stroke:none;" d="M318 15C325.997 18.262 338.77 11.4219 346 8C339.182 6.12924 325.443 13.5565 318 15M299 10C299.982 15.6716 304.995 15.8934 310 16L299 10z"/>
<path style="fill:#c4a592; stroke:none;" d="M346.333 10.6667L346.667 11.3333L346.333 10.6667z"/>
<path style="fill:#d1c0b9; stroke:none;" d="M259 11L260 12L259 11z"/>
<path style="fill:#cfb29d; stroke:none;" d="M262 11C265.79 19.1271 277.469 23.0336 280 31L295 35L291 21C278.944 23.2903 271.886 15.6703 262 11z"/>
<path style="fill:#b77d54; stroke:none;" d="M394 11L392 15C393.63 13.4851 394.163 13.1447 394 11M298 12L298 18C298.951 15.7147 298.951 14.2853 298 12z"/>
<path style="fill:#e5c1a8; stroke:none;" d="M348 14L349 15L348 14z"/>
<path style="fill:#d1c0b9; stroke:none;" d="M393 14L394 15L393 14M307 16L318 17L318 15L307 16z"/>
<path style="fill:#e3d7c7; stroke:none;" d="M336 15C325.592 68.6687 320.136 126.684 327 181C330.9 171.619 326 153.468 326 143C326 114.615 327.69 86.1696 331.285 58C332.715 46.7978 340.074 25.4373 336 15z"/>
<path style="fill:#b77d54; stroke:none;" d="M351 16C352.011 20.2102 350.969 22.9143 350 27L362 31L361 36C369.651 33.6339 379.431 29.2155 385 22L363 34C362.057 28.5192 356.856 27.3281 352 26C354.317 21.6967 354.944 19.3312 351 16z"/>
<path style="fill:#bd8b66; stroke:none;" d="M297 18L298 22L299 18L297 18z"/>
<path style="fill:#b77d54; stroke:none;" d="M291 21L295 35L281 30C291.61 41.484 298.057 34.7523 292 22L298 22L291 21z"/>
<path style="fill:#c4a592; stroke:none;" d="M292.333 22.6667L292.667 23.3333L292.333 22.6667z"/>
<path style="fill:#e5c1a8; stroke:none;" d="M273 25L274 26L273 25z"/>
<path style="fill:#d1c0b9; stroke:none;" d="M277 28L278 29L277 28M352 40L360 31C355.814 32.97 353.49 35.6202 352 40z"/>
<path style="fill:#c4a592; stroke:none;" d="M361.333 31.6667L361.667 32.3333L361.333 31.6667z"/>
<path style="fill:#d1c0b9; stroke:none;" d="M283 32L284 33L283 32z"/>
<path style="fill:#bda8a1; stroke:none;" d="M296 33L296 37L296 33z"/>
<path style="fill:#e5c1a8; stroke:none;" d="M288 35L289 36L288 35M290 36L291 37L290 36z"/>
<path style="fill:#cfb29d; stroke:none;" d="M297 37C302.878 50.9054 312.972 60.4416 316 76C320.229 65.6274 305.691 42.1106 297 37z"/>
<path style="fill:#e3d7c7; stroke:none;" d="M309 38C312.56 47.4048 317.909 54.7356 319.562 65C324.698 96.8997 317.86 130.107 310.127 161L301 193C307.545 184.343 309.598 170.373 312.269 160C319.501 131.91 325.071 102.025 322.169 73C320.942 60.7253 319.158 46.416 309 38z"/>
<path style="fill:#cfb29d; stroke:none;" d="M351 39C343.561 48.6776 335.108 60.8576 332.518 73C329.734 86.0496 333 100.773 333 114C339.641 104.277 330.889 85.5789 333.924 74C336.074 65.8021 340.555 58.1028 345.053 51C347.315 47.4283 351.374 43.3477 351 39z"/>
<path style="fill:#d1e5e5; stroke:none;" d="M333 75L333 83C334.161 80.2302 334.161 77.7699 333 75z"/>
<path style="fill:#d1c0b9; stroke:none;" d="M316 76L316 89C318.62 85.1646 318 80.5054 318 76L316 76z"/>
<path style="fill:#e3d7c7; stroke:none;" d="M333 83L333 90C334.059 87.4657 334.059 85.5343 333 83z"/>
<path style="fill:#bda8a1; stroke:none;" d="M316 89L316 93L316 89z"/>
<path style="fill:#d1c0b9; stroke:none;" d="M315 92L317 96L315 92z"/>
<path style="fill:#bda8a1; stroke:none;" d="M315 96L315 100L315 96z"/>
<path style="fill:#cfb29d; stroke:none;" d="M314 100C313.47 125.668 304.548 153.63 296.975 178L287 208C293.975 198.783 296.853 184.965 300 174C306.975 149.696 312.826 125.114 316 100L314 100z"/>
<path style="fill:#e3d7c7; stroke:none;" d="M334 101L334 105L334 101z"/>
<path style="fill:#bda8a1; stroke:none;" d="M334 112L334 119C335.059 116.466 335.059 114.534 334 112z"/>
<path style="fill:#d1c0b9; stroke:none;" d="M334 119L334 122L336 122L336 119L334 119z"/>
<path style="fill:#bda8a1; stroke:none;" d="M335 122L335 130C336.161 127.23 336.161 124.77 335 122z"/>
<path style="fill:#d1c0b9; stroke:none;" d="M336 126L335 133C337.293 130.997 337.14 128.734 336 126z"/>
<path style="fill:#bda8a1; stroke:none;" d="M336 133L336 137L336 133z"/>
<path style="fill:#d1c0b9; stroke:none;" d="M337 136L337 141L337 136z"/>
<path style="fill:#bda8a1; stroke:none;" d="M337 141L337 145L337 141z"/>
<path style="fill:#d1c0b9; stroke:none;" d="M338 144L337 148C338.656 146.596 338.751 146.046 338 144z"/>
<path style="fill:#bda8a1; stroke:none;" d="M338 148L338 152L338 148z"/>
<path style="fill:#d1c0b9; stroke:none;" d="M338 152L340 167L342 167L340 152L338 152z"/>
<path style="fill:#bda8a1; stroke:none;" d="M341 167L341 171L341 167z"/>
<path style="fill:#d1c0b9; stroke:none;" d="M342 170L343 182C345.311 178.414 343.937 173.637 342 170z"/>
<path style="fill:#bda8a1; stroke:none;" d="M344 181L344 184L344 181z"/>
<path style="fill:#d1c0b9; stroke:none;" d="M345 183L344 186L345 183z"/>
<path style="fill:#bda8a1; stroke:none;" d="M345 185L345 188L345 185z"/>
<path style="fill:#d1c0b9; stroke:none;" d="M346 187L345 190L346 187z"/>
<path style="fill:#c4a592; stroke:none;" d="M315 189L320 190L315 189z"/>
<path style="fill:#bda8a1; stroke:none;" d="M346 189L354 218C356.533 211.495 349.956 194.546 346 189z"/>
<path style="fill:#b77d54; stroke:none;" d="M310 192L315 191L310 192z"/>
<path style="fill:#c86d31; stroke:none;" d="M315 190L326 194C322.826 190.403 319.652 190.042 315 190z"/>
<path style="fill:#ff8332; stroke:none;" d="M314 191C317.173 194.742 321.985 196.969 323.427 202.001C328.423 219.427 308.023 221.747 297 219C303.864 236.235 326.569 230.943 341 229C341 212.978 332.737 191.17 314 191z"/>
<path style="fill:#fc9e5d; stroke:none;" d="M310 193C313.933 196.682 322.309 198.694 322.638 205.003C323.312 217.912 303.594 220.395 297 212C293.908 219.991 304.98 222.999 311 221.387C326.777 217.162 328.838 189.767 310 193z"/>
<path style="fill:#bd8b66; stroke:none;" d="M303 200L310 193C306.499 194.649 304.649 196.499 303 200z"/>
<path style="fill:#cfb29d; stroke:none;" d="M326 193L327 194L326 193z"/>
<path style="fill:#ffab74; stroke:none;" d="M309 195.16C295.354 200.274 293.986 224.02 312 217.258C316.422 215.599 322.468 211.059 322.823 205.996C323.226 200.237 314.723 193.016 309 195.16z"/>
<path style="fill:#cfb29d; stroke:none;" d="M327 194L328 195L327 194M328 195L329 196L328 195M329 196L330 197L329 196z"/>
<path style="fill:#e5c1a8; stroke:none;" d="M330 197L331 198L330 197z"/>
<path style="fill:#c86d31; stroke:none;" d="M330 198L336 208C336.355 203.876 333.035 200.508 330 198z"/>
<path style="fill:#b77d54; stroke:none;" d="M302 199C297.489 204.917 295.155 210.526 295 218C297.062 213.417 302.398 203.618 302 199z"/>
<path style="fill:#cfb29d; stroke:none;" d="M333 201L334 202L333 201z"/>
<path style="fill:#e5c1a8; stroke:none;" d="M306.444 203.137C302.465 205.409 306.703 211.588 310.396 208.802C313.54 206.431 309.768 201.239 306.444 203.137M335 204L336 205L335 204z"/>
<path style="fill:#bda8a1; stroke:none;" d="M286 207C282.161 216.234 279.837 226.669 291 232C288.236 227.941 284.37 224.2 284.148 219L286 207z"/>
<path style="fill:#c86d31; stroke:none;" d="M337 208L341 227C343.54 220.944 341.021 212.876 337 208z"/>
<path style="fill:#cfb29d; stroke:none;" d="M295.333 210.667L295.667 211.333L295.333 210.667z"/>
<path style="fill:#e3d7c7; stroke:none;" d="M355.333 215.667L355.667 216.333L355.333 215.667z"/>
<path style="fill:#c4a592; stroke:none;" d="M341.333 216.667L341.667 217.333L341.333 216.667z"/>
<path style="fill:#c86d31; stroke:none;" d="M296 217L298 224C298.485 221.255 297.529 219.318 296 217z"/>
<path style="fill:#d1c0b9; stroke:none;" d="M355 217C351.667 228.251 349.654 236.953 336 239C346.328 245.537 358.885 226.279 355 217z"/>
<path style="fill:#e3d7c7; stroke:none;" d="M295.333 218.667L295.667 219.333L295.333 218.667z"/>
<path style="fill:#c4a592; stroke:none;" d="M342 219L342 226C343.059 223.466 343.059 221.534 342 219z"/>
<path style="fill:#cfb29d; stroke:none;" d="M298 224L299 225L298 224z"/>
<path style="fill:#c4a592; stroke:none;" d="M299 225L300 226L299 225z"/>
<path style="fill:#cfb29d; stroke:none;" d="M300 226L301 227L300 226z"/>
<path style="fill:#e5c1a8; stroke:none;" d="M301 227L302 228L301 227z"/>
<path style="fill:#c86d31; stroke:none;" d="M302 227L305 229L302 227z"/>
<path style="fill:#cfb29d; stroke:none;" d="M341 227L342 228L341 227z"/>
<path style="fill:#b77d54; stroke:none;" d="M305 229L311 231L305 229z"/>
<path style="fill:#c86d31; stroke:none;" d="M311 231C318.959 234.34 331.869 232.104 340 230C332.634 227.763 319.215 231 311 231z"/>
<path style="fill:#c4a592; stroke:none;" d="M309.667 231.333L310.333 231.667L309.667 231.333M333 231L336 232L333 231z"/>
<path style="fill:#bda8a1; stroke:none;" d="M291 232C300.63 243.203 323.613 243.485 337 241L319 240.575L291 232z"/>
<path style="fill:#e5c1a8; stroke:none;" d="M314 232L329 233L314 232z"/>
<path style="fill:#e3d7c7; stroke:none;" d="M314 241L317 242L314 241z"/>
<path style="fill:#d1e5e5; stroke:none;" d="M253 257C263.504 261.408 281.58 258 293 258L387 258C376.496 253.592 358.42 257 347 257L253 257z"/>
<path style="fill:#83bfbf; stroke:none;" d="M291 339L353 338C353.001 324.296 362.152 325.029 372 318.087C385.547 308.538 410.121 280.595 400.397 261.434C397.249 255.231 375.923 258 370 258L277 258C270.59 258 245.676 254.49 243.318 262.228C237.387 281.689 255.018 305.29 269.09 316.395C279.815 324.86 291 323.684 291 339z"/>
<path style="fill:#d1e5e5; stroke:none;" d="M391 258L397 259L391 258M243.667 259.333L244.333 259.667L243.667 259.333M242 260L242 274C243.667 270.028 243.667 263.972 242 260M401 260L401 273C402.591 269.209 402.591 263.791 401 260M245.333 283.667L245.667 284.333L245.333 283.667z"/>
<path style="fill:#aed5d4; stroke:none;" d="M392.333 295.667L392.667 296.333L392.333 295.667z"/>
<path style="fill:#d1e5e5; stroke:none;" d="M252.333 297.667L252.667 298.333L252.333 297.667M391.333 297.667L391.667 298.333L391.333 297.667M389 301L388 304L389 301M256.333 303.667L256.667 304.333L256.333 303.667z"/>
<path style="fill:#aed5d4; stroke:none;" d="M263 311L266 313L263 311M357.667 325.333L358.333 325.667L357.667 325.333M287.667 326.333L288.333 326.667L287.667 326.333z"/>
<path style="fill:#d1e5e5; stroke:none;" d="M355.667 326.333L356.333 326.667L355.667 326.333M290 327L290 338C291.431 334.59 291.431 330.41 290 327M353 327L353 338C354.431 334.59 354.431 330.41 353 327z"/>
<path style="fill:#aed5d4; stroke:none;" d="M347 338L351 339L347 338z"/>
<path style="fill:#d1e5e5; stroke:none;" d="M351.667 338.333L352.333 338.667L351.667 338.333M293 339L298 340L293 339z"/>
<path style="fill:#aed5d4; stroke:none;" d="M298 339C309.701 343.91 330.258 340 343 340C331.299 335.09 310.742 339 298 339z"/>
<path style="fill:#d1e5e5; stroke:none;" d="M343 339L349 340L343 339z"/>
<path style="fill:#cfb29d; stroke:none;" d="M407 355L408 356L407 355z"/>
</svg>
