<?xml version="1.0" standalone="yes"?>
<svg xmlns="http://www.w3.org/2000/svg" width="650" height="650">
<path style="fill:#000000; stroke:none;" d="M41.2598 41.2598C37.0347 45.4849 40 63.215 40 69C40 78.2712 35.8691 100.349 40.8217 108.178C43.0278 111.666 52.4779 110 56 110C65.7975 110 101.95 115.531 108.74 108.74C115.531 101.95 110 65.7975 110 56C110 52.4779 111.666 43.0278 108.178 40.8217C100.349 35.8691 78.2712 40 69 40C63.2151 40 45.4848 37.0347 41.2598 41.2598M121.26 41.2598C118.225 44.2944 118.569 64.6065 120.822 68.1785C123.155 71.8781 129.704 68.7664 129.704 75C129.704 81.584 121.465 78.0035 120.295 83.2731C118.324 92.1506 129.704 87.6606 129.704 95C129.704 101.448 122.241 98.0163 120.505 102.498C119.62 104.783 119.927 108.498 122.498 109.495C132.11 113.221 128.517 96.1683 137.502 100.833C141.835 103.082 141.632 124.647 138.74 128.177C132.522 135.77 129.992 120.738 125.852 120.148C110.556 117.968 89.4444 117.968 74.1479 120.148C67.4028 121.109 71.1805 129.805 61.9965 129.989C54.3997 130.141 45.5366 116.983 41.2596 121.26C38.2257 124.294 38.3152 147.873 42.498 149.495C51.4635 152.972 50.0592 134.717 58.1792 141.263C61.8316 144.208 61.8187 166.927 57.502 169.167C49.2016 173.476 49.3798 153.14 41.2598 161.26C33.9481 168.571 50.5418 169.676 49.646 175.882C48.8381 181.478 41.4979 178.26 40.2841 183.284C37.4659 194.948 36.107 226.379 40.5015 237.499C42.0651 241.455 48.0937 238.826 49.469 243.273C51.7902 250.78 43.2144 248.027 40.8216 251.821C38.1658 256.033 37.9188 287.719 42.498 289.495C55.0148 294.349 47.9177 267.88 50.8216 262.501C52.836 258.77 58.6036 261.32 59.7159 256.716C60.7497 252.437 57.6271 242.278 63.2731 240.531C65.0584 239.979 78.8808 251.371 79.469 253.273C81.7266 260.574 63.6426 261.123 71.2598 268.74C78.3767 275.857 79.7709 260.982 84.1183 260.354C91.1378 259.341 87.9841 266.759 91.8215 269.178C97.6092 272.828 116.978 265.222 119.469 273.273C122.633 283.5 106.058 278.15 101.821 280.822C98.2515 283.073 101.119 288.545 95.8521 289.716C91.9237 290.589 84.3326 288.187 81.2598 291.26C76.5673 295.952 86.4778 348.773 61.8215 328.74C59.6591 326.984 60.5648 323.95 59.1818 321.821C57.2839 318.898 52.5669 320.848 50.8326 317.502C44.7594 305.784 69.8601 314.432 69.8601 305C69.8601 298.405 56.088 298.131 51.8215 300.822C42.1621 306.913 35.3626 324.496 40.5015 337.499C41.1545 339.151 61.8594 359.372 63.2841 359.716C69.9855 361.335 82.6387 356.723 88.1775 361.26C96.9802 368.47 75.3142 369.44 80.8225 378.179C84.273 383.653 101.194 375.16 99.646 385.882C98.6232 392.966 87.0439 388.706 82.5014 390.501C77.2519 392.576 73.2076 408.034 61.8217 398.74C49.5851 388.752 76.5097 373.997 67.502 370.505C58.8812 367.163 62.0051 377.638 56.7159 379.499C48.5364 382.376 30.3464 381.567 40.8216 398.179C43.2415 402.016 50.6593 398.862 49.646 405.882C48.8827 411.169 43.0049 408.359 40.8216 411.821C38.0065 416.286 39.0604 431.651 40.2841 436.716C41.551 441.959 49.7043 438.441 49.7043 445C49.7043 451.233 43.1546 448.122 40.8216 451.821C38.4033 455.656 38.3982 474.346 40.8216 478.178C42.8184 481.336 48.8721 480.208 49.7159 476.716C51.5115 469.285 47.9514 460.533 50.5015 453.284C52.1118 448.706 58.5592 451.503 59.7159 446.716C62.1133 436.794 56.1771 409.284 77.4984 420.822C86.825 425.869 70.5165 430.756 70.1774 434.118C69.3536 442.287 82.7881 442.035 79.7159 455.852C78.1891 462.719 57.0973 468.712 60.5049 477.502C64.5091 487.831 80.9217 460.815 84.1183 460.354C91.5231 459.285 87.8935 468.414 93.2841 469.716C97.9275 470.838 109.704 467.299 109.704 475C109.704 485.046 87.3925 477.308 81.8215 480.822C78.8742 482.68 80.8149 487.388 77.4986 489.178C73.2761 491.458 63.6382 487.369 60.8217 491.822C57.9958 496.289 63.0545 506.285 57.502 509.167C53.3808 511.307 40.0935 473.752 40.0009 499.001L40 507C40.0001 510.196 39.3025 514.467 40.5015 517.499C42.2927 522.027 54.0997 520 58 520C65.3493 520 81.9101 523.131 88.1785 519.178C91.4051 517.144 89.0264 511.999 93.2841 510.501C96.6156 509.329 106.282 508.776 108.737 511.821C115.283 519.941 97.0285 518.536 100.505 527.502C103.143 534.306 116.818 525.669 119.499 533.284C123.905 545.805 113.744 566.989 120.822 578.178C124.349 583.754 137.147 575.766 139.469 583.273C142.051 591.621 115.141 599.163 120.823 608.179C126.331 616.922 130.981 600.807 134.118 600.354C141.407 599.302 144.545 617.799 158.178 609.178C167.503 603.282 147.272 599.358 150.833 592.498C154.089 586.225 165.703 593.673 169.178 588.178C177.707 574.695 160.296 572.048 160.296 565C160.296 552.738 181.666 553.298 188.178 549.178C193.645 545.72 185.166 528.807 195.882 530.354C200.87 531.074 198.615 536.097 201.259 538.741C203.269 540.751 206.851 539.47 208.737 541.821C213.961 548.331 193.321 557.858 190.822 561.821C188.024 566.257 191.678 572.868 189.178 577.499C186.622 582.233 178.482 578.562 180.295 586.727C181.266 591.1 186.38 588.952 188.741 591.821C198.889 604.145 207.371 618.688 221.259 601.821C223.888 598.627 229.284 601.226 229.823 595.882C231.276 581.467 209.981 608.993 201.263 598.179C199.527 596.026 200.064 592.184 202.498 590.818C206.03 588.836 218.836 580.358 219.716 576.716C221.185 570.637 216.545 555.517 221.821 551.263C231.775 543.239 229.089 565.431 230.822 568.179C236.109 576.563 250.45 584.895 258.179 591.259C260.791 593.409 259.021 598.148 262.498 599.495C267.17 601.305 270.755 598.004 269.705 593.273C268.679 588.654 262.774 591.249 260.833 587.502C256.312 578.78 273.128 578.458 277.499 580.822C284.452 584.581 273.632 614.868 287.502 609.495C290.744 608.239 289.37 604.114 291.259 601.821C294.363 598.05 300.542 601.255 299.823 594.118C299.385 589.774 279.943 580.839 291.821 571.263C299.237 565.284 299.013 580.515 305.882 579.823C311.473 579.259 308.473 572.997 312.501 570.822C323.9 564.668 348.472 570.324 339.178 587.498C334.326 596.465 329.096 579.002 323.273 580.295C318.7 581.311 321.156 587.137 317.502 589.182C314.058 591.11 310.14 589.638 310.14 595C310.14 600.882 314.917 598.573 318.179 601.259C323.395 605.553 326.906 616.287 338.179 609.178C341.641 606.995 338.831 601.117 344.118 600.354C350.324 599.458 351.428 616.052 358.74 608.74C370.726 596.754 336.547 579.112 352.498 570.833C360.325 566.77 358.268 577.825 362.501 579.499C369.477 582.255 378.557 578.662 385.852 580.284C392.734 581.814 395.021 597.498 408.178 589.178C416.919 583.651 400.809 579.033 400.354 575.882C400.651 577.937 414.735 550.079 413.273 550.531C415.805 549.748 418.592 550.709 419.499 553.284C421.079 557.775 418.237 564.08 420.822 568.179C423.971 573.172 438.355 578.027 439.716 584.148C441.044 590.122 436.758 604.239 441.26 608.74C448.877 616.358 449.425 598.273 456.727 600.531C461.352 601.961 468.251 619.23 478.74 608.74C490.356 597.125 448.995 601.766 461.823 591.26C465.346 588.374 484.648 588.391 488.179 591.26C491.974 594.343 488.727 600.544 495.882 599.823C502.16 599.189 498.31 589.261 505.882 590.354C511.869 591.218 517.195 607.441 522.498 609.495C531.688 613.055 527.805 600.296 535 600.296C541.438 600.296 538.032 607.732 542.501 609.499C548.318 611.797 572.891 612.513 578.179 609.178C581.126 607.32 579.185 602.612 582.501 600.822C588.478 597.595 605.349 604.232 609.178 598.178C617.077 585.691 604.37 575.811 592.501 580.501C589.251 581.786 590.652 585.876 588.741 588.178C587.326 589.883 584.403 590.156 582.498 589.167C576.95 586.287 581.996 576.29 579.178 571.821C575.423 565.867 564.19 564.756 570.822 552.502C576.159 542.639 598.079 585.786 609.177 568.179C614.19 560.227 602.915 561.375 600.822 557.499C598.322 552.868 601.976 546.257 599.178 541.821C596.318 537.286 578.427 530.073 580.531 523.273C581.982 518.583 594.951 518.638 598.179 521.26C600.342 523.017 599.432 526.051 600.818 528.179C604.117 533.246 610.845 528.407 609.705 523.273C608.535 518.003 600.296 521.584 600.296 515C600.296 508.562 607.732 511.968 609.499 507.499C612.162 500.758 612.54 460.14 605 460.14C593.924 460.14 606.107 506.231 592.498 499.167C582.446 493.95 594.888 460.852 589.178 451.822C581.76 440.09 580.903 471.829 573.273 469.469C566.731 467.445 571.989 456.265 569.178 451.822C566.576 447.708 548.585 449.516 544.148 450.148C533.607 451.65 544.248 481.453 538.74 488.177C531.026 497.596 529.834 472.769 521.259 481.26C519.027 483.47 520.661 487.471 517.499 489.178C512.868 491.678 506.257 488.024 501.821 490.822C496.206 494.363 486.291 506.178 481.26 511.259C477.104 515.455 483.81 527.278 476.727 529.469C468.775 531.929 471.965 521.019 465.852 520.148C459.042 519.177 448.663 522.505 442.501 519.178C438.77 517.164 441.32 511.396 436.716 510.284C432.255 509.206 421.318 512.557 420.354 505.882C419.178 497.736 431.711 502.307 429.705 493.273C428.003 485.607 415.511 487.471 420.501 473.284C422.105 468.725 428.642 471.512 429.705 466.727C431.642 458.003 416.395 461.047 420.833 452.498C423.316 447.714 438.478 448.579 439.716 454.148C442.372 466.091 434.305 487.845 440.822 498.179C442.528 500.884 446.723 499.369 448.741 501.821C453.084 507.095 458.078 515.568 468.178 509.178C470.394 507.777 469.976 504.234 469.997 501.997C470.165 483.49 461.479 496.623 451.822 488.74C448.624 486.13 448.609 472.851 452.498 470.833C458.562 467.685 460.946 479.97 469.001 479.999C479.727 480.038 497.531 483.438 507.499 479.499C511.449 477.937 508.904 472.042 513.284 470.501C517.492 469.021 528.393 472.633 529.705 466.727C531.638 458.024 521.29 462.362 520.354 455.882C519.301 448.588 527.698 452.14 529.495 447.502C531.138 443.261 517.296 429.401 513.273 430.295C505.18 432.093 515.487 451.287 504.118 449.646C494.425 448.246 506.127 428.966 494.118 430.177C488.76 430.718 491.394 436.128 488.179 438.74C483.785 442.31 476.439 437.91 471.821 440.822C468.625 442.838 471.025 448.14 466.727 449.469C464 450.312 450.498 423.143 450.833 422.498C458.253 408.204 472.753 432.597 478.179 429.177C487.013 423.611 468.737 419.073 470.531 413.273C472.555 406.731 483.735 411.989 488.178 409.178C493.073 406.082 487.762 396.093 491.26 391.823C494.474 387.898 509.039 401.105 509.716 404.148C510.589 408.076 508.187 415.667 511.26 418.74C517.1 424.58 537.912 418.519 545.852 420.284C551.119 421.455 548.252 426.927 551.821 429.178C556.257 431.976 562.868 428.322 567.499 430.822C570.815 432.612 568.874 437.32 571.821 439.178C574.678 440.98 587.192 441.318 589.178 438.178C608.745 407.245 539.261 435.224 550.501 403.284C552.481 397.659 582.539 398.144 587.499 400.822C590.968 402.695 588.794 408.033 592.501 409.499C595.798 410.801 607.946 411.498 609.495 407.502C614.839 393.719 588.629 406.07 590.354 394.118C591.219 388.127 607.403 382.801 609.499 377.499C615.149 363.2 602.906 364.407 600.531 356.727C597.993 348.52 609.86 352.135 609.86 345C609.86 337.932 600.659 341.595 600.07 333.97C599.341 324.528 612.355 316.877 609.177 311.821C605.31 305.667 590.953 295.063 581.821 300.822C577.984 303.241 581.138 310.659 574.118 309.646C569.13 308.926 571.385 303.903 568.741 301.259C566.323 298.84 561.79 300.798 560.531 296.727C556.116 282.447 606.178 296.056 609.495 287.502C612.97 278.54 601.258 282.147 600.354 275.882C599.24 268.163 615.201 266.929 609.499 252.501C607.433 247.274 594.896 242.597 591.259 238.179C589.36 235.873 590.743 231.784 587.499 230.501C583.113 228.768 573.464 232.571 570.833 227.502C569.023 224.017 592.98 199.372 596.727 200.531C606.286 203.488 592.311 232.907 606.727 229.705C611.548 228.634 610 220.626 610 217C610 202.617 605.825 202.052 599.182 191.821C596.716 188.022 589.345 191.107 590.354 184.118C591.537 175.923 604.542 182.939 608.74 178.74C611.193 176.288 610.959 164.638 609.178 161.822C607.65 159.404 602.362 159.45 600.818 161.821C591.261 176.5 585.451 180 566 180C562.169 180 552.994 181.666 550.833 177.502C549.235 174.424 550.89 171.009 554.148 170.284C560.954 168.771 572.197 172.95 578.179 169.178C583.419 165.874 586.999 153.792 592.501 150.822C597.154 148.31 613.74 153.444 609.495 142.498C604.176 128.781 585.826 150.258 583.273 149.469C583.151 149.431 570.308 135.96 570.284 135.852C569.437 132.043 572.121 122.296 567.502 120.505C560.96 117.968 556.536 131.397 545.07 129.852C537.978 128.897 541.825 118.396 533.273 120.295C528.262 121.408 530.487 133.314 522.498 129.167C508.687 121.998 531.398 107.407 529.495 102.498C528.498 99.9272 524.783 99.6196 522.498 100.505C518.535 102.04 521.174 108.094 516.727 109.469C508.472 112.022 507.932 95.9167 511.26 91.8215C513.161 89.4813 516.739 90.7622 518.74 88.7411C522.555 84.8885 522.044 42.2993 517.499 40.5015C514.385 39.2699 502.845 38.6127 500.823 41.8207C495.314 50.5596 516.98 51.5303 508.177 58.7404C496.211 68.542 491.852 50.7795 485.882 50.1774C478.409 49.4238 482.104 56.6063 477.502 59.1819C475.433 60.3402 472.241 59.5706 470.822 61.8215C468.237 65.9197 471.078 72.2248 469.499 76.7159C466.823 84.3203 460.005 79.1234 460 91C459.998 95.3678 462.201 107.775 456.727 109.469C453.974 110.321 439.965 96.81 440.354 94.1183C441.546 85.8611 453.274 88.0057 449.716 73.2841C447.859 65.5998 434.168 73.927 430.833 67.502C429.844 65.5967 430.117 62.6737 431.822 61.2587C434.124 59.3478 438.214 60.7493 439.499 57.4985C444.194 45.6182 434.315 32.9429 421.821 40.8217C419.341 42.3862 420.472 46.0771 418.741 48.1794C416.825 50.5067 413.262 49.237 411.26 51.2587C406.885 55.677 418.44 64.5165 420.818 68.1794C422.76 71.1707 434.459 71.0816 428.737 78.1793C417.776 91.7747 406.017 61.8425 391.822 70.8217C387.741 73.4027 390.909 82.7058 389.499 86.7159C387.888 91.2937 381.441 88.4967 380.284 93.2841C379.769 95.4158 380 97.8256 380 100C380 121.734 390.41 99.5641 395.882 100.354C400.87 101.074 398.615 106.097 401.259 108.741C404.229 111.712 410.594 109.317 409.646 115.882C408.081 126.718 383.87 113.986 380.501 122.501C375.125 136.093 385.33 135.373 389.178 142.501C391.596 146.979 387.551 155.032 391.26 158.74C394.968 162.449 403.021 158.404 407.499 160.822C417.643 166.299 423.982 183.977 419.499 196.716C416.854 204.229 404.413 196.144 400.822 201.822C397.996 206.289 403.055 216.285 397.502 219.167C389.568 223.286 391.685 211.485 386.716 210.284C382.291 209.215 376.624 211.404 372.501 209.178C368.77 207.164 371.32 201.396 366.716 200.284C359.285 198.489 350.533 202.049 343.284 199.499C337.995 197.638 341.118 187.162 332.498 190.505C316.78 196.6 346.488 232.282 316.03 229.93C312.296 229.642 309.23 227.481 310.531 223.273C311.906 218.826 317.96 221.465 319.495 217.502C320.18 215.735 320.155 212.687 318.74 211.259C316.278 208.772 311.932 210.783 310.501 206.716C309.011 202.478 312.106 194.625 308.74 191.26C300.831 183.351 296.828 208.598 290.822 197.498C279.096 175.831 309.12 185.047 309.93 174.93C310.191 171.671 311.419 162.872 308.178 160.822C303.618 157.937 290.296 163.667 290.296 155C290.296 144.411 308.863 155.398 309.823 145.882C310.515 139.013 295.284 139.237 301.263 131.821C319.249 109.512 320.789 158.832 322.498 159.495C325.264 160.568 328.959 159.849 329.716 156.716C330.768 152.361 328.238 145.523 331.26 141.822C338.345 133.141 361.077 146.403 368.74 138.74C378.556 128.924 350.296 131.758 350.296 125C350.296 117.821 369.333 112.384 369.93 104.93C371.789 81.7068 357.027 99.4343 350.833 87.502C346.77 79.6754 357.825 81.7322 359.499 77.4985C361.244 73.0827 358.923 67.7684 360.501 63.2841C364.257 52.6137 399.86 68.2436 399.86 55C399.86 49.118 395.083 51.4275 391.821 48.7413C389.209 46.5911 390.979 41.8519 387.502 40.5049C379.131 37.2619 381.997 46.7498 377.499 49.1783C372.754 51.7401 363.282 50.0968 358.003 49.989C351.456 49.8553 347.226 35.294 341.26 41.2598C332.722 49.7973 357.604 51.0194 348.177 58.7404C336.812 68.0491 332.732 52.5696 327.499 50.5015C322.875 48.6742 316.964 51.5876 312.501 49.1783C308.005 46.7505 310.868 37.2603 302.498 40.5049C290.223 45.2636 321.088 56.328 305.852 59.7159C282.945 64.8096 297.003 41.2991 285.882 40.1774C277.815 39.3639 282.175 49.7043 275 49.7043C268.563 49.7043 271.968 42.2677 267.499 40.5015C259.223 37.231 244.883 40 236 40C232.152 40 225.207 38.6869 221.821 40.8217C218.122 43.1546 221.233 49.7043 215 49.7043C208.408 49.7043 209.443 39.9666 199.001 40.0009C189.762 40.0313 190.887 50.6231 184.118 49.646C177.852 48.7414 181.461 37.0303 172.498 40.5049C169.68 41.5975 169.241 46.7029 171.26 48.7413C181.988 59.5759 177.774 51.108 170.818 61.8206C169.126 64.4262 170.474 68.3102 166.727 69.469C160.303 71.4553 161.361 65.1768 159.182 61.8206C156.804 58.1589 150.296 61.2073 150.296 55C150.296 49.7886 165.915 48.4341 158.74 41.2598C151.123 33.6425 150.574 51.7267 143.273 49.469C138.648 48.0389 131.749 30.7704 121.26 41.2598M461.26 41.2598C456.625 45.8943 464.106 53.3749 468.74 48.7402C473.375 44.1056 465.894 36.6252 461.26 41.2598M541.26 41.2598C534.469 48.05 540 84.2025 540 94C540 97.5221 538.334 106.972 541.822 109.178C549.651 114.131 571.729 110 581 110C586.785 110 604.515 112.965 608.74 108.74C615.531 101.95 610 65.7975 610 56C610 52.478 611.666 43.0278 608.178 40.8217C600.349 35.8691 578.271 40 569 40C563.215 40 545.485 37.0347 541.26 41.2598M51.8217 50.8217C56.7936 47.6766 94.6647 47.1843 98.7402 51.2598C102.435 54.9545 100 69.0325 100 74C100 78.8363 102.65 96.3495 98.1784 99.1783C93.2064 102.323 55.3352 102.816 51.2598 98.7402C47.565 95.0455 50 80.9675 50 76C50 71.1636 47.3496 53.6505 51.8217 50.8217M131.821 50.8226C138.558 46.5762 159.532 72.0212 148.179 79.1774C141.442 83.4238 120.468 57.9788 131.821 50.8226M201.821 50.8225C206.651 47.7872 211.418 52.5385 209.495 57.5021C208.145 60.9877 203.398 59.1901 201.26 61.8215C198.27 65.5015 198.604 83.3979 200.822 87.4985C203.83 93.0624 213.642 87.952 218.178 90.8217C223.073 93.9178 217.762 103.907 221.26 108.177C226.767 114.902 237.863 90.1888 239.852 104.148C241.931 118.74 232.231 115.391 230.284 124.148C228.771 130.954 232.95 142.197 229.178 148.179C227.144 151.405 221.999 149.027 220.501 153.284C217.868 160.769 222.412 170.132 219.499 177.499C217.873 181.607 192.963 177.835 201.263 188.179C210.283 199.42 213.231 199.287 221.259 191.259C224.045 188.473 228.601 190.867 229.716 185.852C231.075 179.738 225.547 157.812 236.727 160.295C245.492 162.242 235.727 183.701 241.821 188.741C247.292 193.267 258.658 206.476 268.179 198.74C270.646 196.736 269.109 192.526 271.821 190.823C274.46 189.164 278.98 190.011 279.705 193.273C281.711 202.307 269.178 197.736 270.354 205.882C271.258 212.147 282.97 208.54 279.495 217.502C274.097 231.424 258.465 211.117 256.716 210.501C251.901 208.808 245.052 210.006 240 210C230.507 209.988 230.547 199.426 224.118 200.354C218.831 201.117 221.641 206.995 218.179 209.178C214.344 211.596 195.653 211.602 191.822 209.178C186.246 205.651 194.234 192.853 186.727 190.531C184.942 189.979 171.119 201.371 170.531 203.273C166.722 215.592 192.92 217.496 198.178 220.822C203.793 224.373 195.193 239.704 205 239.704C214.807 239.704 206.207 224.373 211.822 220.822C225.469 212.189 229.429 231.725 236.727 229.469C240.805 228.208 238.826 223.668 241.259 221.26C243.052 219.484 247.776 219.596 249.177 221.821C255.179 231.346 234.254 229.484 241.263 238.179C244.641 242.369 253.019 238.731 257.499 240.501C260.749 241.786 259.348 245.876 261.259 248.178C262.524 249.703 264.908 250.032 266.727 249.469C271.026 248.14 268.621 242.833 271.821 240.823C274.963 238.848 279.444 240.36 279.823 244.118C280.647 252.295 260.296 257.574 260.296 265C260.296 267.9 274.899 281.381 278.179 278.737C282.369 275.359 278.731 266.981 280.501 262.501C281.967 258.794 287.305 260.968 289.178 257.499C292.773 250.84 290 236.489 290 229C290 223.336 287.215 210.699 295.07 210.07C298.765 209.774 317.184 210.214 308.74 218.741C305.967 221.542 301.401 219.125 300.284 224.148C298.384 232.695 300 243.252 300 252C300 256.425 297.916 267.609 303.284 269.499C307.695 271.051 326.703 272.077 329.178 267.499C331.658 262.913 326.687 250.927 334.118 250.177C345.454 249.034 335.632 265.603 342.498 269.167C350.556 273.35 348.283 260.766 354.118 260.177C361.629 259.42 357.849 266.666 362.501 269.178C364.846 270.444 388.404 269.076 378.74 278.74C368.251 289.23 361.352 271.961 356.727 270.531C348.52 267.993 352.135 279.86 345 279.86C337.865 279.86 341.48 267.993 333.273 270.531C331.371 271.119 319.979 284.941 320.531 286.727C321.648 290.34 335.802 291.678 328.74 298.74C323.261 304.219 309.232 297.188 302.501 300.822C300.067 302.136 289.565 315.055 290.833 317.502C292.861 321.416 304.213 320.188 299.177 328.179C297.855 330.278 293.764 330.399 291.821 329.177C288.117 326.85 291.237 320.296 285 320.296C278.219 320.296 277.754 336.611 282.501 339.178C286.979 341.599 295.03 337.55 298.74 341.26C302.106 344.625 299.011 352.478 300.501 356.716C302.451 362.258 311.572 358.32 309.705 366.727C308.511 372.105 298.061 368.744 300.531 376.727C302.853 384.234 315.651 376.246 319.178 381.822C322.591 387.216 314.887 411.233 325.882 409.646C327.913 409.353 340.092 395.286 339.469 393.273C338.14 388.975 332.838 391.375 330.822 388.179C328.237 384.08 331.078 377.775 329.499 373.284C328.001 369.026 322.852 371.408 320.823 368.179C318.325 364.206 328.487 354.004 331.259 351.26C341.815 340.807 348.597 358.023 353.273 359.469C361.07 361.88 357.929 352.309 362.501 350.501C375.076 345.532 375.56 353.713 381.821 358.737C383.691 360.238 387.191 360.07 388.74 358.177C398.542 346.211 380.779 341.852 380.177 335.882C379.354 327.716 390.791 332.051 389.646 324.118C388.883 318.831 383.005 321.641 380.822 318.179C378.007 313.714 379.06 298.349 380.284 293.284C381.2 289.494 384.799 290.695 387.502 289.182C391.156 287.137 388.7 281.311 393.273 280.295C399.096 279.002 404.326 296.465 409.178 287.498C420.69 266.227 393.468 275.144 390.505 267.502C387.028 258.536 405.283 259.941 398.737 251.821C394.784 246.917 385.456 252.936 381.26 248.74C377.061 244.542 384.077 231.537 375.882 230.354C364.58 228.722 374.749 247.775 366.716 249.716C364.584 250.231 362.174 250 360 250C334.756 250 368.315 234.584 356.716 230.501C345.679 226.617 335.782 243.263 331.26 238.74C325.344 232.825 344.767 221.551 348.179 218.741C351.086 216.348 348.896 211.344 353.284 210.284C368.03 206.721 364.863 216.536 373.284 219.499C377.775 221.078 384.08 218.237 388.179 220.822C391.375 222.838 388.975 228.14 393.273 229.469C402.147 232.213 397.827 216.753 407.502 220.505C412.764 222.545 408.589 233.363 410.822 237.499C412.82 241.2 418.684 238.677 419.705 243.273C421.528 251.484 413.313 247.712 410.833 252.498C409.402 255.258 419.335 266.72 421.821 268.74C426.258 272.345 452.49 271.883 457.499 269.178C460.657 267.473 459.039 263.479 461.259 261.259C464.723 257.794 478.244 249.477 468.178 241.26C464.199 238.012 441.237 238 440.354 244.118C439.656 248.956 461.403 259.932 440.999 259.999C438.747 260.007 436.384 260.171 434.148 259.852C418.215 257.582 439.896 234.655 439.469 233.273C437.147 225.766 424.349 233.754 420.822 228.178C410.332 211.595 430 198.198 430 184C430 178.604 432.295 166.196 428.74 161.821C426.736 159.354 422.526 160.891 420.823 158.179C419.599 156.233 419.724 152.148 421.822 150.822C440.704 138.882 436.299 162.073 441.26 168.179C445.289 173.138 455.818 176.475 459.177 181.821C463.412 188.559 437.675 199.998 460 199.998C462.155 199.998 464.647 200.227 466.716 199.499C473.318 197.175 467.908 186.442 470.822 181.821C472.533 179.107 476.744 180.663 478.737 178.179C480.074 176.513 480.079 173.486 478.737 171.821C474.775 166.907 464.163 173.461 460.822 168.178C458.067 163.824 458.003 140.794 464.118 140.177C478.227 138.755 477.212 168.649 484.118 169.646C496.932 171.496 484.449 143.687 492.501 140.501C496.47 138.932 516.759 137.996 519.178 141.822C521.989 146.265 516.731 157.445 523.273 159.469C535.07 163.119 525.332 141.404 534.148 140.148C538.765 139.49 555.056 138.825 549.177 148.179C546.85 151.883 540.296 148.763 540.296 155C540.296 160.211 555.915 161.566 548.74 168.74C541.123 176.357 540.574 158.273 533.273 160.531C529.526 161.69 530.874 165.574 529.182 168.179C527.43 170.878 523.262 169.329 521.263 171.821C515.292 179.262 530.517 178.996 529.823 185.882C529.195 192.105 518.028 188.636 520.531 196.727C521.986 201.431 533.968 201.085 537.499 199.178C541.2 197.18 538.677 191.316 543.273 190.295C552 188.357 548.947 203.601 557.502 199.167C560.849 197.433 558.873 192.675 561.821 190.823C563.767 189.599 567.852 189.724 569.178 191.822C580.891 210.344 547.092 215.61 550.531 226.727C552.398 232.761 576.529 226.481 569.177 238.179C567.618 240.66 563.92 239.53 561.821 241.259C559.666 243.033 560.571 246.045 559.182 248.179C551.131 260.545 549.175 232.074 548.178 231.26C543.905 227.771 533.915 233.069 530.822 228.178C527.937 223.618 533.667 210.296 525 210.296C525.294 210.296 510.41 236.268 510.354 235.882C510.982 240.229 525.857 241.623 518.74 248.74C513.071 254.409 493.672 244.276 490.501 253.284C486.396 264.949 495.337 275.745 507.499 269.178C511.23 267.164 508.68 261.396 513.284 260.284C519.299 258.831 526.829 260 533 260C537.508 260 549.175 257.693 549.823 264.118C550.58 271.629 543.334 267.849 540.822 272.501C538.404 276.979 542.449 285.032 538.74 288.74C535.375 292.106 527.522 289.011 523.284 290.501C523.1 290.566 511.803 301.148 511.263 301.821C506.153 308.189 528.37 315.282 517.502 319.495C508.539 322.97 512.148 311.259 505.882 310.354C498.862 309.341 502.016 316.758 498.179 319.178C492.068 323.031 474.594 315.251 470.833 322.498C467.073 329.741 487.513 337.477 489.499 342.501C492.411 349.87 487.868 359.23 490.501 366.716C491.755 370.278 505.742 371.739 498.74 378.74C496.341 381.139 490.068 380 487 380C453.238 380.001 488.364 369.489 479.178 352.501C476.432 347.422 466.963 351.262 462.501 349.499C458.878 348.066 459.13 335.371 451.821 341.263C447.992 344.35 450.736 352.494 449.716 356.716C448.502 361.74 441.162 358.522 440.354 364.118C439.405 370.696 445.782 368.272 448.74 371.259C458.148 380.76 435.915 379.575 433.284 380.501C430.068 381.634 429.093 386.505 431.823 388.74C438.645 394.328 466.071 383.837 469.499 392.501C477.107 411.736 461.817 405.792 452.501 410.822C449.343 412.527 450.961 416.521 448.741 418.741C445.895 421.587 440.296 419.149 440.296 425C440.296 431.233 446.845 428.122 449.178 431.821C454.042 439.534 452.052 458.099 465.07 459.852C473.986 461.053 485.038 447.558 488.74 451.26C492.164 454.683 480.191 468.434 477.499 469.499C462.349 475.486 455.599 460.15 448.741 451.821C446.582 449.198 441.876 450.977 440.501 447.499C438.674 442.875 441.588 436.964 439.178 432.501C436.958 428.389 430.949 431.477 430.148 425.852C429.104 418.525 434.225 396.137 428.179 391.263C420.87 385.371 421.122 398.067 417.499 399.499C413.083 401.244 407.769 398.924 403.284 400.501C397.714 402.461 383.055 421.584 391.822 428.74C411.548 444.843 406.852 406.375 417.502 410.505C421.712 412.137 421.908 436.819 418.178 439.178C409.307 444.79 366.5 430.973 380.822 457.499C382.695 460.968 388.033 458.794 389.499 462.501C391.269 466.981 387.631 475.359 391.821 478.737C404.56 489.007 393.455 445.063 407.502 450.505C410.979 451.852 409.209 456.591 411.821 458.741C413.92 460.47 417.618 459.34 419.177 461.821C424.159 469.748 412.972 468.65 410.818 472.498C408.762 476.172 401.118 488.068 397.499 489.499C384.321 494.707 367.1 482.305 370.148 504.93C370.997 511.232 376.672 507.847 379.178 511.821C382.024 516.334 376.291 531.03 385.882 529.646C388.357 529.289 400.507 515.083 399.167 512.498C397.433 509.151 392.675 511.127 390.823 508.179C389.164 505.54 390.011 501.02 393.273 500.295C397.302 499.4 412.003 513.684 409.177 518.179C407.324 521.128 402.612 519.186 400.822 522.501C398.542 526.724 402.631 536.362 398.178 539.178C393.565 542.097 386.216 537.689 381.821 541.26C376.855 545.295 373.528 555.805 368.179 559.178C338.007 578.205 357.143 516.037 347.499 510.822C333.226 503.104 331.918 521.625 323.273 519.705C318.888 518.731 321.068 513.607 318.179 511.26C313.785 507.69 306.439 512.09 301.821 509.178C298.625 507.162 301.025 501.86 296.727 500.531C288.057 497.85 292.334 511.717 283.273 509.705C277.611 508.447 272.541 493.544 267.499 490.822C253.81 483.431 240.488 493.56 230.823 478.179C226.032 470.555 236.143 471.376 238.74 468.179C241.618 464.636 241.618 445.364 238.74 441.821C229.787 430.802 198.55 422.137 182.502 430.822C177.01 433.794 190.403 448.581 193.273 449.469C200.571 451.726 204.53 432.192 218.178 440.822C220.276 442.148 220.401 446.233 219.177 448.179C217.324 451.128 212.612 449.186 210.822 452.501C208.322 457.132 211.976 463.743 209.178 468.179C206.672 472.153 200.997 468.768 200.148 475.07C199.399 480.63 202.898 494.582 198.74 498.74C188.981 508.499 191.2 481.122 185.882 480.354C178.414 479.276 182.044 488.97 175.852 489.852C171.812 490.428 163.199 488.105 160.822 492.501C158.556 496.691 157.977 517.831 163.273 519.469C175.523 523.259 164.948 492.508 178.179 500.823C180.66 502.382 179.53 506.08 181.259 508.179C183.175 510.507 186.738 509.237 188.74 511.259C198.498 521.113 171.815 519.121 170.531 523.273C168.272 530.575 186.358 531.122 178.74 538.74C174.71 542.771 166.269 537.63 161.822 541.26C157.035 545.167 163.671 557.103 157.502 559.495C149.133 562.74 151.995 553.249 147.499 550.822C140.26 546.913 119.572 549.612 130.822 531.822C136.718 522.497 140.642 542.728 147.502 539.167C151.391 537.149 151.376 523.87 148.178 521.26C142.662 516.757 121.113 525.158 120.177 515.882C119.231 506.5 147.101 512.244 138.737 501.821C136.747 499.341 125.243 489.41 122.498 490.833C118.344 492.986 121.499 499.048 115.852 499.852C109.042 500.823 98.6631 497.495 92.5014 500.822C89.032 502.695 91.2058 508.033 87.4986 509.499C82.4448 511.496 69.402 511.808 70.1774 504.118C70.6829 499.106 75.2565 501.148 78.1794 498.741C80.6306 496.723 79.1155 492.528 81.8215 490.822C88.3366 486.713 99.5006 492.037 106.716 489.499C110.974 488.001 108.595 482.856 111.821 480.822C116.257 478.024 122.868 481.678 127.499 479.178C132.759 476.338 137.001 465.516 141.259 461.259C143.479 459.039 147.473 460.657 149.178 457.499C151.588 453.036 148.674 447.125 150.501 442.501C152.329 437.878 160.697 441.396 159.646 434.118C158.741 427.851 147.032 431.462 150.505 422.498C151.855 419.012 156.602 420.81 158.74 418.179C162.052 414.103 158.672 407.132 160.501 402.501C161.967 398.794 167.305 400.968 169.178 397.499C171.604 393.005 167.557 384.998 171.26 381.259C178.346 374.102 194.568 366.377 199.167 357.502C200.747 354.455 178.771 335.828 192.498 330.505C201.199 327.131 206.968 347.519 213.273 349.469C221.943 352.15 217.666 338.283 226.727 340.295C230.832 341.207 229.135 345.6 231.259 348.179C234.586 352.221 248.068 359.321 238.74 368.741C236.278 371.227 231.932 369.217 230.501 373.284C228.923 377.772 231.766 384.086 229.178 388.178C222.366 398.952 218.727 372.706 211.26 381.823C207.676 386.198 207.467 412.332 216.727 409.469C220.805 408.208 218.826 403.668 221.259 401.26C223.052 399.484 227.776 399.596 229.177 401.821C235.244 411.448 216.101 408.386 220.833 417.502C222.821 421.332 234.205 420.959 237.499 419.178C242.193 416.64 239.255 407.542 240.284 403.284C241.396 398.68 247.164 401.23 249.178 397.499C251.596 393.021 247.551 384.968 251.26 381.26C261.823 370.697 276.328 395.722 279.499 386.716C282.367 378.566 272.665 360.296 265 360.296C261.085 360.296 256.3 376.843 250.822 368.178C247.485 362.902 248.206 338.31 250.501 332.501C252.175 328.268 263.23 330.325 259.167 322.498C256.734 317.809 247.468 320.727 243.284 319.716C241.851 319.37 225.175 298.261 220.531 313.273C217.898 321.783 235.019 318.912 229.177 328.179C227.217 331.289 213.732 331.19 211.259 328.74C209.027 326.53 210.661 322.529 207.499 320.822C200.349 316.961 189.97 322.45 182.501 319.499C175.118 316.581 177.128 305.629 163.284 310.501C157.607 312.499 160.793 322.259 159.716 326.716C159.829 326.247 147.199 339.612 147.502 339.495C144.581 340.627 131.458 329.962 130.505 327.502C126.845 318.054 140.82 322.25 139.646 314.118C138.781 308.127 122.597 302.801 120.501 297.499C118.821 293.246 120.117 272.637 128.74 281.26C135.143 287.662 130.925 305.651 143.273 309.469C151.07 311.88 147.929 302.309 152.501 300.501C157.044 298.706 168.623 302.966 169.646 295.882C171.335 284.186 146.189 293.67 141.26 288.74C138.187 285.667 140.589 278.076 139.716 274.148C139.705 274.1 127.878 261.027 127.499 260.822C120.349 256.961 109.97 262.45 102.501 259.499C98.5507 257.937 101.096 252.042 96.7159 250.501C92.4777 249.011 84.6252 252.106 81.2598 248.74C75.2714 242.752 85.0693 226.818 78.1792 221.263C75.6791 219.248 53.5067 241.186 50.2951 226.727C46.978 211.793 75.935 213.729 79.1674 207.502C83.9485 198.291 45.9895 186.53 61.2598 171.26C63.0413 169.478 66.7321 170.008 69.0009 170.001C91.3282 169.927 70.6823 189.757 81.8208 198.737C89.1749 204.666 88.9892 191.322 93.2841 190.284C97.4683 189.273 106.734 192.191 109.167 187.502C110.307 185.307 109.762 182.047 107.498 180.822C103.021 178.399 94.9701 182.451 91.2598 178.74C87.057 174.537 93.065 165.249 88.1784 161.26C83.389 157.35 67.8334 164.356 70.2951 153.273C73.5056 138.819 95.6763 160.745 98.1794 158.737C100.348 156.997 99.4393 153.944 100.818 151.821C103.196 148.159 109.704 151.207 109.704 145C109.704 134.812 72.2311 145.451 80.8225 131.821C87.9432 120.524 117.931 135.286 119.705 143.273C121.642 151.997 106.395 148.953 110.833 157.502C112.83 161.35 123.252 160.717 126.716 159.499C132.802 157.357 128.683 147.103 130.501 142.501C132.738 136.844 148.308 132.183 149.716 125.852C150.871 120.656 146.626 101.772 153.273 100.295C167.701 97.0903 150.074 144.019 177.498 129.178C179.763 127.953 180.305 124.693 179.167 122.498C177.348 118.988 171.972 121.218 170.501 117.499C167.55 110.03 173.039 99.6514 169.178 92.5015C166.75 88.0046 157.26 90.8676 160.505 82.498C164.724 71.6155 171.811 93.8708 178.179 88.7368C184.003 84.0419 177.942 68.9725 180.501 62.5015C182.589 57.2247 193.331 61.4286 197.499 59.1783C200.814 57.3881 198.872 52.6757 201.821 50.8225M231.821 50.8226C240.016 45.6568 238.823 58.532 244.148 59.7159C253.977 61.9014 264.81 47.3292 268.74 51.2598C271.954 54.4731 247.184 81.218 262.498 89.1674C274.135 95.2083 267.48 60.0001 278.74 71.2599C290.283 82.802 266.385 92.1006 271.263 98.1794C273.259 100.666 285.463 102.017 278.74 108.74C270.831 116.649 266.828 91.4017 260.822 102.502C249.017 124.315 279.86 115.108 279.86 125C279.86 135.748 261.732 124.575 260.354 134.118C259.662 138.911 276.836 143.723 268.179 149.177C263.757 151.964 250.194 137.857 250.03 133.97C249.667 125.391 247.341 110.497 250.501 102.501C252.309 97.9291 261.88 101.07 259.469 93.2731C258.734 90.895 244.899 79.5883 242.498 80.8326C238.072 83.1263 241.636 89.8602 235 89.8602C231.863 89.8602 219.109 76.1005 220.505 72.4979C222.037 68.5441 227.959 71.0927 229.499 66.7159C230.907 62.7134 227.742 53.3934 231.821 50.8226M551.822 50.8217C556.794 47.6766 594.665 47.1843 598.74 51.2598C602.435 54.9545 600 69.0325 600 74C600 78.8363 602.65 96.3495 598.178 99.1783C593.206 102.323 555.335 102.816 551.26 98.7402C547.565 95.0455 550 80.9675 550 76C550 71.1636 547.35 53.6505 551.822 50.8217M61.2598 61.2598C45.7875 76.7321 73.2679 104.213 88.7402 88.7402C104.213 73.2679 76.7321 45.7875 61.2598 61.2598M321.821 60.8225C327.526 57.2278 333.524 65.8097 328.179 69.1775C322.474 72.7722 316.476 64.1904 321.821 60.8225M481.821 60.8225C487.526 57.2278 493.524 65.8097 488.179 69.1775C482.474 72.7722 476.476 64.1903 481.821 60.8225M561.26 61.2598C545.787 76.7321 573.268 104.213 588.74 88.7402C604.213 73.2679 576.732 45.7875 561.26 61.2598M291.822 70.8217C310.496 59.009 310.526 81.4191 298.179 89.1775C288.47 95.2786 287.117 73.7975 291.822 70.8217M501.821 70.8225C511.161 64.9529 512.025 83.6783 509.178 88.1783C504.93 94.895 487.829 86.356 481.822 91.2598C477.035 95.1671 483.671 107.103 477.502 109.495C467.175 113.5 467.614 86.8926 470.822 81.8217C474.287 76.3438 491.039 81.4955 496.716 79.4985C500.974 78.0006 498.592 72.8516 501.821 70.8225M401.821 80.8226C408.248 76.7712 415.157 105.363 422.498 109.167C431.616 113.893 428.552 94.7566 438.179 100.823C440.404 102.224 440.516 106.948 438.74 108.741C435.782 111.728 429.405 109.304 430.354 115.882C430.795 118.935 450.776 131.237 438.179 139.177C437.937 139.33 410.254 126.643 410.177 125.882C409.401 118.188 423.446 120.753 419.167 112.498C416.992 108.3 385.915 90.8484 401.821 80.8226M181.26 91.2598C177.949 94.5701 178.297 118.6 183.273 119.705C190.435 121.296 192.876 90.8555 199.178 102.502C209.696 121.937 190.41 140 174 140C169.472 140 152.455 137.469 150.505 142.498C144.785 157.249 178.161 143.833 179.646 154.118C180.659 161.138 173.241 157.984 170.822 161.821C168.237 165.92 171.078 172.225 169.499 176.716C166.536 185.136 156.721 181.97 160.284 196.716C161.087 200.039 166.318 201.163 168.74 198.74C172.943 194.537 166.935 185.249 171.822 181.26C176.205 177.682 183.564 182.088 188.179 179.178C191.748 176.927 188.881 171.455 194.148 170.284C198.076 169.411 205.667 171.813 208.74 168.74C213.242 164.239 208.956 150.122 210.284 144.148C211.503 138.666 218.593 141.732 219.705 136.727C221.572 128.32 212.451 132.258 210.501 126.716C207.868 119.23 212.411 109.87 209.499 102.501C207.258 96.8312 188.925 83.5944 181.26 91.2598M311.822 90.8217C326.272 81.6813 340 91.1307 340 105C340 108.38 341.546 117.048 338.178 119.178C323.728 128.319 310 118.869 310 105C310 101.62 308.454 92.9519 311.822 90.8217M291.821 100.823C301.523 94.7068 302.884 116.212 298.179 119.177C288.477 125.293 287.116 103.788 291.821 100.823M321.26 101.26C316.625 105.894 324.106 113.375 328.74 108.74C333.375 104.106 325.894 96.6252 321.26 101.26M351.821 100.823C357.526 97.2278 363.524 105.81 358.179 109.177C352.474 112.772 346.476 104.19 351.821 100.823M491.821 100.823C499.421 96.0316 498.647 106.128 501.821 108.741C512.834 117.809 508.699 112.784 501.259 121.821C499.528 123.923 500.659 127.614 498.179 129.178C493.347 132.225 476.987 131.578 480.505 122.498C482.037 118.544 487.959 121.093 489.499 116.716C490.907 112.713 487.742 103.393 491.821 100.823M461.821 120.823C467.526 117.228 473.524 125.81 468.179 129.177C462.474 132.772 456.476 124.19 461.821 120.823M581.26 121.26C571.839 130.68 604.461 133.02 608.74 128.74C618.161 119.32 585.539 116.98 581.26 121.26M191.821 140.823C197.526 137.228 203.524 145.81 198.179 149.177C192.474 152.772 186.476 144.19 191.821 140.823M281.821 140.823C287.526 137.228 293.524 145.81 288.179 149.177C282.474 152.772 276.476 144.19 281.821 140.823M401.821 140.823C407.526 137.228 413.524 145.81 408.179 149.177C402.474 152.772 396.476 144.19 401.821 140.823M361.26 151.26C351.106 161.413 368.586 178.894 378.74 168.74C388.894 158.586 371.413 141.106 361.26 151.26M501.26 151.26C496.625 155.894 504.106 163.375 508.74 158.74C513.375 154.106 505.894 146.625 501.26 151.26M561.821 150.823C567.526 147.228 573.524 155.81 568.179 159.177C562.474 162.772 556.476 154.19 561.821 150.823M101.26 161.26C96.7913 165.728 114.272 183.209 118.74 178.74C123.209 174.272 105.728 156.791 101.26 161.26M131.26 161.26C122.985 169.534 144.487 172.993 148.74 168.74C157.015 160.466 135.513 157.007 131.26 161.26M181.821 160.823C187.526 157.228 193.524 165.81 188.179 169.177C182.474 172.772 176.476 164.19 181.821 160.823M271.821 160.823C281.53 154.721 282.883 176.202 278.178 179.178C259.504 190.991 259.474 168.581 271.821 160.823M341.26 161.26C337.007 165.513 340.466 187.015 348.74 178.74C352.993 174.487 349.534 152.985 341.26 161.26M321.26 171.26C316.625 175.894 324.106 183.375 328.74 178.74C333.375 174.106 325.894 166.625 321.26 171.26M491.259 171.26C489.816 172.689 480.304 183.049 480.148 184.148C479.331 189.884 483.063 204.753 478.178 208.74C473.795 212.318 466.436 207.912 461.821 210.822C459.336 212.389 460.483 216.08 458.741 218.178C457.476 219.703 455.092 220.032 453.273 219.469C448.975 218.14 451.375 212.838 448.179 210.822C445.142 208.907 432.021 208.588 430.505 212.498C427.647 219.868 434.705 218.398 438.179 221.259C445.06 226.924 443.59 232.887 456.716 229.716C461.011 228.678 460.825 215.334 468.179 221.263C473.082 225.216 467.064 234.544 471.26 238.74C474.679 242.16 488.458 230.18 489.495 227.502C493.156 218.054 479.18 222.25 480.354 214.118C481.115 208.85 486.956 211.607 489.182 208.179C490.874 205.574 489.526 201.69 493.273 200.531C503.479 197.375 498.121 229.256 508.741 218.74C511.513 215.996 521.675 205.794 519.177 201.821C516.85 198.117 510.296 201.237 510.296 195C510.296 192.122 527.531 184.393 517.502 180.505C509.512 177.408 507.119 194.368 493.284 189.499C482.17 185.587 499.235 178.843 499.705 176.727C500.774 171.914 495.393 167.166 491.259 171.26M361.26 181.26C356.625 185.894 364.106 193.375 368.74 188.74C373.375 184.106 365.894 176.625 361.26 181.26M391.259 181.26C390.195 182.313 380.695 192.007 380.505 192.498C378.539 197.572 384.4 203.039 388.741 198.74C389.805 197.687 399.305 187.993 399.495 187.502C401.461 182.428 395.6 176.961 391.259 181.26M441.26 181.26C436.625 185.894 444.106 193.375 448.74 188.74C453.375 184.106 445.894 176.625 441.26 181.26M121.259 191.26C118.772 193.722 120.783 198.068 116.716 199.499C110.297 201.757 96.2106 196.309 91.2598 201.26C80.5026 212.017 98.9375 219.21 99.646 224.118C100.699 231.412 92.3017 227.86 90.5049 232.498C88.8618 236.739 102.704 250.599 106.727 249.705C109.989 248.98 110.836 244.46 109.177 241.821C107 238.355 101.118 241.172 100.354 235.882C99.1909 227.824 129.704 210.83 129.704 225C129.704 231.437 122.268 228.032 120.501 232.501C112.529 252.674 136.471 260 151 260C155.249 260 165.746 258.112 168.737 261.821C178.613 274.072 142.394 264.807 150.823 278.179C153.9 283.062 163.908 277.79 168.179 281.26C178.237 289.432 174.654 298.425 180.822 308.178C182.223 310.394 186.953 310.528 188.74 308.74C191.625 305.855 191.69 283.043 188.178 280.822C183.618 277.937 170.296 283.667 170.296 275C170.296 268.261 179.203 272.028 179.823 265.882C180.64 257.777 167.936 261.664 170.531 253.273C172.244 247.734 186.157 242.986 189.177 238.179C193.314 231.597 175.719 221.951 171.821 218.741C168.952 216.38 171.1 211.266 166.727 210.295C155.727 207.852 170.001 229.144 170 237C170 241.481 171.283 250.68 164.118 249.646C158.85 248.885 161.607 243.044 158.179 240.818C145.934 232.867 153.026 226.985 149.716 213.284C148.604 208.68 142.836 211.23 140.822 207.499C138.412 203.036 141.327 197.125 139.499 192.501C137.974 188.647 123.913 188.632 121.259 191.26M121.821 200.823C126.639 197.787 144.143 215.419 138.179 219.177C133.361 222.213 115.857 204.581 121.821 200.823M101.821 210.823C107.526 207.228 113.524 215.81 108.179 219.177C102.474 222.772 96.4759 214.19 101.821 210.823M361.26 221.26C356.625 225.894 364.106 233.375 368.74 228.74C373.375 224.106 365.894 216.625 361.26 221.26M131.821 230.823C136.639 227.787 154.143 245.419 148.179 249.177C143.361 252.213 125.857 234.581 131.821 230.823M221.26 231.26C213.14 239.38 233.476 239.202 229.167 247.502C225.911 253.775 214.297 246.327 210.822 251.822C208.234 255.913 211.077 262.228 209.499 266.716C208.001 270.974 202.856 268.595 200.822 271.821C198.529 275.456 198.174 297.818 202.498 299.495C211.686 303.058 207.806 290.296 215 290.296C220.211 290.296 221.566 305.915 228.74 298.74C237.328 290.153 214.308 290.448 221.263 281.821C224.445 277.875 241.245 279.26 245.852 280.284C262.426 283.97 237.365 304.846 241.26 308.74C248.571 316.052 249.676 299.458 255.882 300.354C261.697 301.193 258.153 309.221 264.118 309.823C271.629 310.58 267.849 303.334 272.501 300.822C282.346 295.507 292.377 298.964 299.178 288.179C301.301 284.813 301.493 271.354 296.727 270.295C288.161 268.392 283.246 287.453 276.727 289.469C269.468 291.714 262.798 272.596 257.499 270.501C253.081 268.755 242.399 272.764 240.531 266.727C237.786 257.854 253.244 262.174 249.495 252.498C248.148 249.021 243.409 250.791 241.259 248.179C238.449 244.767 227.175 225.344 221.26 231.26M311.821 240.823C317.526 237.228 323.524 245.81 318.179 249.177C312.474 252.772 306.476 244.19 311.821 240.823M401.26 241.26C396.625 245.894 404.106 253.375 408.74 248.74C413.375 244.106 405.894 236.625 401.26 241.26M581.821 240.823C586.316 237.997 600.6 252.698 599.705 256.727C599.303 258.535 580.418 277.766 578.179 279.178C573.714 281.994 552.833 279.687 561.26 271.26C565.443 267.077 577.273 273.825 579.469 266.727C581.793 259.216 573.209 261.977 570.823 258.179C568.641 254.708 579.07 242.551 581.821 240.823M191.26 251.26C186.625 255.894 194.106 263.375 198.74 258.74C203.375 254.106 195.894 246.625 191.26 251.26M581.26 251.26C576.625 255.894 584.106 263.375 588.74 258.74C593.375 254.106 585.894 246.625 581.26 251.26M471.259 261.26C470.159 262.349 460.722 271.944 460.501 272.501C458.768 276.887 462.571 286.536 457.502 289.167C449.513 293.314 451.738 281.408 446.727 280.295C438.32 278.428 442.258 287.549 436.716 289.499C432.459 290.996 424.654 287.898 421.259 291.26C420.159 292.349 410.722 301.944 410.501 302.501C408.731 306.981 412.369 315.359 408.179 318.737C400.58 324.863 397.189 301.717 390.823 311.821C385.976 319.513 399.669 319.716 399.97 327.011C400.681 344.184 394.207 371.585 400.501 387.499C402.046 391.404 415.122 391.106 418.179 389.178C420.931 387.442 431.361 375.295 429.177 371.821C426.763 367.979 419.34 371.142 420.354 364.118C421.831 353.888 439.707 366.641 439.989 352.989C440.417 332.226 429.567 348.479 421.263 338.179C419.751 336.304 419.943 332.818 421.822 331.259C424.124 329.348 428.214 330.749 429.499 327.499C432.304 320.4 426.265 307.921 431.26 301.823C437.28 294.473 449.273 319.334 454.118 319.823C462.069 320.624 466.893 302.504 473.273 300.531C481.226 298.072 478.035 308.981 484.148 309.852C487.442 310.322 497.109 311.45 499.178 308.178C509.343 292.11 493.077 275.103 482.498 269.182C479.505 267.507 478.202 254.384 471.259 261.26M211.821 270.823C217.526 267.228 223.524 275.81 218.179 279.177C212.474 282.772 206.476 274.19 211.821 270.823M511.26 271.26C507.019 275.501 510.41 296.99 518.741 288.74C520.495 287.004 529.86 276.652 529.86 275C529.86 268.541 514.893 267.627 511.26 271.26M61.2598 281.26C56.6252 285.894 64.1056 293.375 68.7402 288.74C73.3748 284.106 65.8944 276.625 61.2598 281.26M101.821 290.823C107.526 287.228 113.524 295.81 108.179 299.177C102.474 302.772 96.4759 294.19 101.821 290.823M351.821 290.823C358.555 286.579 379.527 312 368.178 319.178C363.351 322.232 346.988 321.575 350.505 312.498C352.241 308.016 359.704 311.448 359.704 305C359.704 301.099 343.156 296.282 351.821 290.823M441.821 290.823C447.526 287.228 453.524 295.81 448.179 299.177C442.474 302.772 436.476 294.19 441.821 290.823M481.821 290.823C487.526 287.228 493.524 295.81 488.179 299.177C482.474 302.772 476.476 294.19 481.821 290.823M91.8216 310.822C106.272 301.681 120 311.131 120 325C120 328.38 121.546 337.048 118.178 339.178C103.728 348.319 90 338.869 90 325C90 321.62 88.454 312.952 91.8216 310.822M311.822 310.822C326.272 301.681 340 311.131 340 325C340 328.38 341.546 337.048 338.178 339.178C323.728 348.319 310 338.869 310 325C310 321.62 308.454 312.952 311.822 310.822M531.822 310.822C546.272 301.681 560 311.131 560 325C560 328.38 561.546 337.048 558.178 339.178C543.728 348.319 530 338.869 530 325C530 321.62 528.454 312.952 531.822 310.822M591.821 310.823C596.651 307.787 601.418 312.538 599.495 317.502C596.476 325.295 587.17 321.844 590.284 335.852C591.633 341.92 602.881 338.769 599.495 347.502C596.816 354.412 581.651 345.136 580.354 354.118C579.6 359.342 606.782 373.738 598.178 379.178C577.72 392.114 584.24 364.33 577.502 360.833C570.016 356.947 571.014 369.673 563.97 369.97C558.544 370.2 546.506 372.133 541.821 369.178C538.595 367.144 540.974 361.999 536.716 360.501C533.382 359.329 525.665 359.111 522.501 360.822C503.789 370.94 545.89 391.591 538.74 398.74C531.623 405.857 530.229 390.982 525.882 390.354C518.387 389.272 520.695 404.771 511.821 399.177C508.334 396.979 510 387.515 510 384C510 371.023 512.004 365.812 501.821 359.182C499.741 357.828 499.585 353.785 500.823 351.821C506.331 343.078 510.981 359.193 514.118 359.646C521.523 360.715 517.893 351.587 523.284 350.284C528.933 348.919 542.075 348.358 547.499 350.501C551.736 352.176 549.671 363.226 557.502 359.167C560.677 357.522 559.054 353.464 561.259 351.259C565.516 347.001 576.338 342.759 579.178 337.499C584.487 327.667 581.033 317.602 591.821 310.823M101.26 321.26C96.6252 325.894 104.106 333.375 108.74 328.74C113.375 324.106 105.894 316.625 101.26 321.26M141.26 321.26C136.625 325.894 144.106 333.375 148.74 328.74C153.375 324.106 145.894 316.625 141.26 321.26M321.26 321.26C316.625 325.894 324.106 333.375 328.74 328.74C333.375 324.106 325.894 316.625 321.26 321.26M411.821 320.823C417.526 317.228 423.524 325.81 418.179 329.177C412.474 332.772 406.476 324.19 411.821 320.823M541.26 321.26C536.625 325.894 544.106 333.375 548.74 328.74C553.375 324.106 545.894 316.625 541.26 321.26M51.8208 330.823C57.5257 327.228 63.5241 335.81 58.1792 339.177C52.4743 342.772 46.4759 334.19 51.8208 330.823M361.821 330.823C367.526 327.228 373.524 335.81 368.179 339.177C362.474 342.772 356.476 334.19 361.821 330.823M461.26 331.26C456.625 335.894 464.106 343.375 468.74 338.74C473.375 334.106 465.894 326.625 461.26 331.26M511.821 330.823C517.526 327.228 523.524 335.81 518.179 339.177C512.474 342.772 506.476 334.19 511.821 330.823M171.821 340.823C181.523 334.707 182.884 356.212 178.179 359.177C168.477 365.293 167.116 343.788 171.821 340.823M261.26 341.26C256.835 345.685 284.315 373.165 288.74 368.74C293.165 364.315 265.685 336.835 261.26 341.26M91.8217 350.822C104.118 343.047 134.982 351.073 139.499 362.501C142.255 369.477 138.662 378.557 140.284 385.852C141.634 391.922 152.879 388.767 149.495 397.502C148.239 400.744 144.114 399.37 141.821 401.259C139.198 403.418 140.977 408.124 137.499 409.499C130.03 412.45 119.651 406.961 112.501 410.822C109.343 412.527 110.961 416.521 108.741 418.741C106.097 421.385 101.074 419.13 100.354 424.118C99.2732 431.606 111.205 430.749 115.852 429.716C117.782 429.287 133.96 408.499 139.499 422.501C143.079 431.552 134.778 446.622 127.499 449.499C123.081 451.245 112.399 447.236 110.531 453.273C108.737 459.073 127.013 463.611 118.179 469.177C110.226 474.189 111.376 462.915 107.499 460.822C103.021 458.404 94.9683 462.449 91.2598 458.74C84.6773 452.158 91.0953 424.299 89.8521 415.07C88.8969 407.978 78.3955 411.825 80.2951 403.273C81.5402 397.668 91.7776 400.622 95.8521 399.716C101.119 398.545 98.2516 393.073 101.821 390.822C106.29 388.004 116.287 393.05 119.167 387.502C125.174 375.93 100.982 383.855 100.177 375.882C98.9664 363.873 118.246 375.575 119.646 365.882C121.085 355.915 98.8759 361.067 93.2841 359.716C89.7922 358.872 88.6638 352.818 91.8217 350.822M411.821 350.823C417.526 347.228 423.524 355.81 418.179 359.177C412.474 362.772 406.476 354.19 411.821 350.823M41.2598 361.26C36.6252 365.894 44.1056 373.375 48.7402 368.74C53.3748 364.106 45.8944 356.625 41.2598 361.26M151.821 360.823C161.523 354.707 162.884 376.212 158.179 379.177C148.477 385.293 147.116 363.788 151.821 360.823M211.259 361.26C206.978 365.499 202.767 376.334 197.499 379.178C193.021 381.596 184.968 377.551 181.26 381.26C177.231 385.289 182.359 393.725 178.74 398.179C176.602 400.81 171.855 399.012 170.505 402.498C166.264 413.446 182.844 408.308 187.499 410.822C190.814 412.612 188.872 417.324 191.821 419.177C193.577 420.281 197.215 420.266 198.74 418.74C204.212 413.269 184.218 404.733 190.822 392.501C192.527 389.343 196.521 390.961 198.741 388.741C202.999 384.484 207.241 373.662 212.501 370.822C216.979 368.404 225.032 372.449 228.74 368.74C237.018 360.463 215.529 357.032 211.259 361.26M331.26 361.26C321.477 371.043 348.202 369.177 349.469 373.273C351.728 380.575 333.642 381.122 341.26 388.74C348.877 396.357 349.426 378.273 356.727 380.531C360.798 381.79 358.84 386.323 361.259 388.741C363.677 391.159 368.21 389.202 369.469 393.273C370.321 396.028 351.399 416.154 348.179 418.737C340.521 424.882 341.19 408.537 333.273 410.295C324.087 412.335 318.87 442.475 312.498 439.167C304.24 434.881 315.529 415.455 308.179 410.823C300.5 405.982 296.263 427.553 290.822 417.498C283.458 403.892 303.886 399.293 299.177 391.821C293.732 383.179 280.342 408.223 276.716 409.499C272.713 410.907 263.393 407.742 260.823 411.821C254.982 421.087 272.1 418.217 269.469 426.727C268.094 431.174 262.065 428.545 260.501 432.501C256.447 442.759 264.455 457.725 259.178 467.499C257.471 470.661 253.47 469.027 251.26 471.259C249.484 473.052 249.596 477.776 251.821 479.177C261.448 485.243 258.384 466.107 267.502 470.833C267.367 470.763 279.625 483.645 279.499 483.284C281.104 487.849 277.093 499.114 284.118 499.823C291.984 500.616 288.508 490.381 297.011 490.03C309.162 489.528 314.85 507.584 328.179 499.178C331.038 497.375 347.406 478.837 334.118 480.177C326.175 480.978 328.208 492.842 314.148 489.716C308.148 488.382 307.513 464.777 311.822 461.26C328.468 447.672 349.201 473.866 358.179 481.259C361.373 483.888 358.774 489.284 364.118 489.823C366.623 490.075 376.584 480.919 378.74 478.741C381.145 476.313 381.161 463.681 378.74 461.26C370.153 452.672 370.448 475.692 361.821 468.737C349.821 459.063 377.112 442.796 366.716 440.284C363.266 439.451 352.108 438.441 350.501 442.501C348.655 447.17 353.134 459.704 345 459.704C337.335 459.704 327.633 441.434 330.501 433.284C333.388 425.083 352.137 432.988 358.179 429.178C362.016 426.758 358.862 419.341 365.882 420.354C370.229 420.982 371.623 435.857 378.74 428.74C383.691 423.789 378.243 409.703 380.501 403.284C381.932 399.217 386.278 401.228 388.74 398.741C390.258 397.208 390.288 393.582 389.177 391.821C385.634 386.199 370.296 394.813 370.296 385C370.296 374.607 387.882 384.933 389.705 376.727C391.51 368.599 382.238 369.903 377.011 370.011C368.945 370.177 370.671 381.756 363.273 379.469C356.193 377.28 345.173 347.346 331.26 361.26M131.26 391.26C126.625 395.894 134.106 403.375 138.74 398.74C143.375 394.106 135.894 386.625 131.26 391.26M261.26 391.26C256.625 395.894 264.106 403.375 268.74 398.74C273.375 394.106 265.894 386.625 261.26 391.26M101.26 401.26C96.6252 405.894 104.106 413.375 108.74 408.74C113.375 404.106 105.894 396.625 101.26 401.26M441.26 401.26C436.625 405.894 444.106 413.375 448.74 408.74C453.375 404.106 445.894 396.625 441.26 401.26M171.26 421.26C166.625 425.894 174.106 433.375 178.74 428.74C183.375 424.106 175.894 416.625 171.26 421.26M281.821 420.823C287.244 417.404 322.078 450.386 308.178 459.178C306.24 460.405 303.175 459.992 300.999 459.999C276.969 460.078 302.562 449.038 299.167 442.498C293.396 431.38 279.819 448.225 280.003 428.003C280.024 425.77 279.604 422.22 281.821 420.823M121.26 431.26C116.625 435.894 124.106 443.375 128.74 438.74C133.375 434.106 125.894 426.625 121.26 431.26M101.26 441.26C96.6252 445.894 104.106 453.375 108.74 448.74C113.375 444.106 105.894 436.625 101.26 441.26M161.26 441.26C157.102 445.418 160.601 459.37 159.852 464.93C159.971 464.046 137.036 494.078 156.727 489.705C156.558 489.742 169.744 476.599 169.716 476.716C170.75 472.437 167.627 462.278 173.273 460.531C180.575 458.272 181.122 476.358 188.74 468.74C204.003 453.477 177.228 451.73 172.501 449.178C169.52 447.569 168.184 434.336 161.26 441.26M271.821 460.823C277.526 457.228 283.524 465.81 278.179 469.177C272.474 472.772 266.476 464.19 271.821 460.823M501.821 460.823C507.526 457.228 513.524 465.81 508.179 469.177C502.474 472.772 496.476 464.19 501.821 460.823M551.822 470.822C563.554 463.403 584.317 485.31 578.179 489.177C577.357 489.696 543.874 475.847 551.822 470.822M131.26 481.26C126.625 485.894 134.106 493.375 138.74 488.74C143.375 484.106 135.894 476.625 131.26 481.26M221.821 490.823C231.228 484.911 231.354 502.807 229.499 507.499C227.232 513.229 216 507.838 211.823 511.26C207.297 514.966 222.803 530.09 225.882 529.646C232.363 528.71 228.024 518.362 236.727 520.295C241.1 521.266 238.952 526.38 241.821 528.741C245.233 531.551 264.656 542.825 258.74 548.74C251.684 555.796 241.075 531.104 235.882 530.354C228.163 529.24 226.929 545.205 212.501 539.499C207.587 537.555 210.914 527.308 209.499 523.284C207.895 518.725 201.358 521.512 200.295 516.727C199.597 513.586 218.383 492.983 221.821 490.823M521.821 490.823C532.526 484.074 528.824 503.799 530.822 507.499C532.612 510.814 537.324 508.872 539.177 511.821C540.401 513.767 540.276 517.852 538.178 519.178C533.047 522.423 509.342 522.407 510.177 514.118C510.757 508.37 517.796 511.556 519.499 506.716C520.907 502.713 517.742 493.393 521.821 490.823M541.821 490.823C546.639 487.787 564.143 505.419 558.179 509.177C553.361 512.213 535.857 494.581 541.821 490.823M351.26 501.26C349.623 502.897 349.636 507.102 351.26 508.741C353.722 511.228 358.068 509.217 359.499 513.284C360.732 516.791 357.541 559.939 368.74 548.74C372.303 545.177 371.878 516.103 369.178 511.821C367.614 509.341 363.923 510.472 361.821 508.741C359.35 506.707 357.964 494.555 351.26 501.26M571.821 500.823C577.526 497.228 583.524 505.81 578.179 509.177C572.474 512.772 566.476 504.19 571.821 500.823M251.821 510.823C257.526 507.228 263.524 515.81 258.179 519.177C252.474 522.772 246.476 514.19 251.821 510.823M291.821 520.823C301.16 514.936 302.013 533.683 299.178 538.179C296.845 541.878 290.296 538.767 290.296 545C290.296 550.862 295.906 548.396 298.74 551.259C300.519 553.055 300.401 557.773 298.178 559.178C293.748 561.98 287.13 558.323 282.501 560.822C277.849 563.334 281.629 570.58 274.118 569.823C268.003 569.206 268.067 546.176 270.822 541.822C274.159 536.546 284.752 543.064 288.74 538.178C292.224 533.911 286.932 523.904 291.821 520.823M311.822 530.822C326.272 521.681 340 531.131 340 545C340 548.38 341.546 557.048 338.178 559.178C323.728 568.319 310 558.869 310 545C310 541.62 308.454 532.952 311.822 530.822M411.821 530.823C421.089 524.983 418.217 542.1 426.727 539.469C434.832 536.963 430.591 529.464 443.97 530.03C452.372 530.385 451.665 540 464 540C478.221 540 491.564 520.344 508.179 530.822C510.885 532.528 509.369 536.723 511.821 538.741C514.4 540.865 518.793 539.168 519.705 543.273C522.249 554.73 501.389 540 494 540C489.432 540 478.023 538.62 480.531 546.727C482.553 553.264 493.734 548.019 498.179 550.822C500.889 552.531 499.353 556.735 501.821 558.74C505.897 562.052 512.868 558.672 517.499 560.501C520.986 561.88 519.18 566.594 521.821 568.74C525.318 571.582 533.766 570 538 570C543.573 570 566.039 566.842 569.177 571.821C574.599 580.422 560.296 578.54 560.296 585C560.296 590.212 575.915 591.566 568.74 598.74C558.636 608.845 547.167 589.827 538.003 590.011C528.964 590.192 531.481 601.528 523.273 599.705C519.495 598.866 520.667 595.151 519.182 592.498C516.76 588.17 510.14 591.57 510.14 585C510.14 579.053 524.684 579.198 518.737 571.821C515.359 567.631 506.981 571.269 502.501 569.499C498.794 568.033 500.968 562.695 497.499 560.822C492.868 558.322 486.257 561.976 481.821 559.178C478.625 557.162 481.025 551.86 476.727 550.531C468.934 548.121 467.336 582.828 453.273 579.705C448.7 578.689 451.156 572.863 447.502 570.818C433.393 562.921 425.45 548.056 411.821 539.182C409.454 537.641 409.401 532.348 411.821 530.823M531.822 530.822C546.272 521.681 560 531.131 560 545C560 548.38 561.546 557.048 558.178 559.178C543.728 568.319 530 558.869 530 545C530 541.62 528.454 532.952 531.822 530.822M571.821 530.823C576.639 527.787 594.143 545.419 588.179 549.177C583.361 552.213 565.857 534.581 571.821 530.823M41.2598 541.26C37.0347 545.485 40 563.215 40 569C40 578.271 35.8692 600.349 40.8217 608.178C43.0278 611.666 52.478 610 56 610C65.7975 610 101.95 615.531 108.74 608.74C112.965 604.515 110 586.785 110 581C110 571.729 114.131 549.651 109.178 541.822C106.972 538.334 97.522 540 94 540C84.2025 540 48.0501 534.469 41.2598 541.26M321.26 541.26C316.625 545.894 324.106 553.375 328.74 548.74C333.375 544.106 325.894 536.625 321.26 541.26M541.26 541.26C536.625 545.894 544.106 553.375 548.74 548.74C553.375 544.106 545.894 536.625 541.26 541.26M51.8217 550.822C56.7937 547.677 94.6647 547.184 98.7402 551.26C102.435 554.955 100 569.032 100 574C100 578.836 102.65 596.35 98.1784 599.178C93.2063 602.323 55.3353 602.816 51.2598 598.74C47.565 595.045 50 580.968 50 576C50 571.164 47.3496 553.65 51.8217 550.822M391.821 550.823C401.523 544.707 402.884 566.212 398.179 569.177C388.477 575.293 387.116 553.788 391.821 550.823M441.26 551.26C436.791 555.728 454.272 573.209 458.74 568.74C468.894 558.587 451.413 541.106 441.26 551.26M61.2598 561.26C45.7875 576.732 73.2679 604.213 88.7402 588.74C104.213 573.268 76.7321 545.787 61.2598 561.26M151.821 570.823C157.526 567.228 163.524 575.81 158.179 579.177C152.474 582.772 146.476 574.19 151.821 570.823M201.821 570.823C206.651 567.787 211.418 572.538 209.495 577.502C209.71 576.948 198.031 589.271 198.179 589.177C193.349 592.213 188.582 587.462 190.505 582.498C190.29 583.052 201.969 570.729 201.821 570.823M251.821 570.823C257.526 567.228 263.524 575.81 258.179 579.177C252.474 582.772 246.476 574.19 251.821 570.823M481.821 570.823C487.526 567.228 493.524 575.81 488.179 579.177C482.474 582.772 476.476 574.19 481.821 570.823M521.26 581.26C516.625 585.894 524.106 593.375 528.74 588.74C533.375 584.106 525.894 576.625 521.26 581.26M321.821 590.823C327.526 587.228 333.524 595.81 328.179 599.177C322.474 602.772 316.476 594.19 321.821 590.823M421.259 591.26C418.772 593.722 420.783 598.068 416.716 599.499C409.49 602.041 385.056 595.105 380.823 601.821C374.096 612.491 412.81 612.564 418.179 609.178C418.273 609.119 429.813 596.24 429.705 596.727C430.774 591.914 425.393 587.166 421.259 591.26M171.26 601.26C166.625 605.894 174.106 613.375 178.74 608.74C183.375 604.106 175.894 596.625 171.26 601.26M241.26 601.26C236.625 605.894 244.106 613.375 248.74 608.74C253.375 604.106 245.894 596.625 241.26 601.26z"/>
</svg>
